<svg xmlns="http://www.w3.org/2000/svg" width="111.567" height="126.233" viewBox="0 0 111.567 126.233">
  <g id="Grupo_12029" data-name="Grupo 12029" transform="translate(-330 -8901.999)">
    <g id="Grupo_11169" data-name="Grupo 11169" transform="translate(318.532 9057.465)">
      <g id="Grupo_11161" data-name="Grupo 11161" transform="translate(11.468 -155.465)">
        <path id="Trazado_10461" data-name="Trazado 10461" d="M119.493-86.469,21.958-30.158a6.789,6.789,0,0,1-10.116-6.835l7.747-54.4a6.771,6.771,0,0,0,0-1.914l-7.747-54.4a6.789,6.789,0,0,1,10.116-6.835l97.535,56.311A6.79,6.79,0,0,1,119.493-86.469Z" transform="translate(-11.321 155.465)" fill="#009eff"/>
        <path id="Trazado_10462" data-name="Trazado 10462" d="M19.589-112.043l-7.747,54.4a6.789,6.789,0,0,0,10.116,6.835l97.535-56.311a6.725,6.725,0,0,0,3.395-5.88H19.657A6.672,6.672,0,0,1,19.589-112.043Z" transform="translate(-11.321 176.116)" fill="#008fff"/>
        <path id="Trazado_10463" data-name="Trazado 10463" d="M29.133-110.021a8.832,8.832,0,0,1-8.832,8.833,8.833,8.833,0,0,1-8.833-8.833,8.833,8.833,0,0,1,8.833-8.833A8.832,8.832,0,0,1,29.133-110.021Z" transform="translate(-11.468 173.27)" fill="#feb64f"/>
      </g>
      <path id="Trazado_12639" data-name="Trazado 12639" d="M9.578.313a7.042,7.042,0,0,1-6.07-2.922Q1.391-5.531,1.391-11.3q0-5.781,2.109-8.687a7.05,7.05,0,0,1,6.078-2.906,7.035,7.035,0,0,1,6.063,2.906Q17.75-17.078,17.75-11.3q0,5.766-2.117,8.688A7.026,7.026,0,0,1,9.578.313Zm0-4.062A2.968,2.968,0,0,0,12.289-5.6a12.891,12.891,0,0,0,.961-5.7,12.8,12.8,0,0,0-.969-5.7,2.974,2.974,0,0,0-2.7-1.852q-3.688,0-3.687,7.547T9.578-3.75ZM28.7.313a9.034,9.034,0,0,1-5.9-1.891,6.212,6.212,0,0,1-2.32-5.078,6.328,6.328,0,0,1,.945-3.461,6.479,6.479,0,0,1,2.617-2.336,5.719,5.719,0,0,1-1.867-1.922,4.963,4.963,0,0,1-.68-2.562,5.3,5.3,0,0,1,2.016-4.3A7.929,7.929,0,0,1,28.7-22.891a7.8,7.8,0,0,1,5.117,1.648,5.3,5.3,0,0,1,2.008,4.3,5.057,5.057,0,0,1-.656,2.555,5.766,5.766,0,0,1-1.812,1.93,6.446,6.446,0,0,1,2.594,2.336,6.368,6.368,0,0,1,.938,3.461,6.487,6.487,0,0,1-1.078,3.711,6.786,6.786,0,0,1-2.93,2.43A10.132,10.132,0,0,1,28.7.313Zm0-14.078a3,3,0,0,0,2.141-.844,2.732,2.732,0,0,0,.891-2.062,2.666,2.666,0,0,0-.891-2.031,3.033,3.033,0,0,0-2.141-.828,3.045,3.045,0,0,0-2.164.828,2.677,2.677,0,0,0-.883,2.031,2.737,2.737,0,0,0,.883,2.07A3.029,3.029,0,0,0,28.7-13.766Zm0,10.047a3.773,3.773,0,0,0,2.641-.953,3.3,3.3,0,0,0,1.047-2.562,3.2,3.2,0,0,0-1.055-2.508,3.8,3.8,0,0,0-2.633-.945,3.842,3.842,0,0,0-2.664.945,3.2,3.2,0,0,0-1.055,2.508,3.283,3.283,0,0,0,1.055,2.563A3.823,3.823,0,0,0,28.7-3.719Z" transform="translate(36.42 -81.969)" fill="#fff"/>
    </g>
  </g>
</svg>
