<svg xmlns="http://www.w3.org/2000/svg" width="111.567" height="126.233" viewBox="0 0 111.567 126.233">
  <g id="Grupo_12031" data-name="Grupo 12031" transform="translate(-330 -9369.999)">
    <g id="Grupo_11171" data-name="Grupo 11171" transform="translate(318.532 9525.465)">
      <g id="Grupo_11161" data-name="Grupo 11161" transform="translate(11.468 -155.465)">
        <path id="Trazado_10461" data-name="Trazado 10461" d="M119.493-86.469,21.958-30.158a6.789,6.789,0,0,1-10.116-6.835l7.747-54.4a6.771,6.771,0,0,0,0-1.914l-7.747-54.4a6.789,6.789,0,0,1,10.116-6.835l97.535,56.311A6.79,6.79,0,0,1,119.493-86.469Z" transform="translate(-11.321 155.465)" fill="#009eff"/>
        <path id="Trazado_10462" data-name="Trazado 10462" d="M19.589-112.043l-7.747,54.4a6.789,6.789,0,0,0,10.116,6.835l97.535-56.311a6.725,6.725,0,0,0,3.395-5.88H19.657A6.672,6.672,0,0,1,19.589-112.043Z" transform="translate(-11.321 176.116)" fill="#008fff"/>
        <path id="Trazado_10463" data-name="Trazado 10463" d="M29.133-110.021a8.832,8.832,0,0,1-8.832,8.833,8.833,8.833,0,0,1-8.833-8.833,8.833,8.833,0,0,1,8.833-8.833A8.832,8.832,0,0,1,29.133-110.021Z" transform="translate(-11.468 173.27)" fill="#feb64f"/>
      </g>
      <path id="Trazado_12641" data-name="Trazado 12641" d="M8.938-22.578h4.281V0H8.734V-17.953L3.547-13.125V-17.75ZM28.688.313a7.042,7.042,0,0,1-6.07-2.922Q20.5-5.531,20.5-11.3q0-5.781,2.109-8.687a7.05,7.05,0,0,1,6.078-2.906,7.035,7.035,0,0,1,6.063,2.906q2.109,2.906,2.109,8.688,0,5.766-2.117,8.688A7.026,7.026,0,0,1,28.688.313Zm0-4.062A2.968,2.968,0,0,0,31.4-5.6a12.891,12.891,0,0,0,.961-5.7,12.8,12.8,0,0,0-.969-5.7,2.974,2.974,0,0,0-2.7-1.852Q25-18.844,25-11.3T28.688-3.75Z" transform="translate(36.42 -81.969)" fill="#fff"/>
    </g>
  </g>
</svg>
