<svg xmlns="http://www.w3.org/2000/svg" width="111.567" height="126.232" viewBox="0 0 111.567 126.232">
  <g id="Grupo_12025" data-name="Grupo 12025" transform="translate(-330 -7973)">
    <g id="Grupo_11165" data-name="Grupo 11165" transform="translate(318.532 8128.465)">
      <g id="Grupo_11161" data-name="Grupo 11161" transform="translate(11.468 -155.465)">
        <path id="Trazado_10461" data-name="Trazado 10461" d="M119.493-86.469,21.958-30.158a6.789,6.789,0,0,1-10.116-6.835l7.747-54.4a6.771,6.771,0,0,0,0-1.914l-7.747-54.4a6.789,6.789,0,0,1,10.116-6.835l97.535,56.311A6.79,6.79,0,0,1,119.493-86.469Z" transform="translate(-11.321 155.465)" fill="#009eff"/>
        <path id="Trazado_10462" data-name="Trazado 10462" d="M19.589-112.043l-7.747,54.4a6.789,6.789,0,0,0,10.116,6.835l97.535-56.311a6.725,6.725,0,0,0,3.395-5.88H19.657A6.672,6.672,0,0,1,19.589-112.043Z" transform="translate(-11.321 176.116)" fill="#008fff"/>
        <path id="Trazado_10463" data-name="Trazado 10463" d="M29.133-110.021a8.832,8.832,0,0,1-8.832,8.833,8.833,8.833,0,0,1-8.833-8.833,8.833,8.833,0,0,1,8.833-8.833A8.832,8.832,0,0,1,29.133-110.021Z" transform="translate(-11.468 173.27)" fill="#feb64f"/>
      </g>
      <path id="Trazado_12635" data-name="Trazado 12635" d="M9.578.313a7.042,7.042,0,0,1-6.07-2.922Q1.391-5.531,1.391-11.3q0-5.781,2.109-8.687a7.05,7.05,0,0,1,6.078-2.906,7.035,7.035,0,0,1,6.063,2.906Q17.75-17.078,17.75-11.3q0,5.766-2.117,8.688A7.026,7.026,0,0,1,9.578.313Zm0-4.062A2.968,2.968,0,0,0,12.289-5.6a12.891,12.891,0,0,0,.961-5.7,12.8,12.8,0,0,0-.969-5.7,2.974,2.974,0,0,0-2.7-1.852q-3.688,0-3.687,7.547T9.578-3.75ZM37.406-8.3v4.016H34.688V0h-4.5V-4.281H19.8V-8.312l8-14.266h6.891V-8.3Zm-13.437,0h6.219V-19.875Z" transform="translate(36.42 -81.969)" fill="#fff"/>
    </g>
  </g>
</svg>
