<svg xmlns="http://www.w3.org/2000/svg" width="111.567" height="126.233" viewBox="0 0 111.567 126.233">
  <g id="Grupo_12027" data-name="Grupo 12027" transform="translate(-330 -8426.999)">
    <g id="Grupo_11167" data-name="Grupo 11167" transform="translate(318.532 8582.465)">
      <g id="Grupo_11161" data-name="Grupo 11161" transform="translate(11.468 -155.465)">
        <path id="Trazado_10461" data-name="Trazado 10461" d="M119.493-86.469,21.958-30.158a6.789,6.789,0,0,1-10.116-6.835l7.747-54.4a6.771,6.771,0,0,0,0-1.914l-7.747-54.4a6.789,6.789,0,0,1,10.116-6.835l97.535,56.311A6.79,6.79,0,0,1,119.493-86.469Z" transform="translate(-11.321 155.465)" fill="#009eff"/>
        <path id="Trazado_10462" data-name="Trazado 10462" d="M19.589-112.043l-7.747,54.4a6.789,6.789,0,0,0,10.116,6.835l97.535-56.311a6.725,6.725,0,0,0,3.395-5.88H19.657A6.672,6.672,0,0,1,19.589-112.043Z" transform="translate(-11.321 176.116)" fill="#008fff"/>
        <path id="Trazado_10463" data-name="Trazado 10463" d="M29.133-110.021a8.832,8.832,0,0,1-8.832,8.833,8.833,8.833,0,0,1-8.833-8.833,8.833,8.833,0,0,1,8.833-8.833A8.832,8.832,0,0,1,29.133-110.021Z" transform="translate(-11.468 173.27)" fill="#feb64f"/>
      </g>
      <path id="Trazado_12637" data-name="Trazado 12637" d="M9.578.313a7.042,7.042,0,0,1-6.07-2.922Q1.391-5.531,1.391-11.3q0-5.781,2.109-8.687a7.05,7.05,0,0,1,6.078-2.906,7.035,7.035,0,0,1,6.063,2.906Q17.75-17.078,17.75-11.3q0,5.766-2.117,8.688A7.026,7.026,0,0,1,9.578.313Zm0-4.062A2.968,2.968,0,0,0,12.289-5.6a12.891,12.891,0,0,0,.961-5.7,12.8,12.8,0,0,0-.969-5.7,2.974,2.974,0,0,0-2.7-1.852q-3.688,0-3.687,7.547T9.578-3.75ZM36.969-7.578A7.361,7.361,0,0,1,36.3-4.406,7.485,7.485,0,0,1,34.477-1.9,8.608,8.608,0,0,1,31.8-.289a8.886,8.886,0,0,1-3.2.586,8.869,8.869,0,0,1-3.258-.6A8.023,8.023,0,0,1,22.7-1.953a7.659,7.659,0,0,1-1.742-2.508,7.638,7.638,0,0,1-.641-3.1,9.383,9.383,0,0,1,2-5.516l7.031-9.5h5.109l-5.859,7.641A7.613,7.613,0,0,1,29.625-15a7.361,7.361,0,0,1,2.773.531,7.51,7.51,0,0,1,2.336,1.477,6.832,6.832,0,0,1,1.617,2.352A7.9,7.9,0,0,1,36.969-7.578Zm-4.406-.109A3.857,3.857,0,0,0,31.469-10.6a3.978,3.978,0,0,0-2.953-1.133,3.813,3.813,0,0,0-2.859,1.141A4.029,4.029,0,0,0,24.516-7.75a3.864,3.864,0,0,0,1.047,2.9,3.881,3.881,0,0,0,2.906,1.1,4.069,4.069,0,0,0,2.938-1.094A3.813,3.813,0,0,0,32.563-7.687Z" transform="translate(36.42 -81.969)" fill="#fff"/>
    </g>
  </g>
</svg>
