<svg xmlns="http://www.w3.org/2000/svg" width="151" height="149.378" viewBox="0 0 151 149.378">
  <g id="together" transform="translate(0)">
    <g id="Grupo_11336" data-name="Grupo 11336" transform="translate(0)">
      <path id="Trazado_10746" data-name="Trazado 10746" fill="#166eb5"/>
    </g>
    <g id="Grupo_11337" data-name="Grupo 11337" transform="translate(0 1.622)">
      <path id="Trazado_10747" data-name="Trazado 10747" d="M151,45.877V38.621a14.609,14.609,0,0,0-6.443-12.1,13.8,13.8,0,1,0-24.827-2.789,71.457,71.457,0,0,0-38.9-14.967,2.212,2.212,0,1,0-.326,4.412,67.119,67.119,0,0,1,38.148,15.365A14.568,14.568,0,0,0,114.6,38.62v7.257a5.5,5.5,0,0,0,5.489,5.5h16.487a68.043,68.043,0,0,1,1.4,55.982,13.8,13.8,0,0,0-16.938,20.01,14.63,14.63,0,0,0-6.046,8.736,67.922,67.922,0,0,1-78.949.163,14.641,14.641,0,0,0-6.087-8.9,13.8,13.8,0,0,0-17.095-19.949,68.046,68.046,0,0,1,1.378-56.042H30.9a5.5,5.5,0,0,0,5.5-5.5V38.62a14.576,14.576,0,0,0-4.139-10.168A67.212,67.212,0,0,1,70.384,13.17a2.212,2.212,0,1,0-.324-4.412A71.552,71.552,0,0,0,31.338,23.534a13.8,13.8,0,1,0-24.9,2.988A14.6,14.6,0,0,0,0,38.621v7.257a5.5,5.5,0,0,0,5.489,5.5H9.36A72.5,72.5,0,0,0,9.072,109.8a13.775,13.775,0,0,0-2.631,17.563A14.6,14.6,0,0,0,0,139.465v7.257a5.5,5.5,0,0,0,5.489,5.5H30.9a5.5,5.5,0,0,0,5.5-5.5v-4.874a72.384,72.384,0,0,0,78.2-.12v4.994a5.5,5.5,0,0,0,5.489,5.5H145.5a5.5,5.5,0,0,0,5.5-5.5v-7.257a14.608,14.608,0,0,0-6.443-12.1,13.768,13.768,0,0,0-2.764-17.677,72.5,72.5,0,0,0-.337-58.315H145.5a5.5,5.5,0,0,0,5.5-5.5ZM18.2,9.924A9.38,9.38,0,1,1,8.821,19.3,9.39,9.39,0,0,1,18.2,9.924ZM5.489,46.951a1.084,1.084,0,0,1-1.065-1.074V38.621A10.187,10.187,0,0,1,9.369,29.9a13.768,13.768,0,0,0,17.66,0,10.192,10.192,0,0,1,4.948,8.718v7.257A1.088,1.088,0,0,1,30.9,46.951ZM18.2,110.768a9.38,9.38,0,1,1-9.375,9.376A9.39,9.39,0,0,1,18.2,110.768Zm13.781,35.954A1.088,1.088,0,0,1,30.9,147.8H5.489a1.084,1.084,0,0,1-1.065-1.074v-7.257a10.187,10.187,0,0,1,4.946-8.718,13.767,13.767,0,0,0,17.659,0,10.191,10.191,0,0,1,4.948,8.718v7.257Zm114.6-7.257v7.257A1.088,1.088,0,0,1,145.5,147.8H120.088a1.084,1.084,0,0,1-1.065-1.074v-7.257a10.187,10.187,0,0,1,4.946-8.718,13.767,13.767,0,0,0,17.66,0A10.192,10.192,0,0,1,146.576,139.465Zm-4.4-19.321a9.379,9.379,0,1,1-9.383-9.376A9.394,9.394,0,0,1,142.179,120.144ZM132.8,9.924A9.38,9.38,0,1,1,123.42,19.3,9.39,9.39,0,0,1,132.8,9.924ZM120.088,46.951a1.084,1.084,0,0,1-1.065-1.074V38.621a10.187,10.187,0,0,1,4.946-8.718,13.767,13.767,0,0,0,17.66,0,10.192,10.192,0,0,1,4.948,8.718v7.257a1.088,1.088,0,0,1-1.074,1.074Z" transform="translate(0 -5.5)" fill="#166eb5"/>
      <path id="Trazado_10748" data-name="Trazado 10748" d="M150.425,105.03h-9.689a5.671,5.671,0,0,0-5.665,5.665v1.889a39.532,39.532,0,0,0-9.284,3.844l-1.336-1.336a5.678,5.678,0,0,0-8.019,0l-6.847,6.847a5.679,5.679,0,0,0,0,8.019l1.336,1.336a39.53,39.53,0,0,0-3.844,9.284h-1.889a5.671,5.671,0,0,0-5.665,5.665v9.69a5.671,5.671,0,0,0,5.665,5.665h1.889a39.418,39.418,0,0,0,3.844,9.28l-1.332,1.336a5.679,5.679,0,0,0-.005,8.024l6.847,6.847a5.678,5.678,0,0,0,8.019,0l1.336-1.336a39.531,39.531,0,0,0,9.284,3.844v1.889a5.671,5.671,0,0,0,5.665,5.665h9.689a5.671,5.671,0,0,0,5.665-5.665v-1.889a39.394,39.394,0,0,0,9.279-3.844l1.336,1.332a5.614,5.614,0,0,0,4,1.662h.009a5.633,5.633,0,0,0,4.012-1.657l6.847-6.847a5.679,5.679,0,0,0,0-8.017l-1.339-1.343a39.411,39.411,0,0,0,3.844-9.28h1.889a5.671,5.671,0,0,0,5.665-5.665v-9.69a5.671,5.671,0,0,0-5.665-5.665h-1.889a39.535,39.535,0,0,0-3.844-9.284l1.336-1.336a5.677,5.677,0,0,0,0-8.019l-6.847-6.847a5.634,5.634,0,0,0-4.012-1.658h-.009a5.608,5.608,0,0,0-3.995,1.655l-1.343,1.339a39.39,39.39,0,0,0-9.279-3.844V110.7a5.67,5.67,0,0,0-5.664-5.665Zm14.1,16.053a2.214,2.214,0,0,0,2.745-.3l2.574-2.566a1.226,1.226,0,0,1,.871-.357h0a1.244,1.244,0,0,1,.884.362l6.847,6.847a1.249,1.249,0,0,1,0,1.763l-2.558,2.558a2.212,2.212,0,0,0-.306,2.745,35.178,35.178,0,0,1,4.61,11.139A2.212,2.212,0,0,0,182.352,145h3.62a1.258,1.258,0,0,1,1.241,1.241v9.69a1.258,1.258,0,0,1-1.241,1.241h-3.62a2.212,2.212,0,0,0-2.159,1.729,35.034,35.034,0,0,1-4.609,11.129,2.212,2.212,0,0,0,.3,2.745l2.565,2.574a1.227,1.227,0,0,1,.357.872,1.246,1.246,0,0,1-.362.887l-6.847,6.847a1.254,1.254,0,0,1-1.765,0l-2.566-2.558a2.212,2.212,0,0,0-2.745-.3A35.036,35.036,0,0,1,153.4,185.7a2.212,2.212,0,0,0-1.729,2.159v3.62a1.258,1.258,0,0,1-1.241,1.241h-9.689a1.258,1.258,0,0,1-1.241-1.241v-3.62a2.212,2.212,0,0,0-1.729-2.159,35.184,35.184,0,0,1-11.139-4.611,2.212,2.212,0,0,0-2.745.306l-2.558,2.558a1.253,1.253,0,0,1-1.762,0l-6.847-6.847a1.254,1.254,0,0,1,0-1.765l2.558-2.566a2.212,2.212,0,0,0,.3-2.745,35.031,35.031,0,0,1-4.609-11.129,2.212,2.212,0,0,0-2.159-1.729h-3.62a1.258,1.258,0,0,1-1.241-1.241v-9.69A1.258,1.258,0,0,1,105.188,145h3.62a2.212,2.212,0,0,0,2.159-1.729,35.167,35.167,0,0,1,4.611-11.139,2.213,2.213,0,0,0-.306-2.745l-2.558-2.559a1.254,1.254,0,0,1,0-1.763l6.847-6.847a1.254,1.254,0,0,1,1.762,0l2.558,2.558a2.212,2.212,0,0,0,2.746.306,35.165,35.165,0,0,1,11.139-4.611,2.212,2.212,0,0,0,1.729-2.159V110.7a1.258,1.258,0,0,1,1.241-1.241h9.689a1.258,1.258,0,0,1,1.241,1.241v3.62a2.212,2.212,0,0,0,1.729,2.159,35,35,0,0,1,11.129,4.609Z" transform="translate(-70.172 -75.676)" fill="#166eb5"/>
      <path id="Trazado_10749" data-name="Trazado 10749" d="M205.866,218.554a10.537,10.537,0,0,0,0,14.529l.032.033L216.173,243.3a2.992,2.992,0,0,0,4.677,0l9.033-8.958,1.237-1.221.04-.041a10.555,10.555,0,0,0,0-14.524c-3.232-3.349-8.55-3.352-12.648-.1-4.092-3.248-9.415-3.247-12.645.1Zm10.276,3.686c.148.134.267.248.365.341a2.779,2.779,0,0,0,2,.969,2.812,2.812,0,0,0,2.018-.977c.1-.092.212-.2.349-.327,2-1.8,5.164-2.626,7.1-.617a6.17,6.17,0,0,1,.016,8.365l-9.481,9.4-8.268-8.192-1.211-1.2a6.154,6.154,0,0,1,.015-8.366c1.938-2.01,5.1-1.181,7.095.611Z" transform="translate(-143.103 -153.94)" fill="#f4511e"/>
      <path id="Trazado_10750" data-name="Trazado 10750" d="M191.76,169.748a2.212,2.212,0,0,0,1.725,2.61,23.576,23.576,0,1,1-9.444-.016,2.212,2.212,0,0,0-.877-4.336,28.014,28.014,0,1,0,11.205.017A2.214,2.214,0,0,0,191.76,169.748Z" transform="translate(-113.324 -120.047)" fill="#166eb5"/>
    </g>
  </g>
</svg>
