<svg xmlns="http://www.w3.org/2000/svg" width="121" height="121" viewBox="0 0 121 121">
  <g id="Grupo_12021" data-name="Grupo 12021" transform="translate(-235 -5549)">
    <g id="Grupo_11152" data-name="Grupo 11152" transform="translate(0 1424)">
      <circle id="Elipse_497" data-name="Elipse 497" cx="60.5" cy="60.5" r="60.5" transform="translate(235 4125)" fill="#feb64f"/>
      <path id="Trazado_1178" data-name="Trazado 1178" d="M53.993,0A53.993,53.993,0,1,1,0,53.993,53.993,53.993,0,0,1,53.993,0Z" transform="translate(242 4132)" fill="#fff"/>
    </g>
    <g id="doctor" transform="translate(237.568 5577.318)">
      <g id="Grupo_11147" data-name="Grupo 11147" transform="translate(42.472 17.185)">
        <path id="Trazado_10406" data-name="Trazado 10406" d="M141.61,141.652v-3.489h-2.128A1.832,1.832,0,0,0,137.649,140v1.417a1.832,1.832,0,0,0,1.832,1.832h2.128Z" transform="translate(-137.649 -138.163)" fill="#f4d5ba"/>
        <path id="Trazado_10407" data-name="Trazado 10407" d="M344.634,138.163h-2.128v5.082h2.128a1.832,1.832,0,0,0,1.832-1.832V140A1.832,1.832,0,0,0,344.634,138.163Z" transform="translate(-317.026 -138.163)" fill="#f4d5ba"/>
      </g>
      <path id="Trazado_10408" data-name="Trazado 10408" d="M183.8,249.224l6.566-6.167-2.607-.484a3.107,3.107,0,0,1-2.163-3v-5.719H173.4v5.719a3.107,3.107,0,0,1-2.163,3l-2.607.484,6.566,6.167A6.282,6.282,0,0,0,183.8,249.224Z" transform="translate(-122.305 -204.77)" fill="#ffe7cf"/>
      <path id="Trazado_10409" data-name="Trazado 10409" d="M281.276,233.856v8.672a3.107,3.107,0,0,0,2.163,3l2.247.643L289,243.056l-2.607-.484a3.107,3.107,0,0,1-2.163-3v-5.719h-2.953Z" transform="translate(-220.94 -204.769)" fill="#f4d5ba"/>
      <path id="Trazado_10410" data-name="Trazado 10410" d="M71.367,299.157l-7.611,5.689-7.611-5.689a1.605,1.605,0,0,0-1.425-.251l-12.787,3.858a3.789,3.789,0,0,0-2.64,2.989l-2.817,16.493a1.858,1.858,0,0,0,1.832,2.171H89.2a1.858,1.858,0,0,0,1.832-2.171l-2.817-16.493a3.789,3.789,0,0,0-2.64-2.989l-12.787-3.858A1.6,1.6,0,0,0,71.367,299.157Z" transform="translate(-6.563 -261.668)" fill="#24d9de"/>
      <g id="Grupo_11148" data-name="Grupo 11148" transform="translate(45.956 37.169)">
        <path id="Trazado_10411" data-name="Trazado 10411" d="M167.866,298.906l-2.2.664,4.855,6.794a1.4,1.4,0,0,0,1.689.475l4.691-1.993h0l-7.611-5.689A1.6,1.6,0,0,0,167.866,298.906Z" transform="translate(-165.666 -298.837)" fill="#d0d1d2"/>
        <path id="Trazado_10412" data-name="Trazado 10412" d="M260.691,306.84a1.4,1.4,0,0,0,1.689-.475l4.855-6.794-.012,0-2.188-.66a1.605,1.605,0,0,0-1.424.251L256,304.847h0Z" transform="translate(-244.764 -298.839)" fill="#d0d1d2"/>
      </g>
      <g id="Grupo_11149" data-name="Grupo 11149" transform="translate(52.829 43.177)">
        <path id="Trazado_10413" data-name="Trazado 10413" d="M230.028,347.145l-3.689,1.567,2.157,2.507h3.065l2.157-2.507Z" transform="translate(-225.665 -347.145)" fill="#f9644b"/>
        <path id="Trazado_10414" data-name="Trazado 10414" d="M226.817,379.9h-3.065l-2.83,15.5h8.726Z" transform="translate(-220.922 -375.828)" fill="#f9644b"/>
      </g>
      <path id="Trazado_10415" data-name="Trazado 10415" d="M183.334,31.947c-1.835-1.58-4.416-1.478-7.824-1.516-3.408.038-5.988-.065-7.824,1.516a10.659,10.659,0,0,0-3.609,8.1v8.98c0,3.089,3.883,11.284,11.433,11.284s11.433-8.195,11.433-11.284v-8.98A10.659,10.659,0,0,0,183.334,31.947Z" transform="translate(-118.318 -26.646)" fill="#ffe7cf"/>
      <path id="Trazado_10416" data-name="Trazado 10416" d="M242.16,34.167a5.6,5.6,0,0,0-2.545-1.2s0,.009,0,.013V51.247c0,2.637-2.83,8.994-8.356,10.8a9.859,9.859,0,0,0,3.077.486c7.55,0,11.433-8.195,11.433-11.284v-8.98A10.66,10.66,0,0,0,242.16,34.167Z" transform="translate(-177.144 -28.867)" fill="#f4d5ba"/>
      <path id="Trazado_10417" data-name="Trazado 10417" d="M63.755,322.017s-8.548-22.782-9.036-22.635L41.932,303.24a3.789,3.789,0,0,0-2.64,2.989l-2.817,16.493a1.858,1.858,0,0,0,1.832,2.171H89.2a1.858,1.858,0,0,0,1.832-2.171L88.219,306.23a3.789,3.789,0,0,0-2.64-2.989l-12.787-3.858C72.3,299.235,63.755,322.017,63.755,322.017Z" transform="translate(-6.563 -262.145)" fill="#e1effb"/>
      <path id="Trazado_10418" data-name="Trazado 10418" d="M333.862,322.724l-2.817-16.493a3.789,3.789,0,0,0-2.64-2.989l-12.787-3.858a21.531,21.531,0,0,0-1.851,4.045l9.274,2.8a1.93,1.93,0,0,1,1.345,1.523l2.929,17.146h4.716A1.858,1.858,0,0,0,333.862,322.724Z" transform="translate(-249.389 -262.146)" fill="#caddea"/>
      <path id="Trazado_10419" data-name="Trazado 10419" d="M169.337,7.5H155.581a6.409,6.409,0,0,0-6.409,6.409V24.427a4.425,4.425,0,0,1,2.9,1.082.375.375,0,0,0,.638-.269V16.631a2.833,2.833,0,0,1,2.833-2.833h2.574a2.926,2.926,0,0,1,1.852.661l.252.206a3.538,3.538,0,0,0,4.478,0l.252-.206A2.926,2.926,0,0,1,166.8,13.8h2.574a2.833,2.833,0,0,1,2.833,2.833V25.24a.375.375,0,0,0,.638.269,4.425,4.425,0,0,1,2.9-1.082V13.906A6.409,6.409,0,0,0,169.337,7.5Z" transform="translate(-105.267 -6.565)" fill="#ffb125"/>
      <path id="Trazado_10420" data-name="Trazado 10420" d="M267.971,7.5h-6.155a6.408,6.408,0,0,1,6.406,6.31,2.832,2.832,0,0,1,2.621,2.824V25.24a.375.375,0,0,0,.638.269,4.425,4.425,0,0,1,2.9-1.082V13.906A6.409,6.409,0,0,0,267.971,7.5Z" transform="translate(-203.901 -6.565)" fill="#ff901d"/>
      <circle id="Elipse_698" data-name="Elipse 698" cx="3.893" cy="3.893" r="3.893" transform="translate(66.881 45.656)" fill="#1785b8"/>
      <circle id="Elipse_699" data-name="Elipse 699" cx="1.715" cy="1.715" r="1.715" transform="translate(69.059 47.834)" fill="#e1effb"/>
      <path id="Trazado_10421" data-name="Trazado 10421" d="M85.392,60.421,82.575,43.928a4.7,4.7,0,0,0-3.29-3.725l-7.6-2.293a8.475,8.475,0,0,0-5.881-7.36c.241-.267.464-.533.668-.793A14.749,14.749,0,0,0,69.494,23.2h.586a2.768,2.768,0,0,0,2.765-2.765V19.017A2.784,2.784,0,0,0,71.412,16.6V13.19a.933.933,0,1,0-1.865,0v3.826a5.748,5.748,0,0,0-1.24.359.937.937,0,0,0-.131.059c-.1.046-.2.094-.3.148V10.067A3.77,3.77,0,0,0,64.11,6.3H61.536a3.869,3.869,0,0,0-2.442.871l-.253.206a2.605,2.605,0,0,1-3.3,0l-.252-.206A3.869,3.869,0,0,0,52.848,6.3H50.274a3.77,3.77,0,0,0-3.765,3.765v7.515c-.1-.054-.2-.1-.3-.148a.936.936,0,0,0-.131-.059,5.75,5.75,0,0,0-1.24-.359V7.341a5.483,5.483,0,0,1,5.476-5.476H64.07a5.483,5.483,0,0,1,5.476,5.476V8.807a.933.933,0,1,0,1.865,0V7.341A7.35,7.35,0,0,0,64.07,0H50.314a7.35,7.35,0,0,0-7.341,7.341V16.6a2.784,2.784,0,0,0-1.433,2.418v1.417A2.768,2.768,0,0,0,44.3,23.2h.586a14.747,14.747,0,0,0,3.021,6.558c.2.26.427.526.668.792A8.506,8.506,0,0,0,42.7,37.91L35.1,40.2a4.694,4.694,0,0,0-3.29,3.725l-1.144,6.7a.933.933,0,0,0,1.838.314l1.144-6.7a2.84,2.84,0,0,1,1.99-2.253l7.028-2.121v1.845a4.666,4.666,0,0,0-3.546,2.936,4.729,4.729,0,0,0-.277,1.266l-.679,8.718a2.37,2.37,0,0,0,2.363,2.555H41.69a.933.933,0,1,0,0-1.865H40.527a.505.505,0,0,1-.5-.544L40.7,46.06a2.863,2.863,0,0,1,.168-.767,2.82,2.82,0,0,1,2.64-1.8h.175a2.794,2.794,0,0,1,2.6,1.67,2.86,2.86,0,0,1,.218.9l.679,8.719a.505.505,0,0,1-.5.544H45.52a.933.933,0,1,0,0,1.865h1.163a2.37,2.37,0,0,0,2.363-2.554l-.679-8.718a4.723,4.723,0,0,0-.36-1.478,4.617,4.617,0,0,0-3.475-2.731v-2.4l3.206-.967c.292.614.87,1.942,2.015,4.8,1.154,2.887,2.588,6.588,3.964,10.186a.947.947,0,0,0,.034.089c.918,2.4,1.808,4.754,2.57,6.784a.933.933,0,0,0,1.746,0c.761-2.029,1.652-4.382,2.57-6.784a.928.928,0,0,0,.034-.089c1.375-3.6,2.808-7.294,3.961-10.181,1.146-2.865,1.725-4.194,2.017-4.809l3.206.967v5.508a4.824,4.824,0,1,0,1.865,0V39.868l7.028,2.121a2.84,2.84,0,0,1,1.99,2.253l2.817,16.493a.926.926,0,0,1-.913,1.082h-50.9a.926.926,0,0,1-.913-1.082l.93-5.443a.933.933,0,0,0-1.838-.314l-.93,5.443a2.791,2.791,0,0,0,2.751,3.261h50.9a2.791,2.791,0,0,0,2.751-3.261Zm-15.834-41.5a4,4,0,0,1,.9-.122.953.953,0,0,0,.456-.108.883.883,0,0,1,.066.33v1.417a.9.9,0,0,1-.9.9h-.522V18.917ZM44.826,21.334H44.3a.9.9,0,0,1-.9-.9V19.017a.885.885,0,0,1,.066-.33.951.951,0,0,0,.456.108,4.157,4.157,0,0,1,.9.122v2.417Zm1.865,1.046V19.93a1.309,1.309,0,0,0,1.683-1.254V10.067a1.9,1.9,0,0,1,1.9-1.9h2.574a2,2,0,0,1,1.262.45l.252.206a4.471,4.471,0,0,0,5.659,0l.252-.206a2,2,0,0,1,1.262-.45H64.11a1.9,1.9,0,0,1,1.9,1.9v8.609a1.309,1.309,0,0,0,1.683,1.255V22.38A12.061,12.061,0,0,1,65.007,28.6a12.3,12.3,0,0,1-2.235,2.215.934.934,0,0,0-.083.063,9.09,9.09,0,0,1-10.993,0,.946.946,0,0,0-.083-.063A12.3,12.3,0,0,1,49.377,28.6,12.062,12.062,0,0,1,46.691,22.38ZM63.3,37.447l-6.109,4.566-6.109-4.566a4.423,4.423,0,0,0,.945-2.641V33.3a10.952,10.952,0,0,0,10.328,0v1.5A4.423,4.423,0,0,0,63.3,37.447ZM49.526,36.406a2.55,2.55,0,0,0-1.572-.079l-.067.018-3.222.972a6.625,6.625,0,0,1,5.5-5.225v2.714A2.466,2.466,0,0,1,49.526,36.406Zm2.531,7.486-.005-.013-.14-.354-.025-.063-.134-.339-.009-.024q-.207-.521-.4-1l-.028-.07-.109-.271-.039-.1-.1-.256-.03-.075-.181-.446-.048-.118-.068-.167-.073-.177-.027-.066-.021-.051q-.162-.393-.307-.74l0-.006-.151-.359-.075-.176,5.254,3.927-2.2.933-.012,0-.917.389Zm2.225,5.71q-.276-.717-.556-1.439-.436-1.127-.834-2.146l.348-.148,1.422,1.653Zm2.928,7.579a.928.928,0,0,0-.1-.157c-.421-1.114-.956-2.523-1.548-4.074l.871-4.767h1.51l.871,4.767C58.2,54.575,57.64,56.044,57.21,57.181ZM58.3,46.319H56.087L55.042,45.1l2.15-.913,2.15.913Zm2.361,1.844q-.279.72-.556,1.439l-.38-2.08,1.422-1.653.348.148Q61.093,47.038,60.657,48.163ZM64.229,39.2l-.143.34-.019.046-.149.357-.01.025-.135.327-.025.061-.031.077-.062.151-.077.189-.025.062-.2.491-.032.079-.1.254-.041.1-.108.268-.031.076q-.19.472-.394.986l-.013.034-.134.336-.025.064-.141.356,0,.007-.155.393-.918-.39-.01,0-2.2-.933L64.3,39.026ZM66.5,36.345h0a2.549,2.549,0,0,0-1.636.062,2.465,2.465,0,0,1-.637-1.6V32.09a6.573,6.573,0,0,1,5.5,5.228Zm7.237,13.2a2.96,2.96,0,1,1-2.96-2.96A2.964,2.964,0,0,1,73.734,49.549Z"/>
    </g>
  </g>
</svg>
