<svg xmlns="http://www.w3.org/2000/svg" width="121" height="121" viewBox="0 0 121 121">
  <g id="Grupo_12017" data-name="Grupo 12017" transform="translate(-235 -4565)">
    <g id="Grupo_11138" data-name="Grupo 11138" transform="translate(0 440)">
      <circle id="Elipse_497" data-name="Elipse 497" cx="60.5" cy="60.5" r="60.5" transform="translate(235 4125)" fill="#feb64f"/>
      <path id="Trazado_1178" data-name="Trazado 1178" d="M53.993,0A53.993,53.993,0,1,1,0,53.993,53.993,53.993,0,0,1,53.993,0Z" transform="translate(242 4132)" fill="#fff"/>
    </g>
    <g id="trust" transform="translate(258.988 4529.711)">
      <g id="Grupo_11144" data-name="Grupo 11144" transform="translate(1.466 70.689)">
        <path id="Trazado_10390" data-name="Trazado 10390" d="M258.69,205v1.014l.305,4.447-3.716,3.63s-17.643-20-17.37-20.05,7.276-2.092,7.276-2.092Z" transform="translate(-204.455 -174.486)" fill="#ffdfcf"/>
        <g id="Grupo_11143" data-name="Grupo 11143">
          <path id="Trazado_10391" data-name="Trazado 10391" d="M87.323,132.746l-13.54-13.54-9.273-9.551a6.368,6.368,0,0,0-2.235-1.448l-3.153-1.2-2.077-2.077L53.8,100.7,39.314,115.219l4.467,4.731,4.443,4.443v2.871a3.919,3.919,0,0,0,1.148,2.771l5.173,4.876L67.9,145.174l3.5,3.5a2.815,2.815,0,0,0,3.98-3.982,2.815,2.815,0,1,0,3.982-3.98,2.815,2.815,0,0,0,3.98-3.982,2.815,2.815,0,1,0,3.982-3.98Z" transform="translate(-35.01 -96.629)" fill="#ffeee6"/>
          <g id="XMLID_442_" transform="translate(13.514 32.471)">
            <g id="Grupo_11139" data-name="Grupo 11139">
              <path id="Trazado_10392" data-name="Trazado 10392" d="M189.842,371.173a2.768,2.768,0,0,1,0,3.916l-2.957,2.957a2.771,2.771,0,0,1-3.916,0l-.066-.066a2.771,2.771,0,0,1,0-3.916l2.626-2.626.333-.332a2.766,2.766,0,0,1,3.914,0Z" transform="translate(-170.348 -359.129)" fill="#ffdfcf"/>
              <path id="Trazado_10393" data-name="Trazado 10393" d="M162.766,346.695a2.766,2.766,0,0,1,0,3.914l-2.626,2.626a2.768,2.768,0,1,1-3.914-3.914l2.626-2.626a2.765,2.765,0,0,1,3.914,0Z" transform="translate(-147.586 -338.3)" fill="#ffdfcf"/>
              <path id="Trazado_10394" data-name="Trazado 10394" d="M137.327,311.625a2.769,2.769,0,0,1,0,3.914l-1.233,1.233-2.626,2.626a2.769,2.769,0,1,1-3.916-3.916l2.379-2.379,1.479-1.478a2.767,2.767,0,0,1,3.916,0Z" transform="translate(-124.828 -308.377)" fill="#ffdfcf"/>
              <path id="Trazado_10395" data-name="Trazado 10395" d="M109.17,295.025a2.766,2.766,0,0,1,0,3.914l-2.379,2.379a2.768,2.768,0,0,1-3.914-3.914l2.379-2.379a2.765,2.765,0,0,1,3.914,0Z" transform="translate(-102.065 -294.213)" fill="#ffdfcf"/>
            </g>
          </g>
          <g id="XMLID_438_" transform="translate(13.514 32.471)">
            <g id="Grupo_11140" data-name="Grupo 11140">
              <path id="Trazado_10396" data-name="Trazado 10396" d="M184.765,375.928l2.626-2.626.333-.332a2.767,2.767,0,0,1,2.8-.677,2.768,2.768,0,0,0-.682-1.119l-.066-.066a2.766,2.766,0,0,0-3.914,0l-.333.332-2.626,2.626a2.771,2.771,0,0,0,0,3.916l.066.066a2.763,2.763,0,0,0,1.119.681,2.773,2.773,0,0,1,.678-2.8Z" transform="translate(-170.347 -359.13)" fill="#ffcebf"/>
              <path id="Trazado_10397" data-name="Trazado 10397" d="M158.089,351.183l2.626-2.626a2.769,2.769,0,0,1,2.748-.7,2.767,2.767,0,0,0-4.61-1.166l-2.626,2.626a2.77,2.77,0,0,0,1.167,4.611A2.766,2.766,0,0,1,158.089,351.183Z" transform="translate(-147.586 -338.3)" fill="#ffcebf"/>
              <path id="Trazado_10398" data-name="Trazado 10398" d="M131.416,317.345l2.379-2.379,1.479-1.478a2.769,2.769,0,0,1,2.748-.7,2.768,2.768,0,0,0-4.611-1.166l-1.479,1.478-2.379,2.379a2.768,2.768,0,0,0,1.167,4.611A2.77,2.77,0,0,1,131.416,317.345Z" transform="translate(-124.828 -308.378)" fill="#ffcebf"/>
              <path id="Trazado_10399" data-name="Trazado 10399" d="M104.739,299.267l2.379-2.379a2.768,2.768,0,0,1,2.747-.7,2.767,2.767,0,0,0-4.61-1.166l-2.379,2.379a2.769,2.769,0,0,0,1.166,4.61A2.768,2.768,0,0,1,104.739,299.267Z" transform="translate(-102.064 -294.214)" fill="#ffcebf"/>
            </g>
          </g>
          <g id="XMLID_440_" transform="translate(24.111 9.355)">
            <g id="Grupo_11141" data-name="Grupo 11141">
              <path id="Trazado_10400" data-name="Trazado 10400" d="M204.942,136.7l13.038,13.175-1.823,1.989L204.7,163.323,188.509,148.28h-5.37l-3.472,2.855a3.3,3.3,0,0,1-4.426-4.88l4.186-4.186a1.93,1.93,0,0,1,1.365-.566h11.053a2.178,2.178,0,0,1,1.063.277l4.124,2.3a.5.5,0,0,0,.587-.078l4.106-4.01Z" transform="translate(-174.273 -136.703)" fill="#ffdfcf"/>
            </g>
          </g>
          <g id="Grupo_11142" data-name="Grupo 11142" transform="translate(24.111 14.154)">
            <path id="Trazado_10401" data-name="Trazado 10401" d="M177.629,177.665a3.288,3.288,0,0,1,.967-2.332l2.919-2.919a6.259,6.259,0,0,1,4.426-1.833h8.58l-1.615-.9a2.178,2.178,0,0,0-1.063-.277H180.791a1.928,1.928,0,0,0-1.363.565l-4.188,4.188a3.3,3.3,0,0,0,3.094,5.541,3.292,3.292,0,0,1-.706-2.031Z" transform="translate(-174.273 -169.403)" fill="#ffcebf"/>
          </g>
          <path id="Trazado_10402" data-name="Trazado 10402" d="M381.581,103.525l-3.4,3.4a1.25,1.25,0,0,1-1.747.02l-14.583-13.93a1.25,1.25,0,0,1-.02-1.788l7.439-7.439a1.321,1.321,0,0,1,2.074.267l10.447,17.864a1.321,1.321,0,0,1-.206,1.6Z" transform="translate(-309.877 -81.873)" fill="#fd8087"/>
          <path id="Trazado_10403" data-name="Trazado 10403" d="M10.244,88.645a.864.864,0,0,0-.007,1.228l5.047,5.047a1.957,1.957,0,0,0,2.767,0L32.115,80.857a1.957,1.957,0,0,0,0-2.767l-4.873-4.873a.864.864,0,0,0-1.215-.007Z" transform="translate(-9.985 -72.963)" fill="#99e6fc"/>
        </g>
      </g>
      <g id="Grupo_11145" data-name="Grupo 11145" transform="translate(0 70.297)">
        <path id="Trazado_10404" data-name="Trazado 10404" d="M60.829,190.88,54.808,196.9c-.079-.1-.162-.188-.251-.277l-7.776-7.776a1.1,1.1,0,0,0-1.557,1.557L53,198.181a1.714,1.714,0,1,1-2.424,2.424l-4.321-4.321a1.1,1.1,0,0,0-1.557,1.557l4.321,4.321h0a1.714,1.714,0,0,1-2.425,2.424l-4.321-4.321a1.1,1.1,0,1,0-1.557,1.557l4.321,4.321a1.714,1.714,0,0,1-2.424,2.425l-4.321-4.321a1.1,1.1,0,0,0-1.557,1.557l4.321,4.321a1.714,1.714,0,1,1-2.424,2.424l-2.8-2.8a3.875,3.875,0,0,0-.581-4.727l-.066-.066a3.863,3.863,0,0,0-3.124-1.112,3.864,3.864,0,0,0-2.931-3.49,3.872,3.872,0,0,0-5.284-4.882,3.866,3.866,0,0,0-6.457-1.681l-.454.454-.331-.331a2.8,2.8,0,0,1-.825-1.993V189.05a1.1,1.1,0,0,0-.322-.778l-4.7-4.7,1.321-1.321a1.1,1.1,0,0,0-1.557-1.557l-1.77,1.77a.857.857,0,0,1-1.211,0L1.879,176.8a1.1,1.1,0,0,0-1.557,1.557l5.664,5.664a3.039,3.039,0,0,0,2.907.8l4.686,4.686v2.415a4.987,4.987,0,0,0,1.47,3.549l.331.331-.368.368a3.867,3.867,0,0,0,2.736,6.6H17.8c0,.016,0,.032,0,.049a3.869,3.869,0,0,0,3.869,3.869h.049a3.861,3.861,0,0,0,3.866,3.914h.049a3.857,3.857,0,0,0,1.13,2.785l.066.066a3.869,3.869,0,0,0,5.471,0l2.064-2.064,2.717,2.717a3.913,3.913,0,0,0,6.681-2.836l.069,0a3.911,3.911,0,0,0,3.912-3.984l.069,0a3.913,3.913,0,0,0,3.916-3.914c0-.023,0-.046,0-.069l.067,0a3.908,3.908,0,0,0,3.9-4.176l6.694-6.694a1.1,1.1,0,0,0-1.557-1.557Zm-44.26,9.2a1.667,1.667,0,0,1,0-2.358l2.379-2.379a1.667,1.667,0,1,1,2.358,2.358l-2.379,2.379a1.669,1.669,0,0,1-2.358,0Zm5.094,4.4a1.667,1.667,0,0,1-1.179-2.846l2.379-2.379,1.479-1.479a1.667,1.667,0,0,1,2.358,2.358L22.842,204a1.657,1.657,0,0,1-1.179.488Zm2.736,3.426a1.669,1.669,0,0,1,0-2.358l2.626-2.626a1.667,1.667,0,0,1,2.359,2.358l-2.626,2.626a1.669,1.669,0,0,1-2.358,0Zm6.339,3.981a1.667,1.667,0,0,1-2.358,0l-.066-.066a1.669,1.669,0,0,1,0-2.358l2.626-2.626,0,0,.329-.33a1.67,1.67,0,0,1,2.358,0l.066.066a1.669,1.669,0,0,1,0,2.358Z" transform="translate(0 -160.895)"/>
        <path id="Trazado_10405" data-name="Trazado 10405" d="M153.264,90.841a1.1,1.1,0,0,0-1.557,0l-4.125,4.125a.15.15,0,0,1-.208,0l-14.583-13.93a.149.149,0,0,1,0-.213l8.649-8.649a1.1,1.1,0,1,0-1.557-1.557l-8.649,8.649a2.345,2.345,0,0,0-.2,3.087l-3.958,3.882-3.729-2.08a3.287,3.287,0,0,0-1.6-.416h-10.6l-.806-.806a7.421,7.421,0,0,0-2.622-1.7l-2.933-1.118-1.355-1.355a3.06,3.06,0,0,0-.46-3.728L98.553,70.62A1.1,1.1,0,0,0,97,72.176l4.417,4.417a.857.857,0,0,1,0,1.211L92.437,86.78a1.1,1.1,0,0,0,1.557,1.557l7.947-7.947,1.454,1.454a1.1,1.1,0,0,0,.387.25l3.153,1.2a5.231,5.231,0,0,1,1.807,1.158c-.067.056-.132.114-.195.177l-4.186,4.187a4.4,4.4,0,0,0,5.9,6.508l3.168-2.6h3.3l3.771,3.771a1.1,1.1,0,1,0,1.557-1.557l-2.724-2.724a1.1,1.1,0,0,0-.928-1.691h-5.37a1.1,1.1,0,0,0-.7.251l-3.473,2.855a2.2,2.2,0,0,1-2.949-3.25l4.186-4.187a.824.824,0,0,1,.587-.243h11.052a1.081,1.081,0,0,1,.526.137l4.125,2.3a1.606,1.606,0,0,0,1.894-.254L132.6,83.9l11.87,11.339-1.728,1.728a1.1,1.1,0,0,0,1.557,1.557l1.778-1.778a2.362,2.362,0,0,0,3.063-.222l4.125-4.125A1.1,1.1,0,0,0,153.264,90.841Z" transform="translate(-78.595 -70.297)"/>
      </g>
    </g>
  </g>
</svg>
