<svg xmlns="http://www.w3.org/2000/svg" width="136.338" height="136.351" viewBox="0 0 136.338 136.351">
  <g id="human_1_" data-name="human (1)" transform="translate(-0.021)">
    <g id="Grupo_11325" data-name="Grupo 11325" transform="translate(59.102 45.46)">
      <g id="Grupo_11324" data-name="Grupo 11324">
        <path id="Trazado_10743" data-name="Trazado 10743" d="M276.2,160.049h-29.54a2.272,2.272,0,0,0-2.272,2.272v9.089a2.272,2.272,0,0,0,2.272,2.272h6.817a4.545,4.545,0,0,1,0,9.089h-6.817a2.272,2.272,0,0,0-2.272,2.272v11.361H210.3a2.272,2.272,0,0,0-2.272,2.272v29.54a9.089,9.089,0,0,0,9.089,9.089H276.2a9.089,9.089,0,0,0,9.089-9.089V169.138A9.089,9.089,0,0,0,276.2,160.049Zm-31.812,72.713H217.116a4.544,4.544,0,0,1-4.545-4.545V200.95h31.812v4.545h-4.545a9.089,9.089,0,0,0,0,18.178h4.545Zm36.356-4.545a4.544,4.544,0,0,1-4.545,4.545H248.928V221.4a2.272,2.272,0,0,0-2.272-2.272h-6.817a4.545,4.545,0,0,1,0-9.089h6.817a2.272,2.272,0,0,0,2.272-2.272V200.95h6.817v4.545a9.089,9.089,0,1,0,18.178,0V200.95h6.817Zm0-31.812h-9.089a2.272,2.272,0,0,0-2.272,2.272v6.817a4.545,4.545,0,0,1-9.089,0v-6.817a2.272,2.272,0,0,0-2.272-2.272h-9.089v-9.089h4.545a9.089,9.089,0,0,0,0-18.178h-4.545v-4.545H276.2a4.544,4.544,0,0,1,4.545,4.545Z" transform="translate(-208.027 -160.049)" fill="#f4511e"/>
      </g>
    </g>
    <g id="Grupo_11327" data-name="Grupo 11327" transform="translate(0.022 0)">
      <g id="Grupo_11326" data-name="Grupo 11326" transform="translate(0)">
        <path id="Trazado_10744" data-name="Trazado 10744" d="M100,9.1H95.459V2.286A2.272,2.272,0,0,0,93.186.014H63.647A9.089,9.089,0,0,0,54.558,9.1V34.553l-9.4,4.545a18.517,18.517,0,0,0-5.172-4.663,18.178,18.178,0,1,0-17.472-.65,18.221,18.221,0,0,0-9.625,11.707L3.836,74A34.084,34.084,0,0,0,5.3,98.454a29.478,29.478,0,0,1-.473,25.486L.262,133.063A2.272,2.272,0,0,0,2.3,136.351h25a2.272,2.272,0,0,0,2.272-2.272,11.3,11.3,0,0,0-6.076-10.037l1.086-2.168A34.345,34.345,0,0,0,27.624,100.5l-1.686-9.271a2.2,2.2,0,0,1,4.331-.788l3.086,16.978a46.83,46.83,0,0,1,.752,8.357v18.305a2.272,2.272,0,0,0,2.272,2.272h25a2.272,2.272,0,0,0,2.272-2.272,11.366,11.366,0,0,0-.077-1.322,10.062,10.062,0,0,0-5.6-7.908,11.012,11.012,0,0,0-8.194-.727l1.513-7.562a51.405,51.405,0,0,0,1-10.055V86.165L49.631,55.737,65.4,48.214a8.492,8.492,0,0,0,5.029-7.3H93.186a2.272,2.272,0,0,0,2.272-2.272V27.281H100A9.089,9.089,0,0,0,100,9.1ZM18.2,18.192A13.634,13.634,0,1,1,31.835,31.826,13.634,13.634,0,0,1,18.2,18.192ZM49.775,129.038a6.467,6.467,0,0,1,6.135-.134,5.708,5.708,0,0,1,2.763,2.9H38.652V115.773a51.3,51.3,0,0,0-.827-9.171L34.739,89.626a6.744,6.744,0,1,0-13.291,2.3c.007.038.014.077.021.115l1.688,9.271a29.783,29.783,0,0,1-2.649,18.53l-2.206,4.41a2.272,2.272,0,0,0,1.491,3.238,6.792,6.792,0,0,1,4.835,4.317H5.972l2.913-5.835a34.012,34.012,0,0,0,.545-29.4,29.539,29.539,0,0,1-1.268-21.2l9.089-28.631a13.961,13.961,0,0,1,16.09-10.116,13.407,13.407,0,0,1,7.605,4.49L27.518,47.6a8.432,8.432,0,1,0,7.294,15.206l10.452-4.983L47.741,86.36V106.5a47.027,47.027,0,0,1-.909,9.162l-2.422,12.1a2.272,2.272,0,0,0,3.356,2.42ZM63.54,44.069l-.068.03L32.853,58.707a3.889,3.889,0,0,1-3.365-7.012L60.352,36.789a3.972,3.972,0,0,1,5.567,3.64A3.976,3.976,0,0,1,63.54,44.069ZM100,22.737H93.186a2.272,2.272,0,0,0-2.272,2.272V36.37H69.439A8.492,8.492,0,0,0,59.1,32.421V9.1a4.544,4.544,0,0,1,4.545-4.545H90.914v6.817a2.272,2.272,0,0,0,2.272,2.272H100a4.545,4.545,0,0,1,0,9.089Z" transform="translate(-0.022 0)" fill="#166eb5"/>
      </g>
    </g>
    <g id="Grupo_11329" data-name="Grupo 11329" transform="translate(59.768 54.549)">
      <g id="Grupo_11328" data-name="Grupo 11328">
        <path id="Trazado_10745" data-name="Trazado 10745" d="M242.183,197.259l-7.483,7.483V192.049h-4.545v17.237l-2.272,2.272-2.272-2.272v-8.148h-4.545v3.6l-7.483-7.483-3.213,3.213,15.906,15.906a2.272,2.272,0,0,0,3.213,0L245.4,200.472Z" transform="translate(-210.371 -192.049)" fill="#166eb5"/>
      </g>
    </g>
    <g id="Grupo_11331" data-name="Grupo 11331" transform="translate(70.464 54.549)">
      <g id="Grupo_11330" data-name="Grupo 11330">
        <rect id="Rectángulo_2863" data-name="Rectángulo 2863" width="4.545" height="4.545" fill="#166eb5"/>
      </g>
    </g>
    <g id="Grupo_11333" data-name="Grupo 11333" transform="translate(70.464 45.46)">
      <g id="Grupo_11332" data-name="Grupo 11332">
        <rect id="Rectángulo_2864" data-name="Rectángulo 2864" width="4.545" height="4.545" fill="#166eb5"/>
      </g>
    </g>
    <g id="Grupo_11335" data-name="Grupo 11335" transform="translate(79.553 45.46)">
      <g id="Grupo_11334" data-name="Grupo 11334">
        <rect id="Rectángulo_2865" data-name="Rectángulo 2865" width="4.545" height="4.545" fill="#166eb5"/>
      </g>
    </g>
  </g>
</svg>
