<svg xmlns="http://www.w3.org/2000/svg" width="121" height="121" viewBox="0 0 121 121">
  <g id="Grupo_12016" data-name="Grupo 12016" transform="translate(-235 -4343)">
    <g id="Grupo_11116" data-name="Grupo 11116" transform="translate(0 218)">
      <circle id="Elipse_497" data-name="Elipse 497" cx="60.5" cy="60.5" r="60.5" transform="translate(235 4125)" fill="#feb64f"/>
      <path id="Trazado_1178" data-name="Trazado 1178" d="M53.993,0A53.993,53.993,0,1,1,0,53.993,53.993,53.993,0,0,1,53.993,0Z" transform="translate(242 4132)" fill="#fff"/>
    </g>
    <g id="wheelchair" transform="translate(262.03 4369.021)">
      <g id="Grupo_11117" data-name="Grupo 11117" transform="translate(26.345 19.633)">
        <path id="Trazado_10370" data-name="Trazado 10370" d="M38.153,37.729V24.576A6.576,6.576,0,0,0,31.576,18H25V37.729" transform="translate(-25 -18)" fill="#f5b953"/>
      </g>
      <g id="Grupo_11118" data-name="Grupo 11118" transform="translate(35.114 39.363)">
        <path id="Trazado_10371" data-name="Trazado 10371" d="M38.48,42.576h6.576V53.537h6.576V40.384A4.385,4.385,0,0,0,47.249,36H33" transform="translate(-33 -36)" fill="#4472b2"/>
      </g>
      <g id="Grupo_11119" data-name="Grupo 11119" transform="translate(12.096 37.171)">
        <path id="Trazado_10372" data-name="Trazado 10372" d="M35.018,36.053l-4.384-1.7a15.348,15.348,0,1,0,4.384,1.7ZM27.345,61.4a12.057,12.057,0,1,1,3.288-23.66l4.384,2.3A12.057,12.057,0,0,1,27.345,61.4Z" transform="translate(-12 -34)" fill="#4d5d7a"/>
      </g>
      <g id="Grupo_11120" data-name="Grupo 11120" transform="translate(30.729 24.018)">
        <path id="Trazado_10373" data-name="Trazado 10373" d="M29,43.922V24.192a2.192,2.192,0,0,1,4.384,0V43.922a2.192,2.192,0,0,1-4.384,0Z" transform="translate(-29 -22)" fill="#f9d18b"/>
      </g>
      <g id="Grupo_11121" data-name="Grupo 11121" transform="translate(30.729 43.747)">
        <path id="Trazado_10374" data-name="Trazado 10374" d="M31.192,44.384A2.192,2.192,0,0,1,29,42.192V40h4.384v2.192A2.192,2.192,0,0,1,31.192,44.384Z" transform="translate(-29 -40)" fill="#efbe9a"/>
      </g>
      <g id="Grupo_11122" data-name="Grupo 11122" transform="translate(47.171 56.9)">
        <path id="Trazado_10375" data-name="Trazado 10375" d="M49.48,52H44v4.384h7.673V54.192A2.192,2.192,0,0,0,49.48,52Z" transform="translate(-44 -52)" fill="#8892a0"/>
      </g>
      <g id="Grupo_11123" data-name="Grupo 11123" transform="translate(24.153 49.228)">
        <circle id="Elipse_697" data-name="Elipse 697" cx="3.5" cy="3.5" r="3.5" transform="translate(-0.183 -0.249)" fill="#4d5d7a"/>
      </g>
      <g id="Grupo_11124" data-name="Grupo 11124" transform="translate(26.345 4.288)">
        <path id="Trazado_10376" data-name="Trazado 10376" d="M30.48,17.153a5.481,5.481,0,0,0,5.48-5.48V4H25v7.673A5.481,5.481,0,0,0,30.48,17.153Z" transform="translate(-25 -4)" fill="#efbe9a"/>
      </g>
      <g id="Grupo_11125" data-name="Grupo 11125" transform="translate(26.345 2.096)">
        <path id="Trazado_10377" data-name="Trazado 10377" d="M29.384,6.384V8.576A4.385,4.385,0,0,1,25,12.961V2H38.153a4.385,4.385,0,0,1-4.384,4.384Z" transform="translate(-25 -2)" fill="#976947"/>
      </g>
      <g id="Grupo_11126" data-name="Grupo 11126" transform="translate(35.114 38.267)">
        <path id="Trazado_10378" data-name="Trazado 10378" d="M52.729,53.633H50.537V40.48a3.292,3.292,0,0,0-3.288-3.288H33V35H47.249a5.487,5.487,0,0,1,5.48,5.48Z" transform="translate(-33 -35)"/>
      </g>
      <g id="Grupo_11127" data-name="Grupo 11127" transform="translate(25.249 1)">
        <path id="Trazado_10379" data-name="Trazado 10379" d="M30.576,18.537A6.583,6.583,0,0,1,24,11.961V2.1A1.1,1.1,0,0,1,25.1,1H38.249a1.1,1.1,0,0,1,1.1,1.1,5.474,5.474,0,0,1-2.192,4.382v5.483A6.583,6.583,0,0,1,30.576,18.537Zm-3.918-4.611a4.384,4.384,0,0,0,8.3-1.965v-4.5a5.388,5.388,0,0,1-1.1.111H30.576v1.1A5.49,5.49,0,0,1,26.658,13.926ZM26.192,3.192v8.581a3.3,3.3,0,0,0,2.192-3.1V6.48a1.1,1.1,0,0,1,1.1-1.1h4.384a3.3,3.3,0,0,0,3.1-2.192Z" transform="translate(-24 -1)"/>
      </g>
      <g id="Grupo_11128" data-name="Grupo 11128" transform="translate(25.249 18.537)">
        <path id="Trazado_10380" data-name="Trazado 10380" d="M39.345,37.826H37.153V24.673a5.487,5.487,0,0,0-5.48-5.48h-5.48V35.633H24V18.1A1.1,1.1,0,0,1,25.1,17h6.576a7.682,7.682,0,0,1,7.673,7.673Z" transform="translate(-24 -17)"/>
      </g>
      <g id="Grupo_11129" data-name="Grupo 11129" transform="translate(29.633 22.922)">
        <path id="Trazado_10381" data-name="Trazado 10381" d="M31.288,47.306A3.292,3.292,0,0,1,28,44.018V24.288a3.288,3.288,0,1,1,6.576,0V44.018A3.292,3.292,0,0,1,31.288,47.306Zm0-24.114a1.1,1.1,0,0,0-1.1,1.1V44.018a1.1,1.1,0,1,0,2.192,0V24.288A1.1,1.1,0,0,0,31.288,23.192Z" transform="translate(-28 -21)"/>
      </g>
      <g id="Grupo_11130" data-name="Grupo 11130" transform="translate(41.69 44.843)">
        <path id="Trazado_10382" data-name="Trazado 10382" d="M52.153,58.537H44.48a1.1,1.1,0,0,1-1.1-1.1V43.192H39V41h5.48a1.1,1.1,0,0,1,1.1,1.1v9.865h4.384a3.292,3.292,0,0,1,3.288,3.288v2.192A1.1,1.1,0,0,1,52.153,58.537Zm-6.576-2.192h5.48v-1.1a1.1,1.1,0,0,0-1.1-1.1H45.576Z" transform="translate(-39 -41)"/>
      </g>
      <g id="Grupo_11131" data-name="Grupo 11131" transform="translate(20.865 19.633)">
        <path id="Trazado_10383" data-name="Trazado 10383" d="M20,18h2.192V36.633H20Z" transform="translate(-20 -18)"/>
      </g>
      <g id="Grupo_11132" data-name="Grupo 11132" transform="translate(15.384 21.826)">
        <path id="Trazado_10384" data-name="Trazado 10384" d="M15,20h6.576v2.192H15Z" transform="translate(-15 -20)"/>
      </g>
      <g id="Grupo_11133" data-name="Grupo 11133" transform="translate(11 36.075)">
        <path id="Trazado_10385" data-name="Trazado 10385" d="M27.441,65.882a16.441,16.441,0,1,1,3.522-32.5L30.5,35.52A14.25,14.25,0,1,0,34.565,37.1l1.1-1.9a16.443,16.443,0,0,1-8.222,30.681Z" transform="translate(-11 -33)"/>
      </g>
      <g id="Grupo_11134" data-name="Grupo 11134" transform="translate(14.288 39.363)">
        <path id="Trazado_10386" data-name="Trazado 10386" d="M27.153,62.306A13.153,13.153,0,1,1,30.738,36.5l-.6,2.109A10.975,10.975,0,1,0,34.127,40.7l1.4-1.691a13.153,13.153,0,0,1-8.37,23.3Z" transform="translate(-14 -36)"/>
      </g>
      <g id="Grupo_11135" data-name="Grupo 11135" transform="translate(23.057 48.131)">
        <path id="Trazado_10387" data-name="Trazado 10387" d="M26.384,52.769a4.384,4.384,0,1,1,4.384-4.384A4.389,4.389,0,0,1,26.384,52.769Zm0-6.576a2.192,2.192,0,1,0,2.192,2.192A2.194,2.194,0,0,0,26.384,46.192Z" transform="translate(-22 -44)"/>
      </g>
      <g id="Grupo_11136" data-name="Grupo 11136" transform="translate(30.729 42.651)">
        <path id="Trazado_10388" data-name="Trazado 10388" d="M29,39h4.384v2.192H29Z" transform="translate(-29 -39)"/>
      </g>
      <g id="Grupo_11137" data-name="Grupo 11137" transform="translate(36.934 63.477)">
        <path id="Trazado_10389" data-name="Trazado 10389" d="M34.661,58h19v2.192h-19Z" transform="translate(-34.661 -58)"/>
      </g>
    </g>
  </g>
</svg>
