<svg xmlns="http://www.w3.org/2000/svg" width="121" height="121" viewBox="0 0 121 121">
  <g id="Grupo_12015" data-name="Grupo 12015" transform="translate(-235 -4125)">
    <g id="Grupo_11086" data-name="Grupo 11086">
      <circle id="Elipse_497" data-name="Elipse 497" cx="60.5" cy="60.5" r="60.5" transform="translate(235 4125)" fill="#feb64f"/>
      <path id="Trazado_1178" data-name="Trazado 1178" d="M53.993,0A53.993,53.993,0,1,1,0,53.993,53.993,53.993,0,0,1,53.993,0Z" transform="translate(242 4132)" fill="#fff"/>
    </g>
    <g id="research_1_" data-name="research (1)" transform="translate(260.173 4147.157)">
      <path id="Trazado_10317" data-name="Trazado 10317" d="M39.213,343.3,22.806,359.71a3.845,3.845,0,0,1-5.438,0h0a3.845,3.845,0,0,1,0-5.438l16.407-16.407Z" transform="translate(-13.969 -290.574)" fill="#58bfff"/>
      <path id="Trazado_10318" data-name="Trazado 10318" d="M402.918,209.414v1.122a4.49,4.49,0,0,1-4.49,4.49h0a4.49,4.49,0,0,1-4.49-4.49v-1.122a4.49,4.49,0,0,1,4.49-4.49h0A4.49,4.49,0,0,1,402.918,209.414Z" transform="translate(-338.808 -176.238)" fill="#ffcdac"/>
      <path id="Trazado_10319" data-name="Trazado 10319" d="M363.7,277.106h-6.055a7.606,7.606,0,0,0-7.606,7.606v2.818h21.266v-2.818A7.606,7.606,0,0,0,363.7,277.106Z" transform="translate(-301.055 -238.318)" fill="#ffbc53"/>
      <path id="Trazado_10320" data-name="Trazado 10320" d="M53.9,209.414v1.122a4.49,4.49,0,0,0,4.49,4.49h0a4.49,4.49,0,0,0,4.49-4.49v-1.122a4.49,4.49,0,0,0-4.49-4.49h0A4.49,4.49,0,0,0,53.9,209.414Z" transform="translate(-46.356 -176.238)" fill="#ffcdac"/>
      <path id="Trazado_10321" data-name="Trazado 10321" d="M17.606,277.106h6.055a7.606,7.606,0,0,1,7.606,7.606v2.818H10v-2.818A7.606,7.606,0,0,1,17.606,277.106Z" transform="translate(-8.601 -238.318)" fill="#95e540"/>
      <circle id="Elipse_694" data-name="Elipse 694" cx="19.313" cy="19.313" r="19.313" transform="translate(16.514 16.281)" fill="#a5ddff"/>
      <circle id="Elipse_695" data-name="Elipse 695" cx="13.711" cy="13.711" r="13.711" transform="translate(22.116 21.883)" fill="#fff"/>
      <path id="Trazado_10322" data-name="Trazado 10322" d="M233.624,215v1.087a4.349,4.349,0,0,1-4.349,4.349h0a4.349,4.349,0,0,1-4.349-4.349V215a4.349,4.349,0,0,1,4.349-4.349h0A4.348,4.348,0,0,1,233.624,215Z" transform="translate(-193.449 -181.166)" fill="#ffcdac"/>
      <path id="Trazado_10323" data-name="Trazado 10323" d="M198.612,280.568h0a10.036,10.036,0,0,0-9.338,6.361,13.7,13.7,0,0,0,18.676,0A10.036,10.036,0,0,0,198.612,280.568Z" transform="translate(-162.786 -241.296)" fill="#fe6663"/>
      <path id="Trazado_10324" data-name="Trazado 10324" d="M64.506,128.977a5.855,5.855,0,0,0,1-3.284V124.57A5.886,5.886,0,0,0,55.465,120.4a20.714,20.714,0,0,0-39.277,0A5.886,5.886,0,0,0,6.143,124.57v1.123a5.855,5.855,0,0,0,1,3.284A9.02,9.02,0,0,0,0,137.788v2.818a1.4,1.4,0,0,0,1.4,1.4H8.677a1.4,1.4,0,1,0,0-2.8H2.8v-1.418a6.213,6.213,0,0,1,6.206-6.206h6.624a20.6,20.6,0,0,0,2.749,6.554L2.41,154.1a5.245,5.245,0,0,0,7.417,7.417l8.8-8.8a1.4,1.4,0,0,0-1.979-1.979l-8.8,8.8a2.446,2.446,0,1,1-3.459-3.459l15.675-15.675a20.7,20.7,0,0,0,35.96-8.826h6.624a6.213,6.213,0,0,1,6.206,6.206v1.418H55.7a1.4,1.4,0,1,0,0,2.8H70.254a1.4,1.4,0,0,0,1.4-1.4v-2.818A9.02,9.02,0,0,0,64.506,128.977ZM56.53,124.57a3.09,3.09,0,0,1,6.18,0v1.123a3.09,3.09,0,0,1-6.18,0Zm-47.588,0a3.09,3.09,0,0,1,6.18,0v1.123a3.09,3.09,0,0,1-6.18,0ZM35.827,144.9A17.913,17.913,0,1,1,53.74,126.987,17.934,17.934,0,0,1,35.827,144.9Z" transform="translate(0 -91.394)"/>
      <path id="Trazado_10325" data-name="Trazado 10325" d="M163.114,146.275a15.107,15.107,0,0,0-10.365,26.1,1.4,1.4,0,0,0,.162.151,15.086,15.086,0,0,0,20.4,0,1.385,1.385,0,0,0,.162-.151,15.107,15.107,0,0,0-10.365-26.1Zm-7.627,24.777a8.637,8.637,0,0,1,15.253,0,12.291,12.291,0,0,1-15.253,0Zm4.678-10.332v-1.087a2.949,2.949,0,1,1,5.9,0v1.087a2.949,2.949,0,0,1-5.9,0ZM172.788,169a11.335,11.335,0,0,0-5.355-4.5,5.723,5.723,0,0,0,1.429-3.787v-1.087a5.748,5.748,0,1,0-11.5,0v1.087a5.722,5.722,0,0,0,1.429,3.787,11.337,11.337,0,0,0-5.355,4.5,12.315,12.315,0,1,1,19.348,0Z" transform="translate(-127.288 -125.796)"/>
      <path id="Trazado_10326" data-name="Trazado 10326" d="M144.2,394.309a1.4,1.4,0,1,0,.989.41A1.41,1.41,0,0,0,144.2,394.309Z" transform="translate(-122.816 -339.119)"/>
      <path id="Trazado_10327" data-name="Trazado 10327" d="M247.6,7.57a1.4,1.4,0,0,0,1.4-1.4V1.408a1.4,1.4,0,1,0-2.8,0V6.17A1.4,1.4,0,0,0,247.6,7.57Z" transform="translate(-211.748)"/>
      <path id="Trazado_10328" data-name="Trazado 10328" d="M247.6,69.808a1.4,1.4,0,1,0-.989-.41A1.407,1.407,0,0,0,247.6,69.808Z" transform="translate(-211.745 -57.624)"/>
      <path id="Trazado_10329" data-name="Trazado 10329" d="M307.731,41.566a1.4,1.4,0,0,0,.99-.41l2.46-2.46a1.4,1.4,0,0,0-1.979-1.979l-2.46,2.46a1.4,1.4,0,0,0,.99,2.389Z" transform="translate(-263.461 -31.218)"/>
      <path id="Trazado_10330" data-name="Trazado 10330" d="M170.985,41.131a1.4,1.4,0,1,0,1.979-1.979l-2.483-2.483a1.4,1.4,0,0,0-1.979,1.979Z" transform="translate(-144.567 -31.177)"/>
    </g>
  </g>
</svg>
