<svg xmlns="http://www.w3.org/2000/svg" width="111.567" height="126.232" viewBox="0 0 111.567 126.232">
  <g id="Grupo_12024" data-name="Grupo 12024" transform="translate(-330 -7756)">
    <g id="Grupo_11164" data-name="Grupo 11164" transform="translate(318.532 7911.465)">
      <g id="Grupo_11161" data-name="Grupo 11161" transform="translate(11.468 -155.465)">
        <path id="Trazado_10461" data-name="Trazado 10461" d="M119.493-86.469,21.958-30.158a6.789,6.789,0,0,1-10.116-6.835l7.747-54.4a6.771,6.771,0,0,0,0-1.914l-7.747-54.4a6.789,6.789,0,0,1,10.116-6.835l97.535,56.311A6.79,6.79,0,0,1,119.493-86.469Z" transform="translate(-11.321 155.465)" fill="#009eff"/>
        <path id="Trazado_10462" data-name="Trazado 10462" d="M19.589-112.043l-7.747,54.4a6.789,6.789,0,0,0,10.116,6.835l97.535-56.311a6.725,6.725,0,0,0,3.395-5.88H19.657A6.672,6.672,0,0,1,19.589-112.043Z" transform="translate(-11.321 176.116)" fill="#008fff"/>
        <path id="Trazado_10463" data-name="Trazado 10463" d="M29.133-110.021a8.832,8.832,0,0,1-8.832,8.833,8.833,8.833,0,0,1-8.833-8.833,8.833,8.833,0,0,1,8.833-8.833A8.832,8.832,0,0,1,29.133-110.021Z" transform="translate(-11.468 173.27)" fill="#feb64f"/>
      </g>
      <path id="Trazado_12634" data-name="Trazado 12634" d="M9.578.313a7.042,7.042,0,0,1-6.07-2.922Q1.391-5.531,1.391-11.3q0-5.781,2.109-8.687a7.05,7.05,0,0,1,6.078-2.906,7.035,7.035,0,0,1,6.063,2.906Q17.75-17.078,17.75-11.3q0,5.766-2.117,8.688A7.026,7.026,0,0,1,9.578.313Zm0-4.062A2.968,2.968,0,0,0,12.289-5.6a12.891,12.891,0,0,0,.961-5.7,12.8,12.8,0,0,0-.969-5.7,2.974,2.974,0,0,0-2.7-1.852q-3.688,0-3.687,7.547T9.578-3.75ZM28.625.313q-4.219,0-6.156-2.062T20.531-8.062l4.609-.2a16.322,16.322,0,0,0,.07,1.656,5.725,5.725,0,0,0,.281,1.281,2.293,2.293,0,0,0,.594.961,2.7,2.7,0,0,0,1.016.555,5.019,5.019,0,0,0,1.523.2,3.661,3.661,0,0,0,2.664-.906,3.168,3.168,0,0,0,.93-2.375,3.193,3.193,0,0,0-.891-2.445,3.352,3.352,0,0,0-2.391-.836h-.875v-3.5h.813a2.443,2.443,0,0,0,1.867-.8,2.841,2.841,0,0,0,.742-2.016,2.271,2.271,0,0,0-.812-1.875,3.3,3.3,0,0,0-2.141-.656,3.208,3.208,0,0,0-1.219.211,2.273,2.273,0,0,0-.82.539,2.384,2.384,0,0,0-.484.828,4.352,4.352,0,0,0-.234.984,9.829,9.829,0,0,0-.055,1.094l-4.547-.219a7.228,7.228,0,0,1,1.938-5.43,7.388,7.388,0,0,1,5.375-1.883,7.684,7.684,0,0,1,5.156,1.727,5.407,5.407,0,0,1,2.031,4.289,4.882,4.882,0,0,1-.867,2.906,4.965,4.965,0,0,1-1.977,1.719,5.564,5.564,0,0,1,1.438.641,5.892,5.892,0,0,1,1.258,1.078,4.811,4.811,0,0,1,.93,1.641A6.6,6.6,0,0,1,36.8-6.7a6.381,6.381,0,0,1-2.234,5.1A8.813,8.813,0,0,1,28.625.313Z" transform="translate(36.42 -81.969)" fill="#fff"/>
    </g>
  </g>
</svg>
