<svg xmlns="http://www.w3.org/2000/svg" width="111.567" height="126.233" viewBox="0 0 111.567 126.233">
  <g id="Grupo_12030" data-name="Grupo 12030" transform="translate(-330 -9135.999)">
    <g id="Grupo_11170" data-name="Grupo 11170" transform="translate(318.532 9291.465)">
      <g id="Grupo_11161" data-name="Grupo 11161" transform="translate(11.468 -155.465)">
        <path id="Trazado_10461" data-name="Trazado 10461" d="M119.493-86.469,21.958-30.158a6.789,6.789,0,0,1-10.116-6.835l7.747-54.4a6.771,6.771,0,0,0,0-1.914l-7.747-54.4a6.789,6.789,0,0,1,10.116-6.835l97.535,56.311A6.79,6.79,0,0,1,119.493-86.469Z" transform="translate(-11.321 155.465)" fill="#009eff"/>
        <path id="Trazado_10462" data-name="Trazado 10462" d="M19.589-112.043l-7.747,54.4a6.789,6.789,0,0,0,10.116,6.835l97.535-56.311a6.725,6.725,0,0,0,3.395-5.88H19.657A6.672,6.672,0,0,1,19.589-112.043Z" transform="translate(-11.321 176.116)" fill="#008fff"/>
        <path id="Trazado_10463" data-name="Trazado 10463" d="M29.133-110.021a8.832,8.832,0,0,1-8.832,8.833,8.833,8.833,0,0,1-8.833-8.833,8.833,8.833,0,0,1,8.833-8.833A8.832,8.832,0,0,1,29.133-110.021Z" transform="translate(-11.468 173.27)" fill="#feb64f"/>
      </g>
      <path id="Trazado_12640" data-name="Trazado 12640" d="M9.578.313a7.042,7.042,0,0,1-6.07-2.922Q1.391-5.531,1.391-11.3q0-5.781,2.109-8.687a7.05,7.05,0,0,1,6.078-2.906,7.035,7.035,0,0,1,6.063,2.906Q17.75-17.078,17.75-11.3q0,5.766-2.117,8.688A7.026,7.026,0,0,1,9.578.313Zm0-4.062A2.968,2.968,0,0,0,12.289-5.6a12.891,12.891,0,0,0,.961-5.7,12.8,12.8,0,0,0-.969-5.7,2.974,2.974,0,0,0-2.7-1.852q-3.688,0-3.687,7.547T9.578-3.75ZM28.7-22.875a8.73,8.73,0,0,1,4.211,1.023,7.7,7.7,0,0,1,2.992,2.828A7.583,7.583,0,0,1,37-15.016a9.224,9.224,0,0,1-2.016,5.5L27.953,0H22.828l5.844-7.641a7.481,7.481,0,0,1-1.016.063,7.387,7.387,0,0,1-3.578-.9,7.055,7.055,0,0,1-2.7-2.617A7.4,7.4,0,0,1,20.344-15,7.239,7.239,0,0,1,22.8-20.633,8.483,8.483,0,0,1,28.7-22.875Zm4.063,8.031a3.858,3.858,0,0,0-1.039-2.883,3.854,3.854,0,0,0-2.9-1.1,4.06,4.06,0,0,0-2.93,1.1,3.806,3.806,0,0,0-1.164,2.836,3.862,3.862,0,0,0,1.094,2.906,3.963,3.963,0,0,0,2.953,1.141,3.782,3.782,0,0,0,2.859-1.141A4.081,4.081,0,0,0,32.766-14.844Z" transform="translate(36.42 -81.969)" fill="#fff"/>
    </g>
  </g>
</svg>
