<svg xmlns="http://www.w3.org/2000/svg" width="111.567" height="126.233" viewBox="0 0 111.567 126.233">
  <g id="Grupo_12026" data-name="Grupo 12026" transform="translate(-330 -8198.999)">
    <g id="Grupo_11166" data-name="Grupo 11166" transform="translate(318.532 8354.465)">
      <g id="Grupo_11161" data-name="Grupo 11161" transform="translate(11.468 -155.465)">
        <path id="Trazado_10461" data-name="Trazado 10461" d="M119.493-86.469,21.958-30.158a6.789,6.789,0,0,1-10.116-6.835l7.747-54.4a6.771,6.771,0,0,0,0-1.914l-7.747-54.4a6.789,6.789,0,0,1,10.116-6.835l97.535,56.311A6.79,6.79,0,0,1,119.493-86.469Z" transform="translate(-11.321 155.465)" fill="#009eff"/>
        <path id="Trazado_10462" data-name="Trazado 10462" d="M19.589-112.043l-7.747,54.4a6.789,6.789,0,0,0,10.116,6.835l97.535-56.311a6.725,6.725,0,0,0,3.395-5.88H19.657A6.672,6.672,0,0,1,19.589-112.043Z" transform="translate(-11.321 176.116)" fill="#008fff"/>
        <path id="Trazado_10463" data-name="Trazado 10463" d="M29.133-110.021a8.832,8.832,0,0,1-8.832,8.833,8.833,8.833,0,0,1-8.833-8.833,8.833,8.833,0,0,1,8.833-8.833A8.832,8.832,0,0,1,29.133-110.021Z" transform="translate(-11.468 173.27)" fill="#feb64f"/>
      </g>
      <path id="Trazado_12636" data-name="Trazado 12636" d="M9.578.313a7.042,7.042,0,0,1-6.07-2.922Q1.391-5.531,1.391-11.3q0-5.781,2.109-8.687a7.05,7.05,0,0,1,6.078-2.906,7.035,7.035,0,0,1,6.063,2.906Q17.75-17.078,17.75-11.3q0,5.766-2.117,8.688A7.026,7.026,0,0,1,9.578.313Zm0-4.062A2.968,2.968,0,0,0,12.289-5.6a12.891,12.891,0,0,0,.961-5.7,12.8,12.8,0,0,0-.969-5.7,2.974,2.974,0,0,0-2.7-1.852q-3.688,0-3.687,7.547T9.578-3.75ZM28.219-14.641q8.672,0,8.672,7.125A7.611,7.611,0,0,1,34.7-1.8,7.906,7.906,0,0,1,28.938.328,9.564,9.564,0,0,1,24.9-.508a6.969,6.969,0,0,1-2.93-2.484,6.653,6.653,0,0,1-1.109-3.8,7.025,7.025,0,0,1,.094-1.125l4.469-.2a6.6,6.6,0,0,0-.109,1,3.04,3.04,0,0,0,1.016,2.492,3.828,3.828,0,0,0,2.516.836,3.467,3.467,0,0,0,2.625-.961,3.579,3.579,0,0,0,.922-2.586,3.219,3.219,0,0,0-1.125-2.641,6.025,6.025,0,0,0-3.781-.922H21.563L22.5-22.578H35.828v4.016H26.547l-.3,3.922Z" transform="translate(36.42 -81.969)" fill="#fff"/>
    </g>
  </g>
</svg>
