<svg xmlns="http://www.w3.org/2000/svg" width="111.567" height="126.232" viewBox="0 0 111.567 126.232">
  <g id="Grupo_12023" data-name="Grupo 12023" transform="translate(-330 -7526)">
    <g id="Grupo_11163" data-name="Grupo 11163" transform="translate(318.532 7681.465)">
      <g id="Grupo_11161" data-name="Grupo 11161" transform="translate(11.468 -155.465)">
        <path id="Trazado_10461" data-name="Trazado 10461" d="M119.493-86.469,21.958-30.158a6.789,6.789,0,0,1-10.116-6.835l7.747-54.4a6.771,6.771,0,0,0,0-1.914l-7.747-54.4a6.789,6.789,0,0,1,10.116-6.835l97.535,56.311A6.79,6.79,0,0,1,119.493-86.469Z" transform="translate(-11.321 155.465)" fill="#009eff"/>
        <path id="Trazado_10462" data-name="Trazado 10462" d="M19.589-112.043l-7.747,54.4a6.789,6.789,0,0,0,10.116,6.835l97.535-56.311a6.725,6.725,0,0,0,3.395-5.88H19.657A6.672,6.672,0,0,1,19.589-112.043Z" transform="translate(-11.321 176.116)" fill="#008fff"/>
        <path id="Trazado_10463" data-name="Trazado 10463" d="M29.133-110.021a8.832,8.832,0,0,1-8.832,8.833,8.833,8.833,0,0,1-8.833-8.833,8.833,8.833,0,0,1,8.833-8.833A8.832,8.832,0,0,1,29.133-110.021Z" transform="translate(-11.468 173.27)" fill="#feb64f"/>
      </g>
      <path id="Trazado_12633" data-name="Trazado 12633" d="M9.578.313a7.042,7.042,0,0,1-6.07-2.922Q1.391-5.531,1.391-11.3q0-5.781,2.109-8.687a7.05,7.05,0,0,1,6.078-2.906,7.035,7.035,0,0,1,6.063,2.906Q17.75-17.078,17.75-11.3q0,5.766-2.117,8.688A7.026,7.026,0,0,1,9.578.313Zm0-4.062A2.968,2.968,0,0,0,12.289-5.6a12.891,12.891,0,0,0,.961-5.7,12.8,12.8,0,0,0-.969-5.7,2.974,2.974,0,0,0-2.7-1.852q-3.688,0-3.687,7.547T9.578-3.75Zm17.391-.266h9.625V0H20.672V-3.391l8.984-9.172a5.654,5.654,0,0,0,1.953-3.891,2.752,2.752,0,0,0-.8-2.094,3.168,3.168,0,0,0-2.273-.766q-3.2,0-3.2,3.641V-14l-4.484-.453v-1.125a7.041,7.041,0,0,1,2.063-5.43A7.9,7.9,0,0,1,28.5-22.922a8.275,8.275,0,0,1,5.445,1.734,5.845,5.845,0,0,1,2.1,4.766,6.758,6.758,0,0,1-.711,3.094,12.931,12.931,0,0,1-2.258,3.016Z" transform="translate(36.42 -81.969)" fill="#fff"/>
    </g>
  </g>
</svg>
