<svg xmlns="http://www.w3.org/2000/svg" width="111.567" height="126.232" viewBox="0 0 111.567 126.232">
  <g id="Grupo_12024" data-name="Grupo 12024" transform="translate(-330 -7756)">
    <g id="Grupo_11164" data-name="Grupo 11164" transform="translate(318.532 7911.465)">
      <g id="Grupo_11161" data-name="Grupo 11161" transform="translate(11.468 -155.465)">
        <path id="Trazado_10461" data-name="Trazado 10461" d="M119.493-86.469,21.958-30.158a6.789,6.789,0,0,1-10.116-6.835l7.747-54.4a6.771,6.771,0,0,0,0-1.914l-7.747-54.4a6.789,6.789,0,0,1,10.116-6.835l97.535,56.311A6.79,6.79,0,0,1,119.493-86.469Z" transform="translate(-11.321 155.465)" fill="#009eff"/>
        <path id="Trazado_10462" data-name="Trazado 10462" d="M19.589-112.043l-7.747,54.4a6.789,6.789,0,0,0,10.116,6.835l97.535-56.311a6.725,6.725,0,0,0,3.395-5.88H19.657A6.672,6.672,0,0,1,19.589-112.043Z" transform="translate(-11.321 176.116)" fill="#008fff"/>
        <path id="Trazado_10463" data-name="Trazado 10463" d="M29.133-110.021a8.832,8.832,0,0,1-8.832,8.833,8.833,8.833,0,0,1-8.833-8.833,8.833,8.833,0,0,1,8.833-8.833A8.832,8.832,0,0,1,29.133-110.021Z" transform="translate(-11.468 173.27)" fill="#feb64f"/>
      </g>
      <text id="_03" data-name="03" transform="translate(36.42 -81.969)" fill="#fff" font-size="32" font-family="CerebriSans-Bold, Cerebri Sans" font-weight="700"><tspan x="0" y="0">03</tspan></text>
    </g>
  </g>
</svg>
