<svg xmlns="http://www.w3.org/2000/svg" width="121" height="121" viewBox="0 0 121 121">
  <g id="Grupo_12014" data-name="Grupo 12014" transform="translate(-235 -3897)">
    <g id="Grupo_11087" data-name="Grupo 11087" transform="translate(0 -228)">
      <circle id="Elipse_497" data-name="Elipse 497" cx="60.5" cy="60.5" r="60.5" transform="translate(235 4125)" fill="#feb64f"/>
      <path id="Trazado_1178" data-name="Trazado 1178" d="M53.993,0A53.993,53.993,0,1,1,0,53.993,53.993,53.993,0,0,1,53.993,0Z" transform="translate(242 4132)" fill="#fff"/>
    </g>
    <g id="human" transform="translate(268 3925.004)">
      <path id="Trazado_10331" data-name="Trazado 10331" d="M31.878,19H43V13h3a3,3,0,0,0,0-6H43V3H30a3,3,0,0,0-3,3V17.823l1.15-.555A2.744,2.744,0,0,1,31.878,19Z" fill="#f2a811"/>
      <path id="Trazado_10332" data-name="Trazado 10332" d="M56,42a3,3,0,1,1-6,0V39H45v4H42a3,3,0,0,0,0,6h3v6H58a3,3,0,0,0,3-3V39H56Z" fill="#10bde0"/>
      <path id="Trazado_10333" data-name="Trazado 10333" d="M58,23H45v4h3a3,3,0,0,1,0,6H45v6h5v3a3,3,0,0,0,6,0V39h5V26A3,3,0,0,0,58,23Z" fill="#8ef059"/>
      <path id="Trazado_10334" data-name="Trazado 10334" d="M42,49a3,3,0,0,1,0-6h3V39H29V52a3,3,0,0,0,3,3H45V49Z" fill="#e3d810"/>
      <circle id="Elipse_696" data-name="Elipse 696" cx="7" cy="7" r="7" transform="translate(9 3)" fill="#d9d9d9"/>
      <path id="Trazado_10335" data-name="Trazado 10335" d="M31.878,19a2.744,2.744,0,0,0-3.728-1.732L27,17.823l-5.478,2.645a6.988,6.988,0,0,0-4.672-3.339A7.108,7.108,0,0,0,8.615,22.31L4.631,34.861a14.026,14.026,0,0,0,.6,10.047,14.031,14.031,0,0,1-.223,12.077L3,61H14a3.994,3.994,0,0,0-3.061-3.878l.97-1.94A14.028,14.028,0,0,0,13.164,46.4l-.742-4.08a1.968,1.968,0,1,1,3.872-.7l1.358,7.471A21.512,21.512,0,0,1,18,52.944V61H29a3.981,3.981,0,0,0-.027-.466,3.722,3.722,0,0,0-5.573-2.62l-.884.5,1.065-5.325A21.529,21.529,0,0,0,24,48.865V40L22.776,25.919,30.353,22.3A2.719,2.719,0,0,0,31.878,19Z" fill="#d9d9d9"/>
      <path id="Trazado_10336" data-name="Trazado 10336" d="M58,22H45a1,1,0,0,0-1,1v4a1,1,0,0,0,1,1h3a2,2,0,0,1,0,4H45a1,1,0,0,0-1,1v5H29a1,1,0,0,0-1,1V52a4,4,0,0,0,4,4H58a4,4,0,0,0,4-4V26A4,4,0,0,0,58,22ZM48,34a4,4,0,0,0,0-8H46V24H58a2,2,0,0,1,2,2V38H56a1,1,0,0,0-1,1v3a2,2,0,0,1-4,0V39a1,1,0,0,0-1-1H46V34ZM44,54H32a2,2,0,0,1-2-2V40H44v2H42a4,4,0,0,0,0,8h2Zm16-2a2,2,0,0,1-2,2H46V49a1,1,0,0,0-1-1H42a2,2,0,0,1,0-4h3a1,1,0,0,0,1-1V40h3v2a4,4,0,0,0,8,0V40h3Z"/>
      <path id="Trazado_10337" data-name="Trazado 10337" d="M3,62H14a1,1,0,0,0,1-1,4.972,4.972,0,0,0-2.674-4.417l.478-.954a15.115,15.115,0,0,0,1.343-9.408l-.742-4.08a.969.969,0,0,1,1.906-.347l1.358,7.472A20.611,20.611,0,0,1,17,52.944V61a1,1,0,0,0,1,1H29a1,1,0,0,0,1-1,5.012,5.012,0,0,0-.034-.581A4.428,4.428,0,0,0,27.5,56.938a4.846,4.846,0,0,0-3.606-.32l.666-3.328A22.622,22.622,0,0,0,25,48.865V39.914L23.832,26.523l6.939-3.311A3.737,3.737,0,0,0,32.984,20H43a1,1,0,0,0,1-1V14h2a4,4,0,1,0,0-8H44V3a1,1,0,0,0-1-1H30a4,4,0,0,0-4,4V17.2l-4.137,2a8.15,8.15,0,0,0-2.276-2.052,8,8,0,1,0-7.689-.286,8.019,8.019,0,0,0-4.236,5.152L3.678,34.559a15,15,0,0,0,.643,10.763,12.973,12.973,0,0,1-.208,11.216L2.1,60.553A1,1,0,0,0,3,62ZM29.953,21.388l-.03.013L16.448,27.83a1.711,1.711,0,0,1-1.481-3.086l13.583-6.56a1.748,1.748,0,0,1,2.45,1.6,1.75,1.75,0,0,1-1.047,1.6ZM30,4H42V7a1,1,0,0,0,1,1h3a2,2,0,0,1,0,4H43a1,1,0,0,0-1,1v5H32.549A3.737,3.737,0,0,0,28,16.262V6a2,2,0,0,1,2-2ZM10,10a6,6,0,1,1,6,6A6,6,0,0,1,10,10ZM5.9,57.432a14.968,14.968,0,0,0,.24-12.938,13,13,0,0,1-.558-9.33l4-12.6a6.144,6.144,0,0,1,7.081-4.452,5.9,5.9,0,0,1,3.347,1.976L14.1,22.943a3.711,3.711,0,0,0,3.21,6.692l4.6-2.193L23,40v8.865a20.7,20.7,0,0,1-.4,4.032l-1.066,5.326a1,1,0,0,0,1.477,1.065l.884-.506a2.846,2.846,0,0,1,2.7-.059A2.512,2.512,0,0,1,27.811,60H19V52.944a22.568,22.568,0,0,0-.364-4.035l-1.358-7.472a2.968,2.968,0,1,0-5.84,1.062l.743,4.08a13.107,13.107,0,0,1-1.166,8.155l-.971,1.941A1,1,0,0,0,10.7,58.1,2.989,2.989,0,0,1,12.828,60H4.618Z"/>
      <path id="Trazado_10338" data-name="Trazado 10338" d="M33,31.586l-3.293-3.293-1.414,1.414,7,7a1,1,0,0,0,1.414,0l7-7-1.414-1.414L39,31.586V26H37v7.586l-1,1-1-1V30H33Z"/>
      <path id="Trazado_10339" data-name="Trazado 10339" d="M33,26h2v2H33Z"/>
      <path id="Trazado_10340" data-name="Trazado 10340" d="M33,22h2v2H33Z"/>
      <path id="Trazado_10341" data-name="Trazado 10341" d="M37,22h2v2H37Z"/>
    </g>
  </g>
</svg>
