<svg xmlns="http://www.w3.org/2000/svg" width="121" height="121" viewBox="0 0 121 121">
  <g id="Grupo_12018" data-name="Grupo 12018" transform="translate(-235 -4785)">
    <g id="Grupo_11146" data-name="Grupo 11146" transform="translate(0 660)">
      <circle id="Elipse_497" data-name="Elipse 497" cx="60.5" cy="60.5" r="60.5" transform="translate(235 4125)" fill="#feb64f"/>
      <path id="Trazado_1178" data-name="Trazado 1178" d="M53.993,0A53.993,53.993,0,1,1,0,53.993,53.993,53.993,0,0,1,53.993,0Z" transform="translate(242 4132)" fill="#fff"/>
    </g>
    <g id="human-body" transform="translate(254.08 4809.898)">
      <g id="Grupo_11150" data-name="Grupo 11150" transform="translate(13.915 1.17)">
        <circle id="Elipse_700" data-name="Elipse 700" cx="9.36" cy="9.36" r="9.36" transform="translate(18.721)" fill="#a8daf6"/>
        <path id="Trazado_10422" data-name="Trazado 10422" d="M99.459,151.4l4.68-4.68-7.02-7.02-3.91-7.82A7.019,7.019,0,0,0,86.93,128H80.586a9.347,9.347,0,0,1-9.056,0H65.185a7.021,7.021,0,0,0-6.28,3.881L55,139.7l-7.02,8.19,4.68,4.68,8.19-8.19,4.68-8.19v17.551l-7.02,24.571H69.037l7.02-24.571,7.02,24.571H93.608l-7.02-24.571V136.19l4.68,8.19Z" transform="translate(-47.976 -110.449)" fill="#a8daf6"/>
      </g>
      <g id="Grupo_11151" data-name="Grupo 11151" transform="translate(8.08)">
        <path id="Trazado_10423" data-name="Trazado 10423" d="M93.456,42.949l4.68-4.68a1.169,1.169,0,0,0,0-1.654L91.25,29.728l-3.826-7.65A8.145,8.145,0,0,0,80.1,17.551H77.054a10.531,10.531,0,1,0-15.653,0H58.355a8.148,8.148,0,0,0-7.326,4.527l-3.846,7.691-6.926,8.083a1.168,1.168,0,0,0,.061,1.588L45,44.119a1.169,1.169,0,0,0,1.654,0l8.19-8.19a1.179,1.179,0,0,0,.188-.247l2.495-4.364V44.3L50.551,68.712A1.17,1.17,0,0,0,51.677,70.2H62.207a1.171,1.171,0,0,0,1.126-.849l5.895-20.633,5.895,20.634a1.172,1.172,0,0,0,1.126.848H86.778A1.169,1.169,0,0,0,87.9,68.713L80.928,44.3V31.318l2.495,4.364a1.152,1.152,0,0,0,.255.308l8.19,7.02A1.17,1.17,0,0,0,93.456,42.949ZM69.227,2.34a8.188,8.188,0,0,1,3.937,15.369,7.907,7.907,0,0,1-.89.419l-.066.023a8.39,8.39,0,0,1-5.963,0l-.066-.023a7.619,7.619,0,0,1-.89-.419A8.188,8.188,0,0,1,69.227,2.34ZM80.774,26.331a1.17,1.17,0,0,0-2.186.58V44.462a1.178,1.178,0,0,0,.044.321l6.594,23.081h-8.1L70.353,44.142a1.17,1.17,0,0,0-2.251,0L61.325,67.863h-8.1l6.594-23.081a1.178,1.178,0,0,0,.044-.321V26.911a1.17,1.17,0,0,0-2.186-.58l-4.6,8.055-7.252,7.252L42.74,38.55l6.314-7.368a1.155,1.155,0,0,0,.159-.238l3.91-7.821a5.821,5.821,0,0,1,5.232-3.233h6.052c.066.034.137.057.2.089.271.133.549.256.832.365.076.029.152.057.229.084a10.331,10.331,0,0,0,7.112,0c.077-.027.153-.055.229-.084.284-.11.562-.233.833-.366.067-.033.137-.055.2-.089H80.1a5.82,5.82,0,0,1,5.232,3.234l3.91,7.821a1.148,1.148,0,0,0,.22.3l6.191,6.192-3.088,3.087-7.213-6.183Z" transform="translate(-35.311)" fill="#0f272a"/>
        <path id="Trazado_10425" data-name="Trazado 10425" d="M8.08,219.167l2.34.071c.022-.73.069-1.467.14-2.192l-2.328-.23C8.155,217.594,8.1,218.384,8.08,219.167Z" transform="translate(-8.08 -185.105)" fill="#0f272a"/>
        <path id="Trazado_10426" data-name="Trazado 10426" d="M11.272,187.358l2.306.393c.123-.724.273-1.447.443-2.149l-2.273-.553C11.563,185.8,11.4,186.581,11.272,187.358Z" transform="translate(-10.805 -157.983)" fill="#0f272a"/>
        <path id="Trazado_10427" data-name="Trazado 10427" d="M145.767,22.728c-.73.274-1.463.578-2.175.9l.971,2.127c.665-.3,1.347-.586,2.027-.841Z" transform="translate(-123.772 -19.404)" fill="#0f272a"/>
        <path id="Trazado_10428" data-name="Trazado 10428" d="M18.872,156.551l2.23.708c.22-.7.469-1.39.738-2.065l-2.173-.866C19.377,155.056,19.11,155.8,18.872,156.551Z" transform="translate(-17.294 -131.756)" fill="#0f272a"/>
        <path id="Trazado_10429" data-name="Trazado 10429" d="M10.642,250.582c-.077-.714-.131-1.451-.16-2.19l-2.338.091c.03.793.088,1.584.171,2.351Z" transform="translate(-8.135 -212.063)" fill="#0f272a"/>
        <path id="Trazado_10430" data-name="Trazado 10430" d="M30.784,127.383l2.11,1.014c.315-.654.658-1.308,1.02-1.943L31.88,125.3C31.491,125.979,31.122,126.681,30.784,127.383Z" transform="translate(-27.463 -106.971)" fill="#0f272a"/>
        <path id="Trazado_10431" data-name="Trazado 10431" d="M69.672,76.045l-1.64-1.669c-.563.555-1.109,1.129-1.624,1.707l1.75,1.554Q68.887,76.814,69.672,76.045Z" transform="translate(-57.877 -63.498)" fill="#0f272a"/>
        <path id="Trazado_10432" data-name="Trazado 10432" d="M92.336,405.448l-1.5,1.794c.606.509,1.231,1,1.856,1.452l1.378-1.892C93.482,406.378,92.9,405.923,92.336,405.448Z" transform="translate(-78.729 -346.148)" fill="#0f272a"/>
        <path id="Trazado_10433" data-name="Trazado 10433" d="M46.744,100.386l1.947,1.3c.407-.611.838-1.211,1.28-1.784l-1.853-1.427C47.641,99.087,47.18,99.732,46.744,100.386Z" transform="translate(-41.089 -84.07)" fill="#0f272a"/>
        <path id="Trazado_10434" data-name="Trazado 10434" d="M14.357,280.363c-.178-.711-.333-1.434-.461-2.147l-2.3.412c.136.765.3,1.541.495,2.305Z" transform="translate(-11.078 -237.525)" fill="#0f272a"/>
        <path id="Trazado_10435" data-name="Trazado 10435" d="M91.243,53.472c-.626.465-1.246.958-1.843,1.467l1.52,1.78c.556-.474,1.134-.935,1.718-1.367Z" transform="translate(-77.506 -45.651)" fill="#0f272a"/>
        <path id="Trazado_10436" data-name="Trazado 10436" d="M70.911,386.193c-.524-.507-1.038-1.037-1.525-1.577l-1.739,1.566c.523.582,1.075,1.151,1.638,1.7Z" transform="translate(-58.936 -328.363)" fill="#0f272a"/>
        <path id="Trazado_10437" data-name="Trazado 10437" d="M22.435,309.356c-.277-.683-.531-1.376-.756-2.06l-2.223.727c.24.736.512,1.48.81,2.214Z" transform="translate(-17.792 -262.352)" fill="#0f272a"/>
        <path id="Trazado_10438" data-name="Trazado 10438" d="M51.007,362.766c-.453-.577-.888-1.174-1.293-1.774L47.776,362.3c.436.645.9,1.286,1.39,1.906Z" transform="translate(-41.97 -308.194)" fill="#0f272a"/>
        <path id="Trazado_10439" data-name="Trazado 10439" d="M118.435,38.177l-1.117-2.057c-.682.371-1.365.773-2.03,1.2l1.259,1.973C117.166,38.9,117.8,38.521,118.435,38.177Z" transform="translate(-99.608 -30.837)" fill="#0f272a"/>
        <path id="Trazado_10440" data-name="Trazado 10440" d="M34.743,337c-.363-.624-.71-1.274-1.034-1.933l-2.1,1.031c.348.708.721,1.408,1.112,2.079Z" transform="translate(-28.167 -286.065)" fill="#0f272a"/>
        <path id="Trazado_10441" data-name="Trazado 10441" d="M414.185,360.938l-1.947-1.3c-.41.612-.847,1.223-1.3,1.812l1.853,1.431C413.277,362.25,413.746,361.6,414.185,360.938Z" transform="translate(-352.015 -307.04)" fill="#0f272a"/>
        <path id="Trazado_10442" data-name="Trazado 10442" d="M393.952,385.324l-1.748-1.556c-.494.556-1.012,1.1-1.54,1.609l1.63,1.68C392.861,386.5,393.418,385.922,393.952,385.324Z" transform="translate(-334.708 -327.639)" fill="#0f272a"/>
        <path id="Trazado_10443" data-name="Trazado 10443" d="M430.993,334.17l-2.112-1.01c-.317.665-.666,1.33-1.033,1.976l2.034,1.156C430.278,335.6,430.65,334.884,430.993,334.17Z" transform="translate(-366.454 -284.433)" fill="#0f272a"/>
        <path id="Trazado_10444" data-name="Trazado 10444" d="M386.552,71.318c.544.5,1.076,1.031,1.584,1.57l1.7-1.6c-.544-.579-1.116-1.147-1.7-1.686Z" transform="translate(-331.198 -59.42)" fill="#0f272a"/>
        <path id="Trazado_10445" data-name="Trazado 10445" d="M443.991,305.486l-2.232-.7c-.223.714-.474,1.42-.743,2.1l2.175.859C443.481,307.013,443.75,306.254,443.991,305.486Z" transform="translate(-377.696 -260.207)" fill="#0f272a"/>
        <path id="Trazado_10446" data-name="Trazado 10446" d="M311.392,20.711c-.749-.31-1.5-.592-2.245-.839l-.738,2.221c.689.228,1.391.491,2.09.779Z" transform="translate(-264.483 -16.966)" fill="#0f272a"/>
        <path id="Trazado_10447" data-name="Trazado 10447" d="M366.013,50.559c-.624-.5-1.27-.982-1.918-1.431L362.76,51.05c.606.42,1.207.869,1.789,1.335Z" transform="translate(-310.885 -41.943)" fill="#0f272a"/>
        <path id="Trazado_10448" data-name="Trazado 10448" d="M452.883,275.515l-2.309-.379c-.121.73-.268,1.466-.439,2.189l2.276.539C452.6,277.09,452.756,276.3,452.883,275.515Z" transform="translate(-385.482 -234.895)" fill="#0f272a"/>
        <path id="Trazado_10449" data-name="Trazado 10449" d="M448.76,180.887c.19.716.357,1.447.495,2.174l2.3-.439c-.149-.78-.328-1.567-.531-2.334Z" transform="translate(-384.307 -153.92)" fill="#0f272a"/>
        <path id="Trazado_10450" data-name="Trazado 10450" d="M368.749,408.285c.634-.463,1.267-.962,1.883-1.482l-1.511-1.787c-.573.484-1.163.949-1.753,1.38Z" transform="translate(-314.82 -345.779)" fill="#0f272a"/>
        <path id="Trazado_10451" data-name="Trazado 10451" d="M337.608,32.432l-1.048,2.093c.662.331,1.321.692,1.956,1.068l1.195-2.014C339.028,33.175,338.32,32.788,337.608,32.432Z" transform="translate(-288.517 -27.689)" fill="#0f272a"/>
        <path id="Trazado_10452" data-name="Trazado 10452" d="M456.993,214.828c-.037-.8-.1-1.6-.2-2.388l-2.324.276c.087.735.15,1.482.184,2.221Z" transform="translate(-389.184 -181.369)" fill="#0f272a"/>
        <path id="Trazado_10453" data-name="Trazado 10453" d="M407.448,94.934c.463.567.917,1.167,1.349,1.778l1.911-1.35c-.463-.656-.95-1.3-1.447-1.906Z" transform="translate(-349.038 -79.787)" fill="#0f272a"/>
        <path id="Trazado_10454" data-name="Trazado 10454" d="M457.529,244.821l-2.34-.053c-.016.748-.059,1.5-.125,2.229l2.331.213C457.466,246.425,457.512,245.62,457.529,244.821Z" transform="translate(-389.689 -208.969)" fill="#0f272a"/>
        <path id="Trazado_10455" data-name="Trazado 10455" d="M438.872,150.25c.289.681.558,1.382.8,2.08l2.213-.761c-.259-.752-.548-1.5-.858-2.234Z" transform="translate(-375.866 -127.495)" fill="#0f272a"/>
        <path id="Trazado_10456" data-name="Trazado 10456" d="M424.992,121.4c.376.622.742,1.279,1.086,1.949l2.082-1.069c-.367-.717-.759-1.42-1.165-2.091Z" transform="translate(-364.016 -102.613)" fill="#0f272a"/>
        <rect id="Rectángulo_2840" data-name="Rectángulo 2840" width="2.34" height="2.34" transform="translate(32.746 66.693)" fill="#0f272a"/>
      </g>
    </g>
  </g>
</svg>
