<svg xmlns="http://www.w3.org/2000/svg" width="155.228" height="155.228" viewBox="0 0 155.228 155.228">
  <g id="human-rights" transform="translate(-0.001 0.002)">
    <g id="Grupo_11323" data-name="Grupo 11323" transform="translate(0.001 -0.002)">
      <g id="Grupo_11322" data-name="Grupo 11322" transform="translate(0 0)">
        <path id="Trazado_10734" data-name="Trazado 10734" d="M27.319,142.026a4.75,4.75,0,0,0,2.271-.582,9.779,9.779,0,0,0,4.153-4.355c.042,0,.083.005.124.005a4.741,4.741,0,0,0,2.26-.572,9.775,9.775,0,0,0,3.927-3.917,4.724,4.724,0,0,0,1.815-.552,9.836,9.836,0,0,0,3.953-13.337L40.058,108.1a61.937,61.937,0,0,0,7.124-15.335,69.659,69.659,0,0,0,2.344-11.647,14.06,14.06,0,0,0-4.051-11.642L19.681,43.677a2.274,2.274,0,0,0-3.216,3.216L42.26,72.687a9.537,9.537,0,0,1,2.75,7.9,65.09,65.09,0,0,1-2.188,10.884,56,56,0,0,1-5.037,11.611l-2.726-5.023c4.322-2.69,6.772-9.6,6.883-14.765a2.274,2.274,0,0,0-2.224-2.322h-.05A2.274,2.274,0,0,0,37.4,83.193c-.1,4.449-2.278,9.495-4.764,11.017-.261.16-1.153.635-1.7.921a2.274,2.274,0,0,0-.949,3.1l4.769,8.787a6.2,6.2,0,0,1-2.488,8.394.52.52,0,0,1-.688-.181l-9.4-15.069L21.678,89.3a6.421,6.421,0,0,1,1.633-4.591l4.77-5.344L32,77.239a2.274,2.274,0,1,0-2.169-4l-4.264,2.314a2.278,2.278,0,0,0-.612.484l-.83.93L3.762,59.364A2.274,2.274,0,0,0,.787,62.8l20.306,17.56L19.918,81.68a10.945,10.945,0,0,0-2.783,7.825l.268,5.924c-.017.046-2.538,8.537-2.538,8.537a2.274,2.274,0,1,0,4.36,1.292l.246-.83,4.824,7.73-1.351,4.559a2.273,2.273,0,0,0,.182,1.731l6.42,11.828a5.289,5.289,0,0,1-2.125,7.171.188.188,0,0,1-.25-.071L15.628,117.4l.55-1.858a2.274,2.274,0,1,0-4.36-1.292l-.828,2.8a2.274,2.274,0,0,0,.211,1.784l12.032,20.825a4.706,4.706,0,0,0,4.085,2.374ZM42.247,124.91a5.268,5.268,0,0,1-1.035,1.913,9.78,9.78,0,0,0-1.133-3.638l-3.095-5.7a10.693,10.693,0,0,0,1.726-2.335l3.114,5.737a5.254,5.254,0,0,1,.423,4.026Zm-14.011-6.58a5.056,5.056,0,0,0,4.886,1.57l2.96,5.454a5.293,5.293,0,0,1-1.382,6.675,9.775,9.775,0,0,0-1.158-3.922Z" transform="translate(-0.001 -29.97)" fill="#166eb5"/>
        <path id="Trazado_10735" data-name="Trazado 10735" d="M382.376,190.763l6.417-21.543a2.274,2.274,0,0,0-.211-1.784L376.55,146.612a4.709,4.709,0,0,0-6.357-1.792,9.761,9.761,0,0,0-4.159,4.355,4.719,4.719,0,0,0-2.378.568,9.776,9.776,0,0,0-3.929,3.919,4.726,4.726,0,0,0-1.814.55,9.836,9.836,0,0,0-3.953,13.337l5.764,10.619A61.672,61.672,0,0,0,352.6,193.5a69.664,69.664,0,0,0-2.344,11.647,14.06,14.06,0,0,0,4.051,11.642l25.238,25.238a2.274,2.274,0,0,0,3.216-3.216l-25.238-25.238a9.537,9.537,0,0,1-2.75-7.9,65.086,65.086,0,0,1,2.188-10.884A56.487,56.487,0,0,1,362,183.189l2.724,5.018c-4.322,2.69-6.772,9.6-6.883,14.765a2.274,2.274,0,0,0,4.546.1c.1-4.449,2.278-9.495,4.764-11.017.261-.16,1.153-.635,1.7-.921a2.274,2.274,0,0,0,.949-3.1l-4.77-8.788a6.2,6.2,0,0,1,2.488-8.394.52.52,0,0,1,.688.181l9.4,15.07.492,10.864a6.421,6.421,0,0,1-1.633,4.591L371.7,206.9l-3.916,2.125a2.274,2.274,0,1,0,2.17,4l4.264-2.314a2.281,2.281,0,0,0,.612-.484l.843-.944,19.794,17.067a2.274,2.274,0,0,0,2.97-3.444L378.7,205.885l1.163-1.3a10.943,10.943,0,0,0,2.783-7.825Zm-24.841-29.409a5.268,5.268,0,0,1,1.035-1.913,9.78,9.78,0,0,0,1.133,3.638l3.095,5.7a10.69,10.69,0,0,0-1.726,2.335l-3.114-5.737A5.253,5.253,0,0,1,357.535,161.353Zm9.125,5.011-2.961-5.454a5.293,5.293,0,0,1,1.377-6.671,9.807,9.807,0,0,0,1.163,3.918l5.312,9.787A5.079,5.079,0,0,0,366.66,166.364Zm8.827,7.74,1.351-4.559a2.273,2.273,0,0,0-.182-1.731l-6.42-11.829a5.288,5.288,0,0,1,2.125-7.171.188.188,0,0,1,.25.071l11.543,19.978-3.844,12.97Z" transform="translate(-243.997 -100.507)" fill="#166eb5"/>
        <path id="Trazado_10736" data-name="Trazado 10736" d="M95.583,380.6l21.462,6.361a2.274,2.274,0,0,0,1.784-.211l20.825-12.032a4.709,4.709,0,0,0,1.792-6.357,9.781,9.781,0,0,0-4.355-4.153,4.706,4.706,0,0,0-.568-2.384,9.775,9.775,0,0,0-3.918-3.927,4.716,4.716,0,0,0-.551-1.815,9.836,9.836,0,0,0-13.337-3.953l-10.62,5.764a62.672,62.672,0,0,0-15.334-7.124,69.7,69.7,0,0,0-11.647-2.344,14.061,14.061,0,0,0-11.642,4.052L43.679,378.265A2.274,2.274,0,0,0,46.9,381.48L72.69,355.686a9.538,9.538,0,0,1,7.9-2.751,65.151,65.151,0,0,1,10.885,2.188,56.454,56.454,0,0,1,11.606,5.039l-5.019,2.724c-2.69-4.322-9.6-6.772-14.765-6.884h-.05a2.274,2.274,0,0,0-.048,4.547c4.45.1,9.495,2.278,11.018,4.764.16.261.635,1.153.921,1.7a2.274,2.274,0,0,0,3.1.949l8.788-4.769a6.191,6.191,0,0,1,8.394,2.488.519.519,0,0,1-.181.687l-15.069,9.4-10.864.492a6.42,6.42,0,0,1-4.59-1.633l-5.345-4.771-2.125-3.916a2.274,2.274,0,0,0-4,2.169l2.314,4.264a2.278,2.278,0,0,0,.484.612l.93.83-17.607,20.36a2.274,2.274,0,0,0,3.44,2.975l17.56-20.306,1.317,1.175A10.935,10.935,0,0,0,89,380.822q.253,0,.508-.012ZM119.9,364.823l5.454-2.961a5.293,5.293,0,0,1,6.675,1.382,9.778,9.778,0,0,0-3.922,1.158l-9.785,5.311A5.078,5.078,0,0,0,119.9,364.823Zm.986-8.7a5.281,5.281,0,0,1,5.938.612,9.78,9.78,0,0,0-3.638,1.133l-5.7,3.093a10.605,10.605,0,0,0-2.331-1.728Zm16.492,14.655L117.4,382.319l-12.97-3.844,7.73-4.824L116.719,375a2.274,2.274,0,0,0,1.731-.182l11.828-6.42a5.3,5.3,0,0,1,7.171,2.125.186.186,0,0,1-.07.251Z" transform="translate(-29.973 -242.717)" fill="#166eb5"/>
        <path id="Trazado_10737" data-name="Trazado 10737" d="M327.864,80.764c-1.874-.22-3.745-.515-5.561-.879a2.274,2.274,0,0,0-.892,4.459c1.935.387,3.928.7,5.923.936a14.3,14.3,0,0,0,1.668.1,14.054,14.054,0,0,0,9.974-4.15l25.238-25.238A2.274,2.274,0,0,0,361,52.775L335.76,78.013a9.534,9.534,0,0,1-7.9,2.751Z" transform="translate(-222.693 -36.31)" fill="#166eb5"/>
        <path id="Trazado_10738" data-name="Trazado 10738" d="M149.179,33.186a4.73,4.73,0,0,0,.562,2.382,9.771,9.771,0,0,0,3.917,3.924,4.709,4.709,0,0,0,.552,1.818,9.772,9.772,0,0,0,5.85,4.739,9.776,9.776,0,0,0,7.487-.786l10.62-5.764a64.242,64.242,0,0,0,10.375,5.38,2.274,2.274,0,0,0,1.709-4.214,59.692,59.692,0,0,1-7.065-3.44l5.02-2.724c2.69,4.322,9.6,6.772,14.765,6.884h.05a2.274,2.274,0,0,0,.048-4.547c-4.45-.1-9.495-2.278-11.018-4.764-.16-.261-.635-1.153-.921-1.7a2.274,2.274,0,0,0-3.1-.949l-8.787,4.769a6.191,6.191,0,0,1-8.394-2.488.519.519,0,0,1,.181-.687l15.069-9.4,10.864-.492a6.427,6.427,0,0,1,4.59,1.633l5.345,4.771,2.125,3.916a2.274,2.274,0,0,0,4-2.169l-2.314-4.264a2.277,2.277,0,0,0-.484-.612l-.944-.843L226.345,3.757A2.274,2.274,0,0,0,222.9.787L205.885,20.522l-1.3-1.163a10.946,10.946,0,0,0-7.824-2.783l-5.9.267L169.22,10.43a2.275,2.275,0,0,0-1.784.211L146.611,22.673a4.709,4.709,0,0,0-1.792,6.357,9.778,9.778,0,0,0,4.36,4.156Zm17.184-.622-5.454,2.961a5.293,5.293,0,0,1-6.676-1.383,9.776,9.776,0,0,0,3.923-1.157l9.785-5.311A5.079,5.079,0,0,0,166.364,32.564Zm-.985,8.7a5.282,5.282,0,0,1-5.94-.614,9.777,9.777,0,0,0,3.64-1.131l5.7-3.093a10.609,10.609,0,0,0,2.332,1.728ZM148.886,26.611l19.978-11.543,12.97,3.844-7.73,4.824-4.559-1.351a2.273,2.273,0,0,0-1.731.182l-11.828,6.42a5.288,5.288,0,0,1-7.17-2.125.186.186,0,0,1,.071-.251Z" transform="translate(-100.508 0.002)" fill="#166eb5"/>
        <path id="Trazado_10739" data-name="Trazado 10739" d="M201.512,233.675a.141.141,0,0,1-.2,0l-8.923-8.923a2.274,2.274,0,0,0-3.216,3.216l8.923,8.923a4.7,4.7,0,0,0,6.631,0L220.817,220.8a14.857,14.857,0,0,0-19.4-22.4,14.856,14.856,0,0,0-19.891,21.886,2.274,2.274,0,0,0,3.367-3.057,10.308,10.308,0,0,1,14.918-14.22,2.274,2.274,0,0,0,3.212,0A10.309,10.309,0,0,1,217.6,217.587Z" transform="translate(-123.799 -136.201)" fill="#f4511e"/>
      </g>
    </g>
  </g>
</svg>
