<svg xmlns="http://www.w3.org/2000/svg" width="121" height="121" viewBox="0 0 121 121">
  <g id="Grupo_12020" data-name="Grupo 12020" transform="translate(-235 -5308)">
    <g id="Grupo_11154" data-name="Grupo 11154" transform="translate(0 1183)">
      <circle id="Elipse_497" data-name="Elipse 497" cx="60.5" cy="60.5" r="60.5" transform="translate(235 4125)" fill="#feb64f"/>
      <path id="Trazado_1178" data-name="Trazado 1178" d="M53.993,0A53.993,53.993,0,1,1,0,53.993,53.993,53.993,0,0,1,53.993,0Z" transform="translate(242 4132)" fill="#fff"/>
    </g>
    <g id="Page-1" transform="translate(263.03 5338.003)">
      <g id="_034---Empathy" data-name="034---Empathy" transform="translate(0 -1)">
        <path id="Shape" d="M46.26,38.71a17.99,17.99,0,0,0-1.39,9.3,34.947,34.947,0,0,0,1.22,6.09,20.47,20.47,0,0,0,1.19,3.01,25,25,0,0,1,1.6,2.82L23.78,60v-.01c-.08-.3-1.59-6.18-4.93-7.69-.62.22-1.28.44-1.95.67a67.669,67.669,0,0,1-6.77,1.96,2.574,2.574,0,0,1-1.86-.26,3.143,3.143,0,0,1-1.35-1.73,4.983,4.983,0,0,1-.28-2.23,6.2,6.2,0,0,0,.23-2.38c-.26-1.01-1.22-1.26-1.98-1.8-.62-.44.49-1.85.49-1.85s-1.18-.87-1.6-1.24c-.44-.37.18-.99.73-2.16a2.73,2.73,0,0,0,.19-1.62c-.21-1.07-1.83-1.47-2.63-2.07-.38-.28-.99-.7-1.06-1.21-.11-.71.73-1.71,1.14-2.21a39.332,39.332,0,0,0,4.46-7.25,2.062,2.062,0,0,0,.28-.89c-.02-1.43-2.09-2.02-2.28-3.41a2.466,2.466,0,0,1,.21-1.19A30.527,30.527,0,0,0,6.3,17.65a30.138,30.138,0,0,1,.95-3.5,18.277,18.277,0,0,1,3.8-6.2c2.45-2.59,6.07-3.87,9.49-4.55a66.668,66.668,0,0,1,9.23-1.35c.1-.01.2-.01.3-.02,6.4-.32,11.46,1.85,16.42,5.74a15.515,15.515,0,0,1,5.63,8.08,29.126,29.126,0,0,1,1.01,8.2,14.377,14.377,0,0,1-2.3,7.7C49.34,34.11,47.39,36.14,46.26,38.71Z" fill="#61a1c5"/>
        <path id="Shape-2" data-name="Shape" d="M43.26,38.71a17.99,17.99,0,0,0-1.39,9.3,34.947,34.947,0,0,0,1.22,6.09,20.47,20.47,0,0,0,1.19,3.01,25,25,0,0,1,1.6,2.82l-22.1.06c-.08-.3-1.59-6.18-4.93-7.69-.62.22-1.28.44-1.95.67a4.547,4.547,0,0,0-1.05-.67c-2.41.84-5.35,1.81-7.58,2.37a3.143,3.143,0,0,1-1.35-1.73,4.983,4.983,0,0,1-.28-2.23,6.2,6.2,0,0,0,.23-2.38c-.26-1.01-1.22-1.26-1.98-1.8-.62-.44.49-1.85.49-1.85s-1.18-.87-1.6-1.24c-.44-.37.18-.99.73-2.16a2.73,2.73,0,0,0,.19-1.62c-.21-1.07-1.83-1.47-2.63-2.07-.38-.28-.99-.7-1.06-1.21-.11-.71.73-1.71,1.14-2.21a39.332,39.332,0,0,0,4.46-7.25,2.062,2.062,0,0,0,.28-.89c-.02-1.43-2.09-2.02-2.28-3.41a2.466,2.466,0,0,1,.21-1.19A30.527,30.527,0,0,0,6.3,17.65a30.138,30.138,0,0,1,.95-3.5,18.277,18.277,0,0,1,3.8-6.2c2.45-2.59,6.07-3.87,9.49-4.55a66.668,66.668,0,0,1,9.23-1.35c5.16.32,9.48,2.39,13.72,5.72a15.515,15.515,0,0,1,5.63,8.08,29.126,29.126,0,0,1,1.01,8.2,14.377,14.377,0,0,1-2.3,7.7C46.34,34.11,44.39,36.14,43.26,38.71Z" fill="#a8daf6"/>
        <path id="Shape-3" data-name="Shape" d="M21.92,25.42l-.24-.25" fill="#fdd7ad"/>
        <path id="Shape-4" data-name="Shape" d="M56.27,24.96l-.24.25-5.98,6.04h-.02a2.045,2.045,0,0,1-3.5,1.29h-.01a2.094,2.094,0,0,1,0,2.95,2.041,2.041,0,0,1-2.92,0,2.094,2.094,0,0,1,0,2.95,2.058,2.058,0,0,1-2.92,0,2.094,2.094,0,0,1,0,2.95,2.058,2.058,0,0,1-2.92,0l-.04-.04L21.92,25.42l.01-.01a1.878,1.878,0,0,1-.24-.25,10.139,10.139,0,0,1,.24-14,9.889,9.889,0,0,1,14.12,0l1.36,1.3,1.53,1.48,3.21-3.23a9.92,9.92,0,0,1,13.88.24A10.151,10.151,0,0,1,56.27,24.96Z" fill="#dfc49c" fill-rule="evenodd"/>
        <path id="Shape-5" data-name="Shape" d="M53.27,24.96l-.24.25-5.98,6.04h-.02a2.035,2.035,0,0,1-.55,1.26l-.03.03a2.041,2.041,0,0,1-2.92,0h-.01a2.083,2.083,0,0,1,.03,2.91.138.138,0,0,1-.03.04,2.041,2.041,0,0,1-2.92,0,2.083,2.083,0,0,1,.03,2.91.137.137,0,0,1-.03.04,2.058,2.058,0,0,1-2.92,0,2.092,2.092,0,0,1,.04,2.91L21.92,25.42l.01-.01a1.878,1.878,0,0,1-.24-.25,10.139,10.139,0,0,1,.24-14,10.021,10.021,0,0,1,5.56-2.85,10.021,10.021,0,0,1,5.56,2.85l2.89,2.78,1.47-1.48,1.53,1.48,3.21-3.23a9.963,9.963,0,0,1,5.32-2.6,9.942,9.942,0,0,1,5.56,2.84A10.151,10.151,0,0,1,53.27,24.96Z" fill="#ffe0b2" fill-rule="evenodd"/>
        <path id="Shape-6" data-name="Shape" d="M42.15,10.71c-.08.08-.17.16-.25.24" fill="#fdd7ad" fill-rule="evenodd"/>
        <path id="Shape-7" data-name="Shape" d="M9.5,55.994a3.73,3.73,0,0,1-3.532-2.729,5.847,5.847,0,0,1-.334-2.686c.035-.262.092-.524.149-.787a2.8,2.8,0,0,0,.108-1.213c-.079-.312-.308-.468-.894-.8-.237-.135-.474-.273-.7-.432a1.433,1.433,0,0,1-.587-.971,2.522,2.522,0,0,1,.322-1.449c-.338-.258-.707-.548-.922-.739-.923-.779-.335-1.823.055-2.514.132-.234.286-.505.434-.817a1.717,1.717,0,0,0,.11-1c-.05-.264-.77-.632-1.2-.851a7.378,7.378,0,0,1-1.041-.6A3.091,3.091,0,0,1,.02,36.527c-.152-1.038.6-2.059,1.31-2.934A38.671,38.671,0,0,0,5.7,26.468a1.672,1.672,0,0,0,.175-.429c0-.286-.324-.6-.813-1.051a3.821,3.821,0,0,1-1.457-2.227,3.371,3.371,0,0,1,.27-1.681c.177-.473.383-.936.59-1.4a12.743,12.743,0,0,0,.847-2.26l.081-.35A26.722,26.722,0,0,1,6.3,13.8a19,19,0,0,1,4-6.539c2.225-2.355,5.494-3.941,10-4.849a66.753,66.753,0,0,1,9.643-1.378A22.841,22.841,0,0,1,42.484,3.951,1,1,0,0,1,41.516,5.7,20.6,20.6,0,0,0,30.047,3.031a64.94,64.94,0,0,0-9.358,1.345c-4.081.824-7,2.218-8.937,4.263A17.012,17.012,0,0,0,8.173,14.5a24.731,24.731,0,0,0-.832,3.025l-.081.352A14.427,14.427,0,0,1,6.292,20.5c-.191.426-.382.853-.545,1.288a1.733,1.733,0,0,0-.16.7c.042.308.423.658.827,1.028a3.486,3.486,0,0,1,1.461,2.5,2.9,2.9,0,0,1-.391,1.356A40.322,40.322,0,0,1,2.926,34.8C2.158,35.742,2,36.106,2,36.256a4.958,4.958,0,0,0,.591.48,5.792,5.792,0,0,0,.826.48c.853.436,2.022,1.034,2.254,2.26A3.689,3.689,0,0,1,5.4,41.711c-.17.358-.345.671-.5.942l-.161.29c.41.328.98.756,1.219.934a1,1,0,0,1,.2,1.423,3.73,3.73,0,0,0-.383.621l.213.123a3.305,3.305,0,0,1,1.84,2.046,4.437,4.437,0,0,1-.094,2.137c-.045.207-.092.414-.12.621a3.884,3.884,0,0,0,.242,1.765A1.765,1.765,0,0,0,9.908,53.95a82.848,82.848,0,0,0,8.569-2.594,1,1,0,0,1,.657,1.889,84.581,84.581,0,0,1-8.82,2.664A4.07,4.07,0,0,1,9.5,55.994ZM4.416,42.671l.016.014Z"/>
        <path id="Shape-8" data-name="Shape" d="M23.726,61a1,1,0,0,1-.972-.763c-.387-1.579-1.926-5.921-4.361-7.026a1,1,0,0,1,.088-1.857c.963-.329,1.842-.638,2.556-.888.776-.273,1.362-.479,1.657-.572,4.144-1.3,4.985-2.806,4.961-3.836a1,1,0,0,1,.976-1.023.981.981,0,0,1,1.023.976c.059,2.5-2.08,4.445-6.358,5.791-.283.089-.848.288-1.6.551-.229.08-.475.167-.736.257A15.952,15.952,0,0,1,24.482,59L47.1,58.935l-.074-.111a11.089,11.089,0,0,1-.767-1.289,21.546,21.546,0,0,1-1.237-3.142,35,35,0,0,1-1.249-6.263,18.588,18.588,0,0,1,.121-5.293,1,1,0,1,1,1.973.326,16.6,16.6,0,0,0-.109,4.727,33.107,33.107,0,0,0,1.175,5.91,19.645,19.645,0,0,0,1.126,2.861A9.29,9.29,0,0,0,48.7,57.72a7.671,7.671,0,0,1,1.018,1.915,1,1,0,0,1-.954,1.292L23.729,61Z"/>
        <path id="Shape-9" data-name="Shape" d="M10.194,19.567A1,1,0,0,1,9.22,18.34l.1-.433a23.794,23.794,0,0,1,.74-2.708,15.194,15.194,0,0,1,3.167-5.186,12.391,12.391,0,0,1,5.48-3.071,1,1,0,0,1,.584,1.913,10.468,10.468,0,0,0-4.61,2.531,13.2,13.2,0,0,0-2.744,4.5,22.187,22.187,0,0,0-.669,2.471l-.1.433A1,1,0,0,1,10.194,19.567Z"/>
        <circle id="Oval" cx="1" cy="1" r="1" transform="translate(8 21)"/>
        <path id="Shape-10" data-name="Shape" d="M21.925,26.412a1,1,0,0,1-.711-.3c-.089-.09-.176-.181-.262-.273a11.1,11.1,0,0,1,.263-15.389,10.925,10.925,0,0,1,15.547,0,1,1,0,1,1-1.421,1.407,8.925,8.925,0,0,0-12.7,0,9.1,9.1,0,0,0-.216,12.622c.071.077.143.153.217.227a1,1,0,0,1-.712,1.7Z"/>
        <path id="Shape-11" data-name="Shape" d="M37.756,42.388a1,1,0,0,1-.711-.3L20.972,25.87a1,1,0,1,1,1.421-1.408L38.466,40.685a1,1,0,0,1-.71,1.7Z"/>
        <path id="Shape-12" data-name="Shape" d="M56.028,26.208a1,1,0,0,1-.709-1.7c.073-.073.144-.149.214-.224a9.1,9.1,0,0,0-.216-12.622,8.885,8.885,0,0,0-12.481-.219c-.075.071-.149.144-.222.218a1,1,0,1,1-1.423-1.411q.135-.136.273-.267a10.877,10.877,0,0,1,15.274.266A11.1,11.1,0,0,1,57,25.637q-.129.139-.264.276A1,1,0,0,1,56.028,26.208Z"/>
        <path id="Shape-13" data-name="Shape" d="M50.046,32.246a1,1,0,0,1-.71-1.7l6.209-6.274a1,1,0,0,1,1.384,1.446l-.182.19-5.99,6.046A1,1,0,0,1,50.046,32.246Z"/>
        <path id="Shape-14" data-name="Shape" d="M40.679,39.438a1,1,0,0,1-.711-.3L27.791,26.853a1,1,0,1,1,1.421-1.408l12.177,12.29a1,1,0,0,1-.71,1.7Z"/>
        <path id="Shape-15" data-name="Shape" d="M43.6,36.486a1,1,0,0,1-.711-.3L32.549,25.755a1,1,0,1,1,1.421-1.407L44.309,34.783a1,1,0,0,1-.71,1.7Z"/>
        <path id="Shape-16" data-name="Shape" d="M46.526,33.539a1,1,0,0,1-.71-.3L35.731,23.064a1,1,0,0,1,1.421-1.407L47.237,31.835a1,1,0,0,1-.711,1.7Z"/>
        <path id="Shape-17" data-name="Shape" d="M49.447,30.591a1,1,0,0,1-.71-.3L38.652,20.118a1,1,0,1,1,1.421-1.409L50.158,28.887a1,1,0,0,1-.711,1.7Z"/>
        <path id="Shape-18" data-name="Shape" d="M39.217,43a3.038,3.038,0,0,1-2.172-.908,1,1,0,0,1,1.421-1.408,1.075,1.075,0,0,0,1.5,0,1.1,1.1,0,0,0,0-1.542,1,1,0,0,1,1.421-1.407,3.106,3.106,0,0,1,0,4.357A3.038,3.038,0,0,1,39.217,43Z"/>
        <path id="Shape-19" data-name="Shape" d="M42.14,40.05a3.034,3.034,0,0,1-2.171-.908,1,1,0,0,1,1.421-1.407,1.052,1.052,0,0,0,1.5,0,1.1,1.1,0,0,0,0-1.541,1,1,0,0,1,1.421-1.408,3.106,3.106,0,0,1,0,4.358A3.041,3.041,0,0,1,42.14,40.05Z"/>
        <path id="Shape-20" data-name="Shape" d="M45.062,37.1a3.034,3.034,0,0,1-2.171-.908,1,1,0,0,1,1.421-1.408,1.071,1.071,0,0,0,1.5,0,1.1,1.1,0,0,0,0-1.541,1,1,0,1,1,1.421-1.409,3.106,3.106,0,0,1,0,4.358A3.038,3.038,0,0,1,45.062,37.1Z"/>
        <path id="Shape-21" data-name="Shape" d="M47.985,34.151a3.041,3.041,0,0,1-2.172-.907,1,1,0,1,1,1.421-1.409,1.073,1.073,0,0,0,1.5,0,1.1,1.1,0,0,0,0-1.541,1,1,0,1,1,1.421-1.408,3.106,3.106,0,0,1,0,4.358A3.041,3.041,0,0,1,47.985,34.151Z"/>
        <path id="Shape-22" data-name="Shape" d="M32.891,26.082a3.034,3.034,0,0,1-2.171-.907,3.1,3.1,0,0,1,0-4.358l10.72-10.81a1,1,0,0,1,1.42,1.408L32.141,22.226a1.1,1.1,0,0,0,0,1.541,1.052,1.052,0,0,0,1.5,0l7.306-7.373a1,1,0,0,1,1.488.073,6.359,6.359,0,0,0,3.991,2.182A5.053,5.053,0,0,0,50.2,16.885a1,1,0,0,1,1.421,1.407,6.886,6.886,0,0,1-5.309,2.354,7.751,7.751,0,0,1-4.66-2.124l-6.593,6.653A3.037,3.037,0,0,1,32.891,26.082Z"/>
      </g>
    </g>
  </g>
</svg>
