<svg xmlns="http://www.w3.org/2000/svg" width="150.714" height="150.653" viewBox="0 0 150.714 150.653">
  <g id="ambient" transform="translate(0.008 -0.086)">
    <path id="Trazado_10751" data-name="Trazado 10751" d="M27.641,359.327a27.6,27.6,0,0,0,21.213-45.281l5.672-5.673-3.551-3.551L45.3,310.5a27.62,27.62,0,1,0-17.662,48.831Zm0-50.218a22.6,22.6,0,1,1-22.6,22.6,22.6,22.6,0,0,1,22.6-22.6Zm0,0" transform="translate(0 -208.587)" fill="#166eb5"/>
    <path id="Trazado_10752" data-name="Trazado 10752" d="M27.7,55.387A27.5,27.5,0,0,0,45.361,48.98l5.672,5.672L54.583,51.1,48.911,45.43A27.606,27.606,0,1,0,27.7,55.387Zm0-50.218a22.6,22.6,0,1,1-22.6,22.6,22.6,22.6,0,0,1,22.6-22.6Zm0,0" transform="translate(-0.058 -0.062)" fill="#166eb5"/>
    <path id="Trazado_10753" data-name="Trazado 10753" d="M207.325,179.668a27.62,27.62,0,1,0-30.038,27.5c.8.078,1.607.123,2.418.123s1.617-.044,2.419-.123a27.644,27.644,0,0,0,25.2-27.5Zm-15.065,18.16a20.029,20.029,0,0,1-10.679,4.344c-.62.053-1.242.094-1.876.094s-1.255-.042-1.875-.094a20.037,20.037,0,0,1-10.68-4.344v-.167a31.285,31.285,0,0,1,7.39-11.788l1.615-1.615a2.512,2.512,0,0,0,0-3.551,5.022,5.022,0,1,1,7.1,0,2.512,2.512,0,0,0,0,3.551l1.615,1.615a31.3,31.3,0,0,1,7.389,11.788Zm-3.839-15.505-.06-.063a10.044,10.044,0,1,0-17.31,0l-.06.063a36.281,36.281,0,0,0-8.057,12.437,22.6,22.6,0,1,1,33.545,0,36.3,36.3,0,0,0-8.057-12.437Zm0,0" transform="translate(-104.357 -104.255)" fill="#166eb5"/>
    <path id="Trazado_10754" data-name="Trazado 10754" d="M60.64,73.195A12.554,12.554,0,1,0,48.086,60.64,12.554,12.554,0,0,0,60.64,73.195Zm0-20.087a7.533,7.533,0,1,1-7.533,7.533A7.532,7.532,0,0,1,60.64,53.108Zm0,0" transform="translate(-32.999 -32.935)" fill="#f4511e"/>
    <path id="Trazado_10755" data-name="Trazado 10755" d="M50.6,377.195H70.684a2.511,2.511,0,0,0,2.511-2.511V354.6a2.511,2.511,0,0,0-2.511-2.511H50.6a2.511,2.511,0,0,0-2.511,2.511v20.087A2.511,2.511,0,0,0,50.6,377.195Zm2.511-20.087H68.173v15.065H53.108Zm0,0" transform="translate(-32.999 -241.521)" fill="#f4511e"/>
    <path id="Trazado_10756" data-name="Trazado 10756" d="M366.811,49.524a2.612,2.612,0,0,0-4.358,0L352.409,67.1a2.511,2.511,0,0,0,2.179,3.766h20.087a2.511,2.511,0,0,0,2.18-3.766Zm-7.9,16.321,5.717-10,5.718,10Zm0,0" transform="translate(-241.576 -33.117)" fill="#f4511e"/>
    <path id="Trazado_10757" data-name="Trazado 10757" d="M331.706,359.327A27.62,27.62,0,1,0,314.045,310.5l-5.673-5.673-3.551,3.551,5.673,5.673a27.6,27.6,0,0,0,21.211,45.281Zm0-50.218a22.6,22.6,0,1,1-22.6,22.6A22.6,22.6,0,0,1,331.706,309.109Zm0,0" transform="translate(-208.651 -208.587)" fill="#166eb5"/>
    <path id="Trazado_10758" data-name="Trazado 10758" d="M363.135,373.716a2.51,2.51,0,0,0,3.012,0l10.044-7.533a2.511,2.511,0,0,0,1-2.009V354.131a2.51,2.51,0,0,0-1-2.008l-10.044-7.533a2.51,2.51,0,0,0-3.012,0l-10.044,7.533a2.511,2.511,0,0,0-1.005,2.008v10.044a2.512,2.512,0,0,0,1.005,2.009Zm-6.027-18.33,7.533-5.65,7.533,5.65v7.533l-7.533,5.65-7.533-5.65Zm0,0" transform="translate(-241.586 -236.033)" fill="#f4511e"/>
    <path id="Trazado_10759" data-name="Trazado 10759" d="M64.086,200.086h5.022v5.022H64.086Zm0,0" transform="translate(-43.978 -137.228)" fill="#166eb5"/>
    <path id="Trazado_10760" data-name="Trazado 10760" d="M64.086,232.086h5.022v5.022H64.086Zm0,0" transform="translate(-43.978 -159.184)" fill="#166eb5"/>
    <path id="Trazado_10761" data-name="Trazado 10761" d="M64.086,264.086h5.022v5.022H64.086Zm0,0" transform="translate(-43.978 -181.141)" fill="#166eb5"/>
    <path id="Trazado_10762" data-name="Trazado 10762" d="M424.086,200.086h5.022v5.022h-5.022Zm0,0" transform="translate(-290.988 -137.228)" fill="#166eb5"/>
    <path id="Trazado_10763" data-name="Trazado 10763" d="M424.086,232.086h5.022v5.022h-5.022Zm0,0" transform="translate(-290.988 -159.184)" fill="#166eb5"/>
    <path id="Trazado_10764" data-name="Trazado 10764" d="M424.086,264.086h5.022v5.022h-5.022Zm0,0" transform="translate(-290.988 -181.141)" fill="#166eb5"/>
    <path id="Trazado_10765" data-name="Trazado 10765" d="M200.086,40.086h5.022v5.022h-5.022Zm0,0" transform="translate(-137.293 -27.446)" fill="#166eb5"/>
    <path id="Trazado_10766" data-name="Trazado 10766" d="M232.086,40.086h5.022v5.022h-5.022Zm0,0" transform="translate(-159.249 -27.446)" fill="#166eb5"/>
    <path id="Trazado_10767" data-name="Trazado 10767" d="M264.086,40.086h5.022v5.022h-5.022Zm0,0" transform="translate(-181.205 -27.446)" fill="#166eb5"/>
    <path id="Trazado_10768" data-name="Trazado 10768" d="M200.086,424.086h5.022v5.022h-5.022Zm0,0" transform="translate(-137.293 -290.923)" fill="#166eb5"/>
    <path id="Trazado_10769" data-name="Trazado 10769" d="M232.086,424.086h5.022v5.022h-5.022Zm0,0" transform="translate(-159.249 -290.923)" fill="#166eb5"/>
    <path id="Trazado_10770" data-name="Trazado 10770" d="M264.086,424.086h5.022v5.022h-5.022Zm0,0" transform="translate(-181.205 -290.923)" fill="#166eb5"/>
    <path id="Trazado_10771" data-name="Trazado 10771" d="M331.713.086a27.62,27.62,0,0,0-23.5,42.133l-1.582,10.212a2.511,2.511,0,0,0,2.48,2.895,2.355,2.355,0,0,0,.525-.055l10.891-2.334a27.272,27.272,0,0,0,11.183,2.39,27.62,27.62,0,1,0,0-55.24Zm0,50.218a22.385,22.385,0,0,1-9.792-2.26,2.494,2.494,0,0,0-1.092-.251,2.7,2.7,0,0,0-.525.055l-8.142,1.758,1.17-7.547a2.511,2.511,0,0,0-.4-1.783A22.6,22.6,0,1,1,331.713,50.3Zm0,0" transform="translate(-208.658)" fill="#166eb5"/>
  </g>
</svg>
