<svg id="adn" xmlns="http://www.w3.org/2000/svg" width="133.5" height="133.5" viewBox="0 0 133.5 133.5">
  <path id="Trazado_10740" data-name="Trazado 10740" d="M32.451,97.912a9.963,9.963,0,0,0-5.074-2.718V75.714a5.876,5.876,0,0,1,3.911,5.53V91.2a1.956,1.956,0,1,0,3.911,0V81.244a9.794,9.794,0,0,0-7.822-9.581V65.6a9.792,9.792,0,0,0-8.017-9.616A9.9,9.9,0,0,0,10.051,48,9.777,9.777,0,0,0,0,57.778v55.831a13.732,13.732,0,0,0,1.793,6.772l18.92,32.582-1.17,4.288H13.215a1.956,1.956,0,0,0-1.887,1.441l-2.133,7.822a1.956,1.956,0,0,0,1.887,2.47H62.816a1.956,1.956,0,0,0,1.956-1.956V137.542a17.493,17.493,0,0,0-5.144-12.454Zm-12.9-37.843a5.876,5.876,0,0,1,3.911,5.53V95.175a9.581,9.581,0,0,0-3.911,1.719Zm41.3,105H13.642l1.067-3.911H60.86v3.911Zm0-7.822H23.6l1.1-4.048a1.956,1.956,0,0,0-.2-1.5L5.185,118.434a9.8,9.8,0,0,1-1.273-4.825V57.778a5.867,5.867,0,0,1,6.033-5.864,5.99,5.99,0,0,1,5.7,6.027v46.938a9.7,9.7,0,0,0,2.864,6.747l27.28,27.28a1.955,1.955,0,0,0,2.765-2.765l-27.28-27.28a5.867,5.867,0,0,1,.119-8.413,5.99,5.99,0,0,1,8.293.231l27.176,27.175a13.607,13.607,0,0,1,4,9.688Z" transform="translate(0 -35.484)" fill="#166eb5"/>
  <path id="Trazado_10741" data-name="Trazado 10741" d="M325.4,50.768A9.7,9.7,0,0,0,318.309,48a9.9,9.9,0,0,0-9.31,7.98,9.793,9.793,0,0,0-8.016,9.616v6.064a9.794,9.794,0,0,0-7.822,9.581V91.2a1.956,1.956,0,0,0,3.911,0V81.244a5.876,5.876,0,0,1,3.911-5.53v19.48a9.961,9.961,0,0,0-5.074,2.718l-27.176,27.176a17.493,17.493,0,0,0-5.144,12.454v29.487a1.956,1.956,0,0,0,1.956,1.956h51.734a1.956,1.956,0,0,0,1.886-2.47l-2.133-7.822a1.956,1.956,0,0,0-1.887-1.441h-6.328l-1.17-4.288,18.93-32.6a13.715,13.715,0,0,0,1.783-6.755V57.777a9.7,9.7,0,0,0-2.959-7.009ZM304.893,65.6a5.876,5.876,0,0,1,3.911-5.53V96.893a9.583,9.583,0,0,0-3.911-1.719Zm8.758,95.562,1.067,3.911H267.5v-3.911Zm10.8-47.553a9.778,9.778,0,0,1-1.264,4.808L303.854,151.7a1.956,1.956,0,0,0-.2,1.5l1.1,4.049H267.5V137.541a13.608,13.608,0,0,1,4-9.688l27.176-27.176a5.99,5.99,0,0,1,8.293-.231,5.867,5.867,0,0,1,.119,8.413l-27.28,27.28a1.955,1.955,0,1,0,2.765,2.765l27.28-27.28a9.7,9.7,0,0,0,2.864-6.747V57.94a5.99,5.99,0,0,1,5.7-6.027,5.867,5.867,0,0,1,6.033,5.865Z" transform="translate(-194.86 -35.483)" fill="#166eb5"/>
  <path id="Trazado_10742" data-name="Trazado 10742" d="M162.205,41.917A30.043,30.043,0,0,0,154.5,62.294a5.866,5.866,0,0,0,11.4,1.956h30.137a5.866,5.866,0,0,0,11.4-1.956c0-13.44-7.589-21.613-16.318-28.212a54.86,54.86,0,0,0,8.612-7.839,30.041,30.041,0,0,0,7.706-20.377,5.866,5.866,0,0,0-11.4-1.956H165.9a5.866,5.866,0,0,0-11.4,1.956c0,13.44,7.589,21.613,16.318,28.212A54.859,54.859,0,0,0,162.205,41.917Zm4.12,18.422a18.2,18.2,0,0,1,.807-3.911h27.649a18.072,18.072,0,0,1,.82,3.911Zm23.609-11.733a24.415,24.415,0,0,1,3.024,3.911h-24.02a23.979,23.979,0,0,1,3.023-3.911Zm-13.673-3.911c1.474-1.179,3.053-2.329,4.7-3.484,1.639,1.151,3.214,2.3,4.684,3.484Zm27.257,17.6a1.956,1.956,0,0,1-3.911,0c0-10.945-6.954-17.509-15.219-23.448,1.133-.776,2.273-1.559,3.409-2.357C197.281,43.482,203.52,50.684,203.52,62.294ZM195.6,7.822a18.2,18.2,0,0,1-.807,3.911H167.149a18.073,18.073,0,0,1-.82-3.911ZM172,19.556a24.417,24.417,0,0,1-3.024-3.911h24.02a23.967,23.967,0,0,1-3.023,3.911Zm13.673,3.911c-1.474,1.179-3.053,2.329-4.7,3.484-1.639-1.151-3.214-2.3-4.684-3.484Zm-27.257-17.6a1.956,1.956,0,1,1,3.911,0c0,10.945,6.954,17.509,15.22,23.448-1.133.776-2.273,1.559-3.409,2.357C164.65,24.679,158.411,17.476,158.411,5.867Zm21.449,26.6c9.709-6.649,19.748-13.524,19.748-26.6a1.956,1.956,0,1,1,3.911,0c0,15.138-10.9,22.606-21.449,29.827-9.709,6.649-19.748,13.524-19.748,26.6a1.956,1.956,0,0,1-3.911,0C158.411,47.156,169.315,39.689,179.86,32.467Z" transform="translate(-114.215)" fill="#f4511e"/>
</svg>
