<svg xmlns="http://www.w3.org/2000/svg" xmlns:xlink="http://www.w3.org/1999/xlink" width="714.524" height="400.394" viewBox="0 0 714.524 400.394">
  <defs>
    <linearGradient id="linear-gradient" y1="0.5" x2="1" y2="0.5" gradientUnits="objectBoundingBox">
      <stop offset="0" stop-color="#dfefea"/>
      <stop offset="1" stop-color="#bfe3ee"/>
    </linearGradient>
    <linearGradient id="linear-gradient-2" x1="-1.693" y1="0.5" x2="-0.693" y2="0.5" xlink:href="#linear-gradient"/>
    <linearGradient id="linear-gradient-3" x1="24.478" y1="0.5" x2="25.478" y2="0.5" gradientUnits="objectBoundingBox">
      <stop offset="0" stop-color="#f1f8f7"/>
      <stop offset="1" stop-color="#bfe3ee"/>
    </linearGradient>
    <linearGradient id="linear-gradient-4" x1="30.113" y1="0.5" x2="31.113" y2="0.5" xlink:href="#linear-gradient-3"/>
    <linearGradient id="linear-gradient-5" x1="-7.438" y1="0.5" x2="-6.438" y2="0.5" xlink:href="#linear-gradient-3"/>
    <linearGradient id="linear-gradient-6" x1="-6.385" y1="0.5" x2="-5.385" y2="0.5" xlink:href="#linear-gradient-3"/>
  </defs>
  <g id="Grupo_11304" data-name="Grupo 11304" transform="translate(-357.574 -338.999)">
    <path id="Trazado_10464" data-name="Trazado 10464" d="M2671.366,1326.424a14.241,14.241,0,1,1-18.855,0h-45.355v47.02a14.241,14.241,0,1,1,0,15.785v46.759h46.689a14.241,14.241,0,1,1,16.189,0h46.686V1326.424Z" transform="translate(-1885.304 -827.53)" fill="#afd8c7"/>
    <rect id="Rectángulo_2855" data-name="Rectángulo 2855" width="109.564" height="109.564" transform="translate(605.35 619.435)" fill="#afd8c7"/>
    <path id="Trazado_10465" data-name="Trazado 10465" d="M646.627,516.948c-5.635,24.489,52.117,27.638,75.915,27.9a93.422,93.422,0,0,0,19.629-1.864c20.124-4.083,64.175-14.8,58-29.372-7.971-18.8-31.915-5.692-31.915-5.692s3.005-14.194-37.739-23.569-40.581,21.864-40.581,21.864S653.705,486.184,646.627,516.948Z" transform="translate(-241.924 -120.348)" fill="url(#linear-gradient)"/>
    <g id="Grupo_11179" data-name="Grupo 11179" transform="translate(411.623 404.218)">
      <g id="Grupo_11176" data-name="Grupo 11176" transform="translate(10.123 0)">
        <path id="Trazado_10466" data-name="Trazado 10466" d="M846.3,816.364s-27.431-68.621-79.086-74.608c-36.615,50.7,13.718,100.125,13.718,100.125l59.964,24.1Z" transform="translate(-753.864 -741.756)" fill="#01888b"/>
        <path id="Trazado_10467" data-name="Trazado 10467" d="M823.027,770.468,808.609,799.9l-34.387-57.976c-.406-.055-.809-.118-1.219-.165-.144.2-.275.4-.416.6L791,773.405l-29.916-5.646c-.061.283-.113.564-.17.846l-.142.75,31.333,5.914L822.8,827.015l-52.821-8.235c.329.609.66,1.212.993,1.8l52.9,8.248,21.794,36.744,1.014.407.174-1.6L809.6,801.57l14.6-29.794Q823.619,771.12,823.027,770.468Z" transform="translate(-759.657 -741.756)" fill="#00666b"/>
      </g>
      <g id="Grupo_11178" data-name="Grupo 11178" transform="translate(0 87.525)">
        <path id="Trazado_10468" data-name="Trazado 10468" d="M776.716,1300.25s-51.831-33.441-85.366-9.119c6.153,84.37,113.906,82.5,113.906,82.5Z" transform="translate(-691.35 -1282.266)" fill="#ffd147"/>
        <g id="Grupo_11177" data-name="Grupo 11177" transform="translate(0 0.276)">
          <path id="Trazado_10469" data-name="Trazado 10469" d="M691.351,1292.558c.024.325.053.645.08.968l73.472,39.753-41.869,17.737q.768.566,1.546,1.112l42.155-17.859,28.7,15.527-.912-2.345-55.872-30.23-10.041-33.081q-.875-.1-1.753-.172l9.758,32.152L692.1,1292.037c-.25.173-.5.339-.749.519Z" transform="translate(-691.351 -1283.968)" fill="#fff"/>
        </g>
      </g>
    </g>
    <g id="Grupo_11184" data-name="Grupo 11184" transform="translate(476.519 387.47)">
      <path id="Trazado_10470" data-name="Trazado 10470" d="M1193.983,709.277a14.241,14.241,0,1,1,7.7-26.212V638.33H1092.115V747.893h45.725a14.241,14.241,0,1,1,16.907,0h46.932V707.007A14.159,14.159,0,0,1,1193.983,709.277Z" transform="translate(-1092.115 -638.33)" fill="#0c496d"/>
      <g id="Grupo_11183" data-name="Grupo 11183" transform="translate(18.308 6.5)">
        <path id="Trazado_10471" data-name="Trazado 10471" d="M1430.943,720.5c2.334,4.432-.612,9.651-2.336,14.354-2.9,7.922-2.783,20.255,2.143,27.735a22.451,22.451,0,0,0,5.826,6.1,11.435,11.435,0,0,0,17.784-7.553c1.867-11.165-8.759-16.285-15.09-47.421-5.649-14.153-9.806-9.773-12.169-9.221C1421.58,705.778,1427.9,714.727,1430.943,720.5Z" transform="translate(-1389.334 -699.38)" fill="#212b53"/>
        <path id="Trazado_10472" data-name="Trazado 10472" d="M1228.808,720.5c-2.334,4.432.612,9.651,2.336,14.354,2.9,7.922,2.783,20.255-2.144,27.735a22.452,22.452,0,0,1-5.826,6.1,11.435,11.435,0,0,1-17.784-7.553c-1.867-11.165,8.759-16.285,15.09-47.421,5.649-14.153,9.806-9.773,12.169-9.221C1238.172,705.778,1231.847,714.727,1228.808,720.5Z" transform="translate(-1205.174 -699.38)" fill="#212b53"/>
        <g id="Grupo_11182" data-name="Grupo 11182" transform="translate(5.8)">
          <g id="Grupo_11180" data-name="Grupo 11180" transform="translate(0 5.109)">
            <path id="Trazado_10473" data-name="Trazado 10473" d="M1272.374,942.425c4.455,0,8.273,2.779,10.553,6.5h14.105c-3.311-28.7-10.75-47.758-28.107-47.758-16.831,0-24.445,19.057-27.932,47.758h18.467A15.306,15.306,0,0,1,1272.374,942.425Z" transform="translate(-1240.994 -870.21)" fill="#00666b"/>
            <ellipse id="Elipse_701" data-name="Elipse 701" cx="13.837" cy="16.875" rx="13.837" ry="16.875" transform="translate(14.42)" fill="#f7b58e"/>
          </g>
          <path id="Trazado_10474" data-name="Trazado 10474" d="M1346.67,706.347c4.9-9.819,2.04-19.667-.079-22.113a16.6,16.6,0,0,0-12.954-5.763c-5.2,0-10.029,2.042-12.443,5.59-.805,1.183-6.864,8.875-1.613,23.148-.373-7.2,1.392-16.856,4.22-14.571,13.509,10.916,23.564,6.47,25.388,7.906C1351.645,702.479,1345.534,706.845,1346.67,706.347Z" transform="translate(-1305.078 -678.472)" fill="#212b53"/>
          <g id="Grupo_11181" data-name="Grupo 11181" transform="translate(19.403 36.354)">
            <path id="Trazado_10475" data-name="Trazado 10475" d="M1418.978,907.037l6.373-4.065,2.213,2.066-4.484,8.268Z" transform="translate(-1409.56 -902.973)" fill="#fff"/>
            <path id="Trazado_10476" data-name="Trazado 10476" d="M1370.581,909.234l-7.567-3.64-2.2,1.23,5.443,8.679Z" transform="translate(-1360.817 -905.17)" fill="#fff"/>
          </g>
        </g>
      </g>
    </g>
    <g id="Grupo_11185" data-name="Grupo 11185" transform="translate(580.668 404.139)">
      <path id="Trazado_10477" data-name="Trazado 10477" d="M1859.691,809.421a14.241,14.241,0,1,1,10.286-24.073V741.269H1760.414v45.284a14.241,14.241,0,1,0,0,18.347v45.933h109.563v-45.82A14.187,14.187,0,0,1,1859.691,809.421Z" transform="translate(-1735.283 -741.269)" fill="#ffd147"/>
    </g>
    <g id="Grupo_11189" data-name="Grupo 11189" transform="translate(630.362 409.574)">
      <g id="Grupo_11188" data-name="Grupo 11188" transform="translate(0 0)">
        <g id="Grupo_11186" data-name="Grupo 11186" transform="translate(0 5.109)">
          <path id="Trazado_10478" data-name="Trazado 10478" d="M2098.211,1045.282c-3.311-28.7-10.75-47.758-28.107-47.758-16.831,0-24.445,19.057-27.932,47.758Z" transform="translate(-2042.172 -966.572)" fill="#01888b"/>
          <ellipse id="Elipse_702" data-name="Elipse 702" cx="13.837" cy="16.875" rx="13.837" ry="16.875" transform="translate(14.42)" fill="#f7b58e"/>
        </g>
        <path id="Trazado_10479" data-name="Trazado 10479" d="M2150.283,802.71c4.9-9.819,2.854-19.667.735-22.113a16.6,16.6,0,0,0-12.955-5.762c-5.2,0-10.029,2.042-12.443,5.59-.8,1.183-6.049,8.06-.8,22.332-.373-7.2.577-17.671,3.405-15.386,13.509,10.916,18.674,8.915,20.5,10.351C2151.183,799.657,2149.146,803.208,2150.283,802.71Z" transform="translate(-2109.506 -774.835)" fill="#212b53"/>
        <g id="Grupo_11187" data-name="Grupo 11187" transform="translate(19.403 36.354)">
          <path id="Trazado_10480" data-name="Trazado 10480" d="M2220.156,1003.4l6.373-4.065,2.213.435-4.484,9.9Z" transform="translate(-2210.738 -999.335)" fill="#fff"/>
          <path id="Trazado_10481" data-name="Trazado 10481" d="M2171.759,1005.6l-7.567-3.64-2.2,1.23,5.443,8.679Z" transform="translate(-2161.995 -1001.532)" fill="#fff"/>
        </g>
      </g>
      <path id="Trazado_10482" data-name="Trazado 10482" d="M2085.366,947.268s-.966,17.433-9.93,23.545c4.889,10.238,14.017,8.73,14.017,8.73s8.48-14.564,2.2-23.42Z" transform="translate(-2070.05 -919.346)" fill="#212b53"/>
      <path id="Trazado_10483" data-name="Trazado 10483" d="M2248.467,947.268s.967,17.433,9.93,23.545c-4.889,10.238-14.017,8.73-14.017,8.73s-8.479-14.564-2.2-23.42Z" transform="translate(-2207.853 -919.346)" fill="#212b53"/>
    </g>
    <g id="Grupo_11190" data-name="Grupo 11190" transform="translate(605.547 486.828)">
      <rect id="Rectángulo_2856" data-name="Rectángulo 2856" width="109.564" height="109.564" transform="translate(109.564 135.019) rotate(180)" fill="#00666b"/>
      <circle id="Elipse_703" data-name="Elipse 703" cx="14.241" cy="14.241" r="14.241" transform="translate(40.541 0)" fill="#00666b"/>
      <circle id="Elipse_704" data-name="Elipse 704" cx="14.241" cy="14.241" r="14.241" transform="translate(106.212 65.671)" fill="#00666b"/>
      <circle id="Elipse_705" data-name="Elipse 705" cx="14.241" cy="14.241" r="14.241" transform="translate(34.642 147.251) rotate(-45)" fill="#00666b"/>
    </g>
    <g id="Grupo_11192" data-name="Grupo 11192" transform="translate(631.419 523.677)">
      <g id="Grupo_11191" data-name="Grupo 11191" transform="translate(0 0)">
        <path id="Trazado_10484" data-name="Trazado 10484" d="M2108.15,1756.5c-3.914-28.068-12.121-46.344-29.84-46.344-17.182,0-25.525,18.275-29.615,46.344Z" transform="translate(-2048.695 -1672.8)" fill="#fff"/>
        <ellipse id="Elipse_706" data-name="Elipse 706" cx="15.038" cy="18.34" rx="15.038" ry="18.34" transform="translate(14.93 3.716)" fill="#f7b58e"/>
        <path id="Trazado_10485" data-name="Trazado 10485" d="M2163.893,1504.1c2.361-9.5,1.862-8.675,1.862-8.675s.027-15.954-16.652-15.951c-15.781,0-16.549,13.415-16.549,13.415s-1.628,2.528,1.161,11.212c-.427-8.593.139-9.253,3.845-11.2,11.538-6.046,20.616-2.149,22.854.7C2165.616,1500.231,2162.6,1504.693,2163.893,1504.1Z" transform="translate(-2118.58 -1479.472)" fill="#212b53"/>
        <path id="Trazado_10486" data-name="Trazado 10486" d="M2197.434,1780.6h12.805l-4.707-27.922,4.348-9.361-5.019-4.406h-2.59l-4.889,4.8,4.866,8.84Z" transform="translate(-2173.306 -1696.897)" fill="#0c496d"/>
      </g>
      <path id="Trazado_10487" data-name="Trazado 10487" d="M2195.789,1654.931a2.461,2.461,0,0,0-1.418-.776s1.319.992.368,2.04c0,0-.667.512-2.014-.471a8.424,8.424,0,0,0-4.595-1.786c-1.529-.028-1.586.418-1.766.755-.179-.337-.237-.783-1.766-.755a8.425,8.425,0,0,0-4.6,1.786c-1.348.983-2.014.471-2.014.471-.951-1.048.368-2.04.368-2.04a2.461,2.461,0,0,0-1.418.776c-.506.814-.889,1.91.936,3.035,1.743,1.075,3.631.6,6.5,0a2.193,2.193,0,0,1,3.986,0c2.865.6,4.752,1.075,6.5,0C2196.678,1656.841,2196.295,1655.745,2195.789,1654.931Z" transform="translate(-2155.822 -1625.686)" fill="#212b53"/>
    </g>
    <path id="Trazado_10488" data-name="Trazado 10488" d="M1343.747,1314.587a14.208,14.208,0,0,0-10.89,5.068V1274.37h-46.009a14.241,14.241,0,1,0-17.545,0h-46.01v109.563h109.563V1338a14.24,14.24,0,1,0,10.89-23.415Z" transform="translate(-725.533 -762.573)" fill="#25b6c2"/>
    <g id="Grupo_11193" data-name="Grupo 11193" transform="translate(522.53 523.667)">
      <path id="Trazado_10489" data-name="Trazado 10489" d="M1434.268,1748.913c-3.576-28.822-11.4-47.821-29.105-47.821-17.172,0-25.155,19-28.91,47.821Z" transform="translate(-1376.253 -1665.195)" fill="#0c496d"/>
      <ellipse id="Elipse_707" data-name="Elipse 707" cx="14.451" cy="17.624" rx="14.451" ry="17.624" transform="translate(14.798 3.571)" fill="#f7b58e"/>
      <path id="Trazado_10490" data-name="Trazado 10490" d="M1490.755,1506.209c2.269-9.132,2.573-11.469,2.573-11.469s-.478-6.844-.916-7.834-9.365-7.495-15.086-7.495-13.253,5.428-14.238,6.708-1.665,6.184-1.665,6.184-.781,5.562,1.9,13.907c-.411-8.258-.771-15.505,2.912-13.891,17.237,7.554,19.812-2.065,21.962.676C1493.194,1499.36,1489.507,1506.781,1490.755,1506.209Z" transform="translate(-1447.542 -1479.411)" fill="#212b53"/>
      <path id="Trazado_10491" data-name="Trazado 10491" d="M1519.921,1772.069h13.041l-4.949-30.118,4.242-9-4.823-4.234h-2.489l-4.7,4.609,4.739,8.5Z" transform="translate(-1496.656 -1688.351)" fill="#afd8c7"/>
    </g>
    <path id="Trazado_10492" data-name="Trazado 10492" d="M3107.441,391.561h-163.3s-8.856-11.2,0-18.742c4.887-4.16,10.658-3.729,14.85-2.507a4.888,4.888,0,0,0,6.055-3.828c.993-4.605,4.053-10.633,12.843-14.194,8.648-3.5,14.118,1.847,17.283,7.344a2.455,2.455,0,0,0,4.442-.453C3002.356,350.5,3011.909,339,3043.3,339c39.924,0,35.488,21.224,31.92,30.045a2.034,2.034,0,0,0,2.308,2.774c6.158-1.317,17.589-3.023,22.715,1C3107.441,378.471,3107.441,391.561,3107.441,391.561Z" transform="translate(-2164.424)" fill="url(#linear-gradient-2)"/>
    <path id="Trazado_10493" data-name="Trazado 10493" d="M1342.537,1989.225a14.213,14.213,0,0,0-11.214,5.469v-46.009h-45.284a14.241,14.241,0,1,0-18.347,0h-45.932v109.564h109.564v-46.009a14.24,14.24,0,1,0,11.214-23.014Z" transform="translate(-724.247 -1327.966)" fill="#01888b"/>
    <g id="Grupo_11195" data-name="Grupo 11195" transform="translate(870.596 442.415)">
      <path id="Trazado_10494" data-name="Trazado 10494" d="M3574.566,987.626l3.246-7.218a2.6,2.6,0,0,0,.8.22,2.409,2.409,0,0,0,2.462-1.866,2.211,2.211,0,0,0,.993-1.12l4.52,2.977s-3.433,8.029-7,10.4-14.935,8.7-14.935,8.7l-1.809-1.036Z" transform="translate(-3556.83 -977.642)" fill="#f39f85"/>
      <g id="Grupo_11194" data-name="Grupo 11194" transform="translate(0 20.535)">
        <path id="Trazado_10495" data-name="Trazado 10495" d="M3531.123,1105.2a4.011,4.011,0,0,1-2.016.954c-1.229.3-3.969.191-3.264,1.339,1.3.451,2.765,1.136,2.765,1.136a4.432,4.432,0,0,0,2.845-.847l2.094-1.794s-.011-1.338,0-1.4l-.567-.131A6.5,6.5,0,0,1,3531.123,1105.2Z" transform="translate(-3525.728 -1104.458)" fill="#f39f85"/>
        <path id="Trazado_10496" data-name="Trazado 10496" d="M3544.974,1106.785a1.019,1.019,0,0,1-.114.172c.176.04.348.089.517.143.655-.087,1.313-.155,1.968-.236-.1-.37-.242-.889-.245-.927l-4.4-.324s-.271.5.582.857A4.386,4.386,0,0,0,3544.974,1106.785Z" transform="translate(-3539.918 -1105.425)" fill="#f39f85"/>
      </g>
    </g>
    <g id="Grupo_11201" data-name="Grupo 11201" transform="translate(856.003 629.802)">
      <path id="Trazado_10497" data-name="Trazado 10497" d="M3468.59,2233.369a125.711,125.711,0,0,1-11.89,8.725c-3.744,2.205-11.347,3.734-14.015,4.221a2.4,2.4,0,0,1-1.749-.357l-2.3-1.514s-2.559-.2-3.019,1.422a11.632,11.632,0,0,0,1.344,2.364,2.511,2.511,0,0,0,2.082,1.008c3.312-.076,12.887-.469,19.5-2.5,8.105-2.491,16.65-8.245,16.65-8.245Z" transform="translate(-3435.612 -2217.415)" fill="#f39f85"/>
      <g id="Grupo_11200" data-name="Grupo 11200" transform="translate(22.541 0)">
        <g id="Grupo_11197" data-name="Grupo 11197">
          <path id="Trazado_10498" data-name="Trazado 10498" d="M3633.176,2189.565l1.647,4.447,4.627-2.047-4.131-6.121Z" transform="translate(-3623.726 -2177.587)" fill="#f39f85"/>
          <g id="Grupo_11196" data-name="Grupo 11196" transform="translate(3.218 3.264)">
            <path id="Trazado_10499" data-name="Trazado 10499" d="M3599.9,2165.179a2.538,2.538,0,0,1-1.42.322c-2.606-1.466-3.8-8.278-3.8-8.278l1.929-2.216,4.034.411,2.136,3.909a3.611,3.611,0,0,1-.027,3.433h0A7.047,7.047,0,0,1,3599.9,2165.179Z" transform="translate(-3594.686 -2155.007)" fill="#f7b58e"/>
          </g>
          <path id="Trazado_10500" data-name="Trazado 10500" d="M3584.62,2141.027c-.5-.588-1.17-2.18-1.8-1.733-.459.326-2.133,1.235-2.708,1.517-1.37.672-4.075,1.334-5.1-.751a2.994,2.994,0,0,1,2.537-4.015c1.767-.213,4.339-.031,5.058-.583,1.21-.928,2.936-.8,3.476.352a12.7,12.7,0,0,1,.813,4.831,7.139,7.139,0,0,1-.49,2.461h0Z" transform="translate(-3574.816 -2134.848)" fill="#212b53"/>
          <path id="Trazado_10501" data-name="Trazado 10501" d="M3637.519,2169.6a1.149,1.149,0,0,0-1.22.74c-.236.529-.073,1.054.364,1.174a1.149,1.149,0,0,0,1.221-.74C3638.12,2170.248,3637.957,2169.722,3637.519,2169.6Z" transform="translate(-3626.252 -2163.954)" fill="#f7b58e"/>
        </g>
        <g id="Grupo_11198" data-name="Grupo 11198" transform="translate(26.098 94.047)">
          <path id="Trazado_10502" data-name="Trazado 10502" d="M3742.5,2731.67s-.012,2.75-5.535,4.4c-1.133.339-.765.674-.977,1.15h6.356l2.489-2.8.774.665,1.794-1.763s-.838-2.552-2.2-2.574Z" transform="translate(-3735.985 -2728.302)" fill="#212b53"/>
          <path id="Trazado_10503" data-name="Trazado 10503" d="M3769.823,2716.618l1.033,2.381h0a2.491,2.491,0,0,0,2.583-.785l.114-.134-.834-2.448Z" transform="translate(-3764.344 -2715.631)" fill="#f7b58e"/>
        </g>
        <path id="Trazado_10504" data-name="Trazado 10504" d="M3643.757,2209.016c12.311-1.354,23.615,21.677,23.615,21.677l-14.881,10.445s-16.065-14.707-13.459-27.711A5.514,5.514,0,0,1,3643.757,2209.016Z" transform="translate(-3628.394 -2196.958)" fill="#ffd147"/>
        <g id="Grupo_11199" data-name="Grupo 11199" transform="translate(33.838 96.177)">
          <path id="Trazado_10505" data-name="Trazado 10505" d="M3791.44,2744.759a14.152,14.152,0,0,1-5.811,2.672c-.889.227-1.848-.076-1.848,1.391h4.9l4.077-.705v.705h2.2s.613-3.6-.673-4.063Z" transform="translate(-3783.781 -2742.172)" fill="#212b53"/>
          <path id="Trazado_10506" data-name="Trazado 10506" d="M3831.512,2728.785l-.433,2.587h0a2.491,2.491,0,0,0,2.7.091l.151-.091-.219-2.587Z" transform="translate(-3823.42 -2728.785)" fill="#f7b58e"/>
        </g>
        <path id="Trazado_10507" data-name="Trazado 10507" d="M3686.466,2386.274s-8.156,14.809-7.083,22.643,15.239,29.619,15.239,29.619l2.575-1.18s-2.862-16.492-5.516-24.1c-.627-1.8-1-3.671-.164-5.383,3.707-7.627,8.363-20.207,8.363-20.207l-7.521-5.531Z" transform="translate(-3662.369 -2342.094)" fill="#212b53"/>
        <path id="Trazado_10508" data-name="Trazado 10508" d="M3745.266,2351.165l13.881,55.795h3s2.333-16.034-.326-27.146a15.6,15.6,0,0,1-.315-5.051c1.493-16.2.55-26.117-4.868-31.583Z" transform="translate(-3717.665 -2309.444)" fill="#053c5e"/>
      </g>
    </g>
    <g id="Grupo_11203" data-name="Grupo 11203" transform="translate(459.742 479.367)">
      <path id="Trazado_10509" data-name="Trazado 10509" d="M1021.466,1237.077l-6.345,16.58-4-2.976,8.937-15.066Z" transform="translate(-1007.46 -1230.793)" fill="#f39f85"/>
      <g id="Grupo_11202" data-name="Grupo 11202" transform="translate(12.366)">
        <path id="Trazado_10510" data-name="Trazado 10510" d="M1065.73,1207.11a2.581,2.581,0,0,0-.574,1.751l-.28,2.393.327.371,1.123,1c-.04-.5-.1,0-.1,0l1.805-3.142s2.183-1.4-.57-3.465a.792.792,0,0,0-.905-.058A2.023,2.023,0,0,0,1065.73,1207.11Z" transform="translate(-1064.876 -1205.84)" fill="#f39f85"/>
      </g>
      <path id="Trazado_10511" data-name="Trazado 10511" d="M988.511,1338.731a104.239,104.239,0,0,0,7.661-11.975l-3.441-3.918-4.22,4.919Z" transform="translate(-988.511 -1303.893)" fill="#00666b"/>
    </g>
    <g id="Grupo_11206" data-name="Grupo 11206" transform="translate(523.557 632.253)">
      <g id="Grupo_11204" data-name="Grupo 11204" transform="translate(0 5.109)">
        <path id="Trazado_10512" data-name="Trazado 10512" d="M1438.634,2420.427c-3.311-28.7-10.75-47.758-28.107-47.758-16.831,0-24.445,19.058-27.932,47.758Z" transform="translate(-1382.595 -2341.718)" fill="#afd8c7"/>
        <ellipse id="Elipse_708" data-name="Elipse 708" cx="13.837" cy="16.875" rx="13.837" ry="16.875" transform="translate(14.42)" fill="#f7b58e"/>
      </g>
      <path id="Trazado_10513" data-name="Trazado 10513" d="M1490.706,2177.855c4.9-9.819,2.855-19.667.735-22.113a16.6,16.6,0,0,0-12.954-5.762c-5.2,0-10.029,2.042-12.443,5.59-.805,1.183-6.049,8.061-.8,22.333-.373-7.2.577-17.671,3.405-15.386,13.509,10.916,18.674,8.915,20.5,10.352C1491.606,2174.8,1489.57,2178.353,1490.706,2177.855Z" transform="translate(-1449.929 -2149.98)" fill="#212b53"/>
      <g id="Grupo_11205" data-name="Grupo 11205" transform="translate(19.403 36.354)">
        <path id="Trazado_10514" data-name="Trazado 10514" d="M1560.579,2378.545l6.373-4.064,2.213.436-4.484,9.9Z" transform="translate(-1551.161 -2374.481)" fill="#fff"/>
        <path id="Trazado_10515" data-name="Trazado 10515" d="M1512.182,2380.741l-7.567-3.64-2.2,1.23,5.443,8.679Z" transform="translate(-1502.418 -2376.677)" fill="#fff"/>
      </g>
      <path id="Trazado_10516" data-name="Trazado 10516" d="M1605.57,2374.316c4.863,3.617,12.787,9.452,14.388,15.8,4.578,18.161-14.487,16.791-14.487,16.791s9.828-3.909.754-22.652C1605.87,2383.52,1593.989,2365.7,1605.57,2374.316Z" transform="translate(-1565.224 -2336.022)" fill="#212b53"/>
    </g>
    <g id="Grupo_11208" data-name="Grupo 11208" transform="translate(728.326 594.882)">
      <g id="Grupo_11207" data-name="Grupo 11207" transform="translate(0 0)">
        <rect id="Rectángulo_2857" data-name="Rectángulo 2857" width="109.564" height="109.563" transform="translate(28.903 25.455)" fill="#222c53"/>
        <circle id="Elipse_709" data-name="Elipse 709" cx="14.241" cy="14.241" r="14.241" transform="translate(69.444)" fill="#222c53"/>
        <circle id="Elipse_710" data-name="Elipse 710" cx="14.241" cy="14.241" r="14.241" transform="matrix(0.949, -0.316, 0.316, 0.949, 0, 70.906)" fill="#222c53"/>
      </g>
    </g>
    <g id="Grupo_11209" data-name="Grupo 11209" transform="translate(783.146 635.139)">
      <path id="Trazado_10517" data-name="Trazado 10517" d="M3045.136,2444.827c-3.914-28.068-12.121-46.344-29.84-46.344-17.182,0-25.525,18.275-29.615,46.344Z" transform="translate(-2985.681 -2361.129)" fill="#afd8c7"/>
      <ellipse id="Elipse_711" data-name="Elipse 711" cx="15.038" cy="18.34" rx="15.038" ry="18.34" transform="translate(14.93 3.716)" fill="#f7b58e"/>
      <path id="Trazado_10518" data-name="Trazado 10518" d="M3101.937,2195.687c2.361-9.5,2.677-11.935,2.677-11.935s.027-15.954-16.652-15.951c-15.781,0-16.549,13.415-16.549,13.415s-.813,5.788,1.977,14.471c-.427-8.593,1.122-18.179,3.03-14.455,4.419,8.625,20.616-2.149,22.854.7C3104.475,2188.56,3100.639,2196.282,3101.937,2195.687Z" transform="translate(-3057.438 -2167.801)" fill="#ffd147"/>
      <path id="Trazado_10519" data-name="Trazado 10519" d="M3134.421,2468.924h12.805L3142.519,2441l4.348-9.361-5.019-4.406h-2.59l-4.889,4.8,4.865,8.84Z" transform="translate(-3110.292 -2385.226)" fill="#01888b"/>
    </g>
    <g id="Grupo_11211" data-name="Grupo 11211" transform="translate(743.442 382.692)">
      <g id="Grupo_11210" data-name="Grupo 11210" transform="translate(0 0)">
        <rect id="Rectángulo_2858" data-name="Rectángulo 2858" width="109.564" height="109.564" transform="translate(25.131)" fill="#25b6c2"/>
        <circle id="Elipse_712" data-name="Elipse 712" cx="14.241" cy="14.241" r="14.241" transform="translate(0 40.216)" fill="#25b6c2"/>
        <circle id="Elipse_713" data-name="Elipse 713" cx="14.241" cy="14.241" r="14.241" transform="matrix(0.102, -0.995, 0.995, 0.102, 64.294, 134.511)" fill="#25b6c2"/>
      </g>
    </g>
    <g id="Grupo_11213" data-name="Grupo 11213" transform="translate(794.393 392.338)">
      <g id="Grupo_11212" data-name="Grupo 11212" transform="translate(0 3.316)">
        <path id="Trazado_10520" data-name="Trazado 10520" d="M3113.154,958.373c-3.576-28.822-11.4-47.821-29.105-47.821-17.172,0-25.155,19-28.91,47.821Z" transform="translate(-3055.139 -874.655)" fill="#ffd147"/>
        <ellipse id="Elipse_714" data-name="Elipse 714" cx="14.451" cy="17.624" rx="14.451" ry="17.624" transform="translate(14.798 3.571)" fill="#f7b58e"/>
        <path id="Trazado_10521" data-name="Trazado 10521" d="M3168.563,710.779c2.269-9.132,1.758-11.47,1.758-11.47a23.8,23.8,0,0,0-.916-2.944c-.44-.99-9.365-7.495-15.086-7.495s-13.253,5.428-14.238,6.708-1.665,6.184-1.665,6.184-1.6,1.487,1.084,9.832c-.41-8.258.044-11.43,3.727-9.816,17.237,7.554,19.812-2.065,21.962.676C3170.187,708.82,3167.316,711.35,3168.563,710.779Z" transform="translate(-3124.535 -688.871)" fill="#212b53"/>
        <path id="Trazado_10522" data-name="Trazado 10522" d="M3198.807,981.529h13.041l-4.134-31.748,3.427-7.365-4.823-4.234h-2.489l-4.7,4.609,3.924,6.865Z" transform="translate(-3175.542 -897.811)" fill="#212b53"/>
      </g>
      <circle id="Elipse_715" data-name="Elipse 715" cx="4.749" cy="4.749" r="4.749" transform="matrix(0.699, -0.715, 0.715, 0.699, 11.479, 9.82)" fill="#212b53"/>
      <path id="Trazado_10523" data-name="Trazado 10523" d="M3286.758,718.626a4.749,4.749,0,1,1,6.712-.24A4.749,4.749,0,0,1,3286.758,718.626Z" transform="translate(-3247.984 -703.598)" fill="#212b53"/>
      <path id="Trazado_10524" data-name="Trazado 10524" d="M3121.652,728.035a8.051,8.051,0,1,1,11.378-.406A8.051,8.051,0,0,1,3121.652,728.035Z" transform="translate(-3108.732 -706.691)" fill="#212b53"/>
      <circle id="Elipse_716" data-name="Elipse 716" cx="8.051" cy="8.051" r="8.051" transform="matrix(0.995, -0.1, 0.1, 0.995, 17.083, 4.345)" fill="#212b53"/>
      <circle id="Elipse_717" data-name="Elipse 717" cx="4.749" cy="4.749" r="4.749" transform="translate(32.201 10.334) rotate(-50.005)" fill="#212b53"/>
      <path id="Trazado_10525" data-name="Trazado 10525" d="M3174.728,680.319a6.888,6.888,0,1,1,9.734-.347A6.887,6.887,0,0,1,3174.728,680.319Z" transform="translate(-3153.524 -668.39)" fill="#212b53"/>
      <path id="Trazado_10526" data-name="Trazado 10526" d="M3211.511,690.594a6.888,6.888,0,1,1,9.734-.348A6.888,6.888,0,0,1,3211.511,690.594Z" transform="translate(-3184.351 -677.001)" fill="#212b53"/>
    </g>
    <g id="Grupo_11219" data-name="Grupo 11219" transform="translate(712.296 632.784)">
      <path id="Trazado_10527" data-name="Trazado 10527" d="M2552.122,2184.679a3.393,3.393,0,0,1,.146,2.419l-.442,3.139-.539.363-2.007.829a2.162,2.162,0,0,0,0-1.257l-.882-3.247s-1.371-5.479,2.35-5.245c-.019-4.463,1.225-3.727,1.225-3.727l.085,3.859Z" transform="translate(-2548.152 -2173.916)" fill="#f7b58e"/>
      <path id="Trazado_10528" data-name="Trazado 10528" d="M2565.46,2257.653s-2.6,9.927-4.819,10.1-4.525-15.725-4.525-15.725l-3.017.365s-1.172,22.869,5.594,23.285,7.66-4.641,7.66-4.641Z" transform="translate(-2552.233 -2236.037)" fill="#ffda71"/>
      <path id="Trazado_10529" data-name="Trazado 10529" d="M2630.117,2284.793h17.7v-26.884c-5.058-7.717-11.36-5.615-11.36-5.615s-5.731.1-6.624,5.36C2629.834,2261.458,2630.117,2284.793,2630.117,2284.793Z" transform="translate(-2616.607 -2236.038)" fill="#f6a505"/>
      <g id="Grupo_11214" data-name="Grupo 11214" transform="translate(17.52 12.685)">
        <path id="Trazado_10530" data-name="Trazado 10530" d="M2660.745,2231.6l.262,3.8-.125.119a3.3,3.3,0,0,1-4.478.063h0l-.059-2.859Z" transform="translate(-2656.345 -2231.596)" fill="#f39f85"/>
      </g>
      <g id="Grupo_11215" data-name="Grupo 11215" transform="translate(11.925)">
        <path id="Trazado_10531" data-name="Trazado 10531" d="M2644.54,2182.558l-.32,6.282a.971.971,0,0,0-.872,1.234,1.173,1.173,0,0,0-.1.463,7.208,7.208,0,0,1-5.6,1.3c-3.976-.761-1.577-8.447-1.577-8.447Z" transform="translate(-2633.155 -2177.813)" fill="#f7b58e"/>
        <path id="Trazado_10532" data-name="Trazado 10532" d="M2635.175,2162.721a3.854,3.854,0,0,1,1.007-1.74c2.251-1.948.238-3.367-.477-3.826-.79-.508-.635-1.94-1.657-2.741-1.562-1.222-3.067.044-4.067-.141s-1.621-1.516-3.075-.811-1.294,1.846-1.76,2.328-1.323-.849-2.741.671c-2.158,2.314,2.074,3.3,2.074,3.3a7.677,7.677,0,0,0,5.382-.245,1.006,1.006,0,0,1,1.187.291c.732,1,.74,6.242.74,6.242l1.023-.851A2.843,2.843,0,0,0,2635.175,2162.721Z" transform="translate(-2621.791 -2153.258)" fill="#212b53"/>
        <path id="Trazado_10533" data-name="Trazado 10533" d="M2680.1,2207.989a.965.965,0,1,1-.527-1.258A.965.965,0,0,1,2680.1,2207.989Z" transform="translate(-2669.101 -2198.012)" fill="#f7b58e"/>
      </g>
      <g id="Grupo_11216" data-name="Grupo 11216" transform="translate(9.67 96.435)">
        <path id="Trazado_10534" data-name="Trazado 10534" d="M2615.718,2767.39s-1,1.381-5.7,2.578c-1.035.264-2.152.444-2.152,2.152h4.642l4.746-.821v.821h2.563s.714-4.192-.783-4.73Z" transform="translate(-2607.866 -2764.378)" fill="#212b53"/>
        <path id="Trazado_10535" data-name="Trazado 10535" d="M2654.85,2748.793l.244,3.011h0a2.9,2.9,0,0,0,3.141.105l.176-.105v-3.011Z" transform="translate(-2647.242 -2748.793)" fill="#f7b58e"/>
      </g>
      <g id="Grupo_11217" data-name="Grupo 11217" transform="translate(22.856 96.435)">
        <path id="Trazado_10536" data-name="Trazado 10536" d="M2697.153,2767.39s-1,1.381-5.7,2.578c-1.035.264-2.151.444-2.151,2.152h4.642l4.746-.821v.821h2.563s.714-4.192-.783-4.73Z" transform="translate(-2689.301 -2764.378)" fill="#212b53"/>
        <path id="Trazado_10537" data-name="Trazado 10537" d="M2736.284,2748.793l.244,3.011h0a2.9,2.9,0,0,0,3.14.105l.176-.105v-3.011Z" transform="translate(-2728.676 -2748.793)" fill="#f7b58e"/>
      </g>
      <path id="Trazado_10538" data-name="Trazado 10538" d="M2650.646,2288.323s5.306,12.244-1.464,18.5-15.959,5.19-15.959,5.19v-3.527s8.307-.7,10.969-6.255-1.065-10.359-1.065-10.359" transform="translate(-2619.447 -2266.452)" fill="#f6a505"/>
      <path id="Trazado_10539" data-name="Trazado 10539" d="M2598.311,2406.136l-4.237.089c-1.721-.095-2.865-2.665-3.151-4.574a.388.388,0,0,1,.513-.419,54.012,54.012,0,0,1,6.093,2.4Z" transform="translate(-2583.993 -2361.059)" fill="#f7b58e"/>
      <path id="Trazado_10540" data-name="Trazado 10540" d="M2622.449,2454.347c-5.279,14.906,2.972,47.913,2.972,47.913h4.7s-2.218-46.8,3.9-47.913Z" transform="translate(-2608.94 -2405.591)" fill="#00666b"/>
      <path id="Trazado_10541" data-name="Trazado 10541" d="M2642.9,2351.335a9.546,9.546,0,0,1-.945,3.7c-2.662,5.553-11.4,6.289-11.4,6.289v3.562s9.622,1,16.392-5.259a11.468,11.468,0,0,0,3.426-8.3Z" transform="translate(-2617.21 -2319.26)" fill="#ffda71"/>
      <g id="Grupo_11218" data-name="Grupo 11218" transform="translate(23.676 25.124)">
        <path id="Trazado_10542" data-name="Trazado 10542" d="M2696.333,2315.9c.186-.084.373-.165.557-.253a11.374,11.374,0,0,0-2.112-7.236l-.417.331A10.737,10.737,0,0,1,2696.333,2315.9Z" transform="translate(-2694.361 -2308.409)" fill="#f08712"/>
      </g>
      <path id="Trazado_10543" data-name="Trazado 10543" d="M2566.942,2205.111s.976-.293,1.129-2.075.995-1.231.995-1.231-.438,7.025-1.558,7.289S2566.942,2205.111,2566.942,2205.111Z" transform="translate(-2563.784 -2193.876)" fill="#f7b58e"/>
      <path id="Trazado_10544" data-name="Trazado 10544" d="M2663.091,2454.347c-1.437,18.278,10.233,47.913,10.233,47.913h5.59s-3.8-18.949-3.876-36.734a94.964,94.964,0,0,1,.549-11.178Z" transform="translate(-2644.376 -2405.591)" fill="#01888b"/>
    </g>
    <g id="Grupo_11227" data-name="Grupo 11227" transform="translate(586.533 626.68)">
      <g id="Grupo_11220" data-name="Grupo 11220" transform="translate(18.374 102.49)">
        <path id="Trazado_10545" data-name="Trazado 10545" d="M1888.207,2762.574s.756,1.046,4.317,1.953c.784.2,1.63.336,1.63,1.629h-3.516l-3.595-.622v.622H1885.1s-.541-3.175.593-3.583Z" transform="translate(-1884.973 -2760.293)" fill="#212b53"/>
        <path id="Trazado_10546" data-name="Trazado 10546" d="M1892.13,2748.49l-.185,2.281h0a2.2,2.2,0,0,1-2.378.08l-.133-.08v-2.281Z" transform="translate(-1888.711 -2748.49)" fill="#f7b58e"/>
      </g>
      <g id="Grupo_11221" data-name="Grupo 11221" transform="translate(0.341 102.945)">
        <path id="Trazado_10547" data-name="Trazado 10547" d="M1776.847,2765.381s.755,1.046,4.317,1.953c.784.2,1.63.336,1.63,1.63h-3.516l-3.594-.622v.622h-1.942s-.541-3.175.594-3.582Z" transform="translate(-1773.613 -2763.101)" fill="#212b53"/>
        <path id="Trazado_10548" data-name="Trazado 10548" d="M1780.769,2751.3l-.184,2.281h0a2.2,2.2,0,0,1-2.379.08l-.133-.08V2751.3Z" transform="translate(-1777.351 -2751.297)" fill="#f7b58e"/>
      </g>
      <path id="Trazado_10549" data-name="Trazado 10549" d="M1861.96,2376.973l-.875,57.287h-4.174s-6.353-46.252-5-57.287S1861.96,2376.973,1861.96,2376.973Z" transform="translate(-1838.734 -2330.532)" fill="#212b53"/>
      <path id="Trazado_10550" data-name="Trazado 10550" d="M1792.085,2402.281s-1.453,17.6-4.79,27.34-9.363,29.96-9.363,29.96h-4.32s7.214-42.25,5.564-57.3h12.909Z" transform="translate(-1773.271 -2355.853)" fill="#12375a"/>
      <path id="Trazado_10551" data-name="Trazado 10551" d="M1899.027,2222.211s5.144,12,6.449,12c1.045,0-.391-9.795-.391-9.795h4.308s5.418,16.788,1.11,19.856-13.772-8.681-13.772-8.681Z" transform="translate(-1876.452 -2204.941)" fill="#ffd147"/>
      <path id="Trazado_10552" data-name="Trazado 10552" d="M1816.2,2410.329l1.559,3.854c.751,1.514,3.51,1.552,5.342,1.072a.38.38,0,0,0,.18-.625,52.925,52.925,0,0,0-4.522-4.563Z" transform="translate(-1808.96 -2362.378)" fill="#f7b58e"/>
      <path id="Trazado_10553" data-name="Trazado 10553" d="M1829.167,2206.663s2.687,1.822,2.687,3.911V2238.3h-15.741v-25.921s.322-5.764,5.956-5.764S1829.167,2206.663,1829.167,2206.663Z" transform="translate(-1808.889 -2191.87)" fill="#ffd147"/>
      <g id="Grupo_11222" data-name="Grupo 11222" transform="translate(22.703 21.54)">
        <path id="Trazado_10554" data-name="Trazado 10554" d="M1911.709,2273.484v-24.9l.522.017v24.883Z" transform="translate(-1911.709 -2248.584)" fill="#fff"/>
      </g>
      <path id="Trazado_10555" data-name="Trazado 10555" d="M1861.5,2168.684v6.538a4,4,0,0,0,3.051,1.492c1.964,0,1.964-1.416,1.964-1.416v-4.19l-2.907-.757Z" transform="translate(-1846.924 -2160.082)" fill="#f39f85"/>
      <path id="Trazado_10556" data-name="Trazado 10556" d="M1866.487,2136.208a2.435,2.435,0,0,0,1.458-.379c1.744-2.779-.242-10.271-.242-10.271l-6.329,1.135-.2,5.021a4.216,4.216,0,0,0,1.581,3.463h0A6.763,6.763,0,0,0,1866.487,2136.208Z" transform="translate(-1846.649 -2123.94)" fill="#f7b58e"/>
      <path id="Trazado_10557" data-name="Trazado 10557" d="M1857.418,2118.448a13.537,13.537,0,0,0,4.311,0c2.21-.393.8-2.828.8-2.828a8.692,8.692,0,0,1-4.542.317c-1.962-.29-2.489-.67-3.746,0-1.708.911-1.3,4-1.3,4l.943,6.535h.353s.087-3.886.087-5.209c.37-.6.77-.6,1.079-.452a.989.989,0,0,1,.524.9v6.785s4.321,1.863,5.421,1.525.365-5.366.365-5.366a2.019,2.019,0,0,0-2.25.55c-.973,1.09-2.154-.044-2.154-.044Z" transform="translate(-1839.717 -2115.564)" fill="#212b53"/>
      <path id="Trazado_10558" data-name="Trazado 10558" d="M1939.646,2207.152l-.152-.827a6.89,6.89,0,0,0-3.85-4.708h-1.829l.566,3.907,2.581,1.628Z" transform="translate(-1907.532 -2187.682)" fill="#f7b58e"/>
      <path id="Trazado_10559" data-name="Trazado 10559" d="M1861.189,2146.906a1.1,1.1,0,0,1,1.041,1.038.951.951,0,0,1-.717,1.184,1.1,1.1,0,0,1-1.042-1.038A.951.951,0,0,1,1861.189,2146.906Z" transform="translate(-1846.053 -2141.829)" fill="#f7b58e"/>
      <path id="Trazado_10560" data-name="Trazado 10560" d="M1929.13,2216l3.563,2.061s-2.235-.022-2.272,0l-3.771-3.155s.274-.551,1.128-.086A4.335,4.335,0,0,1,1929.13,2216Z" transform="translate(-1901.527 -2198.589)" fill="#f7b58e"/>
      <path id="Trazado_10561" data-name="Trazado 10561" d="M1780.4,2217.329s-8.9,9.886-8.9,15.812,7.224,16.369,7.224,16.369l3.568-1.044s-3.22-12.924-3.22-16.362,6.614-8.478,6.614-8.478" transform="translate(-1771.504 -2200.85)" fill="#ffd147"/>
      <g id="Grupo_11223" data-name="Grupo 11223" transform="translate(7.311 22.568)">
        <path id="Trazado_10562" data-name="Trazado 10562" d="M1817.172,2263.616c0,2.96,2.62,13.781,3.235,16.3-.181.048-.255.062-.529.133-.757-3.115-3.229-13.526-3.229-16.435,0-3.526,6.443-8.477,6.717-8.686l.317.415C1823.619,2255.395,1817.172,2260.345,1817.172,2263.616Z" transform="translate(-1816.65 -2254.93)" fill="#fff"/>
      </g>
      <g id="Grupo_11226" data-name="Grupo 11226" transform="translate(22.37 3.325)">
        <path id="Trazado_10563" data-name="Trazado 10563" d="M1926.687,2182.819a9.443,9.443,0,0,0,1.63,6.905,1.03,1.03,0,0,0,.666.37,2.617,2.617,0,0,0,1.231-.2,1.144,1.144,0,0,0,.745-.534.493.493,0,0,0-.052-.516c-.479-.715-1.961-3.171-1.287-5.344A3.867,3.867,0,0,0,1926.687,2182.819Z" transform="translate(-1923.838 -2175.207)" fill="#f49b42"/>
        <path id="Trazado_10564" data-name="Trazado 10564" d="M1939.005,2190.215a.758.758,0,0,0,.417-.4.493.493,0,0,0-.052-.516c-.479-.715-1.961-3.171-1.287-5.344a3.264,3.264,0,0,0-1.4-.644C1936.609,2185.7,1937.121,2187.294,1939.005,2190.215Z" transform="translate(-1932.301 -2175.666)" fill="#f9b646"/>
        <g id="Grupo_11225" data-name="Grupo 11225" transform="translate(4.911 9.656)">
          <g id="Grupo_11224" data-name="Grupo 11224" transform="translate(0 0.003)">
            <path id="Trazado_10565" data-name="Trazado 10565" d="M1940.029,2197.038c.113.548.379.957.594.912s.3-.525.186-1.073-.379-.957-.594-.912S1939.917,2196.49,1940.029,2197.038Z" transform="translate(-1939.979 -2195.927)" fill="#f49b42"/>
            <path id="Trazado_10566" data-name="Trazado 10566" d="M1941.174,2195.8l.227-.054-.017.114-.151.06Z" transform="translate(-1940.98 -2195.749)" fill="#f49b42"/>
            <path id="Trazado_10567" data-name="Trazado 10567" d="M1943.445,2207.738l.275-.053-.312-.046Z" transform="translate(-1942.852 -2205.714)" fill="#e7365e"/>
          </g>
          <path id="Trazado_10568" data-name="Trazado 10568" d="M1941.164,2196.8c.113.548.379.957.594.912s.3-.525.186-1.073-.379-.957-.594-.912S1941.051,2196.257,1941.164,2196.8Z" transform="translate(-1940.93 -2195.729)" fill="#ffd147"/>
        </g>
        <path id="Trazado_10569" data-name="Trazado 10569" d="M1911.538,2163.172h-.422a1.437,1.437,0,0,0-1.466,1.4v1.109a1.437,1.437,0,0,0,1.466,1.4h.422Z" transform="translate(-1909.65 -2158.788)" fill="#ffd147"/>
        <path id="Trazado_10570" data-name="Trazado 10570" d="M1984.86,2141.583c0,3.028-.7,5.482-1.555,5.482s-1.555-2.455-1.555-5.482.7-5.483,1.555-5.483S1984.86,2138.555,1984.86,2141.583Z" transform="translate(-1970.076 -2136.1)" fill="#212b53"/>
        <path id="Trazado_10571" data-name="Trazado 10571" d="M1978.865,2157.48l1.229.8v1.774l-1.267,1.149-.438-2.306Z" transform="translate(-1967.258 -2154.018)" fill="#fff"/>
        <path id="Trazado_10572" data-name="Trazado 10572" d="M1929.828,2142.528c0-2.545.492-4.678,1.159-5.3l0,0a25.061,25.061,0,0,1-11.188,4.24v3.87s8.165-.459,11.188,2.489l0,0C1930.321,2147.209,1929.828,2145.074,1929.828,2142.528Z" transform="translate(-1918.152 -2137.045)" fill="#f6a505"/>
        <path id="Trazado_10573" data-name="Trazado 10573" d="M1988.215,2163.261c0,.492-.075.891-.168.891s-.168-.4-.168-.891.075-.891.168-.891S1988.215,2162.769,1988.215,2163.261Z" transform="translate(-1975.211 -2158.116)" fill="#ffd147"/>
      </g>
      <path id="Trazado_10574" data-name="Trazado 10574" d="M1938.354,2204.73a4.2,4.2,0,0,1-1.99.324c-1.036,0-1.5-1.273-1.679-1.966-.062-.244-.117-.59.187-.745l1.664-.231Z" transform="translate(-1908.22 -2188.097)" fill="#f7b58e"/>
    </g>
    <g id="Grupo_11234" data-name="Grupo 11234" transform="translate(603.757 361.949)">
      <g id="Grupo_11229" data-name="Grupo 11229" transform="translate(54.539)">
        <path id="Trazado_10575" data-name="Trazado 10575" d="M2219.98,522.066l-4.227,1.27-1.074-4.585,6.862-.363Z" transform="translate(-2214.679 -512.289)" fill="#f39f85"/>
        <g id="Grupo_11228" data-name="Grupo 11228" transform="translate(5.222 3.331)">
          <path id="Trazado_10576" data-name="Trazado 10576" d="M2247.6,508.8a2.364,2.364,0,0,0,.84,1.063c2.744.461,7.588-3.777,7.588-3.777l-.1-2.732-3.162-2.059-3.831,1.584a3.36,3.36,0,0,0-1.986,2.5h0A6.56,6.56,0,0,0,2247.6,508.8Z" transform="translate(-2246.93 -501.297)" fill="#f7b58e"/>
        </g>
        <path id="Trazado_10577" data-name="Trazado 10577" d="M2258.152,485.5c.705-.134,2.122-.9,2.316-.2.141.5.823,2.14,1.075,2.68.6,1.287,2.172,3.347,4.131,2.435a2.786,2.786,0,0,0,.508-4.391c-1.156-1.187-3.125-2.557-3.323-3.377-.334-1.379-1.66-2.293-2.723-1.776a11.829,11.829,0,0,0-3.411,3.024,6.637,6.637,0,0,0-1.083,2.069h0Z" transform="translate(-2249.008 -480.725)" fill="#212b53"/>
        <path id="Trazado_10578" data-name="Trazado 10578" d="M2261.381,502.337a1.069,1.069,0,0,1,.452,1.249c-.138.521-.563.807-.95.638a1.069,1.069,0,0,1-.451-1.249C2260.568,502.454,2260.994,502.168,2261.381,502.337Z" transform="translate(-2252.986 -498.797)" fill="#f7b58e"/>
      </g>
      <path id="Trazado_10579" data-name="Trazado 10579" d="M2203.38,555.4l2.129,5.92-5.284,4.42V555.4Z" transform="translate(-2148.025 -543.31)" fill="#00666b"/>
      <g id="Grupo_11230" data-name="Grupo 11230" transform="translate(40.863 35.986)">
        <path id="Trazado_10580" data-name="Trazado 10580" d="M2133.891,718.943a14.168,14.168,0,0,0,5.816,2.674c.89.227,1.849-.076,1.849,1.392h-4.906l-4.08-.706v.706h-2.2s-.614-3.6.674-4.066Z" transform="translate(-2130.22 -716.354)" fill="#212b53"/>
        <path id="Trazado_10581" data-name="Trazado 10581" d="M2137.7,702.957l.433,2.589h0a2.493,2.493,0,0,1-2.7.091l-.151-.091.219-2.589Z" transform="translate(-2134.462 -702.957)" fill="#f7b58e"/>
      </g>
      <g id="Grupo_11231" data-name="Grupo 11231" transform="translate(3.768 32.935)">
        <path id="Trazado_10582" data-name="Trazado 10582" d="M1903.8,687.229l-2.38-.47h0a2.328,2.328,0,0,1,.2-2.515l.1-.131,2.4.276Z" transform="translate(-1901.144 -684.113)" fill="#f7b58e"/>
      </g>
      <path id="Trazado_10583" data-name="Trazado 10583" d="M2081.064,575.417s3.067-.124,9.128-3.867c-4.1,7.3-2.763,17.241-2.763,17.241h3.476l8.557-22.415-20.5-1.065v10.34Z" transform="translate(-2046.399 -551.613)" fill="#212b53"/>
      <path id="Trazado_10584" data-name="Trazado 10584" d="M2064.633,497.1s-10.7-11.079-31.91,2.946l9.092,10.857,11.053-3.743,8.379,2.317Z" transform="translate(-2007.648 -490.964)" fill="#01888b"/>
      <g id="Grupo_11233" data-name="Grupo 11233" transform="translate(45.219 16.193)">
        <path id="Trazado_10585" data-name="Trazado 10585" d="M2157.124,580.723s.535,9.27,2.318,13.727,10.433,12.657,10.433,12.657l1.208-2.674-5.937-10.518.357-10.875Z" transform="translate(-2157.124 -580.723)" fill="#f7b58e"/>
        <g id="Grupo_11232" data-name="Grupo 11232" transform="translate(10.811 21.598)">
          <path id="Trazado_10586" data-name="Trazado 10586" d="M2227.018,716.352a5.058,5.058,0,0,0,1.543,2.353c1.122,1.136,4.147,2.814,2.633,3.588-1.692-.367-3.724-.595-3.724-.595a5.589,5.589,0,0,1-2.506-2.782l-1.075-3.308s.892-1.433.922-1.509l.7.232A8.183,8.183,0,0,0,2227.018,716.352Z" transform="translate(-2223.889 -714.1)" fill="#f7b58e"/>
          <path id="Trazado_10587" data-name="Trazado 10587" d="M2229.474,721.521a1.276,1.276,0,0,0,.01.26c-.216-.073-.433-.133-.65-.186-.648-.525-1.311-1.03-1.964-1.548.352-.331.844-.8.873-.837l4.95,2.544s-.038.718-1.189.54A5.534,5.534,0,0,1,2229.474,721.521Z" transform="translate(-2226.387 -718.383)" fill="#f7b58e"/>
        </g>
      </g>
      <path id="Trazado_10588" data-name="Trazado 10588" d="M1932.156,536.793s-5.7,4.384-6.061,9.966,5.348,16.009,5.348,16.009-6.386-5.344-17.989-2.282a23.508,23.508,0,0,0-.729,3.692s24.067,8.765,27.632,4.423.891-20.951.891-20.951Z" transform="translate(-1907.081 -527.714)" fill="#053c5e"/>
      <path id="Trazado_10589" data-name="Trazado 10589" d="M1882.2,678.983s-1.8.557-2.207,5.93c-.084,1.1-.464.832-.856,1.121-.36-1.656-1.262-5.093-1.262-5.093l1.348-3.542-.761-.575,1.254-1.989s2.5.259,2.789,1.5Z" transform="translate(-1877.873 -643.403)" fill="#212b53"/>
    </g>
    <g id="Grupo_11242" data-name="Grupo 11242" transform="translate(823.782 510.794)">
      <g id="Grupo_11241" data-name="Grupo 11241" transform="translate(0 0)">
        <g id="Grupo_11235" data-name="Grupo 11235" transform="translate(5.794 104.47)">
          <path id="Trazado_10590" data-name="Trazado 10590" d="M3280.745,2062.46a15.409,15.409,0,0,1-6.327,2.909c-.968.247-2.012-.083-2.012,1.515h5.338l4.439-.768v.768h2.4s.667-3.921-.733-4.424Z" transform="translate(-3272.405 -2059.644)" fill="#212b53"/>
          <path id="Trazado_10591" data-name="Trazado 10591" d="M3324.177,2045.067l-.27,2.816h0a2.712,2.712,0,0,0,2.937.1l.165-.1,1-2.816Z" transform="translate(-3315.567 -2045.067)" fill="#f7b58e"/>
        </g>
        <g id="Grupo_11236" data-name="Grupo 11236" transform="translate(19.152 104.47)">
          <path id="Trazado_10592" data-name="Trazado 10592" d="M3363.242,2062.46a15.409,15.409,0,0,1-6.327,2.909c-.969.247-2.012-.083-2.012,1.515h5.338l4.439-.768v.768h2.4s.668-3.921-.733-4.424Z" transform="translate(-3354.902 -2059.644)" fill="#212b53"/>
          <path id="Trazado_10593" data-name="Trazado 10593" d="M3406.673,2045.067l-.27,2.816h0a2.712,2.712,0,0,0,2.937.1l.165-.1,1-2.816Z" transform="translate(-3398.063 -2045.067)" fill="#f7b58e"/>
        </g>
        <g id="Grupo_11238" data-name="Grupo 11238" transform="translate(18.59)">
          <path id="Trazado_10594" data-name="Trazado 10594" d="M3378.336,1459.286l.753,4.6,4.1-1.829-1.351-5.517Z" transform="translate(-3373.979 -1447.368)" fill="#f39f85"/>
          <g id="Grupo_11237" data-name="Grupo 11237" transform="translate(0.811 2.034)">
            <path id="Trazado_10595" data-name="Trazado 10595" d="M3358.5,1422.786a2.469,2.469,0,0,1-1.38-.328c-1.651-2.4.229-8.87.229-8.87l2.638-1.111,3.352,2.091.191,4.336a3.518,3.518,0,0,1-1.5,2.991h0A6.865,6.865,0,0,1,3358.5,1422.786Z" transform="translate(-3356.438 -1412.477)" fill="#f7b58e"/>
          </g>
          <path id="Trazado_10596" data-name="Trazado 10596" d="M3358.207,1405.292a1.45,1.45,0,0,0-1.635-1.081,11.528,11.528,0,0,1-1.812.165c-1.487,0-3.332-.582-3.332-2.844s2.779-1.487,2.779-1.487,5.71.865,7.922,2.523c1.058.793-.712,3.311-1.362,4.574a6.955,6.955,0,0,1-1.485,1.943h0Z" transform="translate(-3351.428 -1399.916)" fill="#212b53"/>
          <path id="Trazado_10597" data-name="Trazado 10597" d="M3395.9,1440.6a1.119,1.119,0,0,0-1.385.124c-.434.361-.517.891-.186,1.183a1.119,1.119,0,0,0,1.385-.124C3396.153,1441.424,3396.235,1440.894,3395.9,1440.6Z" transform="translate(-3387.216 -1433.856)" fill="#f7b58e"/>
        </g>
        <path id="Trazado_10598" data-name="Trazado 10598" d="M3332,1492.435s-6.165,10.12-9.852,33.623c7.427,2.334,18.771,4.856,18.771,4.856s6.7-25.476-4.824-40.308A6.1,6.1,0,0,0,3332,1492.435Z" transform="translate(-3308.296 -1475.921)" fill="#63c0c4"/>
        <path id="Trazado_10599" data-name="Trazado 10599" d="M3295.427,1709.538s-5.162,17.326-5.162,25.17,5.162,29.968,5.162,29.968h4.742s1.11-15.476-.253-24.166a17.568,17.568,0,0,1,.513-7.647c2.543-8.713,5.256-20.5,5.256-20.5Z" transform="translate(-3281.579 -1659.401)" fill="#212b53"/>
        <path id="Trazado_10600" data-name="Trazado 10600" d="M3341.841,1718.084s-1.337,18.814.8,25.6,9.294,28.157,9.294,28.157h4.189a75.425,75.425,0,0,0-2.322-23.991,15.526,15.526,0,0,1,.3-9.111,52.413,52.413,0,0,0,2.968-17.178Z" transform="translate(-3324.458 -1666.563)" fill="#053c5e"/>
        <g id="Grupo_11239" data-name="Grupo 11239" transform="translate(0 51.218)">
          <path id="Trazado_10601" data-name="Trazado 10601" d="M3243.567,1724.589a4.839,4.839,0,0,1-2.662.411c-1.527-.07-4.66-1.145-4.239.428,1.345.968,2.81,2.266,2.81,2.266a5.35,5.35,0,0,0,3.585,0l3.042-1.356s.447-1.553.482-1.623l-.612-.346A7.834,7.834,0,0,1,3243.567,1724.589Z" transform="translate(-3236.627 -1723.047)" fill="#f7b58e"/>
          <path id="Trazado_10602" data-name="Trazado 10602" d="M3263.519,1718.352a1.205,1.205,0,0,1-.191.159c.19.107.372.223.549.343.789.124,1.573.272,2.36.4.01-.463.026-1.112.036-1.158l-4.982-1.889s-.486.488.378,1.192A5.3,5.3,0,0,0,3263.519,1718.352Z" transform="translate(-3257.182 -1716.212)" fill="#f7b58e"/>
        </g>
        <path id="Trazado_10603" data-name="Trazado 10603" d="M3304.526,1551.979l-1.38,11.269a10.3,10.3,0,0,1-2.731,5.816l-10.15,10.763,1.006,2.522s15.291-7.207,18.1-11.476,4.221-17.285,4.221-17.285Z" transform="translate(-3281.579 -1527.355)" fill="#63c0c4"/>
        <g id="Grupo_11240" data-name="Grupo 11240" transform="translate(8.451 30.315)">
          <path id="Trazado_10604" data-name="Trazado 10604" d="M3311.582,1587.379c-.66,4.176-1.862,10.219-3.59,12.84-2.58,3.915-16.049,10.46-17.828,11.312l-.878-2.2,10.062-10.67a10.436,10.436,0,0,0,2.784-5.93l.619-5.051q-.192-.108-.378-.227l-.64,5.229a10.038,10.038,0,0,1-2.677,5.7l-10.15,10.763-.088.093,1.133,2.839.193-.091c.627-.3,15.375-7.28,18.186-11.547,1.833-2.781,3.06-9.107,3.708-13.313Q3311.813,1587.258,3311.582,1587.379Z" transform="translate(-3288.817 -1587.127)" fill="#01888b"/>
        </g>
      </g>
      <path id="Trazado_10605" data-name="Trazado 10605" d="M3381.511,1481.436l4.02-2.217.314,1.844-4.334,2.249Z" transform="translate(-3358.05 -1466.378)" fill="#fff"/>
    </g>
    <path id="Trazado_10606" data-name="Trazado 10606" d="M3483.889,2260.119a125.732,125.732,0,0,1-10.955,9.873c-3.5,2.569-10.916,4.853-13.522,5.605a2.4,2.4,0,0,1-1.776-.18l-2.445-1.276s-3.007.732-2.862,1.717a11.653,11.653,0,0,0,1.574,2.217,2.511,2.511,0,0,0,2.173.794c3.287-.408,12.776-1.759,19.147-4.442,7.814-3.291,15.74-9.873,15.74-9.873Z" transform="translate(-2593.615 -1610.031)" fill="#f7b58e"/>
    <g id="Grupo_11267" data-name="Grupo 11267" transform="translate(397.181 581.181)">
      <g id="Grupo_11254" data-name="Grupo 11254" transform="translate(0 0)">
        <g id="Grupo_11243" data-name="Grupo 11243">
          <path id="Trazado_10607" data-name="Trazado 10607" d="M605.008,1989.77l49.918-155.185h-2.843L602.166,1989.77Z" transform="translate(-602.166 -1834.585)" fill="#25b6c2"/>
        </g>
        <g id="Grupo_11244" data-name="Grupo 11244" transform="translate(25.811)">
          <path id="Trazado_10608" data-name="Trazado 10608" d="M764.4,1989.77l49.918-155.185H811.48L761.561,1989.77Z" transform="translate(-761.561 -1834.585)" fill="#25b6c2"/>
        </g>
        <g id="Grupo_11245" data-name="Grupo 11245" transform="translate(36.986 40.285)">
          <path id="Trazado_10609" data-name="Trazado 10609" d="M830.57,2083.377v2.314l26.746-.015.457-2.314Z" transform="translate(-830.57 -2083.362)" fill="#25b6c2"/>
        </g>
        <g id="Grupo_11246" data-name="Grupo 11246" transform="translate(42.515 25.248)">
          <path id="Trazado_10610" data-name="Trazado 10610" d="M864.718,1990.52v2.314l26.745-.015.457-2.314Z" transform="translate(-864.718 -1990.505)" fill="#25b6c2"/>
        </g>
        <g id="Grupo_11247" data-name="Grupo 11247" transform="translate(47.087 10.212)">
          <path id="Trazado_10611" data-name="Trazado 10611" d="M892.952,1897.662v2.314l26.745-.015.457-2.314Z" transform="translate(-892.952 -1897.648)" fill="#25b6c2"/>
        </g>
        <g id="Grupo_11248" data-name="Grupo 11248" transform="translate(32.114 55.515)">
          <path id="Trazado_10612" data-name="Trazado 10612" d="M800.487,2177.429v2.314l26.745-.015.457-2.314Z" transform="translate(-800.487 -2177.414)" fill="#25b6c2"/>
        </g>
        <g id="Grupo_11249" data-name="Grupo 11249" transform="translate(27.542 70.744)">
          <path id="Trazado_10613" data-name="Trazado 10613" d="M772.253,2271.478v2.314l26.745-.015.457-2.314Z" transform="translate(-772.253 -2271.463)" fill="#25b6c2"/>
        </g>
        <g id="Grupo_11250" data-name="Grupo 11250" transform="translate(21.732 86.567)">
          <path id="Trazado_10614" data-name="Trazado 10614" d="M737.453,2369.191l-1.081,2.314,26.746-.015.457-2.314Z" transform="translate(-736.372 -2369.177)" fill="#25b6c2"/>
        </g>
        <g id="Grupo_11251" data-name="Grupo 11251" transform="translate(16.718 102.39)">
          <path id="Trazado_10615" data-name="Trazado 10615" d="M706.487,2466.906l-1.081,2.314,26.745-.015.457-2.314Z" transform="translate(-705.406 -2466.891)" fill="#25b6c2"/>
        </g>
        <g id="Grupo_11252" data-name="Grupo 11252" transform="translate(12.022 117.86)">
          <path id="Trazado_10616" data-name="Trazado 10616" d="M677.487,2562.442l-1.081,2.314,26.745-.015.457-2.314Z" transform="translate(-676.406 -2562.427)" fill="#25b6c2"/>
        </g>
        <g id="Grupo_11253" data-name="Grupo 11253" transform="translate(8.131 133.668)">
          <path id="Trazado_10617" data-name="Trazado 10617" d="M653.459,2660.063l-1.081,2.314,26.745-.015.457-2.314Z" transform="translate(-652.379 -2660.048)" fill="#25b6c2"/>
        </g>
      </g>
      <g id="Grupo_11266" data-name="Grupo 11266" transform="translate(51.537 0)">
        <g id="Grupo_11255" data-name="Grupo 11255" transform="translate(25.811)">
          <path id="Trazado_10618" data-name="Trazado 10618" d="M1129.747,1989.77l-49.918-155.185h2.843l49.918,155.185Z" transform="translate(-1079.828 -1834.585)" fill="#053c5e"/>
        </g>
        <g id="Grupo_11256" data-name="Grupo 11256">
          <path id="Trazado_10619" data-name="Trazado 10619" d="M970.352,1989.77l-49.918-155.185h2.843l49.918,155.185Z" transform="translate(-920.433 -1834.585)" fill="#053c5e"/>
        </g>
        <g id="Grupo_11257" data-name="Grupo 11257" transform="translate(14.384 40.285)">
          <path id="Trazado_10620" data-name="Trazado 10620" d="M1036.463,2083.377v2.314l-26.746-.015-.457-2.314Z" transform="translate(-1009.26 -2083.362)" fill="#053c5e"/>
        </g>
        <g id="Grupo_11258" data-name="Grupo 11258" transform="translate(8.854 25.248)">
          <path id="Trazado_10621" data-name="Trazado 10621" d="M1002.316,1990.52v2.314l-26.745-.015-.457-2.314Z" transform="translate(-975.114 -1990.505)" fill="#053c5e"/>
        </g>
        <g id="Grupo_11259" data-name="Grupo 11259" transform="translate(4.283 10.212)">
          <path id="Trazado_10622" data-name="Trazado 10622" d="M974.082,1897.662v2.314l-26.745-.015-.457-2.314Z" transform="translate(-946.88 -1897.648)" fill="#053c5e"/>
        </g>
        <g id="Grupo_11260" data-name="Grupo 11260" transform="translate(19.256 55.515)">
          <path id="Trazado_10623" data-name="Trazado 10623" d="M1066.548,2177.429v2.314l-26.745-.015-.457-2.314Z" transform="translate(-1039.345 -2177.414)" fill="#053c5e"/>
        </g>
        <g id="Grupo_11261" data-name="Grupo 11261" transform="translate(23.827 70.744)">
          <path id="Trazado_10624" data-name="Trazado 10624" d="M1094.781,2271.478v2.314l-26.745-.015-.457-2.314Z" transform="translate(-1067.578 -2271.463)" fill="#053c5e"/>
        </g>
        <g id="Grupo_11262" data-name="Grupo 11262" transform="translate(29.638 86.567)">
          <path id="Trazado_10625" data-name="Trazado 10625" d="M1129.581,2369.191l1.081,2.314-26.745-.015-.457-2.314Z" transform="translate(-1103.459 -2369.177)" fill="#053c5e"/>
        </g>
        <g id="Grupo_11263" data-name="Grupo 11263" transform="translate(34.652 102.39)">
          <path id="Trazado_10626" data-name="Trazado 10626" d="M1160.547,2466.906l1.081,2.314-26.745-.015-.457-2.314Z" transform="translate(-1134.425 -2466.891)" fill="#053c5e"/>
        </g>
        <g id="Grupo_11264" data-name="Grupo 11264" transform="translate(39.348 117.86)">
          <path id="Trazado_10627" data-name="Trazado 10627" d="M1189.547,2562.442l1.081,2.314-26.745-.015-.457-2.314Z" transform="translate(-1163.426 -2562.427)" fill="#053c5e"/>
        </g>
        <g id="Grupo_11265" data-name="Grupo 11265" transform="translate(43.239 133.668)">
          <path id="Trazado_10628" data-name="Trazado 10628" d="M1213.574,2660.063l1.081,2.314-26.745-.015-.457-2.314Z" transform="translate(-1187.452 -2660.048)" fill="#053c5e"/>
        </g>
      </g>
    </g>
    <g id="Grupo_11271" data-name="Grupo 11271" transform="translate(447.422 478.566)">
      <path id="Trazado_10629" data-name="Trazado 10629" d="M926.62,1674.852l2.021.351c.418-2.506,6.7-14.387,7.212-20.558a139.347,139.347,0,0,1,2.159-14.477l-6.758-2.01s-1.711,0,.168,13.962C927.2,1657.667,926.063,1670.255,926.62,1674.852Z" transform="translate(-924.211 -1567.351)" fill="#f39f85"/>
      <path id="Trazado_10630" data-name="Trazado 10630" d="M958.039,1606.8s1.587,9.551,3.8,19.766c-2.306,6.168,1.208,23.381,1.273,23.32.265-.249,1.479,1.247,1.479,1.247s2.563-15.191,3.13-22.041.708-15.2.708-15.2Z" transform="translate(-950.653 -1541.068)" fill="#f7b58e"/>
      <path id="Trazado_10631" data-name="Trazado 10631" d="M983.392,1866.928a2.255,2.255,0,0,0-.786,1.856c.176,1.04.426,3.475.426,3.475h.989l-.03-2.271c0-.148,2.121,2.271,2.48,2.271h5.234s.348-1.532-2.726-2.024S983.392,1866.928,983.392,1866.928Z" transform="translate(-971.224 -1759.076)" fill="#053c5e"/>
      <g id="Grupo_11268" data-name="Grupo 11268" transform="translate(0 105.299)">
        <path id="Trazado_10632" data-name="Trazado 10632" d="M929.548,1851.983l-.14,2.167a2.021,2.021,0,0,0,.357,1.282,8.127,8.127,0,0,0,1.574,1.636c-1.518.488-2.9-1.214-3.621-2.345a2.7,2.7,0,0,1-.393-1.858l.255-1.705Z" transform="translate(-924.888 -1851.161)" fill="#f39f85"/>
        <path id="Trazado_10633" data-name="Trazado 10633" d="M914.838,1863.6s-1.335.12-1.556,1.135-.853,3.07-.853,3.07l.728.58,1.026-2.037a30.314,30.314,0,0,0,2.559,3.122h5.713s0-1.891-3.575-1.976C915.586,1867.414,914.838,1863.6,914.838,1863.6Z" transform="translate(-912.429 -1861.585)" fill="#212b53"/>
      </g>
      <path id="Trazado_10634" data-name="Trazado 10634" d="M1062.631,1232.129l-6.345,16.58-4-2.976,8.937-15.066Z" transform="translate(-1029.639 -1225.845)" fill="#f7b58e"/>
      <g id="Grupo_11269" data-name="Grupo 11269" transform="translate(31.352 0)">
        <path id="Trazado_10635" data-name="Trazado 10635" d="M1106.894,1202.161a2.579,2.579,0,0,0-.574,1.751l-.28,2.394.327.37,1.123,1c-.04-.5-.1,0-.1,0l1.805-3.142s2.183-1.4-.57-3.465a.792.792,0,0,0-.905-.058A2.023,2.023,0,0,0,1106.894,1202.161Z" transform="translate(-1106.04 -1200.892)" fill="#f7b58e"/>
      </g>
      <path id="Trazado_10636" data-name="Trazado 10636" d="M976.49,1342.309H972.4l1.632-4.806,3.2,1.965Z" transform="translate(-962.69 -1315.382)" fill="#f39f85"/>
      <path id="Trazado_10637" data-name="Trazado 10637" d="M962.846,1331.041c-.02-.121-.048-.222-.072-.334,4.049-5.222,7.487-8.9,7.487-8.9l-3.441-3.918L959,1325.319l-2.3.01a4.6,4.6,0,0,0-5.808.747c-.989,1.02-1.648,3.787-.987,6.712,1.822,8.064.4,12.329.4,12.329l10.55,3.933s.24-7.012.4-11.93c0-.006,0-.011,0-.017a5.482,5.482,0,0,1,.857-2.691A4.809,4.809,0,0,0,962.846,1331.041Z" transform="translate(-943.614 -1298.945)" fill="#01888b"/>
      <g id="Grupo_11270" data-name="Grupo 11270" transform="translate(8.532 13.484)">
        <path id="Trazado_10638" data-name="Trazado 10638" d="M971.824,1284.159l-6.705,2.348.661,5.005c.009.071.028.139.041.208.129.023.258.047.386.079l.062.018.061.012a4.591,4.591,0,0,1,3.135,3.138,7.914,7.914,0,0,0,2.9-.037,2.91,2.91,0,0,0,1.524-.657C975.307,1291.186,971.824,1284.159,971.824,1284.159Z" transform="translate(-965.119 -1284.159)" fill="#f7b58e"/>
      </g>
      <path id="Trazado_10639" data-name="Trazado 10639" d="M931.127,1279.85c-1.805.882-1.38,10.186-1.692,16.522a7.2,7.2,0,0,1-6.1,6.734c-2.39.381-5.014.452-6.6-.45,1.047-.856,6.687-9.156,4.88-20.146-.238-1.447-.267-5.474,2.169-7.66,2.706-2.428,8.289.74,8.289.74S933.607,1278.638,931.127,1279.85Z" transform="translate(-916.044 -1262.107)" fill="#212b53"/>
      <path id="Trazado_10640" data-name="Trazado 10640" d="M945.834,1484.512a78.328,78.328,0,0,1,1.4,11.4c0,2.337-.573,17.056-.573,17.056s-10.023.725-11.97.725c-.483-12.062-3.232-12.433-3.232-18.058a16.048,16.048,0,0,1,2.216-6.969,10.189,10.189,0,0,0,1.39-3.911l.065-.228Z" transform="translate(-928.381 -1438.585)" fill="#212b53"/>
      <path id="Trazado_10641" data-name="Trazado 10641" d="M948.444,1650.741" transform="translate(-942.612 -1577.896)" fill="#ffd147"/>
    </g>
    <g id="Grupo_11275" data-name="Grupo 11275" transform="translate(871.227 421.875)">
      <g id="Grupo_11272" data-name="Grupo 11272" transform="translate(16.299 0)">
        <path id="Trazado_10642" data-name="Trazado 10642" d="M3681.918,908.516l1.475,3.27,4.325-2.021-3.733-5.373Z" transform="translate(-3673.557 -895.714)" fill="#f39f85"/>
        <path id="Trazado_10643" data-name="Trazado 10643" d="M3649.585,874.707s.952,8.469,2.88,9.288,4.2-2.048,4.2-2.048l2.166-5.018-6.872-2.96Z" transform="translate(-3646.459 -870.217)" fill="#f7b58e"/>
        <path id="Trazado_10644" data-name="Trazado 10644" d="M3630.282,853.6s1.469,2.938,5.713,1.622c1.2.025,1.842,1.229,2.179,2.3.39,1.239.522.29,1.51,1.135l1.728,2.476s3.966-7.455-1.383-9.7S3630.282,853.6,3630.282,853.6Z" transform="translate(-3630.282 -850.795)" fill="#212b53"/>
        <path id="Trazado_10645" data-name="Trazado 10645" d="M3680.088,891.289a1.066,1.066,0,0,0-1.127.695c-.216.492-.061.979.346,1.087a1.066,1.066,0,0,0,1.127-.7C3680.649,891.884,3680.494,891.4,3680.088,891.289Z" transform="translate(-3670.996 -884.714)" fill="#f7b58e"/>
      </g>
      <path id="Trazado_10646" data-name="Trazado 10646" d="M3675.413,932.171c10.671,6.324,6.6,32.444,6.6,32.444h-16.227s-.187-6.831-.4-14.047c-.163-5.465-.678-11.15.787-14.257C3668.219,932.029,3672.764,930.6,3675.413,932.171Z" transform="translate(-3643.22 -918.475)" fill="#afd8c7"/>
      <path id="Trazado_10647" data-name="Trazado 10647" d="M3583.561,1021.128s-2.418,8.391-5.671,11.179-12.6,10.305-12.6,10.305l-3.072-.643,10.278-12.407,3.722-12.063Z" transform="translate(-3556.938 -990.504)" fill="#f7b58e"/>
      <path id="Trazado_10648" data-name="Trazado 10648" d="M3652.724,974.52l-8.923-3.629,4.468-9.947,5.887,3.065Z" transform="translate(-3625.313 -943.108)" fill="#afd8c7"/>
      <g id="Grupo_11273" data-name="Grupo 11273" transform="translate(34.61 100.366)">
        <path id="Trazado_10649" data-name="Trazado 10649" d="M3751.12,1486.782a14.338,14.338,0,0,1-5.887,2.707c-.9.229-1.872-.077-1.872,1.409h4.966l4.13-.714v.714h2.231s.621-3.648-.682-4.116Z" transform="translate(-3743.361 -1484.161)" fill="#212b53"/>
        <path id="Trazado_10650" data-name="Trazado 10650" d="M3791.717,1470.6l-.439,2.62h0a2.523,2.523,0,0,0,2.733.092l.153-.092-.222-2.62Z" transform="translate(-3783.519 -1470.599)" fill="#f7b58e"/>
      </g>
      <path id="Trazado_10651" data-name="Trazado 10651" d="M3719.228,1135.735s1.594,5.461,1.916,18.8a18.926,18.926,0,0,0,1.972,7.755c4.664,9.655,2.554,28.328,2.554,28.328h-3.221l-12.881-45.878,4.533-9Z" transform="translate(-3680.43 -1089.594)" fill="#212b53"/>
      <g id="Grupo_11274" data-name="Grupo 11274" transform="translate(17.088 101.943)">
        <path id="Trazado_10652" data-name="Trazado 10652" d="M3642.912,1496.525a14.338,14.338,0,0,1-5.887,2.707c-.9.229-1.872-.077-1.872,1.409h4.966l4.13-.714v.714h2.231s.621-3.648-.682-4.116Z" transform="translate(-3635.153 -1493.905)" fill="#212b53"/>
        <path id="Trazado_10653" data-name="Trazado 10653" d="M3683.509,1480.342l-.439,2.621h0a2.523,2.523,0,0,0,2.733.092l.153-.092-.222-2.621Z" transform="translate(-3675.311 -1480.342)" fill="#f7b58e"/>
      </g>
      <path id="Trazado_10654" data-name="Trazado 10654" d="M3537.976,1168.3l-2.438,3.6c-1.1,1.383-3.928.818-5.7-.075a.4.4,0,0,1-.047-.678,55.268,55.268,0,0,1,5.623-3.675Z" transform="translate(-3529.627 -1116.19)" fill="#f7b58e"/>
      <path id="Trazado_10655" data-name="Trazado 10655" d="M3669.014,1135.735l1.595,56.591H3674s4.779-15.738,3.735-26.6a17.568,17.568,0,0,1,1.288-8.658,49.018,49.018,0,0,0,4.243-21.336Z" transform="translate(-3646.443 -1089.594)" fill="#053c5e"/>
    </g>
    <g id="Grupo_11279" data-name="Grupo 11279" transform="translate(880.004 476.089)">
      <g id="Grupo_11278" data-name="Grupo 11278">
        <path id="Trazado_10656" data-name="Trazado 10656" d="M3608.507,1273.562h-5.722l-.157,44.142h6.082Z" transform="translate(-3599.583 -1259.317)" fill="#01888b"/>
        <path id="Trazado_10657" data-name="Trazado 10657" d="M3849.025,1273.562H3843.3l-.157,44.142h6.082Z" transform="translate(-3801.154 -1259.317)" fill="#01888b"/>
        <path id="Trazado_10658" data-name="Trazado 10658" d="M3583.825,1266.685l50.446.016-.009-2.541-50.437.14Z" transform="translate(-3583.825 -1251.437)" fill="#01888b"/>
        <path id="Trazado_10659" data-name="Trazado 10659" d="M3732.115,1264.737l-.015,44.293,2.425-.008-.133-44.285Z" transform="translate(-3708.089 -1251.921)" fill="#01888b"/>
        <rect id="Rectángulo_2859" data-name="Rectángulo 2859" width="5.755" height="5.755" transform="translate(110.91 9.509)" fill="#01888b"/>
        <path id="Trazado_10660" data-name="Trazado 10660" d="M4038.364,2531.575H3936.195a7.126,7.126,0,0,1-7.1-7.1h0a7.125,7.125,0,0,1,7.1-7.1h102.169a7.125,7.125,0,0,1,7.1,7.1h0A7.125,7.125,0,0,1,4038.364,2531.575Z" transform="translate(-3873.181 -2301.71)" fill="#01888b"/>
        <circle id="Elipse_718" data-name="Elipse 718" cx="17.52" cy="17.52" r="17.52" transform="translate(44.265 249.894) rotate(-67.5)" fill="#053c5e"/>
        <path id="Trazado_10661" data-name="Trazado 10661" d="M3946.82,2606.134a12.389,12.389,0,1,1-12.388-12.389A12.389,12.389,0,0,1,3946.82,2606.134Z" transform="translate(-3867.275 -2365.721)" fill="#01888b"/>
        <circle id="Elipse_719" data-name="Elipse 719" cx="17.52" cy="17.52" r="17.52" transform="translate(143.216 224.536) rotate(-5.152)" fill="#053c5e"/>
        <circle id="Elipse_720" data-name="Elipse 720" cx="12.389" cy="12.389" r="12.389" transform="translate(147.461 249.824) rotate(-77.492)" fill="#01888b"/>
        <path id="Trazado_10662" data-name="Trazado 10662" d="M4142.469,2277.528h-36.226c-7.96,0-14.474-.875-14.474-7.829v-15.877c0-13.328,12.484-25.2,27.742-25.2h9.689c15.258,0,27.742,11.867,27.742,25.2V2269.7C4156.943,2276.653,4150.43,2277.528,4142.469,2277.528Z" transform="translate(-4009.518 -2059.727)" fill="#00666b"/>
        <rect id="Rectángulo_2860" data-name="Rectángulo 2860" width="20.359" height="5.183" transform="translate(103.787 164.74)" fill="#212b53"/>
        <path id="Trazado_10663" data-name="Trazado 10663" d="M4221.209,1762.439l.575,71.33h7.6l-.031-71.33Z" transform="translate(-4117.997 -1669.029)" fill="#01888b"/>
        <path id="Trazado_10664" data-name="Trazado 10664" d="M4329.333,1762.439l.256,71.33h3.168l-.031-71.33Z" transform="translate(-4208.612 -1669.029)" fill="#01888b"/>
        <g id="Grupo_11276" data-name="Grupo 11276" transform="translate(103.212 52.305)">
          <path id="Trazado_10665" data-name="Trazado 10665" d="M4344.206,1508.6l-36.631,41.1h-7.6l36.086-41.1Z" transform="translate(-4287.217 -1508.599)" fill="#01888b"/>
          <path id="Trazado_10666" data-name="Trazado 10666" d="M4260.69,1508.6l-36.312,41.1h-3.168l36.086-41.1Z" transform="translate(-4221.209 -1508.599)" fill="#01888b"/>
        </g>
        <g id="Grupo_11277" data-name="Grupo 11277" transform="translate(103.212 11.2)">
          <path id="Trazado_10667" data-name="Trazado 10667" d="M4221.209,1254.759l36.63,41.1h7.6l-36.086-41.1Z" transform="translate(-4221.209 -1254.759)" fill="#01888b"/>
          <path id="Trazado_10668" data-name="Trazado 10668" d="M4329.333,1254.759l36.312,41.1h3.168l-36.086-41.1Z" transform="translate(-4311.824 -1254.759)" fill="#01888b"/>
        </g>
        <path id="Trazado_10669" data-name="Trazado 10669" d="M4018.721,1254.759l-56.2,41.1h-7.6l55.653-41.1Z" transform="translate(-3894.828 -1243.559)" fill="#01888b"/>
        <path id="Trazado_10670" data-name="Trazado 10670" d="M3935.2,1254.759l-55.878,41.1h-3.169l55.653-41.1Z" transform="translate(-3828.819 -1243.559)" fill="#01888b"/>
        <path id="Trazado_10671" data-name="Trazado 10671" d="M4221.209,1699.99h21.117l-10.6-12.066Z" transform="translate(-4117.997 -1606.58)" fill="#01888b"/>
        <path id="Trazado_10672" data-name="Trazado 10672" d="M4444.059,1450.292h20.9l-9.891-11.266Z" transform="translate(-4304.761 -1397.987)" fill="#01888b"/>
        <path id="Trazado_10673" data-name="Trazado 10673" d="M4221.209,1196.792h20.681l-10.051-11.2Z" transform="translate(-4117.997 -1185.592)" fill="#01888b"/>
        <path id="Trazado_10674" data-name="Trazado 10674" d="M3602.628,1508.8v5.722l64.279.157V1508.6Z" transform="translate(-3599.583 -1456.294)" fill="#01888b"/>
      </g>
    </g>
    <g id="Grupo_11289" data-name="Grupo 11289" transform="translate(383.827 626.895)">
      <g id="Grupo_11288" data-name="Grupo 11288" transform="translate(0 0.5)">
        <g id="Grupo_11282" data-name="Grupo 11282" transform="translate(12.041 2.879)">
          <g id="Grupo_11281" data-name="Grupo 11281">
            <path id="Trazado_10675" data-name="Trazado 10675" d="M599.1,2176.324l-1.917,4.282-3.12-2.811,2.2-6.237Z" transform="translate(-594.063 -2166.084)" fill="#f39f85"/>
            <g id="Grupo_11280" data-name="Grupo 11280" transform="translate(2.125)">
              <path id="Trazado_10676" data-name="Trazado 10676" d="M611.207,2148.27a2.127,2.127,0,0,0,1.311-.121c1.9-2.148,1.246-8.477,1.246-8.477l-2.22-1.914-3.4,1.585-.885,3.478a5.563,5.563,0,0,0,.872,4.03h0A5.91,5.91,0,0,0,611.207,2148.27Z" transform="translate(-607.187 -2137.759)" fill="#f7b58e"/>
            </g>
          </g>
        </g>
        <path id="Trazado_10677" data-name="Trazado 10677" d="M621.159,2284.585a4.907,4.907,0,0,0,2.3,1.641c1.534.527,12.957-1.87,12.957-1.87l2.294.24a5.831,5.831,0,0,0,3.634-.188l3.36-1.3L626,2282.7l-7.543-9.369Z" transform="translate(-602.462 -2248.498)" fill="#f7b58e"/>
        <path id="Trazado_10678" data-name="Trazado 10678" d="M557.5,2210.076s-4.554,5.832-5.617,9.667-1.447,14.406-1.447,14.406h9.582s2.752-4.987,4.887-9.512a5.173,5.173,0,0,0,.059-4.3c-1.564-3.543-3.913-8.417-3.913-8.417Z" transform="translate(-545.461 -2195.487)" fill="#ffd147"/>
        <g id="Grupo_11284" data-name="Grupo 11284" transform="translate(13.612 102.468)">
          <g id="Grupo_11283" data-name="Grupo 11283" transform="translate(0.699)">
            <path id="Trazado_10679" data-name="Trazado 10679" d="M610.678,2752.773l.76,1.978a2.542,2.542,0,0,0,1.035,1.314,9.96,9.96,0,0,0,2.617,1.188c-1.523,1.3-3.947-.058-5.333-1.018a3.393,3.393,0,0,1-1.355-1.963l-.318-1.5Z" transform="translate(-608.084 -2752.773)" fill="#f7b58e"/>
          </g>
          <path id="Trazado_10680" data-name="Trazado 10680" d="M604.63,2759.125a2.182,2.182,0,0,0-.841,1.842c.189,1.032.456,3.449.456,3.449H605.3l-.033-2.255c0-.147,2.272,2.255,2.656,2.255h5.605s.372-1.521-2.919-2.01A12.14,12.14,0,0,1,604.63,2759.125Z" transform="translate(-603.765 -2758.096)" fill="#053c5e"/>
        </g>
        <g id="Grupo_11286" data-name="Grupo 11286" transform="translate(2.717 102.468)">
          <g id="Grupo_11285" data-name="Grupo 11285" transform="translate(0.699)">
            <path id="Trazado_10681" data-name="Trazado 10681" d="M543.393,2752.773l.76,1.978a2.54,2.54,0,0,0,1.035,1.314,9.957,9.957,0,0,0,2.617,1.188c-1.523,1.3-3.947-.058-5.334-1.018a3.393,3.393,0,0,1-1.355-1.963l-.317-1.5Z" transform="translate(-540.799 -2752.773)" fill="#f7b58e"/>
          </g>
          <path id="Trazado_10682" data-name="Trazado 10682" d="M537.344,2759.125a2.182,2.182,0,0,0-.841,1.842c.189,1.032.456,3.449.456,3.449h1.059l-.033-2.255c0-.147,2.272,2.255,2.656,2.255h5.605s.372-1.521-2.919-2.01A12.14,12.14,0,0,1,537.344,2759.125Z" transform="translate(-536.479 -2758.096)" fill="#053c5e"/>
        </g>
        <path id="Trazado_10683" data-name="Trazado 10683" d="M574.126,2358.908s4.755,7.127.686,35.54c.639,10.739,1.833,28.413,1.833,28.413h-2.7s-7.482-18.825-4.971-28.2c.6-9.288-1.7-35.919-1.7-35.919Z" transform="translate(-559.566 -2320.078)" fill="#01888b"/>
        <path id="Trazado_10684" data-name="Trazado 10684" d="M524.679,2358.74s-4.977,4-4.977,9.948c0,4.664,2.248,14.323,3.536,20.646a14.665,14.665,0,0,1-.651,6.918c-2.632,9.171.566,26.609.566,26.609h2.685s.147-8.969,3.819-29.075c4.218-23.093,4.6-35.046,4.6-35.046Z" transform="translate(-519.702 -2320.078)" fill="#63c0c4"/>
        <g id="Grupo_11287" data-name="Grupo 11287" transform="translate(28.127 20.824)">
          <path id="Trazado_10685" data-name="Trazado 10685" d="M709.053,2262.37H693.4v-1.151h14.96L715,2248.583l1.018.535Z" transform="translate(-693.398 -2248.583)" fill="#01888b"/>
        </g>
        <path id="Trazado_10686" data-name="Trazado 10686" d="M567.269,2257.407s5,11.639,7.4,11.639,15.707-5.69,15.707-5.69l-.353-1.986-13.583,2.3a59.538,59.538,0,0,1-2.039-6.888,3.79,3.79,0,0,0-2.93-2.926C568.261,2253.25,567.269,2257.407,567.269,2257.407Z" transform="translate(-559.566 -2232.128)" fill="#f7b58e"/>
        <path id="Trazado_10687" data-name="Trazado 10687" d="M541.723,2126.789s1.482.9,6.021-2.014c.7.182-.415-6.36-6.287-4.438-4.111,1.345-3.914,5.324-3.724,7.526.2,2.378-1.033,3.948-2.668,5.687-1.372,1.459-1.35,4.142-2.264,5.585-1.124,1.776-2.316,1.673-3.208,3.475a5.691,5.691,0,0,0,.189,5.885c.71.962,2.366,3.283,4.986,2.457,1.471-.464,1.867-3.031,1.931-5.194a6.551,6.551,0,0,1,2.5-4.914c1.413-1.125,2.956-2.666,3.369-4.274C543.375,2133.413,541.723,2126.789,541.723,2126.789Z" transform="translate(-527.385 -2119.983)" fill="#212b53"/>
        <path id="Trazado_10688" data-name="Trazado 10688" d="M603.56,2162.191a.965.965,0,0,1,1.241.331.831.831,0,0,1-.025,1.209.964.964,0,0,1-1.241-.331A.831.831,0,0,1,603.56,2162.191Z" transform="translate(-589.755 -2155.258)" fill="#f7b58e"/>
        <path id="Trazado_10689" data-name="Trazado 10689" d="M711.9,2296.436a.652.652,0,0,0-.388-.673l-2.555-1.11a2.8,2.8,0,0,0-2-.089l-2.533.841-.343.013-.273,2.357c.506-.186.8-.3.8-.3l1.6-.583s3.5,2.963,4.745.272c.374,2.665,1.134,2.369,1.134,2.369Z" transform="translate(-673.998 -2266.174)" fill="#f7b58e"/>
      </g>
      <path id="Trazado_10690" data-name="Trazado 10690" d="M593.889,2121.908c.5,1.821,3.091,2.694,5.78,1.951s4.149-2.762,3.959-4.642c-.25-2.469-3.091-2.694-5.78-1.951S593.386,2120.087,593.889,2121.908Z" transform="translate(-581.804 -2116.892)" fill="#212b53"/>
    </g>
    <g id="Grupo_11293" data-name="Grupo 11293" transform="translate(938.46 607.763)">
      <path id="Trazado_10691" data-name="Trazado 10691" d="M4126.518,2514.212c2.393,17.112-.226,34.84-.226,34.686a7.887,7.887,0,0,0-1.907,0s-2.644-20.8-3.264-27.743,0-7.406,0-7.406S4124.125,2497.1,4126.518,2514.212Z" transform="translate(-4092.341 -2424.266)" fill="#f39f85"/>
      <path id="Trazado_10692" data-name="Trazado 10692" d="M4159.761,2229.374l5.851,3.73,2.469-5.143-7.561-8.665Z" transform="translate(-4124.955 -2183.583)" fill="#afd8c7"/>
      <g id="Grupo_11291" data-name="Grupo 11291" transform="translate(0 0)">
        <path id="Trazado_10693" data-name="Trazado 10693" d="M3969.052,2060l7.163,18.719,4.575-3.4-10.221-17.232Z" transform="translate(-3965.128 -2048.478)" fill="#f7b58e"/>
        <g id="Grupo_11290" data-name="Grupo 11290">
          <path id="Trazado_10694" data-name="Trazado 10694" d="M3948.327,2003.917a2.95,2.95,0,0,1,1.055,1.825l.878,2.613-.278.492-1.238,1.425a1.88,1.88,0,0,0-.489-.978l-1.949-2.182s-3.2-3.728-.213-4.993c-1.751-3.463-.5-3.374-.5-3.374l1.568,2.967Z" transform="translate(-3944.819 -1998.745)" fill="#f7b58e"/>
          <path id="Trazado_10695" data-name="Trazado 10695" d="M3963.065,2017.316s.645-.608.071-2.053.295-1.344.295-1.344,2.392,5.632,1.624,6.274S3963.065,2017.316,3963.065,2017.316Z" transform="translate(-3960.005 -2011.461)" fill="#f7b58e"/>
        </g>
      </g>
      <path id="Trazado_10696" data-name="Trazado 10696" d="M4026.658,2166.181l-2.145.167-7.288-8.5-3.936,4.481a118.943,118.943,0,0,0,8.9,13.876c.3,1.435,1.866,15.877,1.866,15.877h12.636s-2.013-10.6,1.543-16.494S4026.658,2166.181,4026.658,2166.181Z" transform="translate(-4002.201 -2132.088)" fill="#afd8c7"/>
      <path id="Trazado_10697" data-name="Trazado 10697" d="M4092.07,2514.212c2.392,17.112-.226,34.84-.226,34.686a7.889,7.889,0,0,0-1.907,0s-2.644-20.8-3.264-27.743,0-7.406,0-7.406S4089.677,2497.1,4092.07,2514.212Z" transform="translate(-4063.471 -2424.266)" fill="#f7b58e"/>
      <g id="Grupo_11292" data-name="Grupo 11292" transform="translate(21.386 20.878)">
        <path id="Trazado_10698" data-name="Trazado 10698" d="M4079.5,2127.673l7.279,2.548-.718,5.434c-.01.077-.031.151-.045.226-.14.025-.28.051-.419.085l-.067.019-.066.013a4.984,4.984,0,0,0-3.4,3.407,8.6,8.6,0,0,1-3.151-.04,3.162,3.162,0,0,1-1.655-.714C4075.718,2135.3,4079.5,2127.673,4079.5,2127.673Z" transform="translate(-4076.886 -2127.673)" fill="#f7b58e"/>
      </g>
      <path id="Trazado_10699" data-name="Trazado 10699" d="M4087.528,2120.233a4.791,4.791,0,0,1,.149,4.184,7.031,7.031,0,0,0-.243,5.735,7.65,7.65,0,0,0,2.666,2.407,4.116,4.116,0,0,1,1.933,3.115c.162,1.768.33,3.938,1.844,4.459,4.394,1.513,6,1.367,6.59-2.294a7.444,7.444,0,0,0-.379-3.587,6.416,6.416,0,0,1,.136-4.808,8.383,8.383,0,0,0,.829-2.87,6.052,6.052,0,0,0-1.558-2.993,6.151,6.151,0,0,1-1.293-4.41,5.658,5.658,0,0,0-1.688-4.983c-3-2.562-9.665,1.47-9.665,1.47A6.426,6.426,0,0,0,4087.528,2120.233Z" transform="translate(-4063.719 -2094.78)" fill="#212b53"/>
      <path id="Trazado_10700" data-name="Trazado 10700" d="M4165.684,2272.8l2.81,2.909c1.867,1.933,2.445,4.623.2,6.1l-9.183,7.294.844,1.581a3.853,3.853,0,0,1-.336,4.154l-.971,1.271-2.149-7.374,6.658-8.313a1.6,1.6,0,0,0-.344-2.48h0Z" transform="translate(-4122.558 -2228.426)" fill="#f7b58e"/>
      <path id="Trazado_10701" data-name="Trazado 10701" d="M4070.163,2369.265a30.831,30.831,0,0,0-1.852,9.666c0,2.672,2.314,22.827,2.314,22.827h12.031c-.815-14.884,3.7-16.709,3.7-23.143,0-4.538-3.554-9.35-3.554-9.35Z" transform="translate(-4048.314 -2309.266)" fill="#25b6c2"/>
      <path id="Trazado_10702" data-name="Trazado 10702" d="M4107.369,2754.577a2.228,2.228,0,0,1,.859,1.881c-.193,1.054-.466,3.522-.466,3.522h-1.082l.033-2.3c0-.15-2.32,2.3-2.712,2.3h-5.723s-.381-1.553,2.98-2.052A12.4,12.4,0,0,0,4107.369,2754.577Z" transform="translate(-4073.417 -2632.184)" fill="#212b53"/>
      <path id="Trazado_10703" data-name="Trazado 10703" d="M4069.62,2754.577a2.228,2.228,0,0,1,.859,1.881c-.193,1.054-.466,3.522-.466,3.522h-1.082l.033-2.3c0-.15-2.32,2.3-2.712,2.3h-5.724s-.38-1.553,2.981-2.052A12.4,12.4,0,0,0,4069.62,2754.577Z" transform="translate(-4041.781 -2632.184)" fill="#12375a"/>
      <path id="Trazado_10704" data-name="Trazado 10704" d="M4159.761,2554.2" transform="translate(-4124.956 -2464.257)" fill="#ffd147"/>
    </g>
    <g id="Grupo_11300" data-name="Grupo 11300" transform="translate(357.574 525.968)">
      <g id="Grupo_11294" data-name="Grupo 11294" transform="translate(3.802 0)">
        <path id="Trazado_10705" data-name="Trazado 10705" d="M384.559,1521.018l-3.506,6.895,7.362-1.68L413.6,1518.3Z" transform="translate(-381.053 -1514.301)" fill="#afd8c7"/>
        <path id="Trazado_10706" data-name="Trazado 10706" d="M381.053,1565.593l12.507-.777-3.065-1.558Z" transform="translate(-381.053 -1551.981)" fill="#63c0c4"/>
        <path id="Trazado_10707" data-name="Trazado 10707" d="M391.374,1500.339l-2.189-6.717,31.231,4Z" transform="translate(-387.868 -1493.622)" fill="url(#linear-gradient-3)"/>
        <path id="Trazado_10708" data-name="Trazado 10708" d="M451.7,1518.3l-25.185,7.936,3.754,9.682Z" transform="translate(-419.156 -1514.301)" fill="url(#linear-gradient-4)"/>
      </g>
      <g id="Grupo_11299" data-name="Grupo 11299" transform="translate(0 17.716)">
        <g id="Grupo_11295" data-name="Grupo 11295" transform="translate(6.241)">
          <path id="Trazado_10709" data-name="Trazado 10709" d="M396.439,1605.859a.588.588,0,0,1-.12-.968,16.536,16.536,0,0,1,2.475-1.784.588.588,0,1,1,.6,1.014,15.317,15.317,0,0,0-2.3,1.657A.588.588,0,0,1,396.439,1605.859Z" transform="translate(-396.117 -1603.025)" fill="#63c0c4"/>
        </g>
        <g id="Grupo_11297" data-name="Grupo 11297" transform="translate(0 4.329)">
          <g id="Grupo_11296" data-name="Grupo 11296">
            <path id="Trazado_10710" data-name="Trazado 10710" d="M372.518,1692.786a.318.318,0,0,1-.033-.018,17.721,17.721,0,0,1-4.624-4,.589.589,0,0,1,.907-.75,16.554,16.554,0,0,0,4.315,3.74.588.588,0,0,1-.565,1.031Zm-6.489-6.809a.579.579,0,0,1-.244-.234,22.207,22.207,0,0,1-2.254-5.653.588.588,0,1,1,1.142-.283,21.061,21.061,0,0,0,2.134,5.356.588.588,0,0,1-.778.815Zm-2.746-9.022a.588.588,0,0,1-.321-.483l-.018-.285a28.409,28.409,0,0,1,.3-5.77.588.588,0,0,1,1.163.176,27.147,27.147,0,0,0-.289,5.53l.017.265a.588.588,0,0,1-.853.567Zm1.008-9.411a.588.588,0,0,1-.3-.675,43.867,43.867,0,0,1,1.962-5.693.588.588,0,0,1,1.085.455,42.83,42.83,0,0,0-1.91,5.539.588.588,0,0,1-.719.418A.642.642,0,0,1,364.29,1667.544Zm3.417-8.859a.588.588,0,0,1-.262-.784c.064-.129.127-.258.192-.387a19.126,19.126,0,0,1-2.569-1.437.588.588,0,0,1,.654-.979,17.85,17.85,0,0,0,2.45,1.367c.631-1.214,1.327-2.473,2.115-3.829a.588.588,0,1,1,1.017.591c-.76,1.309-1.433,2.525-2.045,3.7q.824.316,1.678.554a.588.588,0,1,1-.315,1.134,19.782,19.782,0,0,1-1.9-.634q-.112.221-.221.444a.589.589,0,0,1-.787.269Zm-5.317-4.844a.573.573,0,0,1-.155-.114,15.956,15.956,0,0,1-3.367-5.123.588.588,0,1,1,1.088-.447,14.784,14.784,0,0,0,3.121,4.749.588.588,0,0,1-.688.935Zm11.63,5.359a.588.588,0,0,1,.317-1.111,17.2,17.2,0,0,0,5.7-.444.588.588,0,1,1,.289,1.141,18.379,18.379,0,0,1-6.092.476A.586.586,0,0,1,374.02,1659.2Zm-15.857-13.715a.587.587,0,0,1-.313-.423,19.038,19.038,0,0,1-.058-6.106.588.588,0,0,1,1.163.174,17.84,17.84,0,0,0,.054,5.729.588.588,0,0,1-.846.626Zm25.084,12a.588.588,0,0,1,0-1.048,14.241,14.241,0,0,0,1.277-.739,11.39,11.39,0,0,0,3.011-2.877.588.588,0,1,1,.955.687,12.565,12.565,0,0,1-3.325,3.177,15.363,15.363,0,0,1-1.382.8A.587.587,0,0,1,383.247,1657.489Zm-10.869-7.082c-.018-.009-.035-.019-.052-.03a.589.589,0,0,1-.176-.813,22.957,22.957,0,0,1,3.836-4.72.588.588,0,1,1,.788.874,21.827,21.827,0,0,0-3.634,4.483A.588.588,0,0,1,372.378,1650.407Zm-13.427-14.3a.589.589,0,0,1-.289-.715,20.02,20.02,0,0,1,1.087-2.568,19.083,19.083,0,0,1,1.763-2.83.588.588,0,0,1,.94.707,17.98,17.98,0,0,0-1.654,2.656,18.837,18.837,0,0,0-1.022,2.417.588.588,0,0,1-.747.366A.624.624,0,0,1,358.951,1636.108Zm30.327,14.387a.588.588,0,0,1-.3-.667,5.309,5.309,0,0,0-.382-3.859,4.788,4.788,0,0,0-.806-1.11.588.588,0,1,1,.844-.82,5.969,5.969,0,0,1,1,1.383,6.534,6.534,0,0,1,.482,4.691.588.588,0,0,1-.713.428A.557.557,0,0,1,389.278,1650.5Zm-10.224-6.682a.588.588,0,0,1,.021-1.058,9.5,9.5,0,0,1,6.2-.583.588.588,0,1,1-.289,1.141,8.419,8.419,0,0,0-5.417.51A.588.588,0,0,1,379.054,1643.813Z" transform="translate(-357.574 -1629.76)" fill="#63c0c4"/>
          </g>
        </g>
        <g id="Grupo_11298" data-name="Grupo 11298" transform="translate(17.942 67.68)">
          <path id="Trazado_10711" data-name="Trazado 10711" d="M468.693,2022.1a.589.589,0,0,1,.428-1.09,12.627,12.627,0,0,0,2.766.466.588.588,0,1,1-.065,1.174,13.793,13.793,0,0,1-3.024-.508A.638.638,0,0,1,468.693,2022.1Z" transform="translate(-468.372 -2020.983)" fill="#63c0c4"/>
        </g>
      </g>
    </g>
    <g id="Grupo_11303" data-name="Grupo 11303" transform="translate(929.351 421.296)">
      <g id="Grupo_11301" data-name="Grupo 11301">
        <path id="Trazado_10712" data-name="Trazado 10712" d="M3888.567,860.541l20.363-11.239,10.4-2.08,7.856,1.155Z" transform="translate(-3888.567 -847.222)" fill="url(#linear-gradient-5)"/>
        <path id="Trazado_10713" data-name="Trazado 10713" d="M3888.567,866.52l38.131-9.8.483-2.361" transform="translate(-3888.567 -853.201)" fill="#afd8c7"/>
        <path id="Trazado_10714" data-name="Trazado 10714" d="M3928.287,909.339l-.049.08-1.6,5.92-37.474-2.737Z" transform="translate(-3889.067 -899.28)" fill="#63c0c4"/>
        <path id="Trazado_10715" data-name="Trazado 10715" d="M3936.35,865.063l-5.44-4.415L3890.1,871.728l35.133-1.044Z" transform="translate(-3889.849 -858.473)" fill="url(#linear-gradient-6)"/>
      </g>
      <g id="Grupo_11302" data-name="Grupo 11302" transform="translate(51.688 1.884)">
        <path id="Trazado_10716" data-name="Trazado 10716" d="M4682.237,1345.9a28.509,28.509,0,0,1-3.668-1.592.554.554,0,0,0-.51.984,29.688,29.688,0,0,0,3.811,1.653q.7.248,1.414.461a.554.554,0,0,0,.319-1.06Q4682.916,1346.141,4682.237,1345.9Z" transform="translate(-4601.652 -1265.647)" fill="#63c0c4"/>
        <path id="Trazado_10717" data-name="Trazado 10717" d="M4213.722,862.4c-1.729.222-3.529.506-5.5.871a.554.554,0,1,0,.2,1.09c1.953-.361,3.733-.643,5.441-.861a.554.554,0,1,0-.141-1.1Z" transform="translate(-4207.767 -861.819)" fill="#63c0c4"/>
        <path id="Trazado_10718" data-name="Trazado 10718" d="M4268.387,859.855a.554.554,0,0,0-.325-1c-1.777-.016-3.657.059-5.585.22a.554.554,0,0,0,.093,1.1c1.895-.159,3.739-.231,5.483-.216A.549.549,0,0,0,4268.387,859.855Z" transform="translate(-4253.192 -858.854)" fill="#63c0c4"/>
        <path id="Trazado_10719" data-name="Trazado 10719" d="M4634.532,1312.39a.546.546,0,0,0-.783.01.552.552,0,0,0,.01.783,30.861,30.861,0,0,0,4.372,3.551.553.553,0,0,0,.638-.015.534.534,0,0,0,.131-.137.554.554,0,0,0-.152-.768A29.906,29.906,0,0,1,4634.532,1312.39Z" transform="translate(-4564.637 -1238.814)" fill="#63c0c4"/>
        <path id="Trazado_10720" data-name="Trazado 10720" d="M4604.586,1274.395a.554.554,0,0,0,.077-.78q-.469-.574-.911-1.169a28.686,28.686,0,0,1-2.128-3.328.554.554,0,0,0-.751-.222.561.561,0,0,0-.222.752,29.741,29.741,0,0,0,2.21,3.458q.457.618.946,1.212a.553.553,0,0,0,.758.094Z" transform="translate(-4536.976 -1202.441)" fill="#63c0c4"/>
        <path id="Trazado_10721" data-name="Trazado 10721" d="M4583.69,1224.136a.552.552,0,0,0,.3-.723,37.8,37.8,0,0,1-1.686-5.185.554.554,0,1,0-1.074.27,38.611,38.611,0,0,0,1.735,5.337A.553.553,0,0,0,4583.69,1224.136Z" transform="translate(-4520.742 -1159.683)" fill="#63c0c4"/>
        <path id="Trazado_10722" data-name="Trazado 10722" d="M4505.138,960.219q.692.845,1.342,1.721c.653.882,1.277,1.795,1.854,2.714a.555.555,0,0,0,.764.175l.036-.024a.553.553,0,0,0,.138-.739c-.591-.944-1.23-1.88-1.9-2.785q-.665-.9-1.376-1.765a.527.527,0,0,0-.78-.077A.553.553,0,0,0,4505.138,960.219Z" transform="translate(-4456.878 -943.036)" fill="#63c0c4"/>
        <path id="Trazado_10723" data-name="Trazado 10723" d="M4535.281,1005.73a40.421,40.421,0,0,1,2.2,5,.553.553,0,0,0,.709.334.56.56,0,0,0,.142-.076.553.553,0,0,0,.191-.632,41.443,41.443,0,0,0-2.255-5.138.554.554,0,1,0-.982.513Z" transform="translate(-4482.194 -981.266)" fill="#63c0c4"/>
        <path id="Trazado_10724" data-name="Trazado 10724" d="M4466.54,921.741a45.01,45.01,0,0,1,4.011,3.72.554.554,0,0,0,.73.064.571.571,0,0,0,.054-.045.554.554,0,0,0,.019-.783,46.385,46.385,0,0,0-4.109-3.812.555.555,0,0,0-.7.857Z" transform="translate(-4424.467 -910.733)" fill="#63c0c4"/>
        <path id="Trazado_10725" data-name="Trazado 10725" d="M4375.915,872.513a.554.554,0,0,0,.448-1.013,43.866,43.866,0,0,0-5.262-1.937.554.554,0,1,0-.315,1.062A42.787,42.787,0,0,1,4375.915,872.513Z" transform="translate(-4344.056 -867.81)" fill="#63c0c4"/>
        <path id="Trazado_10726" data-name="Trazado 10726" d="M4566.487,1116.165a.553.553,0,0,0,.487-.613l-.079-.7c-.184-1.606-.367-3.213-.579-4.814a.554.554,0,1,0-1.1.146c.211,1.594.394,3.2.576,4.794l.08.7A.554.554,0,0,0,4566.487,1116.165Z" transform="translate(-4507.332 -1068.962)" fill="#63c0c4"/>
        <path id="Trazado_10727" data-name="Trazado 10727" d="M4425.86,894.277a.554.554,0,1,0,.639-.905,46.006,46.006,0,0,0-4.769-2.945.554.554,0,1,0-.523.977A44.654,44.654,0,0,1,4425.86,894.277Z" transform="translate(-4386.399 -885.259)" fill="#63c0c4"/>
        <path id="Trazado_10728" data-name="Trazado 10728" d="M4572.175,1163.929a.552.552,0,0,0-.48.619c.272,2.158.54,3.909.84,5.511a.554.554,0,0,0,1.09-.2c-.3-1.579-.562-3.309-.831-5.444A.554.554,0,0,0,4572.175,1163.929Z" transform="translate(-4512.76 -1114.524)" fill="#63c0c4"/>
        <path id="Trazado_10729" data-name="Trazado 10729" d="M4730.017,1361.979a.554.554,0,1,0-.213,1.087,44.726,44.726,0,0,0,5.556.718.554.554,0,1,0,.078-1.105A44.1,44.1,0,0,1,4730.017,1361.979Z" transform="translate(-4644.895 -1280.499)" fill="#63c0c4"/>
        <path id="Trazado_10730" data-name="Trazado 10730" d="M4555.485,1055.83a.555.555,0,0,0-.391.679c.437,1.63.811,3.384,1.142,5.363a.554.554,0,1,0,1.093-.183c-.337-2.015-.719-3.8-1.166-5.467A.554.554,0,0,0,4555.485,1055.83Z" transform="translate(-4498.835 -1023.918)" fill="#63c0c4"/>
        <path id="Trazado_10731" data-name="Trazado 10731" d="M4319.182,859.912q-.97-.116-1.943-.189a.554.554,0,0,0-.083,1.106q.949.071,1.9.183c1.17.139,2.353.334,3.514.58a.554.554,0,1,0,.229-1.084C4321.6,860.255,4320.385,860.055,4319.182,859.912Z" transform="translate(-4299.013 -859.581)" fill="#63c0c4"/>
      </g>
    </g>
  </g>
</svg>
