<svg xmlns="http://www.w3.org/2000/svg" xmlns:xlink="http://www.w3.org/1999/xlink" width="308.902" height="265.33" viewBox="0 0 308.902 265.33">
  <defs>
    <linearGradient id="linear-gradient" x1="0.5" y1="0.726" x2="0.5" y2="-0.938" gradientUnits="objectBoundingBox">
      <stop offset="0" stop-color="#fff"/>
      <stop offset="0.43" stop-color="#797b7e"/>
    </linearGradient>
  </defs>
  <g id="Grupo_12013" data-name="Grupo 12013" transform="translate(-177.84 -1228.949)">
    <path id="Trazado_10309" data-name="Trazado 10309" d="M629.422,173.247c-14.153-44.145-64.86-57.818-104.3-37.357q-3.609,1.4-7.023,3.109c-9.121,4.537-17.35,10.614-25.327,17.451-16.522,14.243-31.905,29.057-50.553,38.663-2.188,1.221-6.439,3.6-11.338,6.382-9.8,5.566-22.174,12.8-25.987,15.356q-1.476.99-3.012,1.884c-19.87,11.506-35.824,29.89-43.772,50.829l-.04.1a51.639,51.639,0,0,0-3.262,20.472c1.29,29.918,14.924,62.349,40.5,77.989a103.249,103.249,0,0,0,10.579,5.019,128.713,128.713,0,0,0,34.181,8.468,152.587,152.587,0,0,0,22.39,1.071,143.618,143.618,0,0,0,21.714-2.193c6.124-.774,12.185-1.822,18.126-3.1,2.526-.419,5.017-.832,7.429-1.236,19.509-4.911,37.74,3.635,55.972,10.472,19.941,7.976,43.3,6.267,63.71-.642a58.8,58.8,0,0,0,10.009-5.433q.588-.4,1.166-.808c20.248-14.4,28.11-40.723,19.823-64.147-6.541-18.487-16.624-42.85-18.759-54.641C639.011,246.373,641.821,207.393,629.422,173.247Z" transform="translate(-176.922 1102.358)" fill="#afd7f8"/>
    <g id="Grupo_10507" data-name="Grupo 10507" transform="translate(3999.713 1079.539)">
      <g id="Grupo_10453" data-name="Grupo 10453" transform="translate(-3680.715 186.266)">
        <g id="Grupo_10445" data-name="Grupo 10445" transform="translate(0 0)">
          <rect id="Rectángulo_2799" data-name="Rectángulo 2799" width="114.822" height="70.228" fill="#242428"/>
          <rect id="Rectángulo_2800" data-name="Rectángulo 2800" width="103.887" height="60.434" transform="translate(5.468 4.897)" fill="#e8bf8e"/>
          <rect id="Rectángulo_2801" data-name="Rectángulo 2801" width="103.887" height="3.865" transform="translate(5.468 4.897)" fill="url(#linear-gradient)" style="mix-blend-mode: multiply;isolation: isolate"/>
        </g>
        <g id="Grupo_10446" data-name="Grupo 10446" transform="translate(15.776 41.372)">
          <rect id="Rectángulo_2802" data-name="Rectángulo 2802" width="12.748" height="17.45" fill="#fff"/>
          <line id="Línea_108" data-name="Línea 108" x2="9.561" transform="translate(1.594 5.646)" fill="none" stroke="#7b7d80" stroke-miterlimit="10" stroke-width="3.742"/>
          <line id="Línea_109" data-name="Línea 109" x2="9.561" transform="translate(1.594 7.417)" fill="none" stroke="#7b7d80" stroke-miterlimit="10" stroke-width="3.742"/>
          <line id="Línea_110" data-name="Línea 110" x2="9.561" transform="translate(1.594 9.188)" fill="none" stroke="#7b7d80" stroke-miterlimit="10" stroke-width="3.742"/>
          <line id="Línea_111" data-name="Línea 111" x2="9.561" transform="translate(1.594 10.958)" fill="none" stroke="#7b7d80" stroke-miterlimit="10" stroke-width="3.742"/>
          <line id="Línea_112" data-name="Línea 112" x2="9.561" transform="translate(1.594 12.729)" fill="none" stroke="#7b7d80" stroke-miterlimit="10" stroke-width="3.742"/>
          <line id="Línea_113" data-name="Línea 113" x2="9.561" transform="translate(1.594 14.499)" fill="none" stroke="#7b7d80" stroke-miterlimit="10" stroke-width="3.742"/>
          <circle id="Elipse_674" data-name="Elipse 674" cx="1.372" cy="1.372" r="1.372" transform="translate(4.448 2.474) rotate(-45)" fill="#eb3d2d"/>
          <path id="Trazado_10197" data-name="Trazado 10197" d="M-3011.444,656.978a.8.8,0,0,1-.8.8.8.8,0,0,1-.8-.8.8.8,0,0,1,.8-.8A.8.8,0,0,1-3011.444,656.978Z" transform="translate(3018.63 -654.504)" fill="#310000"/>
        </g>
        <g id="Grupo_10447" data-name="Grupo 10447" transform="translate(22.15 13.6)">
          <rect id="Rectángulo_2803" data-name="Rectángulo 2803" width="12.748" height="17.45" fill="#fff"/>
          <line id="Línea_114" data-name="Línea 114" x2="9.561" transform="translate(1.594 5.646)" fill="none" stroke="#7b7d80" stroke-miterlimit="10" stroke-width="3.742"/>
          <line id="Línea_115" data-name="Línea 115" x2="9.561" transform="translate(1.594 7.417)" fill="none" stroke="#7b7d80" stroke-miterlimit="10" stroke-width="3.742"/>
          <line id="Línea_116" data-name="Línea 116" x2="9.561" transform="translate(1.594 9.188)" fill="none" stroke="#7b7d80" stroke-miterlimit="10" stroke-width="3.742"/>
          <line id="Línea_117" data-name="Línea 117" x2="9.561" transform="translate(1.594 10.958)" fill="none" stroke="#7b7d80" stroke-miterlimit="10" stroke-width="3.742"/>
          <line id="Línea_118" data-name="Línea 118" x2="9.561" transform="translate(1.594 12.729)" fill="none" stroke="#7b7d80" stroke-miterlimit="10" stroke-width="3.742"/>
          <line id="Línea_119" data-name="Línea 119" x2="9.561" transform="translate(1.594 14.499)" fill="none" stroke="#7b7d80" stroke-miterlimit="10" stroke-width="3.742"/>
          <circle id="Elipse_675" data-name="Elipse 675" cx="1.372" cy="1.372" r="1.372" transform="translate(4.462 2.242) rotate(-38.115)" fill="#eb3d2d"/>
          <path id="Trazado_10198" data-name="Trazado 10198" d="M-2966.542,461.339a.8.8,0,0,1-.8.8.8.8,0,0,1-.8-.8.8.8,0,0,1,.8-.8A.8.8,0,0,1-2966.542,461.339Z" transform="translate(2973.728 -458.865)" fill="#310000"/>
        </g>
        <g id="Grupo_10448" data-name="Grupo 10448" transform="translate(83.75 15.606)">
          <rect id="Rectángulo_2804" data-name="Rectángulo 2804" width="12.748" height="17.45" fill="#fff"/>
          <line id="Línea_120" data-name="Línea 120" x2="9.561" transform="translate(1.594 5.646)" fill="none" stroke="#7b7d80" stroke-miterlimit="10" stroke-width="3.742"/>
          <line id="Línea_121" data-name="Línea 121" x2="9.561" transform="translate(1.594 7.417)" fill="none" stroke="#7b7d80" stroke-miterlimit="10" stroke-width="3.742"/>
          <line id="Línea_122" data-name="Línea 122" x2="9.561" transform="translate(1.594 9.188)" fill="none" stroke="#7b7d80" stroke-miterlimit="10" stroke-width="3.742"/>
          <line id="Línea_123" data-name="Línea 123" x2="9.561" transform="translate(1.594 10.958)" fill="none" stroke="#7b7d80" stroke-miterlimit="10" stroke-width="3.742"/>
          <line id="Línea_124" data-name="Línea 124" x2="9.561" transform="translate(1.594 12.729)" fill="none" stroke="#7b7d80" stroke-miterlimit="10" stroke-width="3.742"/>
          <line id="Línea_125" data-name="Línea 125" x2="9.561" transform="translate(1.594 14.499)" fill="none" stroke="#7b7d80" stroke-miterlimit="10" stroke-width="3.742"/>
          <circle id="Elipse_676" data-name="Elipse 676" cx="1.372" cy="1.372" r="1.372" transform="translate(4.448 2.474) rotate(-45)" fill="#eb3d2d"/>
          <path id="Trazado_10199" data-name="Trazado 10199" d="M-2532.6,475.472a.8.8,0,0,1-.8.8.8.8,0,0,1-.8-.8.8.8,0,0,1,.8-.8A.8.8,0,0,1-2532.6,475.472Z" transform="translate(2539.79 -472.997)" fill="#310000"/>
        </g>
        <g id="Grupo_10449" data-name="Grupo 10449" transform="translate(55.081 29.095)">
          <rect id="Rectángulo_2805" data-name="Rectángulo 2805" width="19.561" height="26.777" fill="#fff"/>
          <line id="Línea_126" data-name="Línea 126" x2="14.671" transform="translate(2.445 8.664)" fill="none" stroke="#7b7d80" stroke-miterlimit="10" stroke-width="5.742"/>
          <line id="Línea_127" data-name="Línea 127" x2="14.671" transform="translate(2.445 11.381)" fill="none" stroke="#7b7d80" stroke-miterlimit="10" stroke-width="5.742"/>
          <line id="Línea_128" data-name="Línea 128" x2="14.671" transform="translate(2.445 14.098)" fill="none" stroke="#7b7d80" stroke-miterlimit="10" stroke-width="5.742"/>
          <line id="Línea_129" data-name="Línea 129" x2="14.671" transform="translate(2.445 16.815)" fill="none" stroke="#7b7d80" stroke-miterlimit="10" stroke-width="5.742"/>
          <line id="Línea_130" data-name="Línea 130" x2="14.671" transform="translate(2.445 19.532)" fill="none" stroke="#7b7d80" stroke-miterlimit="10" stroke-width="5.742"/>
          <line id="Línea_131" data-name="Línea 131" x2="14.671" transform="translate(2.445 22.249)" fill="none" stroke="#7b7d80" stroke-miterlimit="10" stroke-width="5.742"/>
          <circle id="Elipse_677" data-name="Elipse 677" cx="1.372" cy="1.372" r="1.372" transform="translate(8.145 3.494) rotate(-76.717)" fill="#eb3d2d"/>
          <path id="Trazado_10200" data-name="Trazado 10200" d="M-2710.562,570.491a.8.8,0,0,1-.8.8.8.8,0,0,1-.8-.8.8.8,0,0,1,.8-.8A.8.8,0,0,1-2710.562,570.491Z" transform="translate(2721.155 -568.017)" fill="#310000"/>
        </g>
        <g id="Grupo_10450" data-name="Grupo 10450" transform="translate(32.443 36.143)">
          <rect id="Rectángulo_2806" data-name="Rectángulo 2806" width="12.748" height="9.38" fill="#fff374"/>
          <circle id="Elipse_678" data-name="Elipse 678" cx="1.372" cy="1.372" r="1.372" transform="translate(5.017 1.102)" fill="#eb3d2d"/>
          <path id="Trazado_10201" data-name="Trazado 10201" d="M-2894.033,620.142a.8.8,0,0,1-.8.8.8.8,0,0,1-.8-.8.8.8,0,0,1,.8-.8A.8.8,0,0,1-2894.033,620.142Z" transform="translate(2901.219 -617.668)" fill="#310000"/>
        </g>
        <g id="Grupo_10451" data-name="Grupo 10451" transform="translate(45.191 14.951)">
          <rect id="Rectángulo_2807" data-name="Rectángulo 2807" width="12.748" height="9.38" fill="#fff374"/>
          <circle id="Elipse_679" data-name="Elipse 679" cx="1.372" cy="1.372" r="1.372" transform="translate(4.738 3.494) rotate(-76.718)" fill="#eb3d2d"/>
          <path id="Trazado_10202" data-name="Trazado 10202" d="M-2804.23,470.857a.8.8,0,0,1-.8.8.8.8,0,0,1-.8-.8.8.8,0,0,1,.8-.8A.8.8,0,0,1-2804.23,470.857Z" transform="translate(2811.416 -468.383)" fill="#310000"/>
        </g>
        <g id="Grupo_10452" data-name="Grupo 10452" transform="translate(84.533 38.359)">
          <rect id="Rectángulo_2808" data-name="Rectángulo 2808" width="12.748" height="9.38" fill="#fff374"/>
          <circle id="Elipse_680" data-name="Elipse 680" cx="1.372" cy="1.372" r="1.372" transform="translate(4.448 2.474) rotate(-45)" fill="#eb3d2d"/>
          <path id="Trazado_10203" data-name="Trazado 10203" d="M-2527.092,635.751a.8.8,0,0,1-.8.8.8.8,0,0,1-.8-.8.8.8,0,0,1,.8-.8A.8.8,0,0,1-2527.092,635.751Z" transform="translate(2534.278 -633.277)" fill="#310000"/>
        </g>
      </g>
      <g id="Grupo_10466" data-name="Grupo 10466" transform="translate(-3738.29 277.22)">
        <g id="Grupo_10455" data-name="Grupo 10455" transform="translate(31.401 98.846)">
          <rect id="Rectángulo_2809" data-name="Rectángulo 2809" width="3.913" height="4.831" transform="translate(2.433)" fill="#6b6d70"/>
          <rect id="Rectángulo_2810" data-name="Rectángulo 2810" width="2.255" height="3.066" transform="translate(5.498 1.196)" fill="#404042"/>
          <g id="Grupo_10454" data-name="Grupo 10454" transform="translate(0 3.33)">
            <path id="Trazado_10204" data-name="Trazado 10204" d="M-3327.574,1718.7a5.289,5.289,0,0,0-5.169-5.287v0h-1.509v.185a5.291,5.291,0,0,0-3.9,5.1,5.291,5.291,0,0,0,3.9,5.1v.185h1.509v0A5.289,5.289,0,0,0-3327.574,1718.7Z" transform="translate(3339.542 -1713.407)" fill="#242428"/>
            <path id="Trazado_10205" data-name="Trazado 10205" d="M-3332.784,1717.164c.738-.76,2.353-2.095,2.376-2.1.175-.117.66-.394.836-.506a5.266,5.266,0,0,0-3.172-1.15v0h-1.509v.185a5.291,5.291,0,0,0-3.9,5.1,5.257,5.257,0,0,0,.887,2.93C-3335.77,1720.142-3334.252,1718.676-3332.784,1717.164Z" transform="translate(3339.542 -1713.407)" fill="#6b6d70"/>
            <path id="Trazado_10206" data-name="Trazado 10206" d="M-3337.354,1718.7a5.29,5.29,0,0,1-5.29,5.29,5.29,5.29,0,0,1-5.29-5.29,5.29,5.29,0,0,1,5.29-5.29A5.29,5.29,0,0,1-3337.354,1718.7Z" transform="translate(3347.934 -1713.407)" fill="#323137"/>
            <path id="Trazado_10207" data-name="Trazado 10207" d="M-3322.141,1736.925a2.274,2.274,0,0,1-2.274,2.274,2.274,2.274,0,0,1-2.274-2.274,2.274,2.274,0,0,1,2.274-2.274A2.274,2.274,0,0,1-3322.141,1736.925Z" transform="translate(3329.706 -1731.635)" fill="#66646f"/>
            <path id="Trazado_10208" data-name="Trazado 10208" d="M-3346.258,1722.558q3.734-3.742,7.459-7.492a5.274,5.274,0,0,0-3.845-1.659,5.29,5.29,0,0,0-5.29,5.29A5.273,5.273,0,0,0-3346.258,1722.558Z" transform="translate(3347.934 -1713.407)" fill="#949799"/>
          </g>
        </g>
        <g id="Grupo_10457" data-name="Grupo 10457" transform="translate(73.609 99.331)">
          <rect id="Rectángulo_2811" data-name="Rectángulo 2811" width="3.913" height="4.831" transform="translate(4.249)" fill="#6b6d70"/>
          <rect id="Rectángulo_2812" data-name="Rectángulo 2812" width="2.255" height="3.066" transform="translate(7.314 1.196)" fill="#404042"/>
          <g id="Grupo_10456" data-name="Grupo 10456" transform="translate(0 1.513)">
            <path id="Trazado_10209" data-name="Trazado 10209" d="M-3017.445,1722.113a5.289,5.289,0,0,0-5.169-5.287v0h-1.509v.185a5.291,5.291,0,0,0-3.9,5.1,5.291,5.291,0,0,0,3.9,5.1v.185h1.509v0A5.289,5.289,0,0,0-3017.445,1722.113Z" transform="translate(3031.23 -1715.006)" fill="#242428"/>
            <path id="Trazado_10210" data-name="Trazado 10210" d="M-3022.655,1720.58c.738-.76,2.352-2.095,2.376-2.1.175-.117.66-.394.837-.506a5.268,5.268,0,0,0-3.173-1.15v0h-1.509v.185a5.291,5.291,0,0,0-3.9,5.1,5.26,5.26,0,0,0,.887,2.93C-3025.641,1723.558-3024.123,1722.092-3022.655,1720.58Z" transform="translate(3031.23 -1715.006)" fill="#6b6d70"/>
            <circle id="Elipse_681" data-name="Elipse 681" cx="5.29" cy="5.29" r="5.29" transform="translate(0 4.769) rotate(-26.79)" fill="#323137"/>
            <circle id="Elipse_682" data-name="Elipse 682" cx="2.274" cy="2.274" r="2.274" transform="matrix(0.848, -0.531, 0.531, 0.848, 3.972, 6.386)" fill="#66646f"/>
            <path id="Trazado_10211" data-name="Trazado 10211" d="M-3036.13,1725.974q3.734-3.741,7.459-7.492a5.274,5.274,0,0,0-3.845-1.659,5.29,5.29,0,0,0-5.29,5.29A5.274,5.274,0,0,0-3036.13,1725.974Z" transform="translate(3039.623 -1715.006)" fill="#949799"/>
          </g>
        </g>
        <g id="Grupo_10459" data-name="Grupo 10459" transform="translate(118.406 99.816)">
          <rect id="Rectángulo_2813" data-name="Rectángulo 2813" width="3.913" height="4.831" transform="translate(3.477)" fill="#6b6d70"/>
          <rect id="Rectángulo_2814" data-name="Rectángulo 2814" width="2.255" height="3.066" transform="translate(6.542 1.196)" fill="#404042"/>
          <g id="Grupo_10458" data-name="Grupo 10458" transform="translate(0 2.285)">
            <path id="Trazado_10212" data-name="Trazado 10212" d="M-2707.317,1725.528a5.289,5.289,0,0,0-5.169-5.287v0H-2714v.185a5.291,5.291,0,0,0-3.9,5.1,5.291,5.291,0,0,0,3.9,5.1v.185h1.509v0A5.289,5.289,0,0,0-2707.317,1725.528Z" transform="translate(2720.33 -1719.193)" fill="#242428"/>
            <path id="Trazado_10213" data-name="Trazado 10213" d="M-2712.527,1723.995c.738-.76,2.352-2.095,2.376-2.1.175-.117.659-.394.836-.506a5.266,5.266,0,0,0-3.172-1.15v0H-2714v.185a5.291,5.291,0,0,0-3.9,5.1,5.26,5.26,0,0,0,.887,2.93C-2715.513,1726.973-2713.995,1725.507-2712.527,1723.995Z" transform="translate(2720.33 -1719.193)" fill="#6b6d70"/>
            <circle id="Elipse_683" data-name="Elipse 683" cx="5.29" cy="5.29" r="5.29" transform="translate(0 10.314) rotate(-77.142)" fill="#323137"/>
            <circle id="Elipse_684" data-name="Elipse 684" cx="2.274" cy="2.274" r="2.274" transform="translate(3.268 5.365) rotate(-27.453)" fill="#66646f"/>
            <path id="Trazado_10214" data-name="Trazado 10214" d="M-2726,1729.389q3.734-3.741,7.459-7.492a5.274,5.274,0,0,0-3.845-1.659,5.29,5.29,0,0,0-5.29,5.29A5.274,5.274,0,0,0-2726,1729.389Z" transform="translate(2728.722 -1719.193)" fill="#949799"/>
          </g>
        </g>
        <g id="Grupo_10461" data-name="Grupo 10461" transform="translate(161.88 100.301)">
          <rect id="Rectángulo_2815" data-name="Rectángulo 2815" width="3.913" height="4.831" transform="translate(4.028)" fill="#6b6d70"/>
          <rect id="Rectángulo_2816" data-name="Rectángulo 2816" width="2.255" height="3.066" transform="translate(7.093 1.196)" fill="#404042"/>
          <g id="Grupo_10460" data-name="Grupo 10460" transform="translate(0 1.735)">
            <path id="Trazado_10215" data-name="Trazado 10215" d="M-2397.188,1728.944a5.289,5.289,0,0,0-5.169-5.287v0h-1.509v.185a5.292,5.292,0,0,0-3.9,5.1,5.292,5.292,0,0,0,3.9,5.1v.185h1.509v0A5.289,5.289,0,0,0-2397.188,1728.944Z" transform="translate(2410.751 -1722.059)" fill="#242428"/>
            <path id="Trazado_10216" data-name="Trazado 10216" d="M-2402.4,1727.411c.738-.76,2.352-2.095,2.376-2.1.175-.117.66-.394.837-.506a5.266,5.266,0,0,0-3.172-1.15v0h-1.509v.185a5.292,5.292,0,0,0-3.9,5.1,5.261,5.261,0,0,0,.887,2.93C-2405.384,1730.389-2403.866,1728.923-2402.4,1727.411Z" transform="translate(2410.751 -1722.059)" fill="#6b6d70"/>
            <circle id="Elipse_685" data-name="Elipse 685" cx="5.29" cy="5.29" r="5.29" transform="translate(0 3.958) rotate(-21.971)" fill="#323137"/>
            <circle id="Elipse_686" data-name="Elipse 686" cx="2.274" cy="2.274" r="2.274" transform="matrix(0.925, -0.379, 0.379, 0.925, 3.918, 5.642)" fill="#66646f"/>
            <path id="Trazado_10217" data-name="Trazado 10217" d="M-2415.874,1732.8q3.735-3.741,7.459-7.492a5.273,5.273,0,0,0-3.845-1.659,5.29,5.29,0,0,0-5.29,5.29A5.275,5.275,0,0,0-2415.874,1732.8Z" transform="translate(2419.144 -1722.059)" fill="#949799"/>
          </g>
        </g>
        <rect id="Rectángulo_2817" data-name="Rectángulo 2817" width="156.718" height="6.69" transform="translate(29.6 91.375)" fill="#6b6d70"/>
        <path id="Trazado_10218" data-name="Trazado 10218" d="M-3394.9,1640.062l4.866-2.737h48.1l-4.713,7.4-48.252-3.7" transform="translate(3419.631 -1545.95)" fill="#6b6d70"/>
        <rect id="Rectángulo_2818" data-name="Rectángulo 2818" width="25.507" height="38.407" transform="translate(74.735 56.314)" fill="#616366"/>
        <rect id="Rectángulo_2819" data-name="Rectángulo 2819" width="25.507" height="38.407" transform="translate(120.104 58.138)" fill="#616366"/>
        <rect id="Rectángulo_2820" data-name="Rectángulo 2820" width="5.93" height="38.407" transform="translate(71.77 58.138)" fill="#949799"/>
        <rect id="Rectángulo_2821" data-name="Rectángulo 2821" width="5.93" height="38.407" transform="translate(116.854 58.138)" fill="#949799"/>
        <rect id="Rectángulo_2822" data-name="Rectángulo 2822" width="74.051" height="24.764" transform="translate(7.907 17.105)" fill="#444547"/>
        <g id="Grupo_10463" data-name="Grupo 10463" transform="translate(3.649 8.274)">
          <g id="Grupo_10462" data-name="Grupo 10462" transform="translate(2.433)">
            <path id="Trazado_10219" data-name="Trazado 10219" d="M-3452.695,1068.25v34.643h4.258V1068.25a16.343,16.343,0,0,0-16.324-16.325h-45.2a16.343,16.343,0,0,0-16.324,16.325v34.908h4.258V1068.25a12.081,12.081,0,0,1,12.067-12.067h45.2A12.081,12.081,0,0,1-3452.695,1068.25Z" transform="translate(3526.289 -1051.925)" fill="#75777a"/>
          </g>
          <rect id="Rectángulo_2823" data-name="Rectángulo 2823" width="8.515" height="3.345" transform="translate(0 49.864)" fill="#5d5f62"/>
        </g>
        <path id="Trazado_10220" data-name="Trazado 10220" d="M-3255.09,1051.482h-54.685a4.614,4.614,0,0,0-4.009,6.9l22.832,40.077h69.945l-30.256-44.938A4.614,4.614,0,0,0-3255.09,1051.482Z" transform="translate(3350.557 -1043.271)" fill="#c4c6c8"/>
        <path id="Trazado_10221" data-name="Trazado 10221" d="M-3306.919,1017.541l3.816-7.573,9.646,9.28-11.962,3.852Z" transform="translate(3344.142 -1007.65)" fill="#c4c6c8"/>
        <path id="Trazado_10222" data-name="Trazado 10222" d="M-3225.1,993.641h-54.684a4.614,4.614,0,0,0-4.009,6.9l22.832,40.077h69.945l-30.256-44.938A4.614,4.614,0,0,0-3225.1,993.641Z" transform="translate(3324.823 -993.641)" fill="#fff"/>
        <path id="Trazado_10223" data-name="Trazado 10223" d="M-3012.841,1249.347h-150.331c-.4,1,0,3.344,0,4.485v9.807a8.878,8.878,0,0,0,8.853,8.853h134.349a8.816,8.816,0,0,0,6.068-2.425q.24-2.173.6-4.329.206-1.233.462-2.458Z" transform="translate(3220.953 -1213.048)" fill="#7582bf"/>
        <path id="Trazado_10224" data-name="Trazado 10224" d="M-3017.384,1256.228h-134.349c-4.693,0-8-1.374-11.134-6.881-.284,2.763,0,2.208,0,4.485v9.807a8.879,8.879,0,0,0,8.853,8.853h134.349a8.879,8.879,0,0,0,8.853-8.853v-9.807c0-.176-.007-.35-.017-.523A8.835,8.835,0,0,1-3017.384,1256.228Z" transform="translate(3220.647 -1213.048)" fill="#616c9d"/>
        <rect id="Rectángulo_2824" data-name="Rectángulo 2824" width="74.05" height="24.764" transform="translate(133.808 17.042)" fill="#444547"/>
        <rect id="Rectángulo_2825" data-name="Rectángulo 2825" width="215.917" height="4.882" transform="translate(0 50.313)" fill="#949799"/>
        <rect id="Rectángulo_2826" data-name="Rectángulo 2826" width="129.55" height="4.882" transform="translate(0 50.313)" fill="#c2c4c6"/>
        <g id="Grupo_10465" data-name="Grupo 10465" transform="translate(129.55 8.211)">
          <g id="Grupo_10464" data-name="Grupo 10464" transform="translate(2.433)">
            <path id="Trazado_10225" data-name="Trazado 10225" d="M-2635.134,1102.715v-34.908a12.081,12.081,0,0,1,12.067-12.067h45.2a12.081,12.081,0,0,1,12.067,12.067v34.908h4.258v-34.908a16.343,16.343,0,0,0-16.324-16.324h-45.2a16.343,16.343,0,0,0-16.324,16.324v34.908Z" transform="translate(2639.391 -1051.482)" fill="#75777a"/>
          </g>
          <rect id="Rectángulo_2827" data-name="Rectángulo 2827" width="8.515" height="3.345" transform="translate(0 49.865)" fill="#5d5f62"/>
          <rect id="Rectángulo_2828" data-name="Rectángulo 2828" width="8.515" height="3.345" transform="translate(74.05 49.56)" fill="#5d5f62"/>
        </g>
        <path id="Trazado_10226" data-name="Trazado 10226" d="M-2286.051,1637.325l-4.866,2.737v6.69l4.866-2.737Z" transform="translate(2472.368 -1545.95)" fill="#56575a"/>
        <rect id="Rectángulo_2829" data-name="Rectángulo 2829" width="156.717" height="6.69" transform="translate(24.734 94.112)" fill="#949799"/>
      </g>
      <g id="Grupo_10489" data-name="Grupo 10489" transform="translate(-3751.685 196.303)">
        <path id="Trazado_10227" data-name="Trazado 10227" d="M-3640.047,1062.654l42.746,1.3-13.45-68.118Z" transform="translate(3643.375 -914.604)" fill="#818386"/>
        <path id="Trazado_10228" data-name="Trazado 10228" d="M-3496.658,623.254l-9.521-1.152-.9,11.35,10.964.562Z" transform="translate(3529.282 -593.927)" fill="#f59890"/>
        <g id="Grupo_10474" data-name="Grupo 10474" transform="translate(28.686 37.974)">
          <path id="Trazado_10229" data-name="Trazado 10229" d="M-3141.989,776.663s6.3.961,7.534,6.766a1.959,1.959,0,0,1-1.777-.023c-2.834-1.1-5.851-3.027-5.757-6.744" transform="translate(3187.336 -764.522)" fill="#000c26"/>
          <path id="Trazado_10230" data-name="Trazado 10230" d="M-3113.15,749.322s-1.6-3.563,4.408-7.325c0,0,.778.55-.79,2.837a38.393,38.393,0,0,1-2.854,3.8A4,4,0,0,1-3113.15,749.322Z" transform="translate(3162.754 -734.777)" fill="#f59890"/>
          <path id="Trazado_10231" data-name="Trazado 10231" d="M-3109.6,741.653a19.671,19.671,0,0,0,5.526-4.341c2.058-2.565,1.631-4.237,1.21-5.1-.287-.585-1.246-2.364-1.928-1.33s-5.053,4.55-6.036,5.555a5.832,5.832,0,0,0-1.421,3.464A27,27,0,0,0-3109.6,741.653Z" transform="translate(3161.84 -724.971)" fill="#f59890"/>
          <g id="Grupo_10467" data-name="Grupo 10467" transform="translate(26.225 11.434)">
            <path id="Trazado_10232" data-name="Trazado 10232" d="M-3274.785,796.163c-1.593-.38-1.5.6-1.746-1.814-.207-2.026-.133-5.865-.135-5.864,8.779-5.09,17.879-9.412,22.919-14.507,5.648-5.709,4.767,1.027,4.767,1.027C-3254.255,782.275-3264.277,789.829-3274.785,796.163Z" transform="translate(3276.677 -771.683)" fill="#f59890"/>
          </g>
          <g id="Grupo_10468" data-name="Grupo 10468" transform="translate(4.769 1.302)">
            <path id="Trazado_10233" data-name="Trazado 10233" d="M-3407.346,733.8c.747.052.974.213,2.346-1.182,1.072-1.089.441-2.2.01-3.374-6.867-17.275-15.483-29.7-20.59-28.9-4.916.773-.225,10.475-.225,10.475a130.627,130.627,0,0,0,9.111,16.1c1.015,1.519,7.117,9.946,8.735,9.965C-3407.958,736.885-3407.347,733.8-3407.346,733.8Z" transform="translate(3427.824 -700.308)" fill="#f59890"/>
          </g>
          <g id="Grupo_10470" data-name="Grupo 10470" transform="translate(22.171 12.141)">
            <g id="Grupo_10469" data-name="Grupo 10469">
              <path id="Trazado_10234" data-name="Trazado 10234" d="M-3282.061,776.663c1.088,1.254,5.792,6.643,7.519,6.777-4.335,4.984-9.953,9.092-15.311,12.895a80.9,80.9,0,0,1-7.2,4.659c-1.927,1.08-4.2,2.368-6.484,1.6-1.633-.547-1.24-1.619-1.314-2.933-.058-1-.12-2.007-.151-3.014-.014-.461-.45-4.631-.093-4.826C-3297.1,787.186-3287.279,781.19-3282.061,776.663Z" transform="translate(3305.237 -776.663)" fill="#fff"/>
            </g>
          </g>
          <g id="Grupo_10473" data-name="Grupo 10473">
            <g id="Grupo_10472" data-name="Grupo 10472">
              <g id="Grupo_10471" data-name="Grupo 10471">
                <path id="Trazado_10235" data-name="Trazado 10235" d="M-3436.17,725.928c.747.052.974.213,2.346-1.182,1.072-1.089.357-4-.074-5.176-4.782-14.279-13.393-30.255-26.134-28.266-4.931.77,4.886,13,4.886,13a92.843,92.843,0,0,0,8.363,15.41c1.015,1.519,7.536,9.729,9.805,9.646C-3436.976,729.358-3436.171,725.927-3436.17,725.928Z" transform="translate(3461.417 -691.136)" fill="#fff"/>
              </g>
            </g>
          </g>
        </g>
        <path id="Trazado_10236" data-name="Trazado 10236" d="M-3481.07,1122.853l.963,49.143-16.451,7.424s-6.208-42.294-3.826-55.529C-3499.646,1119.788-3481.07,1122.853-3481.07,1122.853Z" transform="translate(3524.005 -1022.65)" fill="#001b3a"/>
        <path id="Trazado_10237" data-name="Trazado 10237" d="M-3596.031,1087.156c2.861,14.447-5.648,23.057-5.96,24.375-4.231,17.825-4.852,29.811-5.7,34.465-1.025,5.61-15.691,8.808-15.691,8.808s-2.882-45.248-1-57.642C-3623.759,1093.034-3596.911,1082.713-3596.031,1087.156Z" transform="translate(3630.484 -992.029)" fill="#00264a"/>
        <path id="Trazado_10238" data-name="Trazado 10238" d="M-3542.3,724.406l-27.159-.18c-.307-12.378-2.984-42.513-.139-44.877,7.375-6.127,15.433-5.968,21.733-1.711C-3545.452,679.273-3542.667,711.512-3542.3,724.406Z" transform="translate(3584.044 -638.954)" fill="#f59890"/>
        <path id="Trazado_10239" data-name="Trazado 10239" d="M-3392.889,941.6" transform="translate(3431.303 -868.074)" fill="#f59890"/>
        <path id="Trazado_10240" data-name="Trazado 10240" d="M-3569.875,683.945c-1.45-2.464-4.322-6.241-8.328-6.895a3.083,3.083,0,0,1,.347.148c.75,1.613-.106,4.061-3.488,4.061a9.716,9.716,0,0,1-5.823-2.268,4.773,4.773,0,0,1-1.4-2.25c-3.148.668-9.941,2.642-11.921,4.934-2.238,2.589.057,44.992.438,59.8h31.713C-3568.436,726.1-3565.476,691.419-3569.875,683.945Z" transform="translate(3610.265 -640.811)" fill="#46bae5"/>
        <path id="Trazado_10241" data-name="Trazado 10241" d="M-3415.846,689.812c-1.536-3.219-4.035-4.917-6.948-6.268,0,0,4.179,23.119,4.245,36.633.075,15.557.949,73.583.949,73.583l6.711,2.233C-3410.984,780.62-3410.182,701.682-3415.846,689.812Z" transform="translate(3456.963 -646.647)" fill="#e0e1e3"/>
        <path id="Trazado_10242" data-name="Trazado 10242" d="M-3622.25,681.094a3.787,3.787,0,0,1,0-3.181v-.442c-3.306.838-10.593,1.45-11.456,5.4-.782,3.573-6.825,90.074-6.445,106.618l15.9,1.3,10.412-72.569-1.516-20.528Z" transform="translate(3643.479 -641.436)" fill="#e0e1e3"/>
        <g id="Grupo_10479" data-name="Grupo 10479" transform="translate(0 38.65)">
          <path id="Trazado_10243" data-name="Trazado 10243" d="M-3637.165,1147.054s-9.692-3.119-10.695,3.771a1.959,1.959,0,0,0,1.56.852,9.706,9.706,0,0,0,9.135-4.623" transform="translate(3650.079 -1082.404)" fill="#000c26"/>
          <path id="Trazado_10244" data-name="Trazado 10244" d="M-3604.575,1163.785s3.831.757,3.429,7.831c0,0-.9.317-1.858-2.284a38.456,38.456,0,0,1-1.451-4.526A4.02,4.02,0,0,1-3604.575,1163.785Z" transform="translate(3612.942 -1097.365)" fill="#f59890"/>
          <path id="Trazado_10245" data-name="Trazado 10245" d="M-3628.591,1163.277a19.671,19.671,0,0,0,.348,7.018c.9,3.162,2.514,3.78,3.459,3.933.643.1,2.65.35,2.2-.805s-.792-6.754-1.044-8.137a5.832,5.832,0,0,0-2.005-3.161A26.99,26.99,0,0,0-3628.591,1163.277Z" transform="translate(3633.691 -1095.941)" fill="#f59890"/>
          <g id="Grupo_10475" data-name="Grupo 10475" transform="translate(2.913 35.463)">
            <path id="Trazado_10246" data-name="Trazado 10246" d="M-3642.539,946.781c1.231-1.079.374-1.573,2.489-.376,1.772,1,4.863,3.281,4.863,3.279-.921,10.106-2.655,20.03-1.41,27.088,1.394,7.908-3.594,3.3-3.594,3.3C-3643.073,971.562-3643.444,959.018-3642.539,946.781Z" transform="translate(3642.976 -945.709)" fill="#f59890"/>
          </g>
          <g id="Grupo_10476" data-name="Grupo 10476" transform="translate(3.328 2.141)">
            <path id="Trazado_10247" data-name="Trazado 10247" d="M-3636.252,748.729c-.683.306-.841.536-2.61-.3-1.382-.653-1.173-1.912-1.173-3.163.485-18.584,4.287-33.219,9.357-34.227,4.881-.97,3.824,9.754,3.824,9.754a130.655,130.655,0,0,1-3,18.255c-.429,1.776-3.249,11.791-4.761,12.366C-3634.614,751.415-3636.252,748.728-3636.252,748.729Z" transform="translate(3640.046 -710.977)" fill="#f59890"/>
          </g>
          <g id="Grupo_10477" data-name="Grupo 10477" transform="translate(0 33.612)">
            <path id="Trazado_10248" data-name="Trazado 10248" d="M-3650.579,963.628c-2.212-1.114-10.416,1.615-10.695,3.771-2.014-8.278-2.689-23.68-1.894-34.433,1.231-1.079,3.4,1.054,5.514,2.251,1.773,1,5.986,1.677,5.987,1.675C-3652.507,946.1-3651.257,956.753-3650.579,963.628Z" transform="translate(3663.493 -932.67)" fill="#fff"/>
          </g>
          <g id="Grupo_10478" data-name="Grupo 10478" transform="translate(0.325)">
            <path id="Trazado_10249" data-name="Trazado 10249" d="M-3654.4,735.786c-.683.306-.841.536-2.61-.3-1.382-.653-4.187-4.434-4.187-5.685,2.243-17.252,6.9-35.87,13.609-33.741,4.757,1.509,3.538,12.883,3.538,12.883a92.852,92.852,0,0,1-2.533,17.349c-.429,1.776-4.665,11.6-6.177,12.18C-3652.765,738.471-3654.4,735.784-3654.4,735.786Z" transform="translate(3661.201 -695.892)" fill="#fff"/>
          </g>
        </g>
        <path id="Trazado_10250" data-name="Trazado 10250" d="M-3577.423,1108.632" transform="translate(3589.641 -1011.391)" fill="#760011"/>
        <path id="Trazado_10251" data-name="Trazado 10251" d="M-3610.69,1541.426c-6.042-15.172-2.863-46.378-2.863-46.378s15.69-6.984,15.154-2.421c-1.554,13.225-3.371,39.327-4.736,49.048Z" transform="translate(3621.359 -1339.547)" fill="#00264a"/>
        <path id="Trazado_10252" data-name="Trazado 10252" d="M-3466.306,1527.422a169.631,169.631,0,0,1-4.447-44.315l16.451-7.424s-1.944,42.019-3.841,51.739Z" transform="translate(3498.2 -1326.337)" fill="#001b3a"/>
        <path id="Trazado_10253" data-name="Trazado 10253" d="M-3412.939,1842.222l-17.178-3.989h-6.953v6.961h11.986C-3411.009,1845.194-3412.939,1842.222-3412.939,1842.222Z" transform="translate(3469.212 -1637.42)" fill="#00071f"/>
        <path id="Trazado_10254" data-name="Trazado 10254" d="M-3568.548,1850.66l-8.446-3.592c-1.494-.635-3.164-1.467-3.577-3.036-.018-.069-.031-.14-.045-.211h-8.116v6.282a39.4,39.4,0,0,0,21.683,2.465C-3566.721,1851.729-3567.72,1851.012-3568.548,1850.66Z" transform="translate(3599.345 -1642.214)" fill="#00071f"/>
        <path id="Trazado_10255" data-name="Trazado 10255" d="M-3459.139,714.574h0a2.451,2.451,0,0,1,2.4.874l.756.948s-.166,2.918-1.059,3.286a2.516,2.516,0,0,1-1.019.162,2.066,2.066,0,0,1-1.485-.7l-1.871-2.108.561-1.141A2.452,2.452,0,0,1-3459.139,714.574Z" transform="translate(3490.103 -673.231)" fill="#0d1e44"/>
        <path id="Trazado_10256" data-name="Trazado 10256" d="M-3438.923,786.345l-3.993-41.375h-2.235l.417,41.375,2.115,7.573c.411,1.472,1.832,1.373,2.149-.15Z" transform="translate(3476.146 -699.353)" fill="#0d1e44"/>
        <path id="Trazado_10257" data-name="Trazado 10257" d="M-3553.338,670.725l-5.468,2.408,10.948,17.33v15.324l3.831,11.008s1.763-13.31-.443-23.941S-3548.237,676.071-3553.338,670.725Z" transform="translate(3573.667 -635.648)" fill="#fff"/>
        <path id="Trazado_10258" data-name="Trazado 10258" d="M-3525.971,653.758a20.722,20.722,0,0,0-3.568,3.261s5.6,6.386,9.67,8.888l2.347-5.789S-3525.72,653.63-3525.971,653.758Z" transform="translate(3548.555 -621.088)" fill="#fff"/>
        <path id="Trazado_10259" data-name="Trazado 10259" d="M-3512.453,468.057c-2.963.344-5.858,1.559-7.207,3.353-3.244,4.314-1.359,9.243-.608,14.123.133.86,1.593,3.275,1.593,5.864,0,.523.417-.658.938-.6,4.109.425,6.875,1.944,10.985,2.369,1.1.114,2.955.645,3.551-.289a4.47,4.47,0,0,0,.4-2.023c.083-3.352.523-7.452.42-10.5a39.43,39.43,0,0,0-.524-6.109,8.158,8.158,0,0,0-2.072-4.442C-3506.627,468.212-3509.572,467.723-3512.453,468.057Z" transform="translate(3541.655 -461.665)" fill="#f59890"/>
        <path id="Trazado_10260" data-name="Trazado 10260" d="M-3537.378,449.071a1.421,1.421,0,0,0,.865-.936,6.643,6.643,0,0,0,.459-3.236c-.1-.949-.614-1.74-.1-2.652a1.319,1.319,0,0,1,1.756-.577c.409.267.6.818,1.061.991a1.112,1.112,0,0,0,1.177-.409,5.372,5.372,0,0,0,.636-1.162c1.574-3.188,4.973-2.139,7.881-2.769,2.014-.436,6.3-1.84,5.885-4.525-.129-.847-.533-1.253-.068-1.954.321-.484.917-.525,1.168-1.239a3.34,3.34,0,0,0-.9-3.4c-1.24-1.024-2.324-.031-3.584.064-.163-.336.093-.71.214-1.063a1.892,1.892,0,0,0-.814-2.07,3.567,3.567,0,0,0-2.294-.483,4.916,4.916,0,0,0-3.014,1.239c-1.168,1.112-1.6,2.145-3.306,2.383-1.635.229-3.366-.035-4.948.519a4.053,4.053,0,0,0-2.119,1.522c-.6.933.258,2.492-.243,3.074-.359.415-1.21.227-1.656.576a6.813,6.813,0,0,0-1.392,2.444,12.394,12.394,0,0,0-.994,5.3,12.419,12.419,0,0,0,3.121,7.748,1.434,1.434,0,0,0,1.16.63Z" transform="translate(3559.008 -423.629)" fill="#00102a"/>
        <path id="Trazado_10261" data-name="Trazado 10261" d="M-3392.113,544.175a30.485,30.485,0,0,0,2.2,5.268.7.7,0,0,1-.405.995,19.151,19.151,0,0,1-2.3.494" transform="translate(3431.068 -527.063)" fill="#f59890"/>
        <path id="Trazado_10262" data-name="Trazado 10262" d="M-3474.173,594.681s.541,4.533,1.113,5.089,5.079,1.876,5.079,1.876-3.63-.365-5.531-1.606C-3474.7,599.263-3474.173,594.681-3474.173,594.681Z" transform="translate(3501.149 -570.399)" fill="#f59890"/>
        <g id="Grupo_10480" data-name="Grupo 10480" transform="translate(34.72 36.368)">
          <path id="Trazado_10263" data-name="Trazado 10263" d="M-3415.278,682.845a6.942,6.942,0,0,0-3.632-3.024,2.683,2.683,0,0,1,.219.756,7.568,7.568,0,0,1,2.9,2.623c1.274,1.852,1.915,5.982,1.851,8.236l.624.018C-3413.25,689.068-3413.93,684.805-3415.278,682.845Z" transform="translate(3418.91 -679.821)" fill="#333335"/>
        </g>
        <g id="Grupo_10481" data-name="Grupo 10481" transform="translate(37.531 47.662)">
          <path id="Trazado_10264" data-name="Trazado 10264" d="M-3394.461,761.7a2.325,2.325,0,0,1-2.325,2.325,2.325,2.325,0,0,1-2.325-2.325,2.325,2.325,0,0,1,2.325-2.325A2.325,2.325,0,0,1-3394.461,761.7Z" transform="translate(3399.11 -759.379)" fill="#b6b7b6"/>
          <path id="Trazado_10265" data-name="Trazado 10265" d="M-3397.775,764.48a3.126,3.126,0,0,1-.426-1.711,2.32,2.32,0,0,0-.909,1.843,2.325,2.325,0,0,0,2.325,2.325,2.318,2.318,0,0,0,1.7-.74A3.77,3.77,0,0,1-3397.775,764.48Z" transform="translate(3399.11 -762.288)" fill="#9a9c9c"/>
          <circle id="Elipse_687" data-name="Elipse 687" cx="1.572" cy="1.572" r="1.572" transform="translate(0.435 3.557) rotate(-76.781)" fill="#252425"/>
          <path id="Trazado_10266" data-name="Trazado 10266" d="M-3389.127,766.7a1.343,1.343,0,0,0-1.057.515,1.34,1.34,0,0,1,.832-.289,1.347,1.347,0,0,1,1.347,1.347,1.338,1.338,0,0,1-.289.832,1.343,1.343,0,0,0,.515-1.058A1.347,1.347,0,0,0-3389.127,766.7Z" transform="translate(3391.451 -765.662)" fill="#3d3e40"/>
        </g>
        <path id="Trazado_10267" data-name="Trazado 10267" d="M-3418.568,725.822c1.349-2.69,4.266-11.667,4.266-11.667l-3.92-11.1-.037-16.592-3.6-2.468s-.618-.31-.935-.457c0,0,4.179,23.119,4.245,36.633C-3418.54,721.981-3418.548,723.878-3418.568,725.822Z" transform="translate(3456.963 -646.647)" fill="#fff"/>
        <g id="Grupo_10482" data-name="Grupo 10482" transform="translate(31.128 34.5)">
          <path id="Trazado_10268" data-name="Trazado 10268" d="M-3439.789,666.657l-1.316,4.328,2.551,4.372s1.75-4.453,1.185-5.639A6.333,6.333,0,0,0-3439.789,666.657Z" transform="translate(3441.546 -666.657)" fill="#fff"/>
          <path id="Trazado_10269" data-name="Trazado 10269" d="M-3443.773,696.9l-.441,1.182,2.992,3.19Z" transform="translate(3444.215 -692.609)" fill="#8e9092"/>
        </g>
        <g id="Grupo_10483" data-name="Grupo 10483" transform="translate(18.492 33.948)">
          <path id="Trazado_10270" data-name="Trazado 10270" d="M-3529.062,673.548a12.265,12.265,0,0,1-2.794-4.158c-.438-1.1-1.091-3.191-.54-4.826a2.473,2.473,0,0,1,.694-.883c.337-.34.474-.5.808-.823l.006-.006a.309.309,0,0,0-.211-.085,2.308,2.308,0,0,0-1.888,1.6c-.615,1.824.081,4.076.551,5.256a12.885,12.885,0,0,0,2.937,4.372.311.311,0,0,0,.219.09.311.311,0,0,0,.223-.093A.312.312,0,0,0-3529.062,673.548Z" transform="translate(3533.23 -662.769)" fill="#333335"/>
        </g>
        <g id="Grupo_10488" data-name="Grupo 10488" transform="translate(18.978 44.065)">
          <g id="Grupo_10485" data-name="Grupo 10485" transform="translate(0 0.593)">
            <path id="Trazado_10271" data-name="Trazado 10271" d="M-3524.2,741.116s-3.093.405-2.625,3.976l1.1,8.429,1.018-.133" transform="translate(3527.293 -740.705)" fill="none" stroke="#5a5b5e" stroke-miterlimit="10" stroke-width="4.171"/>
            <g id="Grupo_10484" data-name="Grupo 10484">
              <path id="Trazado_10272" data-name="Trazado 10272" d="M-3528.573,745.257l-.354-2.7c-.407-3.1,2.16-3.5,2.27-3.511l-.109-.822a3.651,3.651,0,0,0-2.982,4.44l.354,2.7Z" transform="translate(3529.802 -738.22)" fill="#393a3b"/>
            </g>
            <path id="Trazado_10273" data-name="Trazado 10273" d="M-3512.49,822.674l-1.127.148c-.074.01-.1.269-.061.578s.134.553.208.543l1.127-.148a.55.55,0,0,0,.474-.618l0-.029A.551.551,0,0,0-3512.49,822.674Z" transform="translate(3515.983 -810.681)" fill="#2a292a"/>
          </g>
          <g id="Grupo_10487" data-name="Grupo 10487" transform="translate(4.229 0.423)">
            <path id="Trazado_10274" data-name="Trazado 10274" d="M-3499.631,739.929s3.093-.405,3.561,3.165c.41,3.131,1.1,8.429,1.1,8.429l-1.018.133" transform="translate(3499.685 -739.504)" fill="none" stroke="#5a5b5e" stroke-miterlimit="10" stroke-width="4.171"/>
            <g id="Grupo_10486" data-name="Grupo 10486">
              <path id="Trazado_10275" data-name="Trazado 10275" d="M-3496.453,743.366l-.354-2.7c-.407-3.1-2.988-2.821-3.1-2.808l-.106-.822a3.651,3.651,0,0,1,4.026,3.522l.354,2.7Z" transform="translate(3500.011 -737.018)" fill="#393a3b"/>
            </g>
            <path id="Trazado_10276" data-name="Trazado 10276" d="M-3484.259,818.684l1.127-.148c.074-.01.167.234.208.543s.013.569-.061.579l-1.127.148a.55.55,0,0,1-.618-.474l0-.029A.551.551,0,0,1-3484.259,818.684Z" transform="translate(3486.906 -806.964)" fill="#2a292a"/>
          </g>
          <path id="Trazado_10277" data-name="Trazado 10277" d="M-3506.283,824.153a.142.142,0,0,0-.084.033.108.108,0,0,0,.035.158.288.288,0,0,0,.181.023.377.377,0,0,1,.185.009c.042.017.083.051.125.038a.087.087,0,0,0,.029-.129C-3505.9,824.16-3506.151,824.137-3506.283,824.153Z" transform="translate(3509.713 -811.357)" fill="#464749"/>
          <path id="Trazado_10278" data-name="Trazado 10278" d="M-3508.046,734.84a.918.918,0,0,1-.791,1.029.918.918,0,0,1-1.03-.791.918.918,0,0,1,.791-1.029A.918.918,0,0,1-3508.046,734.84Z" transform="translate(3512.703 -734.042)" fill="#2a292a"/>
        </g>
        <path id="Trazado_10279" data-name="Trazado 10279" d="M-3483.176,547.456c-.139,2.227,1.978,3.926,4.034,4.793a17.368,17.368,0,0,0,8.553,1.258.654.654,0,0,1,.561.111.629.629,0,0,1,.124.374,30.564,30.564,0,0,1-.332,8.6,3.222,3.222,0,0,1-.651,1.647,2.706,2.706,0,0,1-1.678.731,13.04,13.04,0,0,1-5.915-1.091,7.649,7.649,0,0,1-2.662-1.351,6.626,6.626,0,0,1-1.413-2.066,24.791,24.791,0,0,1-2.471-12.338" transform="translate(3510.4 -529.878)" fill="#00102a"/>
      </g>
      <g id="Grupo_10506" data-name="Grupo 10506" transform="translate(-3669.792 211.227)">
        <path id="Trazado_10280" data-name="Trazado 10280" d="M-2949.489,1339.745c5.587-31.951,1.805-40.563,1.805-40.563s-10.178-4.577-9.676-.659c1.455,11.356,3.157,33.769,4.435,42.116Z" transform="translate(2975.723 -1187.89)" fill="#ba7d5f"/>
        <path id="Trazado_10281" data-name="Trazado 10281" d="M-2909.108,569.8a17.528,17.528,0,0,0-1.329-8.78c-1.09-2.788-2.6-5.389-3.948-8.061-1.486-2.94-2.914-6.127-5.648-7.966a1.679,1.679,0,0,0-.728-.322,1.578,1.578,0,0,0-.665.1,6.415,6.415,0,0,0-3.95,4.46,10.281,10.281,0,0,0,.438,6.1,26.894,26.894,0,0,0,2.921,5.46q2.389,3.683,5,7.217a18.693,18.693,0,0,1,1.883,2.887,46.255,46.255,0,0,1,1.764,5.363,6.446,6.446,0,0,0,4.208,3.819,13.15,13.15,0,0,0,5.836.278,28.056,28.056,0,0,0,8.334-2.519,3.971,3.971,0,0,0,1.609-1.178,2.91,2.91,0,0,0,.424-1.941c-.2-2.064-1.766-3.708-3.324-5.075q-1.829-1.6-3.8-3.033a18.429,18.429,0,0,0-6.739-3.373c-3.237-.7-7.409.361-8.779,3.726-.527,1.294.062,2.132.686,3.263a12.452,12.452,0,0,1,1.117,4.237" transform="translate(2948.507 -542.405)" fill="#000b25"/>
        <g id="Grupo_10491" data-name="Grupo 10491" transform="translate(20.353 34.081)">
          <g id="Grupo_10490" data-name="Grupo 10490">
            <path id="Trazado_10282" data-name="Trazado 10282" d="M-2942.075,789.355a1.4,1.4,0,0,1-.382-.212c-2.752-2.185,2.608-7.542,3.792-9.183,1.579-2.188,3.2-4.357,4.989-6.382,1.513-1.714,4.668-5.616,7.428-4.561,2.965,1.135-.579,5.2-1.685,6.437-2.446,2.74-4.062,6.029-6.222,9C-2935.7,786.579-2939.085,790.474-2942.075,789.355Z" transform="translate(2943.234 -768.839)" fill="#ae7559"/>
          </g>
        </g>
        <path id="Trazado_10283" data-name="Trazado 10283" d="M-3035.68,1295.309c1-34.2-2-42.623-2-42.623l-11.155-.511s6.782,35.042,10.024,43.731Z" transform="translate(3054.198 -1149.482)" fill="#ae7559"/>
        <path id="Trazado_10284" data-name="Trazado 10284" d="M-3086.541,1544.367l15.343-3.084h3.309v5.381h-9.264C-3088.033,1546.664-3086.541,1544.367-3086.541,1544.367Z" transform="translate(3086.61 -1397.548)" fill="#00071f"/>
        <path id="Trazado_10285" data-name="Trazado 10285" d="M-2834.036,688.372l6.783-1.708,2.44,10.25-6.268,1.125Z" transform="translate(2869.891 -664.248)" fill="#ba7d5f"/>
        <path id="Trazado_10286" data-name="Trazado 10286" d="M-2998.289,1090.2c-16.133,8.177-53.638,20.191-53.638,20.191l-5.169-10.184,52.635-21.839Z" transform="translate(3061.286 -1000.349)" fill="#ae7559"/>
        <path id="Trazado_10287" data-name="Trazado 10287" d="M-2995.393,1090.144c-3.566,1.807-7.249,3.384-10.946,4.9-4,1.643-8.421,2.852-12.231,4.876-7.775,4.13-15.1,8.873-22.6,13.5a5.184,5.184,0,0,1-3.085,1.066,4.044,4.044,0,0,1-1.9-.809c-2.1-1.486-3.432-3.811-4.575-6.116-1.4-2.823-4.57-7.143-2.035-10.207a9.09,9.09,0,0,1,2.778-2.026,139.38,139.38,0,0,1,14.414-6.679c5.6-2.257,11.292-4.266,16.971-6.305,4.371-1.57,8.976-3.823,13.679-4.039,3.965-.182,4.945,2.969,6.509,5.991Z" transform="translate(3058.389 -1000.291)" fill="#b72e3e"/>
        <path id="Trazado_10288" data-name="Trazado 10288" d="M-2913.755,1122.095a6.3,6.3,0,0,1-.115,1.861c-.458,1.844-2.264,3.946-3.213,5.616a7.977,7.977,0,0,1-4.818,3.964c-4.3,1.385-9.071.589-13.384,2.074-13.606,4.688-21.031,7.27-21.031,7.27s-4.877-8.1-1.067-10.43c3.161-1.931,11.316-8.4,23.126-16.663a87.084,87.084,0,0,1,16.758-9.479c-.061.026,1.929,5.618,2.058,5.973a31.533,31.533,0,0,1,1.655,9.347C-2913.774,1121.782-2913.764,1121.938-2913.755,1122.095Z" transform="translate(2976.976 -1024.32)" fill="#ba7d5f"/>
        <path id="Trazado_10289" data-name="Trazado 10289" d="M-2947.131,1123.4c.562-.283,1.079-.532,1.381-.728q16.64-10.831,33.529-21.2c3.169,5.015,7.912,9.388,7.2,15.836a15.065,15.065,0,0,1-8.173,11.745c-4.527,2.14-9.631,2.631-13.9,5.3-2.49,1.557-5.27,2.466-7.885,3.744-1.708.834-4.07,3.127-6.052,3.114-3.1-.087-5.25-5.762-6.365-8.453a27.536,27.536,0,0,1-2.106-5.7c-.154-1.058-.481-.959-.089-1.872C-2949.322,1124.545-2948.154,1123.916-2947.131,1123.4Z" transform="translate(2969.204 -1020.168)" fill="#e93a4e"/>
        <path id="Trazado_10290" data-name="Trazado 10290" d="M-2844.6,783.637c-1.018-12.019-1.911-36.806-.136-38.364,4.9-4.3,11.728-5.3,18.658-.891,2.528,1.609,1.237,25.168,2,36.65Z" transform="translate(2879.942 -711.319)" fill="#ba7d5f"/>
        <path id="Trazado_10291" data-name="Trazado 10291" d="M-2810.087,959.191" transform="translate(2849.341 -898.088)" fill="#ba7d5f"/>
        <path id="Trazado_10292" data-name="Trazado 10292" d="M-2858.489,806.315a20.783,20.783,0,0,1-3.735-2.189c1.874-5.072.4-12.071-.272-17.328-.861-6.69-1.711-13.388-2.07-20.127a27.064,27.064,0,0,1,.148-7.221,9.861,9.861,0,0,1,2.612-5.117,8.306,8.306,0,0,1,1.36-1.109c.211-.144,2.417-1.036,2.434-1.118a14.985,14.985,0,0,0,.121,6.922,6.155,6.155,0,0,0,2,3.437,55.7,55.7,0,0,1,2.693-6.121c1.225-2.111,3.234-4.349,5.833-4.416,6.576-.169,11.246,5.973,11.344,12.307.05,3.228-.8,6.426-.715,9.745a145.926,145.926,0,0,0,1.009,17.5c.653,4.4,1.351,8.573,2.111,12.968a4.054,4.054,0,0,1-.092,2.341c-.631,1.407-2.457,1.716-4,1.82a64.392,64.392,0,0,1-12.718-.067A28.253,28.253,0,0,1-2858.489,806.315Z" transform="translate(2896.231 -720.245)" fill="#d6ecfa"/>
        <g id="Grupo_10494" data-name="Grupo 10494" transform="translate(49.234 33.062)">
          <path id="Trazado_10293" data-name="Trazado 10293" d="M-2681.471,1109.339s-3.344.072-4.053,6.1c0,0,.712.4,1.906-1.653a32.974,32.974,0,0,0,1.895-3.605A3.43,3.43,0,0,0-2681.471,1109.339Z" transform="translate(2693.227 -1059.983)" fill="#ba7d5f"/>
          <g id="Grupo_10492" data-name="Grupo 10492" transform="translate(10.323 23.917)">
            <path id="Trazado_10294" data-name="Trazado 10294" d="M-2655.994,931.548c-.879-1.093-1.067-1.832-3.03-1.135a5.484,5.484,0,0,0-2.586,2.43,91.832,91.832,0,0,1-4.821,22.688c-2.346,6.468,2.545,3.313,2.545,3.313C-2660.193,952.093-2657.04,942.009-2655.994,931.548Z" transform="translate(2667.067 -930.142)" fill="#ba7d5f"/>
          </g>
          <g id="Grupo_10493" data-name="Grupo 10493">
            <path id="Trazado_10295" data-name="Trazado 10295" d="M-2720.793,789.244c.642,0,.845.124,1.936-1.149.852-.995.247-1.906-.191-2.885-6.892-14.361-14.992-24.473-19.31-23.484-4.156.952,2.077,8.7,2.077,8.7s4.04,5.648,9.234,12.365a92.247,92.247,0,0,1,4.788,8.69C-2721.663,792.641-2720.794,789.243-2720.793,789.244Z" transform="translate(2739.787 -761.659)" fill="#ba7d5f"/>
          </g>
          <path id="Trazado_10296" data-name="Trazado 10296" d="M-2678.867,1109.667a16.86,16.86,0,0,1-1.333,5.872c-1.23,2.535-2.681,2.818-3.5,2.808-.559-.007-2.288-.1-1.737-1.005s1.668-5.583,2.085-6.712a5,5,0,0,1,2.16-2.372A23.111,23.111,0,0,1-2678.867,1109.667Z" transform="translate(2693.245 -1059.054)" fill="#ba7d5f"/>
        </g>
        <path id="Trazado_10297" data-name="Trazado 10297" d="M-2643.575,1090.3" transform="translate(2706.467 -1010.588)" fill="#760011"/>
        <path id="Trazado_10298" data-name="Trazado 10298" d="M-2902.335,567.455c2.535-.531,5.253-.325,6.857.782,3.857,2.662,3.658,7.239,4.38,11.466.127.744-.355,2.331.356,4.463.144.431-.582.376-1,.564a39.917,39.917,0,0,0-5.318,3.237,15.175,15.175,0,0,1-2.5,1.527,4,4,0,0,1-2.815-.341,4.735,4.735,0,0,1-1.278-1.02,12.454,12.454,0,0,1-2.117-3.805,33.5,33.5,0,0,1-1.488-3.984,34.212,34.212,0,0,1-1.247-5.175,7.083,7.083,0,0,1,.487-4.228C-2907.091,569.183-2904.8,567.971-2902.335,567.455Z" transform="translate(2933.875 -561.722)" fill="#ba7d5f"/>
        <path id="Trazado_10299" data-name="Trazado 10299" d="M-2912.16,537.447a6.009,6.009,0,0,1-.3-2.481c.324-3.489,3.427-5.456,6.6-6a16.591,16.591,0,0,1,11.088,2.216c1.509.872,3.116,1.189,4.4,2.435a9.9,9.9,0,0,1,2.893,5.5c.4,2.537-.133,5.4,1.394,7.469a19.284,19.284,0,0,0,2.438,2.271,8.241,8.241,0,0,1,2.525,6.07,11.318,11.318,0,0,0,.029,3.354c.407,1.426,1.751,2.562,1.73,4.044-.023,1.657-1.741,2.766-3.343,3.189a9.667,9.667,0,0,1-6.708-.46,1.456,1.456,0,0,1-.6-.45,1.83,1.83,0,0,1-.216-.784c-.377-2.651-2.034-3.362-3.92-4.7-2.018-1.437-1.23-3.983-1.617-6.047-.364-1.941-1.728-2.576-2.963-3.845-1.031-1.06-1.038-2.782-1.394-4.183a5.238,5.238,0,0,0-3.077-3.84c-2.238-.747-4.95.624-6.908-.871A6.121,6.121,0,0,1-2912.16,537.447Z" transform="translate(2937.205 -528.761)" fill="#00102a"/>
        <path id="Trazado_10300" data-name="Trazado 10300" d="M-2902.68,650.216c.1,2.488.434,3.145-.363,4.943-.154.347.228.713.607.708a16.674,16.674,0,0,0,2.026-.224" transform="translate(2929.132 -632.975)" fill="#ba7d5f"/>
        <g id="Grupo_10503" data-name="Grupo 10503" transform="translate(22.383 22.135)">
          <g id="Grupo_10496" data-name="Grupo 10496" transform="translate(7.351 3.817)">
            <g id="Grupo_10495" data-name="Grupo 10495">
              <path id="Trazado_10301" data-name="Trazado 10301" d="M-2871.731,711.578a6.537,6.537,0,0,1-.429,5.731,5.948,5.948,0,0,1-2.157,2.035,6.079,6.079,0,0,1-2.834.755,6.555,6.555,0,0,0,4.726-2.954A7.216,7.216,0,0,0-2871.731,711.578Z" transform="translate(2877.151 -711.578)" fill="#00264a"/>
            </g>
          </g>
          <g id="Grupo_10498" data-name="Grupo 10498" transform="translate(6.364 4.543)">
            <g id="Grupo_10497" data-name="Grupo 10497">
              <path id="Trazado_10302" data-name="Trazado 10302" d="M-2879.724,716.69a4.74,4.74,0,0,1,.35,2.266,5.017,5.017,0,0,1-.773,2.192,4.717,4.717,0,0,1-1.716,1.567,2.52,2.52,0,0,1-2.243.218,2.683,2.683,0,0,0,2.125-.427,4.764,4.764,0,0,0,1.574-1.529,5.117,5.117,0,0,0,.8-2.05A5.848,5.848,0,0,0-2879.724,716.69Z" transform="translate(2884.106 -716.69)" fill="#00264a"/>
            </g>
          </g>
          <g id="Grupo_10500" data-name="Grupo 10500" transform="translate(1.733 2.13)">
            <g id="Grupo_10499" data-name="Grupo 10499">
              <path id="Trazado_10303" data-name="Trazado 10303" d="M-2913.005,699.693a4.41,4.41,0,0,0-3.02,2.03,3.886,3.886,0,0,0-.016,3.6,3.505,3.505,0,0,1-.673-1.819,3.471,3.471,0,0,1,.418-1.932A3.881,3.881,0,0,1-2913.005,699.693Z" transform="translate(2916.725 -699.693)" fill="#00264a"/>
            </g>
          </g>
          <g id="Grupo_10502" data-name="Grupo 10502">
            <g id="Grupo_10501" data-name="Grupo 10501">
              <path id="Trazado_10304" data-name="Trazado 10304" d="M-2923.352,684.809a3.79,3.79,0,0,0-2.537.545,5.9,5.9,0,0,0-1.879,1.808,5.776,5.776,0,0,0-.925,2.434,3.343,3.343,0,0,0,.56,2.515,2.83,2.83,0,0,1-.675-1.172,4,4,0,0,1-.116-1.367,5.707,5.707,0,0,1,.906-2.577,5.811,5.811,0,0,1,2.016-1.842,4.159,4.159,0,0,1,1.3-.436A3.4,3.4,0,0,1-2923.352,684.809Z" transform="translate(2928.937 -684.687)" fill="#00264a"/>
            </g>
          </g>
        </g>
        <g id="Grupo_10505" data-name="Grupo 10505" transform="translate(20.044 24.057)">
          <path id="Trazado_10305" data-name="Trazado 10305" d="M-2892.759,728.591s3.022.133,4.013-5.289c0,0-.619-.405-1.816,1.385a29.89,29.89,0,0,0-1.92,3.154A3.124,3.124,0,0,0-2892.759,728.591Z" transform="translate(2900.233 -719.71)" fill="#ce8967"/>
          <path id="Trazado_10306" data-name="Trazado 10306" d="M-2908.912,705.816a15.349,15.349,0,0,1,1.544-5.242c1.258-2.224,2.584-2.395,3.323-2.336.5.04,2.059.224,1.51,1.014s-1.831,4.96-2.272,5.959a4.521,4.521,0,0,1-2.087,2.021A20.926,20.926,0,0,1-2908.912,705.816Z" transform="translate(2914.094 -698.229)" fill="#ce8967"/>
          <g id="Grupo_10504" data-name="Grupo 10504" transform="translate(0 5.244)">
            <path id="Trazado_10307" data-name="Trazado 10307" d="M-2945.4,758.05c.077,1.349,1.235,3.49,2.876,2.822a3.075,3.075,0,0,0,1.425-1.32,9.156,9.156,0,0,0,.752-1.824,16.7,16.7,0,0,0,.506-3.925c.15-1.45.282-2.9.43-4.352.364-3.555.748-7.242,2.191-10.551,2.494-5.722-2.1-3.154-2.1-3.154-3.657,5.792-4.372,13.092-5.788,19.656A10.239,10.239,0,0,0-2945.4,758.05Z" transform="translate(2945.412 -735.173)" fill="#ce8967"/>
          </g>
        </g>
        <path id="Trazado_10308" data-name="Trazado 10308" d="M-3008.938,1595.585l6.187-2.632c1.094-.465,4.384-1.151,4.686-2.3.013-.051.023-.1.033-.154l3.88.077v4.6a28.868,28.868,0,0,1-15.884,1.806C-3010.277,1596.369-3009.545,1595.844-3008.938,1595.585Z" transform="translate(3020.947 -1439.777)" fill="#00071f"/>
      </g>
    </g>
  </g>
</svg>
