<svg xmlns="http://www.w3.org/2000/svg" xmlns:xlink="http://www.w3.org/1999/xlink" width="342.242" height="269.253" viewBox="0 0 342.242 269.253">
  <defs>
    <linearGradient id="linear-gradient" x1="0.253" y1="0.496" x2="0.893" y2="0.537" gradientUnits="objectBoundingBox">
      <stop offset="0" stop-color="#fff"/>
      <stop offset="1" stop-color="#5e5e5e"/>
    </linearGradient>
    <linearGradient id="linear-gradient-2" x1="1.158" y1="0.147" x2="0.437" y2="0.555" xlink:href="#linear-gradient"/>
    <linearGradient id="linear-gradient-3" x1="0.601" y1="0.069" x2="0.494" y2="0.415" xlink:href="#linear-gradient"/>
    <linearGradient id="linear-gradient-4" x1="0.507" y1="0.042" x2="0.325" y2="0.623" xlink:href="#linear-gradient"/>
    <linearGradient id="linear-gradient-5" x1="0.522" y1="0.496" x2="-0.018" y2="0.606" xlink:href="#linear-gradient"/>
    <linearGradient id="linear-gradient-6" x1="0.62" y1="0.13" x2="0.48" y2="0.544" xlink:href="#linear-gradient"/>
    <linearGradient id="linear-gradient-7" x1="0.95" y1="0.452" x2="-0.023" y2="0.619" xlink:href="#linear-gradient"/>
    <linearGradient id="linear-gradient-8" x1="165.509" y1="0.069" x2="165.402" y2="0.415" xlink:href="#linear-gradient"/>
    <linearGradient id="linear-gradient-9" x1="131.163" y1="0.496" x2="130.622" y2="0.606" xlink:href="#linear-gradient"/>
  </defs>
  <g id="Grupo_11482" data-name="Grupo 11482" transform="translate(-50.091 -42.434)">
    <g id="Grupo_11481" data-name="Grupo 11481" transform="translate(68.134 147.974)">
      <g id="Grupo_11463" data-name="Grupo 11463" transform="translate(0 108.847)">
        <path id="Trazado_10948" data-name="Trazado 10948" d="M104.645,181.921c0,3.249-9.737,5.884-21.747,5.884s-21.746-2.634-21.746-5.884,9.737-5.884,21.746-5.884S104.645,178.67,104.645,181.921Z" transform="translate(-61.152 -172.489)" fill="#dbdbdb"/>
        <path id="Trazado_10949" data-name="Trazado 10949" d="M131.417,179.746c0,3.249-9.737,5.884-21.747,5.884S87.924,183,87.924,179.746s9.737-5.884,21.746-5.884S131.417,176.5,131.417,179.746Z" transform="translate(-44.253 -173.862)" fill="#dbdbdb"/>
        <path id="Trazado_10950" data-name="Trazado 10950" d="M130.192,192.975c0,3.249-9.735,5.884-21.746,5.884S86.7,196.224,86.7,192.975s9.735-5.884,21.746-5.884S130.192,189.725,130.192,192.975Z" transform="translate(-45.025 -165.512)" fill="#dbdbdb"/>
        <path id="Trazado_10951" data-name="Trazado 10951" d="M149.005,205.022c0,3.249-9.737,5.884-21.747,5.884s-21.746-2.634-21.746-5.884,9.737-5.884,21.746-5.884S149.005,201.772,149.005,205.022Z" transform="translate(-33.151 -157.907)" fill="#dbdbdb"/>
        <ellipse id="Elipse_742" data-name="Elipse 742" cx="21.746" cy="5.884" rx="21.746" ry="5.884" transform="translate(110.646 33.347)" fill="#dbdbdb"/>
        <path id="Trazado_10952" data-name="Trazado 10952" d="M181.062,185.353c0,3.249-9.737,5.884-21.746,5.884s-21.746-2.634-21.746-5.884,9.735-5.884,21.746-5.884S181.062,182.1,181.062,185.353Z" transform="translate(-12.915 -170.323)" fill="#dbdbdb"/>
        <path id="Trazado_10953" data-name="Trazado 10953" d="M157.907,182.261c0,3.249-9.737,5.884-21.747,5.884s-21.746-2.634-21.746-5.884,9.737-5.884,21.746-5.884S157.907,179.011,157.907,182.261Z" transform="translate(-27.532 -172.274)" fill="#dbdbdb"/>
        <ellipse id="Elipse_743" data-name="Elipse 743" cx="21.746" cy="5.884" rx="21.746" ry="5.884" transform="translate(14.233 33.347)" fill="#dbdbdb"/>
      </g>
      <g id="Grupo_11464" data-name="Grupo 11464" transform="translate(4.706 4.045)">
        <path id="Trazado_10954" data-name="Trazado 10954" d="M65.892,130.015s-.652-.429-1.634,8.5,1.634,24.512,1.634,24.512h4.032l.719-27.458Z" transform="translate(-64.037 -96.738)" fill="#ff7a2a"/>
        <path id="Trazado_10955" data-name="Trazado 10955" d="M69.628,151.654a4.743,4.743,0,0,0-.414-1.369l-4.052-.083s.24,4.406.969,6.018a1.541,1.541,0,0,0,3.006-.106,22.694,22.694,0,0,0,.135-2.662A3.521,3.521,0,0,0,69.628,151.654Z" transform="translate(-63.327 -83.994)" fill="#ff7a2a"/>
        <path id="Trazado_10956" data-name="Trazado 10956" d="M69.841,130.595s2.983,1,3.152-2.187c.1-1.959-3.652-3.972-4.078-8.371-.429-4.435,2.388-8.717,6.61-8.931s7.2,3.923,7.2,8.073c0,4.727-3.92,7.73-3.793,9.014.241,2.422,3.923,1.59,5.12,1.667s1.605,6.491,1.39,6.633-9.8,0-12.162-.214a32.255,32.255,0,0,1-4.365-.716Z" transform="translate(-60.985 -108.678)" fill="#ff7a2a"/>
        <path id="Trazado_10957" data-name="Trazado 10957" d="M66.6,146.734s-.338,8.063,0,21.71c.259,10.461,3.972,31.135,3.972,31.135h2.974s.871-14.347,2.006-22.145c1.235-8.469,2.342-18.509,4.06-18.715s3.135,10.518,4.3,17.216c1.515,8.737,4.776,23.644,4.776,23.644h2.7s2-20.382,1.555-29.827c-.675-14.466-1.644-24.108-1.644-24.108Z" transform="translate(-62.516 -86.871)" fill="#402b28"/>
        <path id="Trazado_10958" data-name="Trazado 10958" d="M70.073,178.708a1.565,1.565,0,0,1-.615,1.083c-1.351.737-2.492,2.1-2.2,2.615.356.612,6.117-1.675,6.117-1.675l-.321-2.023Z" transform="translate(-62.032 -66.001)" fill="#e12000"/>
        <path id="Trazado_10959" data-name="Trazado 10959" d="M81.178,178.708a1.565,1.565,0,0,1-.615,1.083c-1.351.737-2.494,2.1-2.2,2.615.356.612,5.765-1.538,5.765-1.538l-.24-2.16Z" transform="translate(-55.023 -66.001)" fill="#e12000"/>
        <path id="Trazado_10960" data-name="Trazado 10960" d="M86.834,132.363s.215,2.134.457,6.791a123.387,123.387,0,0,1-1.065,19.816l-4.029.135-.626-26.488Z" transform="translate(-52.97 -95.254)" fill="#ff7a2a"/>
        <path id="Trazado_10961" data-name="Trazado 10961" d="M81.733,150.224a4.779,4.779,0,0,1,.37-1.382l4.045-.22s-.091,4.412-.765,6.049a1.541,1.541,0,0,1-3.008,0,22.492,22.492,0,0,1-.225-2.657A3.531,3.531,0,0,1,81.733,150.224Z" transform="translate(-52.877 -84.992)" fill="#ff7a2a"/>
        <path id="Trazado_10962" data-name="Trazado 10962" d="M72.892,123.335c-3.135.351-4.949,1.543-6.339,5.558s-2.515,12.273-2.515,12.273h2.979s.271,4.094.382,11.4c.072,4.651-2.933,25.716-2.933,25.716s6.292.351,16.834.186,14.241.514,14.241.514-1.833-28-1.783-31.646c.067-4.7.5-8.489.5-8.489l3.863-.336s-2.9-8.127-3.98-9.864c-2.124-3.432-4.083-6.045-7.032-6.045,0,0-2.271,1.754-7.3,1.881A15.374,15.374,0,0,1,72.892,123.335Z" transform="translate(-64.036 -101.418)" fill="#47b1ff"/>
        <path id="Trazado_10963" data-name="Trazado 10963" d="M67.006,132.709s-1.509-11.006.894-16.2,5.641-7.5,10.758-6.766,7.518,3.279,9.293,6.766S95.275,138.005,91.3,138.4s-13.7-2.82-10.658-10.36,2.926-12.094-1.984-11.529-8.313,6.517-6.053,9.533c2.794,3.727,4.536,5.212.334,6.058A20.444,20.444,0,0,1,67.006,132.709Z" transform="translate(-62.458 -109.614)" fill="#7c0f00"/>
        <path id="Trazado_10964" data-name="Trazado 10964" d="M98.358,153.513c-.241-4.657-.457-6.791-.457-6.791l.215-.018s-2.9-8.125-3.98-9.864c.946-4.51-3.13-17.43-4.607-20.328-1.775-3.489-4.178-6.036-9.293-6.766s-8.357,1.574-10.758,6.766-.894,16.2-.894,16.2a6.108,6.108,0,0,0,.77.033,8.408,8.408,0,0,0-2.8,4.347c-1.39,4.014-2.515,12.273-2.515,12.273H64.5c-.078.622-.157,1.282-.24,2.031-.951,8.67,1.478,23.561,1.621,24.429h-.007l.01.147c-.718,5.6-1.416,10.507-1.416,10.507s1.249.068,3.559.132c.023,1.449.052,2.97.093,4.579.258,10.459,3.97,31.135,3.97,31.135h-.01a1.56,1.56,0,0,1-.615,1.081c-1.351.739-2.492,2.1-2.2,2.616.354.612,6.115-1.675,6.115-1.675l-.321-2.023s.871-14.347,2.006-22.145c.679-4.655,1.32-9.776,2.044-13.487.71-.007,1.434-.015,2.187-.028.7-.01,1.364-.016,2-.021.786,3.613,1.493,8.411,2.121,12.037,1.515,8.737,4.776,23.644,4.776,23.644h-.01a1.56,1.56,0,0,1-.615,1.081c-1.351.739-2.494,2.1-2.2,2.616.356.612,5.765-1.538,5.765-1.538l-.24-2.16s2-20.382,1.555-29.827q-.135-2.882-.282-5.489c.94.095,1.364.17,1.364.17s-.183-2.781-.431-6.7a1.67,1.67,0,0,0,1.434-1.179c.674-1.636.765-6.049.765-6.049h0A122.517,122.517,0,0,0,98.358,153.513ZM74.193,126.057l-.01-.011,0-.007ZM75,127.115q-.352-.455-.737-.966C74.522,126.491,74.769,126.81,75,127.115Z" transform="translate(-64.037 -109.614)" fill="url(#linear-gradient)" style="mix-blend-mode: multiply;isolation: isolate"/>
      </g>
      <g id="Grupo_11465" data-name="Grupo 11465" transform="translate(127.21)">
        <path id="Trazado_10965" data-name="Trazado 10965" d="M156.172,131.018a22.822,22.822,0,0,0,5.158-8.73,23.747,23.747,0,0,0,.576-10.406l3.6-1.236a32.711,32.711,0,0,1,1.083,11.914,27.8,27.8,0,0,1-5.659,13.971Z" transform="translate(-128.384 -104.917)" fill="#ff7a2a"/>
        <path id="Trazado_10966" data-name="Trazado 10966" d="M160.594,114.1s-2.383-.212-2.342-1.236c.023-.571,1.429.065,1.8-.488s-.677-2.3-.858-2.879c-.491-1.574-.336-3.357,1.909-1.7a9.3,9.3,0,0,1,3.1,5.063Z" transform="translate(-127.072 -107.134)" fill="#ff7a2a"/>
        <path id="Trazado_10967" data-name="Trazado 10967" d="M140.99,132.779s-.652-.427-1.633,8.5,1.633,24.511,1.633,24.511h4.032l.721-27.457Z" transform="translate(-139.137 -90.949)" fill="#ff7a2a"/>
        <path id="Trazado_10968" data-name="Trazado 10968" d="M144.94,133.36s2.983,1,3.152-2.187c.1-1.959-3.652-3.974-4.078-8.371-.429-4.437,2.388-8.717,6.61-8.933s7.2,3.923,7.2,8.073c0,4.727-3.92,7.73-3.793,9.016.241,2.421,3.99,2.571,5.146,2.041s1.579,6.115,1.365,6.259-9.8,0-12.164-.215a32.113,32.113,0,0,1-4.365-.714Z" transform="translate(-136.086 -102.888)" fill="#ff7a2a"/>
        <path id="Trazado_10969" data-name="Trazado 10969" d="M142.811,148.654a163.015,163.015,0,0,0-.829,22.635c.259,10.461,3.447,31.053,3.447,31.053H148.4s1.7-13.856,2.838-21.654c1.235-8.469,1.512-19,3.228-19.2S157.6,172,158.766,178.7c1.515,8.737,4.776,23.643,4.776,23.643h2.7s2-20.38,1.555-29.827c-.675-14.464-1.644-24.108-1.644-24.108Z" transform="translate(-137.379 -81.081)" fill="#324a57"/>
        <path id="Trazado_10970" data-name="Trazado 10970" d="M145.172,181.472a1.562,1.562,0,0,1-.615,1.083c-1.349.737-2.493,2.1-2.2,2.615.354.613,6.115-1.675,6.115-1.675l-.321-2.023Z" transform="translate(-137.131 -60.211)" fill="#e12000"/>
        <path id="Trazado_10971" data-name="Trazado 10971" d="M156.277,181.472a1.562,1.562,0,0,1-.615,1.083c-1.351.737-2.494,2.1-2.2,2.615.356.613,5.765-1.538,5.765-1.538l-.24-2.16Z" transform="translate(-130.123 -60.211)" fill="#e12000"/>
        <path id="Trazado_10972" data-name="Trazado 10972" d="M158.133,125.643s-1.8-5.253-2.427-5.912-4.031.759-8.089.395-5.721-3.4-3.323-5.409,5.421,0,5.421,0-3.364-5.372,4.112-3.5c4.74,1.186,5.748,5.414,5.721,8.582A14.516,14.516,0,0,1,158.133,125.643Z" transform="translate(-136.582 -104.808)" fill="#7c0f00"/>
        <path id="Trazado_10973" data-name="Trazado 10973" d="M172.794,129.9l-5.713-7.021a16.966,16.966,0,0,1-12.613,6.861c-4.567-.028-6.478-2.07-6.478-2.07-3.135.351-5.67.928-7.06,4.944s-1.794,12.885-1.794,12.885h2.98s.269,4.1.38,11.4c.072,4.651.563,9.179.563,9.179s3.974,2.385,12.267,2.052c11.286-.453,14.552-2.541,14.552-2.541a227.355,227.355,0,0,1-3.153-29.556A71.646,71.646,0,0,0,172.794,129.9Z" transform="translate(-139.137 -97.196)" fill="#39dd00"/>
        <path id="Trazado_10974" data-name="Trazado 10974" d="M176.26,112.863a9.3,9.3,0,0,0-3.1-5.063c-2.245-1.661-2.4.122-1.909,1.7.181.579,1.225,2.328.858,2.879s-1.775-.083-1.8.488c-.041,1.024,2.342,1.236,2.342,1.236a23.747,23.747,0,0,1-.576,10.406,22.939,22.939,0,0,1-4.89,8.448l-.111-.137a16.173,16.173,0,0,1-4.856,4.43c-1.158.527-4.9.377-5.143-2.042-.111-1.116,2.827-3.528,3.6-7.239l0,0a14.516,14.516,0,0,0,1.414-5.848c.028-3.168-.98-7.4-5.721-8.582-7.476-1.868-4.112,3.5-4.112,3.5s-3.024-2.013-5.421,0c-1.922,1.613-1.232,3.879,1.205,4.9a9.114,9.114,0,0,0-.989,5.1c.426,4.4,4.182,6.412,4.078,8.371-.168,3.186-3.152,2.187-3.152,2.187-3.135.351-5.67.928-7.06,4.944s-1.794,12.885-1.794,12.885h.458c-.078.623-.157,1.284-.238,2.032-.982,8.931,1.633,24.511,1.633,24.511h2.975c-.219,3.879-.378,9.127-.225,15.363C144,207.8,147.187,228.4,147.187,228.4h-.01a1.562,1.562,0,0,1-.615,1.083c-1.349.737-2.493,2.1-2.2,2.615.354.613,6.115-1.675,6.115-1.675l-.321-2.023s1.7-13.856,2.838-21.654c1.235-8.469,1.512-19,3.228-19.2s3.135,10.518,4.3,17.216c1.515,8.737,4.776,23.643,4.776,23.643h-.01a1.562,1.562,0,0,1-.615,1.083c-1.351.737-2.494,2.1-2.2,2.615.356.613,5.765-1.538,5.765-1.538L168,228.4s2-20.38,1.555-29.827c-.5-10.784-1.17-18.881-1.476-22.307a8.951,8.951,0,0,0,1.8-.737,227.354,227.354,0,0,1-3.153-29.556,71.644,71.644,0,0,0,6.068-6.132l-1-1.223a28.123,28.123,0,0,0,5.546-13.836A32.711,32.711,0,0,0,176.26,112.863Z" transform="translate(-139.137 -107.134)" fill="url(#linear-gradient-2)" style="mix-blend-mode: multiply;isolation: isolate"/>
      </g>
      <g id="Grupo_11466" data-name="Grupo 11466" transform="translate(46.161 0.515)">
        <path id="Trazado_10975" data-name="Trazado 10975" d="M96.922,131.3s3.784-.816,3.938-3.5c.113-1.959-3.652-3.974-4.078-8.371-.429-4.437,2.388-8.717,6.61-8.933s7.2,3.923,7.2,8.073c0,4.727-3.92,7.73-3.791,9.016.241,2.421,3.735,2.135,4.885,2.678.98.463,1.84,5.478,1.625,5.621s-9.8,0-12.162-.214a32.264,32.264,0,0,1-4.365-.716Z" transform="translate(-84.85 -105.53)" fill="#ff7a2a"/>
        <path id="Trazado_10976" data-name="Trazado 10976" d="M97.129,144.639a98.468,98.468,0,0,0-2.094,23.535c.259,10.459,3.447,31.052,3.447,31.052h2.974s1.7-13.854,2.838-21.654c1.233-8.468,1.511-19,3.227-19.2s3.137,10.518,4.3,17.216c1.515,8.737,4.776,23.643,4.776,23.643h2.7s1.995-20.38,1.555-29.827a158.164,158.164,0,0,0-3-24.76Z" transform="translate(-85.946 -83.976)" fill="#575757"/>
        <path id="Trazado_10977" data-name="Trazado 10977" d="M96.849,133.276s-2.246,3.732-1.75,10.742c.39,5.51,7.3,16.266,7.3,16.266l-2.866,3.527s-7.435-10.257-8.944-16.054c-2.9-11.164.669-18.361.669-18.361Z" transform="translate(-89.45 -93.598)" fill="#ff7a2a"/>
        <path id="Trazado_10978" data-name="Trazado 10978" d="M96.87,161.209s2.615,2.044,14.086,2.044c9.259,0,12.957-2.533,12.957-2.533s-2.507-9.055-2.928-23.6l.881.776c2.072-1.78,5.23-5.509,5.517-5.394,0,0-6.184-11.467-19.5-10.569-10.658.719-17.624,12.014-17.624,12.014a77.517,77.517,0,0,0,6.473,4.285c.116.06.692-1.292.793-1.24A149.289,149.289,0,0,1,96.87,161.209Z" transform="translate(-88.943 -98.34)" fill="#c02fff"/>
        <path id="Trazado_10979" data-name="Trazado 10979" d="M98.235,178.1a1.562,1.562,0,0,1-.615,1.083c-1.351.737-2.492,2.1-2.2,2.615.356.613,6.117-1.675,6.117-1.675l-.321-2.023Z" transform="translate(-85.71 -62.853)" fill="#e12000"/>
        <path id="Trazado_10980" data-name="Trazado 10980" d="M109.34,178.1a1.567,1.567,0,0,1-.617,1.083c-1.349.737-2.493,2.1-2.2,2.615.354.613,5.765-1.538,5.765-1.538l-.24-2.16Z" transform="translate(-78.701 -62.853)" fill="#e12000"/>
        <path id="Trazado_10981" data-name="Trazado 10981" d="M110.9,122.274s-1.8-5.253-2.427-5.912-4.031.759-8.089.4-5.721-3.4-3.324-5.411,5.421,0,5.421,0-3.362-5.372,4.114-3.5c4.74,1.186,5.747,5.414,5.721,8.582A14.516,14.516,0,0,1,110.9,122.274Z" transform="translate(-85.347 -107.45)" fill="#d97e00"/>
        <path id="Trazado_10982" data-name="Trazado 10982" d="M110.44,133.665s2.709,2.892,3.1,9.908c.308,5.515-5.189,17.059-5.189,17.059l2.688,3.69s6.681-11.668,7.447-17.609c1.47-11.441-2.982-18.129-2.982-18.129Z" transform="translate(-77.517 -94.11)" fill="#ff7a2a"/>
        <path id="Trazado_10983" data-name="Trazado 10983" d="M130.423,160.053c1.47-11.44-2.982-18.128-2.982-18.129.235-.215.393-.334.449-.313,0,0-4.885-9.016-15.3-10.417a2.062,2.062,0,0,1-1.192-1.685c-.111-1.116,2.827-3.528,3.6-7.239l0,0a14.516,14.516,0,0,0,1.414-5.848c.026-3.168-.98-7.4-5.721-8.582-7.476-1.868-4.114,3.5-4.114,3.5s-3.023-2.013-5.421,0c-1.92,1.612-1.23,3.879,1.207,4.9a9.114,9.114,0,0,0-.989,5.1c.426,4.4,4.191,6.412,4.078,8.371a3.017,3.017,0,0,1-1.135,2.13c-8.329,2.734-13.564,11.2-13.564,11.2s.163.119.439.316c-.434.958-3.3,7.887-.612,18.235,1.31,5.034,7.081,13.418,8.58,15.544a107.435,107.435,0,0,0-.63,14.5c.259,10.459,3.447,31.052,3.447,31.052h-.01a1.562,1.562,0,0,1-.615,1.083c-1.351.737-2.492,2.1-2.2,2.615.356.613,6.117-1.675,6.117-1.675l-.321-2.023s1.7-13.854,2.838-21.654c1.233-8.468,1.511-19,3.227-19.2s3.137,10.518,4.3,17.216c1.515,8.737,4.776,23.643,4.776,23.643h-.01a1.567,1.567,0,0,1-.617,1.083c-1.349.737-2.493,2.1-2.2,2.615.354.613,5.765-1.538,5.765-1.538l-.24-2.16s1.995-20.38,1.555-29.827c-.277-5.915-.829-11.113-1.383-15.216l0,0S129.658,165.994,130.423,160.053Zm-2.985-18.126-.984.987C126.845,142.5,127.186,142.159,127.438,141.927Zm-5.065,5.078s2.709,2.892,3.1,9.908c.132,2.367-.806,5.841-1.918,9.04a123.982,123.982,0,0,1-2.067-19.725Zm-25.524.122h0c.134.077.264.148.385.214s.692-1.292.793-1.24a167.021,167.021,0,0,1-.227,19.79c-1.367-2.835-2.548-5.84-2.7-8.022C94.6,150.86,96.849,147.128,96.849,147.128Z" transform="translate(-89.45 -107.45)" fill="url(#linear-gradient-3)" style="mix-blend-mode: multiply;isolation: isolate"/>
      </g>
      <g id="Grupo_11467" data-name="Grupo 11467" transform="translate(81.592 5.792)">
        <path id="Trazado_10984" data-name="Trazado 10984" d="M124.142,134.367s4.339.543,5.293-2.5c.587-1.871-2.553-4.755-1.874-9.122.685-4.4,4.476-7.851,8.619-7.013s6,5.587,4.972,9.606c-1.173,4.58-5.716,6.517-5.91,7.794-.367,2.4,3.323,3.6,4.574,3.373s-.082,6.2-.326,6.282-9.5-2.432-11.73-3.225a32.343,32.343,0,0,1-4.05-1.776Z" transform="translate(-103.256 -107.581)" fill="#ff7a2a"/>
        <path id="Trazado_10985" data-name="Trazado 10985" d="M122.366,149.685a67.7,67.7,0,0,0-3.5,23.644c.259,10.461,5.067,27.021,5.067,27.021H126.9s.63-11.921,1.767-19.721c1.233-8.468,2.37-17.01,4.086-17.214s5.042,9.864,6.2,16.56c1.515,8.737,3.083,20.376,3.083,20.376h2.7s3.543-16.485,3.1-25.931a84.214,84.214,0,0,0-4.755-24.734Z" transform="translate(-106.328 -86.068)" fill="#7c0f00"/>
        <path id="Trazado_10986" data-name="Trazado 10986" d="M123.1,180.745a1.567,1.567,0,0,1-.617,1.083c-1.349.737-2.493,2.1-2.2,2.615.354.613,6.115-1.675,6.115-1.675l-.321-2.023Z" transform="translate(-105.449 -66.462)" fill="#e12000"/>
        <path id="Trazado_10987" data-name="Trazado 10987" d="M135.861,180.744a1.56,1.56,0,0,0,.615,1.081c1.351.737,2.493,2.1,2.2,2.615-.356.613-5.765-1.538-5.765-1.538l.24-2.158Z" transform="translate(-97.45 -66.463)" fill="#e12000"/>
        <path id="Trazado_10988" data-name="Trazado 10988" d="M138.8,128.879s-.442-5.535-.884-6.329-4.094-.266-7.936-1.625-4.7-4.709-1.878-6.065,5.251,1.346,5.251,1.346-1.925-6.039,4.854-2.373c4.3,2.323,4.225,6.67,3.412,9.73A14.521,14.521,0,0,1,138.8,128.879Z" transform="translate(-101.532 -109.444)" fill="#7c0f00"/>
        <path id="Trazado_10989" data-name="Trazado 10989" d="M130.117,136.049s-5.434-5.155-8.128-8.487c-2.889-3.571-6.513-13.851-6.513-13.851l-4.3.488a42.933,42.933,0,0,0,5.274,17.1,31.827,31.827,0,0,0,8.6,9.5Z" transform="translate(-111.169 -108.775)" fill="#ff7a2a"/>
        <path id="Trazado_10990" data-name="Trazado 10990" d="M111.174,116.118s-.122-3.347,1.158-4.377,3.351-1.594,4.036-.33a3.162,3.162,0,0,1,.235,3,6.227,6.227,0,0,1-1.129,1.219Z" transform="translate(-111.171 -110.685)" fill="#ff7a2a"/>
        <path id="Trazado_10991" data-name="Trazado 10991" d="M134.009,134.628a48.929,48.929,0,0,0,6.755-6.143c3.452-3.837,9.079-12.6,9.079-12.6l4.052.674s-3.685,10.794-8.856,17-6.386,6.009-6.386,6.009Z" transform="translate(-96.755 -107.405)" fill="#ff7a2a"/>
        <path id="Trazado_10992" data-name="Trazado 10992" d="M148.1,118.541s.949-3.478-.038-4.6-2.858-1.788-3.837-.5a3.829,3.829,0,0,0-.972,3.112,4.835,4.835,0,0,0,.794,1.313Z" transform="translate(-90.963 -109.39)" fill="#ff7a2a"/>
        <path id="Trazado_10993" data-name="Trazado 10993" d="M120.2,165.238s2.416,2.277,13.836,3.341c9.22.858,13.135-1.321,13.135-1.321a227.436,227.436,0,0,1-.4-29.719,52.616,52.616,0,0,1,5.1-5.239l-6.809-5.31s-2.39,3.357-10.6,2.365c-8.026-.971-10.534-3.628-10.534-3.628l-6.556,5.086s1.207,1.362,5.161,5.1C121.852,150.367,120.2,165.238,120.2,165.238Z" transform="translate(-107.259 -101.191)" fill="#25b5ff"/>
        <path id="Trazado_10994" data-name="Trazado 10994" d="M168.273,115.236c-.987-1.122-2.858-1.788-3.837-.5a3.829,3.829,0,0,0-.972,3.112,4.836,4.836,0,0,0,.794,1.313s-5.628,8.766-9.079,12.6a48.9,48.9,0,0,1-5.564,5.22l-.643-.5s-1.117,1.563-4.437,2.24a2.531,2.531,0,0,1-1.378-2.489c.168-1.109,3.613-2.718,5.285-6.12l0,.007a14.521,14.521,0,0,0,2.82-5.316c.812-3.06.884-7.407-3.414-9.73-6.778-3.665-4.853,2.373-4.853,2.373s-2.431-2.7-5.251-1.346c-2.261,1.086-2.155,3.452-.049,5.049a9.126,9.126,0,0,0-2.222,4.7c-.679,4.367,2.462,7.251,1.874,9.122-.931,2.974-5.081,2.527-5.274,2.506a11.291,11.291,0,0,1-4.24-2.253l-.29.225c-1.778-1.773-4.078-4.147-5.556-5.975-2.881-3.561-6.492-13.79-6.512-13.846a6.176,6.176,0,0,0,1.124-1.214,3.162,3.162,0,0,0-.235-3c-.685-1.264-2.755-.7-4.036.33s-1.158,4.377-1.158,4.377h0a42.9,42.9,0,0,0,5.272,17.09,32.5,32.5,0,0,0,5.315,6.724l-.484.375s1.207,1.362,5.161,5.1c-.679,14.453-2.329,29.324-2.329,29.324a7.992,7.992,0,0,0,2.537,1.235,70.4,70.4,0,0,0-2.943,21.979c.259,10.461,5.067,27.021,5.067,27.021h.044a1.567,1.567,0,0,1-.617,1.083c-1.351.737-2.492,2.1-2.2,2.615.354.613,6.115-1.675,6.115-1.675l-.321-2.023h-.052s.63-11.921,1.767-19.721c1.233-8.468,2.37-17.01,4.086-17.214s5.042,9.864,6.2,16.56c1.514,8.725,3.078,20.343,3.081,20.374h-.016l-.24,2.158s5.409,2.152,5.765,1.538c.3-.511-.847-1.878-2.2-2.615a1.551,1.551,0,0,1-.615-1.08h.008s3.543-16.485,3.1-25.931a89.286,89.286,0,0,0-3.678-21.547,10.277,10.277,0,0,0,2.072-.737,227.435,227.435,0,0,1-.4-29.719,52.616,52.616,0,0,1,5.1-5.239l-.528-.413a46.57,46.57,0,0,0,4.2-4.545c5.171-6.207,8.856-17,8.856-17S169.26,116.358,168.273,115.236Z" transform="translate(-111.171 -110.685)" fill="url(#linear-gradient-4)" style="mix-blend-mode: multiply;isolation: isolate"/>
      </g>
      <g id="Grupo_11468" data-name="Grupo 11468" transform="translate(32.212 13.545)">
        <path id="Trazado_10995" data-name="Trazado 10995" d="M94.032,141.636s3.745.263,3.915-2.923c.1-1.959-3.652-3.974-4.078-8.371-.429-4.437,2.388-8.717,6.61-8.931s7.2,3.921,7.2,8.071c0,4.727-3.921,7.732-3.793,9.016.241,2.421,3.695,2.546,4.851,2.016s1.874,6.142,1.659,6.283-9.8,0-12.162-.214a32.256,32.256,0,0,1-4.365-.716Z" transform="translate(-72.74 -111.673)" fill="#ff7a2a"/>
        <path id="Trazado_10996" data-name="Trazado 10996" d="M106.3,138.558a22.837,22.837,0,0,0,5.16-8.73,23.732,23.732,0,0,0,.574-10.406l3.6-1.236A32.711,32.711,0,0,1,116.72,130.1a27.8,27.8,0,0,1-5.659,13.971Z" transform="translate(-64.865 -113.703)" fill="#ff7a2a"/>
        <path id="Trazado_10997" data-name="Trazado 10997" d="M93.958,139.182a25.3,25.3,0,0,1-6.664-8.057,19.056,19.056,0,0,1-1.659-9.621l-4.063-.827a23.5,23.5,0,0,0,9.158,24.715Z" transform="translate(-80.899 -112.131)" fill="#ff7a2a"/>
        <path id="Trazado_10998" data-name="Trazado 10998" d="M94.216,155.548a98.482,98.482,0,0,0-2.094,23.535c.259,10.459,3.447,31.053,3.447,31.053h2.974s1.7-13.856,2.838-21.656c1.233-8.468,1.915-19.217,3.227-19.2s3.137,10.518,4.3,17.216c1.515,8.737,4.775,23.644,4.775,23.644h2.7s1.995-20.382,1.555-29.828a158.162,158.162,0,0,0-3-24.76Z" transform="translate(-73.836 -90.12)" fill="#4a231e"/>
        <path id="Trazado_10999" data-name="Trazado 10999" d="M94.546,173.616s2.615,2.044,14.086,2.044c9.259,0,12.957-2.533,12.957-2.533a227.348,227.348,0,0,1-3.153-29.554,71.523,71.523,0,0,0,6.068-6.133l-5.712-7.021a17.646,17.646,0,0,1-13.376,6.146c-10.678.307-14.958-3.918-14.958-3.918l-4.049,7.6s2.1,1.944,8.6,4.726A261.207,261.207,0,0,1,94.546,173.616Z" transform="translate(-77.422 -105.982)" fill="#ffc225"/>
        <path id="Trazado_11000" data-name="Trazado 11000" d="M95.323,189.013a1.56,1.56,0,0,1-.615,1.081c-1.351.737-2.494,2.1-2.2,2.615.356.613,6.117-1.675,6.117-1.675l-.321-2.021Z" transform="translate(-73.6 -68.996)" fill="#e12000"/>
        <path id="Trazado_11001" data-name="Trazado 11001" d="M106.427,189.013a1.564,1.564,0,0,1-.617,1.081c-1.349.737-2.493,2.1-2.2,2.615.354.613,5.765-1.538,5.765-1.538l-.24-2.158Z" transform="translate(-66.591 -68.996)" fill="#e12000"/>
        <path id="Trazado_11002" data-name="Trazado 11002" d="M107.988,133.183s-1.8-5.253-2.427-5.912-4.031.759-8.089.4-5.721-3.4-3.324-5.411,5.421,0,5.421,0-3.362-5.372,4.114-3.5c4.739,1.184,5.747,5.412,5.721,8.58A14.516,14.516,0,0,1,107.988,133.183Z" transform="translate(-73.237 -113.594)" fill="#450800"/>
        <path id="Trazado_11003" data-name="Trazado 11003" d="M81.311,122.356s.773-3.258,2.236-3.866,3.538-.532,3.84.889a3.23,3.23,0,0,1-.576,2.956,5.816,5.816,0,0,1-1.373.837Z" transform="translate(-80.639 -113.74)" fill="#ff7a2a"/>
        <path id="Trazado_11004" data-name="Trazado 11004" d="M114.26,119.952s-.695-3.685-2.08-4.249-3.362-.281-3.669,1.388a4.109,4.109,0,0,0,.511,3.357,4.065,4.065,0,0,0,1.688.71Z" transform="translate(-63.541 -115.438)" fill="#ff7a2a"/>
        <path id="Trazado_11005" data-name="Trazado 11005" d="M131.671,119.921l-.054.02c-.024-.126-.716-3.683-2.078-4.238-1.387-.564-3.362-.281-3.669,1.388a4.1,4.1,0,0,0,.512,3.357,4.052,4.052,0,0,0,1.687.71,23.718,23.718,0,0,1-.576,10.406,22.934,22.934,0,0,1-5.009,8.577l-.215-.266a16.246,16.246,0,0,1-6.324,4.631c-1.484.153-3.708-.316-3.9-2.243-.111-1.116,2.827-3.528,3.6-7.239l0,0a14.516,14.516,0,0,0,1.414-5.848c.026-3.168-.982-7.4-5.721-8.58-7.476-1.869-4.114,3.5-4.114,3.5s-3.023-2.011-5.421,0c-1.92,1.613-1.23,3.879,1.207,4.9a9.114,9.114,0,0,0-.989,5.1c.426,4.4,4.182,6.412,4.078,8.371-.168,3.186-3.915,2.923-3.915,2.923l-.007.158c-5.8-1.047-8.251-3.457-8.251-3.457l-.139.259a25.165,25.165,0,0,1-6.5-7.929,19.045,19.045,0,0,1-1.664-9.577l.067.015a5.816,5.816,0,0,0,1.373-.837,3.23,3.23,0,0,0,.576-2.956c-.3-1.421-2.377-1.5-3.84-.889-1.347.56-2.106,3.355-2.22,3.8l-.015,0a24.268,24.268,0,0,0,0,11.172A24.673,24.673,0,0,0,90.5,148.544l-.618,1.16s2.1,1.944,8.6,4.726a261.207,261.207,0,0,1-.465,28.642,7.981,7.981,0,0,0,2.618.99,105.16,105.16,0,0,0-1.457,20.34c.259,10.459,3.447,31.053,3.447,31.053h-.01a1.56,1.56,0,0,1-.615,1.082c-1.351.737-2.494,2.1-2.2,2.615.356.613,6.117-1.675,6.117-1.675l-.321-2.021s1.7-13.856,2.838-21.656c1.233-8.468,1.915-19.217,3.227-19.2s3.137,10.518,4.3,17.216c1.515,8.737,4.775,23.644,4.775,23.644h-.008a1.564,1.564,0,0,1-.617,1.082c-1.349.737-2.493,2.1-2.2,2.615.354.613,5.765-1.538,5.765-1.538l-.24-2.158s1.995-20.382,1.555-29.828a169.5,169.5,0,0,0-2.44-21.941,11.256,11.256,0,0,0,2.5-1.1,227.347,227.347,0,0,1-3.153-29.554,71.523,71.523,0,0,0,6.068-6.133l-.886-1.088a27.8,27.8,0,0,0,5.659-13.971A32.711,32.711,0,0,0,131.671,119.921Z" transform="translate(-80.899 -115.438)" fill="url(#linear-gradient-5)" style="mix-blend-mode: multiply;isolation: isolate"/>
      </g>
      <g id="Grupo_11469" data-name="Grupo 11469" transform="translate(75.939 38.81)">
        <path id="Trazado_11006" data-name="Trazado 11006" d="M109.559,152.886s-.652-.427-1.633,8.5,1.633,24.511,1.633,24.511h4.032l.721-27.457Z" transform="translate(-107.706 -117.067)" fill="#ff7a2a"/>
        <path id="Trazado_11007" data-name="Trazado 11007" d="M113.3,174.525a4.8,4.8,0,0,0-.416-1.369l-4.052-.083s.24,4.408.969,6.019a1.541,1.541,0,0,0,3.006-.106,22.694,22.694,0,0,0,.135-2.662A3.548,3.548,0,0,0,113.3,174.525Z" transform="translate(-106.996 -104.323)" fill="#ff7a2a"/>
        <path id="Trazado_11008" data-name="Trazado 11008" d="M113.509,153.467s2.983,1,3.152-2.187c.1-1.959-3.652-3.974-4.078-8.371-.429-4.437,2.388-8.717,6.61-8.933s7.2,3.923,7.2,8.073c0,4.727-3.92,7.732-3.793,9.016.241,2.421,3.925,1.589,5.12,1.665s1.605,6.491,1.391,6.634-9.8,0-12.164-.214a32.255,32.255,0,0,1-4.365-.716Z" transform="translate(-104.655 -129.006)" fill="#ff7a2a"/>
        <path id="Trazado_11009" data-name="Trazado 11009" d="M110.265,169.6s-.339,8.063,0,21.711c.258,10.459,3.97,31.133,3.97,31.133h2.974s.871-14.345,2.006-22.145c1.235-8.468,2.344-18.509,4.06-18.713s3.135,10.518,4.3,17.216c1.515,8.737,4.776,23.643,4.776,23.643h2.7s2-20.38,1.555-29.827c-.675-14.464-1.644-24.108-1.644-24.108Z" transform="translate(-106.185 -107.2)" fill="#7c0f00"/>
        <path id="Trazado_11010" data-name="Trazado 11010" d="M113.741,201.579a1.562,1.562,0,0,1-.615,1.083c-1.349.737-2.493,2.1-2.2,2.615.354.613,6.115-1.675,6.115-1.675l-.321-2.023Z" transform="translate(-105.7 -86.329)" fill="#e12000"/>
        <path id="Trazado_11011" data-name="Trazado 11011" d="M124.846,201.579a1.562,1.562,0,0,1-.615,1.083c-1.351.737-2.494,2.1-2.2,2.615.356.613,5.765-1.538,5.765-1.538l-.24-2.16Z" transform="translate(-98.692 -86.329)" fill="#e12000"/>
        <path id="Trazado_11012" data-name="Trazado 11012" d="M130.5,155.235s.215,2.132.457,6.791a123.372,123.372,0,0,1-1.065,19.814l-4.029.137-.626-26.489Z" transform="translate(-96.639 -115.582)" fill="#ff7a2a"/>
        <path id="Trazado_11013" data-name="Trazado 11013" d="M125.4,173.1a4.691,4.691,0,0,1,.37-1.382l4.045-.22s-.091,4.412-.765,6.047a1.541,1.541,0,0,1-3.008,0,22.526,22.526,0,0,1-.225-2.657A3.535,3.535,0,0,1,125.4,173.1Z" transform="translate(-96.546 -105.319)" fill="#ff7a2a"/>
        <path id="Trazado_11014" data-name="Trazado 11014" d="M126.7,145.75s-1.8-5.253-2.427-5.912-4.031.759-8.089.395-5.721-3.4-3.324-5.409,5.422,0,5.422,0-3.364-5.372,4.112-3.5c4.74,1.186,5.748,5.414,5.721,8.582A14.516,14.516,0,0,1,126.7,145.75Z" transform="translate(-105.151 -130.926)" fill="#7c0f00"/>
        <path id="Trazado_11015" data-name="Trazado 11015" d="M116.56,146.207c-3.135.351-5.67.93-7.06,4.944s-1.794,12.885-1.794,12.885h2.98s.269,4.1.38,11.4c.072,4.651.563,9.179.563,9.179s3.052,2.207,13.593,2.044,12.735-2.114,12.735-2.114-.582-10.694-.532-14.338c.067-4.7.5-8.489.5-8.489l3.863-.338s-2.01-9.4-3.086-11.138c-2.124-3.432-4.977-4.771-7.926-4.771,0,0-2.271,1.755-7.3,1.881A15.39,15.39,0,0,1,116.56,146.207Z" transform="translate(-107.706 -121.746)" fill="#e12000"/>
      </g>
      <g id="Grupo_11470" data-name="Grupo 11470" transform="translate(18.77 29.02)">
        <path id="Trazado_11016" data-name="Trazado 11016" d="M74.514,146.885s-.652-.429-1.634,8.5S74.514,179.9,74.514,179.9h4.032l.719-27.458Z" transform="translate(-72.659 -111.065)" fill="#ff7a2a"/>
        <path id="Trazado_11017" data-name="Trazado 11017" d="M78.252,168.524a4.769,4.769,0,0,0-.416-1.369l-4.052-.083s.24,4.406.969,6.018a1.541,1.541,0,0,0,3.006-.106,22.7,22.7,0,0,0,.135-2.662A3.539,3.539,0,0,0,78.252,168.524Z" transform="translate(-71.949 -98.321)" fill="#ff7a2a"/>
        <path id="Trazado_11018" data-name="Trazado 11018" d="M78.463,147.465s2.984,1,3.152-2.187c.1-1.959-3.652-3.972-4.078-8.371-.429-4.437,2.388-8.717,6.61-8.931s7.2,3.923,7.2,8.073c0,4.726-3.92,7.73-3.793,9.014.241,2.422,3.923,1.59,5.12,1.667s1.605,6.491,1.391,6.633-9.8,0-12.164-.214a32.258,32.258,0,0,1-4.365-.716Z" transform="translate(-69.607 -123.005)" fill="#ff7a2a"/>
        <path id="Trazado_11019" data-name="Trazado 11019" d="M75.218,163.6s-.338,8.063,0,21.71c.259,10.459,3.972,31.135,3.972,31.135h2.974S83.035,202.1,84.17,194.3c1.235-8.468,2.342-18.508,4.058-18.713s3.137,10.518,4.3,17.216c1.515,8.737,4.776,23.644,4.776,23.644h2.7s1.995-20.382,1.555-29.828c-.675-14.464-1.644-24.106-1.644-24.106Z" transform="translate(-71.138 -101.198)" fill="#324a57"/>
        <path id="Trazado_11020" data-name="Trazado 11020" d="M78.7,195.578a1.56,1.56,0,0,1-.615,1.081c-1.351.737-2.493,2.1-2.2,2.615C76.239,199.888,82,197.6,82,197.6l-.321-2.023Z" transform="translate(-70.653 -80.328)" fill="#e12000"/>
        <path id="Trazado_11021" data-name="Trazado 11021" d="M89.8,195.578a1.56,1.56,0,0,1-.615,1.081c-1.351.737-2.494,2.1-2.2,2.615.356.613,5.765-1.537,5.765-1.537l-.24-2.16Z" transform="translate(-63.645 -80.328)" fill="#e12000"/>
        <path id="Trazado_11022" data-name="Trazado 11022" d="M95.456,149.233s.215,2.134.457,6.791a123.387,123.387,0,0,1-1.065,19.816l-4.029.135-.626-26.489Z" transform="translate(-61.592 -109.581)" fill="#ff7a2a"/>
        <path id="Trazado_11023" data-name="Trazado 11023" d="M90.355,167.094a4.756,4.756,0,0,1,.37-1.382l4.045-.22s-.091,4.412-.765,6.049a1.541,1.541,0,0,1-3.008,0,22.486,22.486,0,0,1-.225-2.657A3.531,3.531,0,0,1,90.355,167.094Z" transform="translate(-61.499 -99.318)" fill="#ff7a2a"/>
        <path id="Trazado_11024" data-name="Trazado 11024" d="M91.656,139.75s-1.8-5.253-2.427-5.913-4.031.759-8.089.4-5.721-3.4-3.324-5.411,5.421,0,5.421,0-3.362-5.372,4.114-3.5c4.74,1.184,5.748,5.414,5.721,8.58A14.529,14.529,0,0,1,91.656,139.75Z" transform="translate(-70.104 -124.925)" fill="#7c0f00"/>
        <path id="Trazado_11025" data-name="Trazado 11025" d="M81.515,140.2c-3.135.351-5.67.93-7.06,4.944s-1.8,12.887-1.8,12.887h2.98s.271,4.094.382,11.4c.072,4.651.563,9.18.563,9.18s3.052,2.205,13.593,2.042,12.735-2.114,12.735-2.114-.582-10.693-.532-14.338c.067-4.7.5-8.489.5-8.489l3.863-.338s-2.01-9.4-3.086-11.136c-2.125-3.434-4.977-4.771-7.926-4.771,0,0-2.271,1.754-7.3,1.879A15.362,15.362,0,0,1,81.515,140.2Z" transform="translate(-72.659 -115.744)" fill="#f09400"/>
        <circle id="Elipse_744" data-name="Elipse 744" cx="1.177" cy="1.177" r="1.177" transform="translate(13.995 31.581)" fill="#915a00"/>
        <circle id="Elipse_745" data-name="Elipse 745" cx="1.177" cy="1.177" r="1.177" transform="translate(13.995 41.852)" fill="#915a00"/>
        <circle id="Elipse_746" data-name="Elipse 746" cx="1.177" cy="1.177" r="1.177" transform="translate(13.995 52.325)" fill="#915a00"/>
        <path id="Trazado_11026" data-name="Trazado 11026" d="M79.258,140.205l-2.248-.736-.775,1.321,5.552,3.861,2.875-3.315Z" transform="translate(-70.402 -115.745)" fill="#915a00"/>
        <path id="Trazado_11027" data-name="Trazado 11027" d="M88.915,139.686l1.445-.562,1.717,1.138-6.258,4.606-2.367-3.427Z" transform="translate(-65.847 -115.962)" fill="#915a00"/>
      </g>
      <g id="Grupo_11471" data-name="Grupo 11471" transform="translate(133.387 112.237)">
        <path id="Trazado_11028" data-name="Trazado 11028" d="M220.185,183.749c0,3.249,9.737,5.884,21.747,5.884s21.746-2.634,21.746-5.884-9.737-5.884-21.746-5.884S220.185,180.5,220.185,183.749Z" transform="translate(-94.155 -174.725)" fill="#dbdbdb"/>
        <path id="Trazado_11029" data-name="Trazado 11029" d="M192.57,181.824c0,3.249,9.737,5.884,21.746,5.884s21.747-2.634,21.747-5.884-9.737-5.884-21.747-5.884S192.57,178.574,192.57,181.824Z" transform="translate(-111.586 -175.94)" fill="#dbdbdb"/>
        <ellipse id="Elipse_747" data-name="Elipse 747" cx="21.746" cy="5.884" rx="21.746" ry="5.884" transform="translate(80.014 23.452)" fill="#dbdbdb"/>
        <ellipse id="Elipse_748" data-name="Elipse 748" cx="21.746" cy="5.884" rx="21.746" ry="5.884" transform="translate(54.775 39.709)" fill="#dbdbdb"/>
        <path id="Trazado_11030" data-name="Trazado 11030" d="M151.512,202.267c0,3.249,9.735,5.884,21.746,5.884S195,205.516,195,202.267s-9.735-5.884-21.746-5.884S151.512,199.017,151.512,202.267Z" transform="translate(-137.503 -163.036)" fill="#dbdbdb"/>
        <ellipse id="Elipse_749" data-name="Elipse 749" cx="21.746" cy="5.884" rx="21.746" ry="5.884" transform="translate(0 9.146)" fill="#dbdbdb"/>
        <ellipse id="Elipse_750" data-name="Elipse 750" cx="21.746" cy="5.884" rx="21.746" ry="5.884" transform="translate(37.773 4.102)" fill="#dbdbdb"/>
        <path id="Trazado_11031" data-name="Trazado 11031" d="M210.617,202.267c0,3.249,9.737,5.884,21.747,5.884s21.746-2.634,21.746-5.884-9.737-5.884-21.746-5.884S210.617,199.017,210.617,202.267Z" transform="translate(-100.195 -163.036)" fill="#dbdbdb"/>
      </g>
      <g id="Grupo_11472" data-name="Grupo 11472" transform="translate(174.297 3.53)">
        <path id="Trazado_11032" data-name="Trazado 11032" d="M189.8,129.7s.654-.429,1.634,8.5-1.634,24.512-1.634,24.512h-4.031l-.721-27.458Z" transform="translate(-157.246 -96.422)" fill="#ff7a2a"/>
        <path id="Trazado_11033" data-name="Trazado 11033" d="M235.361,129.447s.654-.429,1.634,8.5-1.634,24.512-1.634,24.512H231.33L230.609,135Z" transform="translate(-128.486 -96.581)" fill="#ff7a2a"/>
        <path id="Trazado_11034" data-name="Trazado 11034" d="M185.242,151.338a4.7,4.7,0,0,1,.416-1.369l4.05-.083s-.24,4.406-.969,6.018a1.54,1.54,0,0,1-3-.106,22.7,22.7,0,0,1-.135-2.662A3.5,3.5,0,0,1,185.242,151.338Z" transform="translate(-157.137 -83.678)" fill="#ff7a2a"/>
        <path id="Trazado_11035" data-name="Trazado 11035" d="M189.727,130.279s-2.983,1-3.153-2.187c-.1-1.959,3.652-3.972,4.078-8.371.431-4.437-2.388-8.717-6.61-8.931s-7.2,3.921-7.2,8.073c0,4.726,3.92,7.73,3.793,9.014-.241,2.422-3.925,1.59-5.122,1.667s-1.605,6.491-1.39,6.634,9.8,0,12.164-.215a32.267,32.267,0,0,0,4.364-.716Z" transform="translate(-164.174 -108.362)" fill="#ff7a2a"/>
        <path id="Trazado_11036" data-name="Trazado 11036" d="M196.813,146.418s.338,8.063,0,21.71c-.259,10.461-3.972,31.135-3.972,31.135h-2.974s-.869-14.347-2.006-22.145c-1.233-8.469-2.342-18.509-4.058-18.715s-3.137,10.518-4.3,17.216c-1.514,8.737-4.775,23.644-4.775,23.644h-2.7s-2-20.382-1.553-29.828c.675-14.464,1.644-24.106,1.644-24.106Z" transform="translate(-166.486 -86.555)" fill="#402b28"/>
        <path id="Trazado_11037" data-name="Trazado 11037" d="M185.445,178.392a1.565,1.565,0,0,0,.615,1.083c1.351.736,2.494,2.1,2.2,2.615-.356.612-6.117-1.675-6.117-1.675l.321-2.023Z" transform="translate(-159.08 -65.685)" fill="#e12000"/>
        <path id="Trazado_11038" data-name="Trazado 11038" d="M174.206,178.392a1.565,1.565,0,0,0,.615,1.083c1.351.736,2.493,2.1,2.2,2.615-.354.612-5.763-1.538-5.763-1.538l.238-2.16Z" transform="translate(-165.952 -65.685)" fill="#e12000"/>
        <path id="Trazado_11039" data-name="Trazado 11039" d="M168.548,132.047s-.217,2.134-.457,6.791a123.384,123.384,0,0,0,1.065,19.816l4.029.135.626-26.489Z" transform="translate(-168.003 -94.938)" fill="#ff7a2a"/>
        <path id="Trazado_11040" data-name="Trazado 11040" d="M173.115,149.908a4.729,4.729,0,0,0-.369-1.382l-4.047-.22s.093,4.412.767,6.049a1.541,1.541,0,0,0,3.008,0,22.844,22.844,0,0,0,.225-2.657A3.531,3.531,0,0,0,173.115,149.908Z" transform="translate(-167.564 -84.676)" fill="#ff7a2a"/>
        <path id="Trazado_11041" data-name="Trazado 11041" d="M193.429,123.019c3.135.351,4.949,1.542,6.339,5.558s2.515,12.273,2.515,12.273l-5.093-1.9s.268,6.314,1.163,13.51c.574,4.616,3.5,25.5,3.5,25.5s-6.293.349-16.834.186-14.242.514-14.242.514,2.7-25.639,2.647-29.285c-.067-4.7.258-10.914.258-10.914l-5.481-.272s2.905-8.125,3.98-9.862c2.125-3.432,4.083-6.045,7.032-6.045,0,0,2.272,1.754,7.3,1.881A15.382,15.382,0,0,0,193.429,123.019Z" transform="translate(-167.877 -101.102)" fill="#dd2fff"/>
        <path id="Trazado_11042" data-name="Trazado 11042" d="M197.134,129.318s.016-7.931-2.385-13.121-5.642-7.5-10.758-6.766-7.518,3.279-9.295,6.766-5.081,11.219-1.74,13.722c3.2,2.4,12.089,5.347,9.052-2.192s-2.926-12.094,1.984-11.529,8.313,6.517,6.052,9.533c-2.794,3.727-4.536,5.212-.333,6.058S197.134,129.318,197.134,129.318Z" transform="translate(-165.782 -109.298)" fill="#450800"/>
        <path id="Trazado_11043" data-name="Trazado 11043" d="M202.19,151.077c-.09-.822-.176-1.54-.261-2.21l.481.179s-1.127-8.259-2.515-12.273c-1.081-3.122-2.427-4.527-4.442-5.166a9.915,9.915,0,0,0,3.9-2.289s.016-7.931-2.385-13.121-5.642-7.5-10.758-6.766-7.518,3.279-9.295,6.766-5.081,11.219-1.741,13.722a12.962,12.962,0,0,0,1.913,1.147c-1.794.949-3.246,2.983-4.779,5.46-1.075,1.737-3.979,9.862-3.979,9.862l5.479.272-5.264-.253s-.215,2.134-.457,6.791a122.517,122.517,0,0,0,1.054,19.731h-.007s.093,4.412.767,6.049a1.627,1.627,0,0,0,1.69,1.189c-.391,3.884-.688,6.693-.688,6.693s.424-.075,1.364-.17q-.144,2.608-.281,5.487c-.442,9.446,1.553,29.828,1.553,29.828l-.24,2.16s5.411,2.15,5.765,1.538c.3-.512-.847-1.879-2.2-2.615a1.565,1.565,0,0,1-.615-1.083h-.01s3.261-14.908,4.776-23.644c.628-3.626,1.333-8.424,2.121-12.037.639,0,1.3.011,2,.021.752.013,1.478.021,2.187.028.723,3.709,1.364,8.831,2.042,13.487,1.137,7.8,2.006,22.145,2.006,22.145l-.321,2.023s5.761,2.287,6.117,1.675c.3-.512-.847-1.879-2.2-2.615a1.565,1.565,0,0,1-.615-1.083h-.01s3.713-20.674,3.972-31.135c.039-1.608.07-3.13.093-4.58,2.308-.062,3.559-.13,3.559-.13s-.67-4.779-1.432-10.27c.018-.238.026-.383.026-.383h-.006C200.714,174.636,203.142,159.745,202.19,151.077Zm-9.926-25.347-.01.011.013-.018Zm-.816,1.07c.23-.305.478-.625.737-.966C191.928,126.175,191.683,126.494,191.448,126.8Zm-17.917,31.732.021-.958C173.555,157.807,173.547,158.132,173.531,158.531Z" transform="translate(-168.003 -109.298)" fill="url(#linear-gradient-6)" style="mix-blend-mode: multiply;isolation: isolate"/>
      </g>
      <g id="Grupo_11473" data-name="Grupo 11473" transform="translate(264.544 2.773)">
        <path id="Trazado_11044" data-name="Trazado 11044" d="M245.217,130.794s.654-.427,1.634,8.5-1.634,24.511-1.634,24.511h-4.031l-.721-27.457Z" transform="translate(-212.511 -94.975)" fill="#ff7a2a"/>
        <path id="Trazado_11045" data-name="Trazado 11045" d="M240.661,152.433a4.73,4.73,0,0,1,.416-1.369l4.052-.083s-.241,4.408-.969,6.019a1.541,1.541,0,0,1-3.006-.106,22.7,22.7,0,0,1-.135-2.662A3.548,3.548,0,0,1,240.661,152.433Z" transform="translate(-212.402 -82.231)" fill="#ff7a2a"/>
        <path id="Trazado_11046" data-name="Trazado 11046" d="M245.146,131.375s-2.984,1-3.153-2.187c-.1-1.959,3.654-3.974,4.08-8.373.429-4.435-2.39-8.716-6.61-8.931s-7.2,3.923-7.2,8.073c0,4.727,3.92,7.73,3.793,9.016-.241,2.421-3.925,1.589-5.122,1.665s-1.6,6.491-1.39,6.634,9.8,0,12.164-.215a32.172,32.172,0,0,0,4.365-.714Z" transform="translate(-219.439 -106.914)" fill="#ff7a2a"/>
        <path id="Trazado_11047" data-name="Trazado 11047" d="M252.232,147.513s.338,8.063,0,21.71c-.259,10.461-3.972,31.135-3.972,31.135h-2.974s-.869-14.345-2.006-22.145c-1.233-8.468-2.342-18.509-4.058-18.713s-3.135,10.518-4.3,17.216c-1.515,8.737-4.776,23.643-4.776,23.643h-2.7s-2-20.38-1.555-29.827c.675-14.464,1.644-24.108,1.644-24.108Z" transform="translate(-221.751 -85.108)" fill="#7c0f00"/>
        <path id="Trazado_11048" data-name="Trazado 11048" d="M240.863,179.487a1.567,1.567,0,0,0,.617,1.083c1.349.737,2.492,2.1,2.2,2.615-.354.613-6.115-1.675-6.115-1.675l.32-2.023Z" transform="translate(-214.345 -64.237)" fill="#e12000"/>
        <path id="Trazado_11049" data-name="Trazado 11049" d="M229.624,179.487a1.562,1.562,0,0,0,.615,1.083c1.351.737,2.492,2.1,2.2,2.615-.356.613-5.765-1.538-5.765-1.538l.24-2.16Z" transform="translate(-221.217 -64.237)" fill="#e12000"/>
        <path id="Trazado_11050" data-name="Trazado 11050" d="M223.967,133.143s-.215,2.132-.457,6.791a123.379,123.379,0,0,0,1.065,19.814l4.029.135.626-26.488Z" transform="translate(-223.268 -93.49)" fill="#ff7a2a"/>
        <path id="Trazado_11051" data-name="Trazado 11051" d="M228.534,151a4.754,4.754,0,0,0-.369-1.383l-4.047-.219s.093,4.411.767,6.047a1.541,1.541,0,0,0,3.008,0,22.852,22.852,0,0,0,.225-2.656A3.517,3.517,0,0,0,228.534,151Z" transform="translate(-222.829 -83.227)" fill="#ff7a2a"/>
        <path id="Trazado_11052" data-name="Trazado 11052" d="M231.851,123.658s1.8-5.252,2.426-5.912,4.032.759,8.091.395,5.721-3.4,3.323-5.409-5.421,0-5.421,0,3.364-5.372-4.112-3.5c-4.74,1.186-5.748,5.414-5.721,8.582A14.485,14.485,0,0,0,231.851,123.658Z" transform="translate(-218.841 -108.834)" fill="#3d2500"/>
        <path id="Trazado_11053" data-name="Trazado 11053" d="M248.847,124.115c3.135.351,5.67.928,7.06,4.944s1.794,12.885,1.794,12.885h-2.98s-.269,4.1-.382,11.4c-.07,4.651-.563,9.179-.563,9.179s-3.05,2.207-13.591,2.044-12.735-2.114-12.735-2.114.582-10.694.53-14.34c-.065-4.7-.494-8.487-.494-8.487l-3.863-.338s2.01-9.4,3.086-11.138c2.124-3.432,4.977-4.771,7.924-4.771,0,0,2.272,1.755,7.3,1.881A15.4,15.4,0,0,0,248.847,124.115Z" transform="translate(-223.141 -99.654)" fill="#fff"/>
        <path id="Trazado_11054" data-name="Trazado 11054" d="M231.16,117.567A49.47,49.47,0,0,0,232.444,124c.564,1.4,8.4,2.545,11.009,2.023s1.261-6.74,1.261-6.74-1.188.625-5.334.421a12.36,12.36,0,0,1-7.45-2.975Z" transform="translate(-218.384 -103.849)" fill="#3d2500"/>
        <path id="Trazado_11055" data-name="Trazado 11055" d="M233.517,124.428l1.138,2.381h1.969l1.163-2.261Z" transform="translate(-216.897 -98.991)"/>
        <path id="Trazado_11056" data-name="Trazado 11056" d="M235,125.887l-2.036,24.752S236,155.5,236,155.339s2.135-4.244,2.135-4.244l-1.163-25.207Z" transform="translate(-217.244 -98.07)"/>
        <path id="Trazado_11057" data-name="Trazado 11057" d="M237.415,124.805l2.228,41.718,5.274-.98v2.163l3.29.413s1.558-24.328.326-32.213-1.209-11.673-8.391-12.076Z" transform="translate(-214.436 -99.369)"/>
        <path id="Trazado_11058" data-name="Trazado 11058" d="M236.852,124.525l-3.475,42.023-4.642-3.373-.034,1.466-5.008.091s-1.006-22.326.325-28.427,2.028-10.374,5.858-12.032,4.944-1.031,4.944-1.031Z" transform="translate(-223.328 -99.812)"/>
        <path id="Trazado_11059" data-name="Trazado 11059" d="M257.88,157.8c.029-2.346.024-4.626-.033-6.673h.041s-.034-.714-.111-1.811a39.036,39.036,0,0,0-.352-3.943l0-.011a46.011,46.011,0,0,0-.993-5.969c-.868-3.858-2.359-5.814-7.4-6.1,0,0-2.975,1-3.152-2.176a11.674,11.674,0,0,0,2.514-.108c2.6-.52,1.271-6.7,1.263-6.735a8.115,8.115,0,0,0,.3-1.541,9.125,9.125,0,0,0-.989-5.1c2.437-1.024,3.127-3.292,1.205-4.9-2.4-2.013-5.421,0-5.421,0s3.364-5.372-4.112-3.5c-4.74,1.186-5.748,5.414-5.721,8.582a14.447,14.447,0,0,0,1.313,5.636,38.222,38.222,0,0,0,1.15,5.543c.179.447,1.108.866,2.365,1.215a1.371,1.371,0,0,1,.191.688c-.215,2.163-3.168,1.732-4.651,1.67l-.473-.3s-1.114-.626-4.944,1.031-4.525,5.931-5.858,12.032-.325,28.427-.325,28.427l.768-.015c.082.679.14,1.119.161,1.269h-.007s.093,4.411.767,6.047a1.537,1.537,0,0,0,2.815.458c-.245,3.587-.5,7.884-.731,12.743-.442,9.446,1.555,29.827,1.555,29.827l-.24,2.16s5.409,2.152,5.765,1.538c.3-.512-.847-1.878-2.2-2.615a1.562,1.562,0,0,1-.615-1.083h-.01s3.261-14.906,4.776-23.643c1.161-6.7,2.581-17.42,4.3-17.216s2.825,10.246,4.058,18.713c1.137,7.8,2.006,22.145,2.006,22.145l-.32,2.023s5.761,2.289,6.115,1.675c.3-.512-.847-1.878-2.2-2.615a1.567,1.567,0,0,1-.617-1.083h-.01s3.713-20.674,3.972-31.135q.113-4.571.135-8.26a1.807,1.807,0,0,0,1.142-1.085c.728-1.612.967-6.019.967-6.019h0l.02-.129,1.031.129s.543-8.482.734-17.054C257.867,159.6,257.88,158.694,257.88,157.8Zm-29.217,17.43.072-3.031.176.127c-.07.781-.152,1.742-.246,2.908Z" transform="translate(-223.328 -108.834)" fill="url(#linear-gradient-7)" style="mix-blend-mode: multiply;isolation: isolate"/>
      </g>
      <g id="Grupo_11474" data-name="Grupo 11474" transform="translate(215.482 1.124)">
        <path id="Trazado_11060" data-name="Trazado 11060" d="M217.5,131.673s-3.783-.816-3.936-3.5c-.113-1.959,3.652-3.974,4.078-8.371.429-4.437-2.388-8.717-6.61-8.933s-7.2,3.923-7.2,8.073c0,4.727,3.92,7.732,3.793,9.016-.241,2.421-3.735,2.135-4.885,2.678-.98.463-1.84,5.478-1.626,5.621s9.8,0,12.164-.214a32.258,32.258,0,0,0,4.365-.716Z" transform="translate(-188.307 -105.903)" fill="#ff7a2a"/>
        <path id="Trazado_11061" data-name="Trazado 11061" d="M220.9,145.012a98.427,98.427,0,0,1,2.1,23.535c-.259,10.459-3.447,31.052-3.447,31.052h-2.974s-1.7-13.854-2.838-21.654c-1.235-8.468-1.512-19-3.228-19.2s-3.135,10.518-4.3,17.216c-1.515,8.737-4.776,23.643-4.776,23.643h-2.7s-2-20.38-1.555-29.827a157.925,157.925,0,0,1,3-24.76Z" transform="translate(-190.813 -84.349)" fill="#575757"/>
        <path id="Trazado_11062" data-name="Trazado 11062" d="M216.163,133.648s2.246,3.732,1.75,10.742c-.39,5.51-7.3,16.266-7.3,16.266l2.866,3.527s7.435-10.257,8.942-16.054c2.905-11.162-.667-18.359-.667-18.359Z" transform="translate(-182.292 -93.971)" fill="#ff7a2a"/>
        <path id="Trazado_11063" data-name="Trazado 11063" d="M225.5,161.582s-2.616,2.044-14.086,2.044c-9.259,0-12.957-2.533-12.957-2.533s2.506-9.055,2.928-23.6l-.881.776c-2.073-1.78-5.23-5.509-5.517-5.393,0,0,6.184-11.469,19.5-10.57,10.658.719,17.624,12.014,17.624,12.014a77.353,77.353,0,0,1-6.474,4.285c-.114.062-.69-1.292-.791-1.24A149.286,149.286,0,0,0,225.5,161.582Z" transform="translate(-192.156 -98.713)" fill="#6a06ff"/>
        <path id="Trazado_11064" data-name="Trazado 11064" d="M212.152,178.476a1.562,1.562,0,0,0,.615,1.083c1.349.737,2.492,2.1,2.2,2.615-.354.613-6.115-1.675-6.115-1.675l.321-2.023Z" transform="translate(-183.407 -63.226)" fill="#e12000"/>
        <path id="Trazado_11065" data-name="Trazado 11065" d="M200.912,178.476a1.562,1.562,0,0,0,.615,1.083c1.351.737,2.494,2.1,2.2,2.615-.356.613-5.765-1.538-5.765-1.538l.24-2.16Z" transform="translate(-190.28 -63.226)" fill="#e12000"/>
        <path id="Trazado_11066" data-name="Trazado 11066" d="M203.433,122.647s1.8-5.253,2.427-5.912,4.031.759,8.089.4,5.721-3.4,3.323-5.411-5.421,0-5.421,0,3.364-5.372-4.112-3.5c-4.74,1.186-5.748,5.414-5.721,8.582A14.516,14.516,0,0,0,203.433,122.647Z" transform="translate(-187.717 -107.823)" fill="#d97e00"/>
        <path id="Trazado_11067" data-name="Trazado 11067" d="M201.6,134.038s-2.711,2.892-3.1,9.908c-.31,5.515,5.187,17.059,5.187,17.059L201,164.7s-6.681-11.668-7.446-17.609c-1.471-11.441,2.982-18.129,2.982-18.129Z" transform="translate(-193.251 -94.483)" fill="#ff7a2a"/>
        <path id="Trazado_11068" data-name="Trazado 11068" d="M201,178.035l0,0c-.556,4.1-1.108,9.3-1.383,15.216-.442,9.446,1.555,29.827,1.555,29.827l-.24,2.16s5.409,2.152,5.765,1.538c.3-.512-.847-1.878-2.2-2.615a1.562,1.562,0,0,1-.615-1.083h-.01s3.261-14.906,4.776-23.643c1.161-6.7,2.581-17.42,4.3-17.216s1.993,10.737,3.228,19.2c1.135,7.8,2.838,21.654,2.838,21.654l-.321,2.023s5.761,2.289,6.115,1.675c.3-.512-.845-1.878-2.2-2.615a1.562,1.562,0,0,1-.615-1.083h-.01s3.187-20.592,3.447-31.052a107.4,107.4,0,0,0-.631-14.5c1.5-2.125,7.272-10.51,8.58-15.544,2.693-10.348-.176-17.278-.61-18.235l.439-.316s-5.235-8.468-13.564-11.2a3.018,3.018,0,0,1-1.137-2.13c-.111-1.959,3.654-3.974,4.08-8.371a9.114,9.114,0,0,0-.989-5.1c2.437-1.024,3.127-3.29,1.205-4.9-2.4-2.011-5.421,0-5.421,0s3.364-5.372-4.112-3.5c-4.74,1.186-5.748,5.414-5.721,8.582a14.516,14.516,0,0,0,1.414,5.848l0,0c.776,3.711,3.714,6.124,3.6,7.239a2.061,2.061,0,0,1-1.194,1.685c-10.41,1.4-15.3,10.419-15.3,10.419.055-.023.214.1.449.312,0,0-4.453,6.69-2.982,18.129C194.314,166.367,201,178.035,201,178.035Zm-3.478-34.748-.984-.987C196.786,142.532,197.125,142.878,197.518,143.287Zm4.962,3.315a124.372,124.372,0,0,1-2.067,19.725c-1.112-3.2-2.05-6.673-1.918-9.04.393-7.016,3.1-9.908,3.1-9.908Zm26.393,11.64c-.155,2.183-1.336,5.187-2.7,8.022a167.087,167.087,0,0,1-.225-19.79c.1-.052.677,1.3.791,1.24s.253-.137.387-.214h0S229.369,151.233,228.873,158.242Z" transform="translate(-193.251 -107.823)" fill="url(#linear-gradient-8)" style="mix-blend-mode: multiply;isolation: isolate"/>
      </g>
      <g id="Grupo_11475" data-name="Grupo 11475" transform="translate(214.326 18.808)">
        <path id="Trazado_11069" data-name="Trazado 11069" d="M217.735,144.862s-3.747.264-3.915-2.923c-.1-1.959,3.652-3.972,4.078-8.371.429-4.437-2.388-8.717-6.61-8.931s-7.2,3.923-7.2,8.073c0,4.727,3.92,7.73,3.793,9.014-.241,2.422-3.695,2.546-4.851,2.016s-1.874,6.142-1.661,6.285,9.8,0,12.164-.215a32.258,32.258,0,0,0,4.365-.716Z" transform="translate(-186.995 -114.899)" fill="#ff7a2a"/>
        <path id="Trazado_11070" data-name="Trazado 11070" d="M203.138,141.784a22.814,22.814,0,0,1-5.16-8.73,23.733,23.733,0,0,1-.574-10.406l-3.6-1.235a32.72,32.72,0,0,0-1.085,11.913,27.8,27.8,0,0,0,5.659,13.971Z" transform="translate(-192.542 -116.929)" fill="#ff7a2a"/>
        <path id="Trazado_11071" data-name="Trazado 11071" d="M216.434,142.407a25.3,25.3,0,0,0,6.664-8.057,19.056,19.056,0,0,0,1.659-9.621l4.062-.825a23.506,23.506,0,0,1-9.156,24.715Z" transform="translate(-177.462 -115.357)" fill="#ff7a2a"/>
        <path id="Trazado_11072" data-name="Trazado 11072" d="M221.149,158.774a98.426,98.426,0,0,1,2.1,23.535c-.259,10.461-3.447,31.053-3.447,31.053h-2.974s-1.7-13.856-2.838-21.656c-1.235-8.468-1.915-19.217-3.228-19.2s-3.135,10.518-4.3,17.216c-1.515,8.737-4.776,23.644-4.776,23.644h-2.7s-2-20.382-1.555-29.828a157.929,157.929,0,0,1,3-24.76Z" transform="translate(-189.499 -93.346)" fill="#4a231e"/>
        <path id="Trazado_11073" data-name="Trazado 11073" d="M225.534,176.843s-2.616,2.042-14.086,2.042c-9.259,0-12.957-2.533-12.957-2.533a227.347,227.347,0,0,0,3.153-29.554,71.648,71.648,0,0,1-6.068-6.132l5.713-7.022a17.649,17.649,0,0,0,13.374,6.148c10.68.305,14.96-3.918,14.96-3.918l4.049,7.6s-2.1,1.943-8.6,4.724A260.988,260.988,0,0,0,225.534,176.843Z" transform="translate(-190.627 -109.209)" fill="#ffc225"/>
        <path id="Trazado_11074" data-name="Trazado 11074" d="M212.4,192.239a1.565,1.565,0,0,0,.615,1.083c1.351.736,2.492,2.1,2.2,2.615-.354.612-6.115-1.675-6.115-1.675l.321-2.023Z" transform="translate(-182.093 -72.222)" fill="#e12000"/>
        <path id="Trazado_11075" data-name="Trazado 11075" d="M201.161,192.239a1.565,1.565,0,0,0,.615,1.083c1.351.736,2.494,2.1,2.2,2.615-.356.612-5.765-1.538-5.765-1.538l.24-2.16Z" transform="translate(-188.965 -72.222)" fill="#e12000"/>
        <path id="Trazado_11076" data-name="Trazado 11076" d="M203.683,136.411s1.8-5.253,2.427-5.913,4.031.759,8.089.4,5.721-3.4,3.323-5.409-5.42,0-5.42,0,3.364-5.373-4.112-3.5c-4.74,1.184-5.748,5.414-5.721,8.58A14.528,14.528,0,0,0,203.683,136.411Z" transform="translate(-186.403 -116.82)" fill="#450800"/>
        <path id="Trazado_11077" data-name="Trazado 11077" d="M226.421,125.582s-.773-3.258-2.236-3.866-3.538-.532-3.841.889a3.239,3.239,0,0,0,.577,2.957,5.85,5.85,0,0,0,1.372.835Z" transform="translate(-175.061 -116.966)" fill="#ff7a2a"/>
        <path id="Trazado_11078" data-name="Trazado 11078" d="M193.347,123.177s.693-3.683,2.08-4.248,3.362-.281,3.667,1.387a4.1,4.1,0,0,1-.511,3.357,4.052,4.052,0,0,1-1.687.71Z" transform="translate(-192.034 -118.664)" fill="#ff7a2a"/>
        <path id="Trazado_11079" data-name="Trazado 11079" d="M193.8,123.148l.054.018c.024-.126.716-3.682,2.078-4.238,1.385-.564,3.362-.279,3.667,1.388a4.1,4.1,0,0,1-.511,3.357,4.052,4.052,0,0,1-1.687.71,23.733,23.733,0,0,0,.574,10.406,22.958,22.958,0,0,0,5.009,8.577l.217-.266a16.229,16.229,0,0,0,6.324,4.631c1.484.153,3.706-.316,3.9-2.243.111-1.114-2.827-3.528-3.6-7.238l0,0a14.528,14.528,0,0,1-1.414-5.85c-.028-3.166.98-7.4,5.721-8.58,7.476-1.869,4.112,3.5,4.112,3.5s3.024-2.013,5.421,0c1.922,1.612,1.232,3.877-1.205,4.9a9.119,9.119,0,0,1,.989,5.1c-.426,4.4-4.182,6.412-4.078,8.371.168,3.187,3.915,2.923,3.915,2.923l0,.158c5.8-1.046,8.252-3.455,8.252-3.455l.137.258a25.119,25.119,0,0,0,6.5-7.929,19.058,19.058,0,0,0,1.664-9.575l-.069.013a5.851,5.851,0,0,1-1.372-.835,3.239,3.239,0,0,1-.577-2.957c.3-1.421,2.378-1.5,3.841-.889,1.346.56,2.106,3.355,2.218,3.8l.015,0a24.234,24.234,0,0,1,0,11.171,24.673,24.673,0,0,1-8.934,13.389l.618,1.16s-2.1,1.943-8.6,4.724a260.986,260.986,0,0,0,.467,28.644,7.963,7.963,0,0,1-2.618.989,105.168,105.168,0,0,1,1.457,20.34c-.259,10.461-3.447,31.053-3.447,31.053h.01a1.565,1.565,0,0,0,.615,1.083c1.351.736,2.492,2.1,2.2,2.615-.354.612-6.115-1.675-6.115-1.675l.321-2.023s-1.7-13.856-2.838-21.656c-1.235-8.468-1.915-19.217-3.228-19.2s-3.135,10.518-4.3,17.216c-1.515,8.737-4.776,23.644-4.776,23.644h.01a1.565,1.565,0,0,0,.615,1.083c1.351.736,2.494,2.1,2.2,2.615-.356.612-5.765-1.538-5.765-1.538l.24-2.16s-2-20.382-1.555-29.828a169.831,169.831,0,0,1,2.439-21.94,11.3,11.3,0,0,1-2.5-1.1,227.348,227.348,0,0,0,3.153-29.554,71.644,71.644,0,0,1-6.068-6.132l.884-1.088a27.824,27.824,0,0,1-5.659-13.973A32.727,32.727,0,0,1,193.8,123.148Z" transform="translate(-192.542 -118.664)" fill="url(#linear-gradient-9)" style="mix-blend-mode: multiply;isolation: isolate"/>
      </g>
      <g id="Grupo_11476" data-name="Grupo 11476" transform="translate(146.731 29.502)">
        <path id="Trazado_11080" data-name="Trazado 11080" d="M176.3,151.417s-3.747.264-3.915-2.923c-.1-1.959,3.652-3.972,4.078-8.371.429-4.435-2.388-8.716-6.61-8.931s-7.2,3.923-7.2,8.073c0,4.727,3.921,7.73,3.793,9.016-.241,2.421-3.695,2.545-4.851,2.015s-1.874,6.142-1.659,6.285,9.8,0,12.162-.215a32.112,32.112,0,0,0,4.365-.714Z" transform="translate(-145.556 -121.456)" fill="#ff7a2a"/>
        <path id="Trazado_11081" data-name="Trazado 11081" d="M161.7,148.339a22.836,22.836,0,0,1-5.16-8.73,23.733,23.733,0,0,1-.574-10.406l-3.6-1.235a32.7,32.7,0,0,0-1.083,11.913,27.815,27.815,0,0,0,5.659,13.973Z" transform="translate(-151.104 -123.485)" fill="#ff7a2a"/>
        <path id="Trazado_11082" data-name="Trazado 11082" d="M175,148.962a25.3,25.3,0,0,0,6.663-8.057,19.057,19.057,0,0,0,1.659-9.621l4.063-.825a23.5,23.5,0,0,1-9.158,24.715Z" transform="translate(-136.023 -121.913)" fill="#ff7a2a"/>
        <path id="Trazado_11083" data-name="Trazado 11083" d="M179.711,165.329a98.483,98.483,0,0,1,2.094,23.535c-.259,10.461-3.447,31.053-3.447,31.053h-2.974s-1.7-13.856-2.838-21.656c-1.233-8.468-1.915-19.217-3.227-19.2s-3.137,10.516-4.3,17.214c-1.515,8.737-4.776,23.644-4.776,23.644h-2.7s-2-20.38-1.555-29.827a158.207,158.207,0,0,1,3-24.762Z" transform="translate(-148.061 -99.902)" fill="#4a231e"/>
        <path id="Trazado_11084" data-name="Trazado 11084" d="M184.1,183.4s-2.615,2.042-14.086,2.042c-9.259,0-12.957-2.533-12.957-2.533a227.348,227.348,0,0,0,3.153-29.554,71.639,71.639,0,0,1-6.068-6.132l5.712-7.021a17.652,17.652,0,0,0,13.376,6.146c10.678.305,14.958-3.918,14.958-3.918l4.049,7.6s-2.1,1.943-8.6,4.724A261.462,261.462,0,0,0,184.1,183.4Z" transform="translate(-149.189 -115.764)" fill="#f80081"/>
        <path id="Trazado_11085" data-name="Trazado 11085" d="M170.963,198.794a1.565,1.565,0,0,0,.615,1.083c1.351.737,2.493,2.1,2.2,2.615-.356.613-6.117-1.675-6.117-1.675l.321-2.023Z" transform="translate(-140.655 -78.779)" fill="#e12000"/>
        <path id="Trazado_11086" data-name="Trazado 11086" d="M159.722,198.794a1.57,1.57,0,0,0,.617,1.083c1.349.737,2.493,2.1,2.2,2.615-.354.613-5.765-1.538-5.765-1.538l.24-2.16Z" transform="translate(-147.527 -78.779)" fill="#e12000"/>
        <path id="Trazado_11087" data-name="Trazado 11087" d="M162.244,142.966s1.8-5.253,2.427-5.913,4.031.76,8.089.4,5.721-3.4,3.324-5.409-5.421,0-5.421,0,3.362-5.373-4.114-3.5c-4.74,1.186-5.747,5.414-5.721,8.58A14.518,14.518,0,0,0,162.244,142.966Z" transform="translate(-144.965 -123.376)" fill="#450800"/>
        <path id="Trazado_11088" data-name="Trazado 11088" d="M184.981,132.137s-.773-3.256-2.236-3.866-3.538-.532-3.84.889a3.234,3.234,0,0,0,.576,2.957,5.847,5.847,0,0,0,1.373.835Z" transform="translate(-133.622 -123.522)" fill="#ff7a2a"/>
        <path id="Trazado_11089" data-name="Trazado 11089" d="M151.908,129.734s.693-3.685,2.08-4.249,3.362-.281,3.669,1.387a4.108,4.108,0,0,1-.511,3.357,4.065,4.065,0,0,1-1.688.71Z" transform="translate(-150.596 -125.22)" fill="#ff7a2a"/>
      </g>
      <g id="Grupo_11477" data-name="Grupo 11477" transform="translate(193.199 33.455)">
        <path id="Trazado_11090" data-name="Trazado 11090" d="M196.626,151.526a22.822,22.822,0,0,0,5.158-8.73,23.748,23.748,0,0,0,.576-10.406l3.6-1.235a32.7,32.7,0,0,1,1.083,11.913,27.815,27.815,0,0,1-5.659,13.973Z" transform="translate(-168.838 -125.426)" fill="#ff7a2a"/>
        <path id="Trazado_11091" data-name="Trazado 11091" d="M201.048,134.607s-2.385-.21-2.342-1.235c.021-.573,1.429.064,1.8-.488s-.679-2.3-.858-2.881c-.491-1.572-.336-3.355,1.909-1.695a9.314,9.314,0,0,1,3.1,5.063Z" transform="translate(-167.526 -127.643)" fill="#ff7a2a"/>
        <path id="Trazado_11092" data-name="Trazado 11092" d="M181.214,153.29s-1.033-.579-1.248,8.4c-.219,9.229,2.99,24.612,2.99,24.612h2.29l.719-27.458Z" transform="translate(-179.361 -111.459)" fill="#ff7a2a"/>
        <path id="Trazado_11093" data-name="Trazado 11093" d="M185.394,153.868s2.983,1,3.152-2.187c.1-1.959-3.652-3.972-4.078-8.371-.429-4.437,2.388-8.717,6.61-8.931s7.2,3.923,7.2,8.073c0,4.727-3.921,7.73-3.793,9.016.241,2.421,3.99,2.569,5.146,2.041s1.579,6.115,1.364,6.259-9.8,0-12.162-.215a32.258,32.258,0,0,1-4.365-.716Z" transform="translate(-176.54 -123.397)" fill="#ff7a2a"/>
        <path id="Trazado_11094" data-name="Trazado 11094" d="M183.264,169.162a163.242,163.242,0,0,0-.827,22.636c.259,10.461,1.773,23.706,1.773,23.706l6.385-.209a105.136,105.136,0,0,1,1.1-14.1c1.235-8.468,1.511-19,3.227-19.2s3.137,10.516,4.3,17.214c1.515,8.737,3.037,15.487,3.037,15.487H207.4a173.139,173.139,0,0,0,.85-21.671c-.675-14.464-1.644-24.106-1.644-24.106Z" transform="translate(-177.834 -101.59)" fill="#545454"/>
        <path id="Trazado_11095" data-name="Trazado 11095" d="M185.626,201.981a1.565,1.565,0,0,1-.615,1.083c-1.351.737-2.492,2.1-2.2,2.615.356.612,6.117-1.675,6.117-1.675l-.321-2.023Z" transform="translate(-177.586 -80.72)" fill="#e12000"/>
        <path id="Trazado_11096" data-name="Trazado 11096" d="M196.731,201.981a1.565,1.565,0,0,1-.615,1.083c-1.351.737-2.494,2.1-2.2,2.615.356.612,5.765-1.538,5.765-1.538l-.24-2.16Z" transform="translate(-170.577 -80.72)" fill="#e12000"/>
        <path id="Trazado_11097" data-name="Trazado 11097" d="M213.248,150.408l-5.713-7.022a16.966,16.966,0,0,1-12.614,6.863c-4.567-.028-6.476-2.072-6.476-2.072-3.135.352-5.67.93-7.06,4.944s-1.794,12.887-1.794,12.887h2.979a45.96,45.96,0,0,1,1.564,11.469c.558,17.89-.59,21.278-.59,21.278s4.465,1.1,12.756.77c11.286-.453,14.071-1.46,14.071-1.46a125.348,125.348,0,0,1-3.047-15.919c-1-8.649-.6-17.828-.144-25.605A71.641,71.641,0,0,0,213.248,150.408Z" transform="translate(-179.591 -117.706)" fill="#17b0ff"/>
        <path id="Trazado_11098" data-name="Trazado 11098" d="M182.014,183.905s4.465,1.1,12.758.77c11.285-.453,14.069-1.46,14.069-1.46a125.347,125.347,0,0,1-3.047-15.919c-.015-.127-.023-.258-.038-.385H182.709C182.968,181.039,182.014,183.905,182.014,183.905Z" transform="translate(-178.062 -102.857)" fill="#17b0ff"/>
        <path id="Trazado_11099" data-name="Trazado 11099" d="M184.087,197.508c.132,0,.706,7.378.706,7.378h2.983l.321-7.508Z" transform="translate(-176.753 -83.625)" fill="#ff7a2a"/>
        <path id="Trazado_11100" data-name="Trazado 11100" d="M195.928,205.138l-.786-8.158h3.5v8.158Z" transform="translate(-169.775 -83.877)" fill="#ff7a2a"/>
        <path id="Trazado_11101" data-name="Trazado 11101" d="M184.91,143.836s-2.414-4.554-.545-7.7c3.37-5.672,8.644-5.429,12.508-2.7s2.938,11.914,4.916,14.787,3.419,2.623,3.419,2.623-4.47,1.294-7.159-.326-.822-9.138-6.324-9.712S184.91,143.836,184.91,143.836Z" transform="translate(-177.025 -125.165)" fill="#7c0f00"/>
        <path id="Trazado_11102" data-name="Trazado 11102" d="M182.357,166.461l22.987-.767.288,2.924-23.215.281Z" transform="translate(-177.845 -103.625)" fill="#0a4f73"/>
      </g>
      <g id="Grupo_11478" data-name="Grupo 11478" transform="translate(248.356 32.41)">
        <path id="Trazado_11103" data-name="Trazado 11103" d="M235.2,148.962s.654-.427,1.634,8.5-1.634,24.512-1.634,24.512h-4.031l-.721-27.458Z" transform="translate(-202.647 -113.144)" fill="#ff7a2a"/>
        <path id="Trazado_11104" data-name="Trazado 11104" d="M230.643,170.6a4.769,4.769,0,0,1,.416-1.369l4.052-.085s-.241,4.408-.969,6.019a1.541,1.541,0,0,1-3.006-.106A22.7,22.7,0,0,1,231,172.4,3.545,3.545,0,0,1,230.643,170.6Z" transform="translate(-202.538 -100.399)" fill="#ff7a2a"/>
        <path id="Trazado_11105" data-name="Trazado 11105" d="M235.128,149.543s-2.983,1-3.152-2.187c-.1-1.959,3.652-3.974,4.078-8.371.429-4.437-2.388-8.717-6.61-8.933s-7.2,3.923-7.2,8.073c0,4.727,3.92,7.732,3.793,9.016-.241,2.421-3.925,1.589-5.12,1.665s-1.605,6.491-1.391,6.634,9.8,0,12.164-.214a32.259,32.259,0,0,0,4.365-.716Z" transform="translate(-209.575 -125.083)" fill="#ff7a2a"/>
        <path id="Trazado_11106" data-name="Trazado 11106" d="M242.214,165.682s.338,8.061,0,21.71c-.258,10.459-3.97,31.133-3.97,31.133h-2.974s-.871-14.345-2.008-22.145c-1.233-8.468-2.342-18.509-4.058-18.713s-3.135,10.518-4.3,17.216c-1.515,8.737-4.776,23.643-4.776,23.643h-2.7s-2-20.38-1.555-29.827c.675-14.464,1.644-24.106,1.644-24.106Z" transform="translate(-211.887 -103.276)" fill="#7c0f00"/>
        <path id="Trazado_11107" data-name="Trazado 11107" d="M230.847,197.655a1.562,1.562,0,0,0,.615,1.083c1.349.737,2.492,2.1,2.2,2.615-.354.613-6.115-1.675-6.115-1.675l.321-2.023Z" transform="translate(-204.481 -82.406)" fill="#e12000"/>
        <path id="Trazado_11108" data-name="Trazado 11108" d="M219.607,197.655a1.562,1.562,0,0,0,.615,1.083c1.351.737,2.494,2.1,2.2,2.615-.356.613-5.765-1.538-5.765-1.538l.24-2.16Z" transform="translate(-211.353 -82.406)" fill="#e12000"/>
        <path id="Trazado_11109" data-name="Trazado 11109" d="M213.949,151.311s-.215,2.132-.457,6.791a123.376,123.376,0,0,0,1.065,19.814l4.029.137.626-26.489Z" transform="translate(-213.404 -111.659)" fill="#ff7a2a"/>
        <path id="Trazado_11110" data-name="Trazado 11110" d="M218.517,169.172a4.756,4.756,0,0,0-.37-1.382l-4.045-.22s.091,4.412.765,6.049a1.541,1.541,0,0,0,3.008-.007,22.5,22.5,0,0,0,.225-2.656A3.532,3.532,0,0,0,218.517,169.172Z" transform="translate(-212.965 -101.396)" fill="#ff7a2a"/>
        <path id="Trazado_11111" data-name="Trazado 11111" d="M221.833,141.826s1.8-5.253,2.427-5.912,4.031.758,8.089.4,5.721-3.4,3.323-5.411-5.421,0-5.421,0,3.364-5.372-4.112-3.5c-4.74,1.184-5.748,5.412-5.721,8.58A14.516,14.516,0,0,0,221.833,141.826Z" transform="translate(-208.977 -127.003)" fill="#7c0f00"/>
        <path id="Trazado_11112" data-name="Trazado 11112" d="M238.829,142.283c3.135.351,5.67.928,7.06,4.944s1.794,12.885,1.794,12.885H244.7s-.269,4.1-.38,11.4c-.072,4.651-.563,9.179-.563,9.179s-3.052,2.207-13.593,2.044-12.735-2.114-12.735-2.114.582-10.694.532-14.338c-.067-4.7-.5-8.489-.5-8.489l-3.863-.338s2.01-9.4,3.086-11.138c2.124-3.432,4.977-4.771,7.926-4.771,0,0,2.271,1.755,7.3,1.881A15.39,15.39,0,0,0,238.829,142.283Z" transform="translate(-213.277 -117.823)" fill="#e12000"/>
      </g>
      <g id="Grupo_11480" data-name="Grupo 11480" transform="translate(116.283 26.546)">
        <path id="Trazado_11113" data-name="Trazado 11113" d="M149.473,147.291a22.822,22.822,0,0,0,5.158-8.73,23.748,23.748,0,0,0,.576-10.406l3.6-1.235a32.705,32.705,0,0,1,1.083,11.913,27.815,27.815,0,0,1-5.659,13.973Z" transform="translate(-121.685 -121.191)" fill="#ff7a2a"/>
        <path id="Trazado_11114" data-name="Trazado 11114" d="M153.895,130.372s-2.383-.21-2.342-1.235c.023-.573,1.429.064,1.8-.488s-.677-2.3-.858-2.881c-.491-1.572-.336-3.355,1.909-1.695a9.3,9.3,0,0,1,3.1,5.063Z" transform="translate(-120.373 -123.408)" fill="#ff7a2a"/>
        <path id="Trazado_11115" data-name="Trazado 11115" d="M134.293,149.053s-.654-.429-1.634,8.5,1.634,24.512,1.634,24.512h4.031l.721-27.457Z" transform="translate(-132.438 -107.223)" fill="#ff7a2a"/>
        <path id="Trazado_11116" data-name="Trazado 11116" d="M138.241,149.633s2.984,1,3.152-2.187c.1-1.959-3.652-3.972-4.078-8.371-.429-4.435,2.388-8.716,6.61-8.931s7.2,3.923,7.2,8.073c0,4.727-3.92,7.73-3.793,9.016.241,2.421,3.99,2.569,5.146,2.041s1.579,6.115,1.365,6.259-9.8,0-12.164-.215a31.958,31.958,0,0,1-4.365-.716Z" transform="translate(-129.387 -119.162)" fill="#ff7a2a"/>
        <path id="Trazado_11117" data-name="Trazado 11117" d="M136.112,164.927a163.049,163.049,0,0,0-.829,22.636c.259,10.461,3.447,31.053,3.447,31.053H141.7s1.7-13.856,2.84-21.656c1.233-8.468,1.511-19,3.227-19.2s3.135,10.518,4.3,17.214c1.515,8.737,4.776,23.644,4.776,23.644h2.7s2-20.38,1.555-29.827c-.675-14.464-1.644-24.108-1.644-24.108Z" transform="translate(-130.68 -97.355)" fill="#324a57"/>
        <path id="Trazado_11118" data-name="Trazado 11118" d="M138.473,197.746a1.565,1.565,0,0,1-.615,1.083c-1.349.737-2.493,2.1-2.2,2.615.354.613,6.115-1.675,6.115-1.675l-.321-2.023Z" transform="translate(-130.432 -76.485)" fill="#e12000"/>
        <path id="Trazado_11119" data-name="Trazado 11119" d="M149.577,197.746a1.565,1.565,0,0,1-.615,1.083c-1.351.737-2.492,2.1-2.2,2.615.356.613,5.765-1.538,5.765-1.538l-.24-2.16Z" transform="translate(-123.424 -76.485)" fill="#e12000"/>
        <path id="Trazado_11120" data-name="Trazado 11120" d="M151.434,141.918s-1.8-5.253-2.427-5.912-4.031.759-8.089.395-5.721-3.4-3.323-5.409,5.421,0,5.421,0-3.364-5.373,4.112-3.5c4.74,1.184,5.748,5.414,5.721,8.58A14.519,14.519,0,0,1,151.434,141.918Z" transform="translate(-129.883 -121.082)" fill="#7c0f00"/>
        <path id="Trazado_11121" data-name="Trazado 11121" d="M166.095,146.173l-5.712-7.021a16.967,16.967,0,0,1-12.613,6.861c-4.567-.028-6.478-2.072-6.478-2.072-3.135.352-5.67.93-7.06,4.944s-1.794,12.887-1.794,12.887h2.98s.269,4.1.38,11.4c.072,4.652.563,9.181.563,9.181s3.974,2.385,12.267,2.052c11.286-.453,14.552-2.543,14.552-2.543a227.347,227.347,0,0,1-3.153-29.554A71.64,71.64,0,0,0,166.095,146.173Z" transform="translate(-132.438 -113.47)" fill="#2fc4ff"/>
        <g id="Grupo_11479" data-name="Grupo 11479" transform="translate(3.064 38.718)">
          <path id="Trazado_11122" data-name="Trazado 11122" d="M134.512,159.109h25.566c-.191-1.654-.375-3.4-.543-5.205H134.316C134.371,155.039,134.446,156.791,134.512,159.109Z" transform="translate(-134.316 -142.877)" fill="#9ee4ff"/>
          <path id="Trazado_11123" data-name="Trazado 11123" d="M160.584,160.175H134.5c.034,1.866.134,3.693.24,5.205h26.6C161.125,164,160.862,162.235,160.584,160.175Z" transform="translate(-134.199 -138.919)" fill="#9ee4ff"/>
          <path id="Trazado_11124" data-name="Trazado 11124" d="M134.463,147.144v5.205h24.5c-.093-1.546-.168-3.106-.214-4.66.2-.181.4-.362.6-.545Z" transform="translate(-134.223 -147.144)" fill="#9ee4ff"/>
        </g>
      </g>
    </g>
    <path id="Trazado_11125" data-name="Trazado 11125" d="M280.442,106.657c4-12.187-4.77-26.01-19.584-30.872s-30.07,1.078-34.07,13.265,4.765,26.008,19.584,30.871a32.592,32.592,0,0,0,15.8,1.219l-1.646,7.5,14.921-14.025,0,0A19.656,19.656,0,0,0,280.442,106.657Z" transform="translate(110.923 19.98)" fill="#f20900" opacity="0.8"/>
    <path id="Trazado_11126" data-name="Trazado 11126" d="M245.457,85.26c1.626-13.213-10.076-25.529-26.14-27.5S188.908,64.891,187.283,78.1s10.078,25.527,26.147,27.5a33.827,33.827,0,0,0,16.332-1.931l-.171,7.968,12.384-17.278,0,0A20.434,20.434,0,0,0,245.457,85.26Z" transform="translate(86.503 9.502)" fill="#f80081" opacity="0.8"/>
    <path id="Trazado_11127" data-name="Trazado 11127" d="M218.139,88.923c0-13.312-13.118-24.108-29.3-24.108s-29.31,10.8-29.31,24.108,13.12,24.106,29.31,24.106a33.862,33.862,0,0,0,15.974-3.91l.8,7.928,10.182-18.661-.01,0A20.4,20.4,0,0,0,218.139,88.923Z" transform="translate(69.077 14.127)" fill="#008ad2" opacity="0.8"/>
    <path id="Trazado_11128" data-name="Trazado 11128" d="M50.753,104.162C47.429,91.773,56.942,78.454,72,74.414s29.967,2.727,33.29,15.115-6.19,25.708-21.253,29.75a32.6,32.6,0,0,1-15.844.347l1.235,7.579L55.3,112.382l.007,0A19.636,19.636,0,0,1,50.753,104.162Z" transform="translate(0 19.448)" fill="#ffc225" opacity="0.8"/>
    <path id="Trazado_11129" data-name="Trazado 11129" d="M85.565,86.186C83.06,73.112,93.912,60.043,109.808,57s30.814,5.084,33.319,18.159-8.347,26.145-24.245,29.192a33.84,33.84,0,0,1-16.428-.834l.706,7.939L89.65,95.04l.007,0A20.424,20.424,0,0,1,85.565,86.186Z" transform="translate(22.165 8.788)" fill="#008ad2" opacity="0.8"/>
    <path id="Trazado_11130" data-name="Trazado 11130" d="M133.651,69.344c0-14.862,14.643-26.91,32.711-26.91s32.712,12.048,32.712,26.91-14.642,26.909-32.712,26.909a37.751,37.751,0,0,1-17.836-4.367l-.892,8.853L136.267,79.908l.007,0A22.782,22.782,0,0,1,133.651,69.344Z" transform="translate(52.744 0)" fill="#f20900" opacity="0.8"/>
    <path id="Trazado_11131" data-name="Trazado 11131" d="M116.042,88.923c0-13.312,13.121-24.108,29.306-24.108s29.308,10.8,29.308,24.108-13.118,24.106-29.308,24.106a33.857,33.857,0,0,1-15.978-3.912l-.8,7.929L118.388,98.385l.007,0A20.406,20.406,0,0,1,116.042,88.923Z" transform="translate(41.629 14.127)" fill="#ffc225" opacity="0.8"/>
  </g>
</svg>
