<svg xmlns="http://www.w3.org/2000/svg" width="360.95" height="255.371" viewBox="0 0 360.95 255.371">
  <g id="Grupo_11572" data-name="Grupo 11572" transform="translate(-71.607 -119.81)">
    <g id="Grupo_11528" data-name="Grupo 11528" transform="translate(71.607 145.799)">
      <path id="Trazado_11242" data-name="Trazado 11242" d="M110.971,394.5H316.34c23.591,0,38.444-32.691,26.619-53.1-8.45-14.586-15.2-30.93-14.978-49.629.622-51.516,29.711-74.679,26.237-94.858-13.42-77.955-79.611,23.139-158.893-17.636C78.042,118.953,116.947,268.8,91.66,303.535,48.441,362.91,84.643,394.5,110.971,394.5Z" transform="translate(-71.607 -165.118)" fill="#d2e4f3"/>
    </g>
    <path id="Trazado_11243" data-name="Trazado 11243" d="M666.223,274.25,663.05,276l.686,3.559-2.647-2.477-3.173,1.752,1.537-3.282-2.647-2.477,3.6.448,1.537-3.283.686,3.559Z" transform="translate(-249.515 -64.142)" fill="#fff"/>
    <path id="Trazado_11244" data-name="Trazado 11244" d="M564.975,123.043c-.063,1.848-5.428,43.49-16.9,67.636-.794,1.669,15.647-27.041,23.6-67.407.357-1.815-1.384-3.4-3.231-3.46A3.348,3.348,0,0,0,564.975,123.043Z" transform="translate(-203.141)" fill="#5e7ae4"/>
    <path id="Trazado_11245" data-name="Trazado 11245" d="M586.383,210.241c-.533.8-14.291,17.766-25.972,25.318-.808.521,14.319-7.692,28.872-23.388a1.657,1.657,0,0,0-.484-2.414A1.741,1.741,0,0,0,586.383,210.241Z" transform="translate(-208.402 -38.227)" fill="#ff6966"/>
    <path id="Trazado_11246" data-name="Trazado 11246" d="M616.888,303.056c-.923-.267-22.384-4.338-36.181-2.563-.954.123,15.9-3.372,37.148-.784a1.66,1.66,0,0,1,1.191,2.157A1.744,1.744,0,0,1,616.888,303.056Z" transform="translate(-217.052 -76.297)" fill="#ff6966"/>
    <path id="Trazado_11247" data-name="Trazado 11247" d="M643.832,229.377c-1.98.761-41.031,14-70.813,24.947-1.992.732,21.171-11.16,68.054-32.119a3.777,3.777,0,0,1,4.967,2.2A3.845,3.845,0,0,1,643.832,229.377Z" transform="translate(-213.74 -43.531)" fill="#5e7ae4"/>
    <path id="Trazado_11248" data-name="Trazado 11248" d="M638.223,361.734c-1.237-1.376-32.118-29.823-56.429-40.94-1.682-.768,29.368,10.654,61.407,36.463,1.44,1.158,1.124,3.49-.251,4.727A3.346,3.346,0,0,1,638.223,361.734Z" transform="translate(-217.504 -85.68)" fill="#5e7ae4"/>
    <g id="Grupo_11531" data-name="Grupo 11531" transform="translate(418.374 238.74)">
      <g id="Grupo_11530" data-name="Grupo 11530">
        <g id="Grupo_11529" data-name="Grupo 11529">
          <path id="Trazado_11249" data-name="Trazado 11249" d="M677.851,334.305a3.919,3.919,0,1,1,5.442-1.05A3.929,3.929,0,0,1,677.851,334.305Zm3.429-5.067a2.2,2.2,0,1,0,.589,3.054A2.2,2.2,0,0,0,681.28,329.238Z" transform="translate(-676.128 -327.142)" fill="#5e7ae4"/>
        </g>
      </g>
    </g>
    <g id="Grupo_11534" data-name="Grupo 11534" transform="translate(373.302 153.46)">
      <g id="Grupo_11533" data-name="Grupo 11533">
        <g id="Grupo_11532" data-name="Grupo 11532">
          <path id="Trazado_11250" data-name="Trazado 11250" d="M598.665,183.089a2.526,2.526,0,1,1,3.5-.672A2.525,2.525,0,0,1,598.665,183.089Zm1.868-2.759a.806.806,0,1,0,.214,1.124A.812.812,0,0,0,600.532,180.329Z" transform="translate(-597.555 -178.472)" fill="#fff"/>
        </g>
      </g>
    </g>
    <g id="Grupo_11567" data-name="Grupo 11567" transform="translate(140.705 247.686)">
      <g id="Grupo_11536" data-name="Grupo 11536" transform="translate(23.051 50.675)">
        <g id="Grupo_11535" data-name="Grupo 11535">
          <path id="Trazado_11251" data-name="Trazado 11251" d="M246.676,463.673c.068,2.285-1.487.71-3.213,1.119l-1.189,2.857c-1.725.411-2.841-3.726-3.45-5.811l-5.646-22.044a37.417,37.417,0,0,1-.926-5.461l8.095-3.226c1.721-.411,4.2,4.128,4.812,6.215Z" transform="translate(-232.252 -431.08)" fill="#0f3871"/>
        </g>
      </g>
      <path id="Trazado_11252" data-name="Trazado 11252" d="M255.195,536.673l-2.87.387-.7-4.973,2.869-.385Z" transform="translate(-217.463 -423.308)" fill="#fdc8a8"/>
      <path id="Trazado_11253" data-name="Trazado 11253" d="M251.629,532.086l.241,2.066a1.135,1.135,0,0,1,.533-.11c.766.028,1.436.048,1.778.795a2.375,2.375,0,0,1-.071,1.388c-.041.2-.083.406-.118.61l1.2-.163-.7-4.972Z" transform="translate(-217.463 -423.307)" fill="#fdc8a8" style="mix-blend-mode: multiply;isolation: isolate"/>
      <path id="Trazado_11254" data-name="Trazado 11254" d="M268.156,542.472c.04-.048.024-.179.025-.534,0-.5-3.493-1.289-5.65-1.719a4.35,4.35,0,0,1-1.564-.637c-.272-.269-.1-.244-.29-.164-.6.243-1.088-.061-1.577-.065l.1,3.765c2.937.022,7.447.02,8.405.021.593,0,.585-.239.585-.539A.465.465,0,0,0,268.156,542.472Z" transform="translate(-220.648 -426.57)" fill="#7b424e"/>
      <path id="Trazado_11255" data-name="Trazado 11255" d="M268.156,542.472c.04-.048.024-.179.025-.534,0-.5-3.493-1.289-5.65-1.719a4.35,4.35,0,0,1-1.564-.637c-.272-.269-.1-.244-.29-.164-.6.243-.985-.061-1.577-.065l.1,3.765c2.937.022,7.447.02,8.405.021.593,0,.585-.239.585-.539A.465.465,0,0,0,268.156,542.472Z" transform="translate(-220.648 -426.57)" fill="#c591a5" style="mix-blend-mode: multiply;isolation: isolate"/>
      <path id="Trazado_11256" data-name="Trazado 11256" d="M259.236,544.706l.02.694c2.938.023,7.447.018,8.4.022.594,0,.585-.239.585-.539a.53.53,0,0,0-.026-.115Z" transform="translate(-220.706 -428.852)" fill="#283042"/>
      <path id="Trazado_11257" data-name="Trazado 11257" d="M259.239,544.762l.017.662c2.937.022,7.447.02,8.405.021.593,0,.585-.239.585-.539a.381.381,0,0,0-.021-.084Z" transform="translate(-220.707 -428.876)" fill="#db967f" style="mix-blend-mode: multiply;isolation: isolate"/>
      <path id="Trazado_11258" data-name="Trazado 11258" d="M262.981,544.531c0,.3.012.541-.582.54-1.409,0-10.525.006-10.979-.076-.25-.047-.588-.248-.588-.548h0a.557.557,0,0,1,.582-.54l10.979.075a.573.573,0,0,1,.587.548Z" transform="translate(-217.123 -428.512)" fill="#283042"/>
      <g id="Grupo_11537" data-name="Grupo 11537" transform="translate(33.707 112.585)">
        <path id="Trazado_11259" data-name="Trazado 11259" d="M250.828,542.14c-.018.192,3.746.161,11.99.2.2,0,.159,0,.159-.564,0-.5-3.5-1.291-5.65-1.717a4.318,4.318,0,0,1-1.563-.638c-.275-.268-.1-.243-.292-.164-3.718,1.507-3.477-.457-4.078-.234C250.683,539.292,250.862,541.806,250.828,542.14Z" transform="translate(-250.828 -539.008)" fill="#7b424e"/>
      </g>
      <path id="Trazado_11260" data-name="Trazado 11260" d="M259.777,541.086c-.017.034-.079.042-.139.018h0c-.056-.024-.091-.075-.073-.111l.443-.914c.016-.036.079-.045.137-.021h0c.06.025.093.077.073.114Z" transform="translate(-220.844 -426.865)" fill="#283042"/>
      <path id="Trazado_11261" data-name="Trazado 11261" d="M261.288,541.265c-.01.028-.068.038-.129.019h0c-.06-.02-.1-.059-.092-.091l.267-.75c.009-.03.068-.039.13-.021h0c.06.019.1.06.09.089Z" transform="translate(-221.486 -427.022)" fill="#283042"/>
      <path id="Trazado_11262" data-name="Trazado 11262" d="M262.572,541.248c0,.018-.059.02-.122,0h0c-.06-.017-.107-.046-.1-.065l.149-.476c0-.019.06-.021.122,0h0c.06.016.107.046.1.066Z" transform="translate(-222.033 -427.142)" fill="#283042"/>
      <g id="Grupo_11539" data-name="Grupo 11539" transform="translate(30.534 80.282)">
        <g id="Grupo_11538" data-name="Grupo 11538">
          <path id="Trazado_11263" data-name="Trazado 11263" d="M248.829,482.732l-.813-.034c-1.795-.081-2.79,1.033-2.716,3.415l2.806,25.2.337,2.625,4.015-.435-.115-26.947A3.7,3.7,0,0,0,248.829,482.732Z" transform="translate(-245.296 -482.694)" fill="#0f3871"/>
        </g>
      </g>
      <g id="Grupo_11541" data-name="Grupo 11541" transform="translate(15.454 52.908)">
        <g id="Grupo_11540" data-name="Grupo 11540">
          <path id="Trazado_11264" data-name="Trazado 11264" d="M225.953,467.76c-.7,2.191-1.649.238-3.425.121l-2.084,2.365c-1.775-.117-1.454-4.372-1.337-6.531l2-22.593a37.512,37.512,0,0,1,.944-5.459l8.765-.69c1.772.117,2.615,5.155,2.5,7.315Z" transform="translate(-219.008 -434.972)" fill="#0f3871"/>
        </g>
      </g>
      <path id="Trazado_11265" data-name="Trazado 11265" d="M230.807,439.448c6.005.761,6.875-.722,8.111,1.415.516.893,1.68,11.981,2.134,23.583.786,20.062,1.784,27.053-.438,27.263l2.222-.209-.115-26.947a4.79,4.79,0,0,0-.106-.872v-.007L241.1,437.321c-.609-2.086-3.091-6.625-4.812-6.215l-5.944,2.368-6.705.528a40.781,40.781,0,0,0-.909,4.988C226.24,439.293,228.129,439.109,230.807,439.448Z" transform="translate(-205.14 -380.405)" fill="#f48baa" style="mix-blend-mode: multiply;isolation: isolate"/>
      <path id="Trazado_11266" data-name="Trazado 11266" d="M217.534,538.351l-2.9-.163.208-4.5,2.9.161Z" transform="translate(-201.691 -424.156)" fill="#fdc8a8"/>
      <path id="Trazado_11267" data-name="Trazado 11267" d="M214.948,533.691l-.072,1.562a1.146,1.146,0,0,1,.546-.007c.745.172,1.4.319,1.585,1.115a2.388,2.388,0,0,1-.349,1.347c-.081.191-.162.382-.238.575l1.214.068.208-4.5Z" transform="translate(-201.792 -424.156)" fill="#fdc8a8" style="mix-blend-mode: multiply;isolation: isolate"/>
      <g id="Grupo_11543" data-name="Grupo 11543" transform="translate(5.591 113.072)">
        <path id="Trazado_11268" data-name="Trazado 11268" d="M201.874,543.36a1.847,1.847,0,0,1-.06-.531c-.036-.5,2.862-1.31,4.657-1.752a3.162,3.162,0,0,0,1.277-.646c.21-.27.063-.242.232-.165.525.237.919-.07,1.333-.077l.2,3.75c-2.489.045-6.309.074-7.119.083-.5.006-.515-.233-.536-.532A.537.537,0,0,1,201.874,543.36Z" transform="translate(-201.813 -539.999)" fill="#7b424e"/>
        <path id="Trazado_11269" data-name="Trazado 11269" d="M201.874,543.36a1.847,1.847,0,0,1-.06-.531c-.036-.5,2.862-1.31,4.657-1.752a3.162,3.162,0,0,0,1.277-.646c.21-.27.063-.242.232-.165.525.237.831-.068,1.333-.077l.2,3.75c-2.489.045-6.309.074-7.119.083-.5.006-.515-.233-.536-.532A.537.537,0,0,1,201.874,543.36Z" transform="translate(-201.813 -539.999)" fill="#c591a5" style="mix-blend-mode: multiply;isolation: isolate"/>
        <path id="Trazado_11270" data-name="Trazado 11270" d="M209.51,545.521l.037.691c-2.488.046-6.308.075-7.118.083-.5.006-.514-.233-.535-.532a.425.425,0,0,1,.013-.116Z" transform="translate(-201.847 -542.272)" fill="#283042"/>
        <path id="Trazado_11271" data-name="Trazado 11271" d="M209.513,545.579l.036.658c-2.489.045-6.309.074-7.119.083-.5.006-.515-.233-.536-.532a.3.3,0,0,1,.01-.084Z" transform="translate(-201.847 -542.297)" fill="#db967f" style="mix-blend-mode: multiply;isolation: isolate"/>
        <path id="Trazado_11272" data-name="Trazado 11272" d="M206,545.387c.021.3.03.542.461.536,1.017-.007,7.6-.017,7.922-.1a.538.538,0,0,0,.387-.547h0a.528.528,0,0,0-.459-.536l-7.923.1c-.233,0-.406.246-.387.545Z" transform="translate(-203.6 -541.939)" fill="#283042"/>
        <g id="Grupo_11542" data-name="Grupo 11542" transform="translate(2.362)">
          <path id="Trazado_11273" data-name="Trazado 11273" d="M214.727,542.977c.028.192-2.692.17-8.644.231-.141,0-.115-.005-.153-.562-.034-.5,2.432-1.294,3.957-1.726a2.487,2.487,0,0,0,1.084-.637c.18-.27.053-.243.2-.166,2.792,1.5,2.48-.462,2.927-.242C214.631,540.141,214.68,542.643,214.727,542.977Z" transform="translate(-205.93 -539.857)" fill="#7b424e"/>
        </g>
        <path id="Trazado_11274" data-name="Trazado 11274" d="M214.215,541.948a.068.068,0,0,0,.1.018h0a.1.1,0,0,0,.046-.112l-.385-.907a.068.068,0,0,0-.1-.022h0a.1.1,0,0,0-.046.113Z" transform="translate(-206.935 -540.307)" fill="#283042"/>
        <path id="Trazado_11275" data-name="Trazado 11275" d="M212.823,542.306c.01.03.051.038.095.018h0c.043-.018.069-.059.059-.088l-.245-.75c-.007-.029-.052-.04-.094-.019h0c-.043.019-.069.06-.059.09Z" transform="translate(-206.402 -540.539)" fill="#283042"/>
        <path id="Trazado_11276" data-name="Trazado 11276" d="M211.628,542.672c.005.018.044.021.087,0h0c.044-.016.076-.046.071-.064l-.141-.474c0-.019-.046-.021-.089,0h0c-.043.016-.074.045-.07.065Z" transform="translate(-205.938 -540.823)" fill="#283042"/>
        <path id="Trazado_11277" data-name="Trazado 11277" d="M213.005,540.908a.066.066,0,0,0,.077-.071h0a.117.117,0,0,0-.093-.094l-1.183-.155a.065.065,0,0,0-.079.069h0a.11.11,0,0,0,.094.095Z" transform="translate(-206.041 -540.168)" fill="#283042"/>
        <path id="Trazado_11278" data-name="Trazado 11278" d="M211.912,541.483a.062.062,0,0,0,.072-.068h0a.093.093,0,0,0-.072-.092l-1.015-.162a.066.066,0,0,0-.073.069h0a.094.094,0,0,0,.073.091Z" transform="translate(-205.655 -540.413)" fill="#283042"/>
        <path id="Trazado_11279" data-name="Trazado 11279" d="M210.86,541.987a.063.063,0,0,0,.083-.055h0a.09.09,0,0,0-.059-.1l-.975-.3a.067.067,0,0,0-.085.057h0a.091.091,0,0,0,.058.1Z" transform="translate(-205.228 -540.569)" fill="#283042"/>
      </g>
      <g id="Grupo_11545" data-name="Grupo 11545" transform="translate(12.886 81.585)">
        <g id="Grupo_11544" data-name="Grupo 11544">
          <path id="Trazado_11280" data-name="Trazado 11280" d="M221.373,485.269l-.787-.2c-1.735-.439-2.962.453-3.429,2.8l-2.477,25.288-.149,2.125,4.034.274,5.373-25.845A3.585,3.585,0,0,0,221.373,485.269Z" transform="translate(-214.531 -484.966)" fill="#0f3871"/>
        </g>
      </g>
      <path id="Trazado_11281" data-name="Trazado 11281" d="M224.85,471.8c-2.343,7.477-3.51,21.542-5.843,27.877h1.467l5.286-25.612a5.045,5.045,0,0,0,.192-.864l0,0,7.358-25.472S231.794,449.637,224.85,471.8Z" transform="translate(-203.553 -387.502)" fill="#f48baa" style="mix-blend-mode: multiply;isolation: isolate"/>
      <path id="Trazado_11282" data-name="Trazado 11282" d="M236.368,378.253l.918,10.586-3.473,9.873-7.129-9.44-.483-10.436Z" transform="translate(-206.62 -357.88)" fill="#fff"/>
      <path id="Trazado_11283" data-name="Trazado 11283" d="M234.09,372.17a18.109,18.109,0,0,1-4.934,2.157c-1.88.274-7.15,1.524-5.705-.591.531-.776,3.323-3.411,2.243-5.692-1.609-3.406,5.775-5.641,6.193-3.141C232.217,366.888,231.848,368.582,234.09,372.17Z" transform="translate(-205.342 -351.733)" fill="#fdc8a8"/>
      <path id="Trazado_11284" data-name="Trazado 11284" d="M227.59,369.7c2.808,1.068,4.595,1.74,7.411,2.787-.01-.2.938-.048.77-.317-2.242-3.589-1.872-5.281-2.2-7.267-.418-2.5-7.8-.264-6.193,3.141A2.644,2.644,0,0,1,227.59,369.7Z" transform="translate(-207.023 -351.733)" fill="#fdc8a8" style="mix-blend-mode: multiply;isolation: isolate"/>
      <path id="Trazado_11285" data-name="Trazado 11285" d="M234.062,369.411l-7.011-.734.027,1.509a19.087,19.087,0,0,0,4.942,2.683c.72.078,2.382-.958,2.37-1.367Z" transform="translate(-206.983 -353.798)" fill="#fdc8a8" style="mix-blend-mode: multiply;isolation: isolate"/>
      <path id="Trazado_11286" data-name="Trazado 11286" d="M238.9,354.427l.712-.492c.592-.4,1.178-.134,1.385.592.354,1.243-.677,1.521-.46,2.5l-1.653.081Z" transform="translate(-212.03 -347.432)" fill="#fdc8a8"/>
      <path id="Trazado_11287" data-name="Trazado 11287" d="M222.516,361.514l-.865-.041c-.716-.028-1.069.51-.863,1.236.356,1.242,1.319.894,1.789,1.943l1.371-.867Z" transform="translate(-204.288 -350.725)" fill="#fdc8a8"/>
      <path id="Trazado_11288" data-name="Trazado 11288" d="M233.632,357.2c-.239,1.846-1.252,4.59-2.419,5.079-1.31.544-5.775-.677-6.626-1.746-2.348-2.954-5.137-11.582,1.326-13.079,1.724-.4,4.5-1.947,6.04,1.065A21,21,0,0,1,233.632,357.2Z" transform="translate(-204.797 -344.428)" fill="#fdc8a8"/>
      <path id="Trazado_11289" data-name="Trazado 11289" d="M234.552,357.2a21,21,0,0,0-1.679-8.681c-1.54-3.012-4.316-1.463-6.04-1.065a5.8,5.8,0,0,0-2.752,1.386,1.41,1.41,0,0,1,.2.079,12.59,12.59,0,0,1,3.365,2.355c.076.075.255-.31.3-.23a7.234,7.234,0,0,0,2.1.491c.616-.028,2.784-1.144,3.221-.2a10.35,10.35,0,0,1,1.07,5.351c-.412,4.106-2.2,5.59-2.2,5.59C233.3,361.79,234.313,359.046,234.552,357.2Z" transform="translate(-205.717 -344.428)" fill="#fdc8a8" style="mix-blend-mode: multiply;isolation: isolate"/>
      <path id="Trazado_11290" data-name="Trazado 11290" d="M234.652,364.739c.767,1.371-.848,5.577-2.172,6.131-1.485.617-6.77-.9-7.481-2.273-1.3-2.511-1.32-2.951-.562-3.073.492-.079,2.149,1.6,3.4,1.579.89-.018.237-1.6,3.094-1.957,2.1-.262,1.8.191,2.413.4C234.255,365.868,234.243,364.008,234.652,364.739Z" transform="translate(-205.653 -352.045)" fill="#7b424e"/>
      <g id="Grupo_11546" data-name="Grupo 11546" transform="translate(16.028 0.833)">
        <path id="Trazado_11291" data-name="Trazado 11291" d="M225.675,344.279c.368-.648.187,2.536,1.361,1.359.526-.527,2.043-.4,3.071.859l-5.763,2.679c-.379.073-.759.148-1.136.235a2.015,2.015,0,0,0-1.454,2.122c-.555-.172-1.111-.338-1.665-.551C219.32,345.54,224.413,346.505,225.675,344.279Z" transform="translate(-220.009 -344.191)" fill="#7b424e"/>
      </g>
      <path id="Trazado_11292" data-name="Trazado 11292" d="M233.288,343.146a2.009,2.009,0,0,1-.935,2.277,2.54,2.54,0,0,1-2.972-.593c-.335-.637.843-.255,1.612-1.331C231.628,342.609,232.951,342.51,233.288,343.146Z" transform="translate(-207.952 -342.738)" fill="#7b424e"/>
      <path id="Trazado_11293" data-name="Trazado 11293" d="M237.511,351.969c1.456-.375,2.243,2.572,2.243,2.572.4-.135.076-2.368-.743-4.033C238.5,349.465,236.459,352.239,237.511,351.969Z" transform="translate(-211.316 -345.95)" fill="#7b424e"/>
      <path id="Trazado_11294" data-name="Trazado 11294" d="M237.511,351.969c1.456-.375,2.243,2.572,2.243,2.572.4-.135.076-2.368-.743-4.033C238.5,349.465,236.459,352.239,237.511,351.969Z" transform="translate(-211.316 -345.95)" fill="#f48baa" style="mix-blend-mode: multiply;isolation: isolate"/>
      <path id="Trazado_11295" data-name="Trazado 11295" d="M231.5,346.939a2.373,2.373,0,0,1-1.183,3.048c-2.633,1.667-3.666-.118-7.43,1.606-.322.148.435.866-.466,2.006a3.434,3.434,0,0,0-.23,2.977c-.573.112-1.592-4.071-1.75-4.5-.761-2.061,1.1-4.883,4.15-6.3S230.738,344.878,231.5,346.939Z" transform="translate(-204.093 -343.693)" fill="#7b424e"/>
      <path id="Trazado_11296" data-name="Trazado 11296" d="M221.841,355.017a43.783,43.783,0,0,1-1.142-4.267c-.158-1.377-.246-2.339.877-3.306a13.031,13.031,0,0,1,2.993-1.234,3.586,3.586,0,0,0,1.775-1.49,2.621,2.621,0,0,1-.356.162c-.1-.473-.16-.876-.314-.6-1.262,2.227-6.355,1.261-5.587,6.7l.087.032a2.764,2.764,0,0,0,.155.73c.158.426,1.177,4.608,1.75,4.5A10.25,10.25,0,0,1,221.841,355.017Z" transform="translate(-203.981 -343.357)" fill="#f48baa" style="mix-blend-mode: multiply;isolation: isolate"/>
      <g id="Grupo_11547" data-name="Grupo 11547" transform="translate(23.95 13.624)">
        <path id="Trazado_11297" data-name="Trazado 11297" d="M236.922,366.489l0,.014a1.441,1.441,0,0,1-1.252,1.729,1.7,1.7,0,0,1-1.853-1.336s0-.01,0-.015Z" transform="translate(-233.819 -366.489)" fill="#fdc8a8" style="mix-blend-mode: multiply;isolation: isolate"/>
        <path id="Trazado_11298" data-name="Trazado 11298" d="M236.8,366.639l0,.013a1.307,1.307,0,0,1-1.136,1.568,1.538,1.538,0,0,1-1.681-1.211.122.122,0,0,1,0-.013Z" transform="translate(-233.89 -366.553)" fill="#f6f1ec"/>
      </g>
      <g id="Grupo_11548" data-name="Grupo 11548" transform="translate(27.143 20.753)">
        <path id="Trazado_11299" data-name="Trazado 11299" d="M242.783,379.052c-.9-.006,5.356-1.341,11.283,4.471l8.877,10.014c.471.532,2.173,2.847,1.731,3.726l-5.427,1.918c-.878-1.128-2.09-2.337-3.613-3.962l-5.213-5.053c-1.5-1.505-7.758-4.345-11.035-6.868C240.28,382.235,239.926,380.988,242.783,379.052Z" transform="translate(-239.386 -378.916)" fill="#fff"/>
      </g>
      <path id="Trazado_11300" data-name="Trazado 11300" d="M217.847,414.014l17.75.5c.011-1.248.03-1.228.061-2.011l1.822-29.329c-.078-1.681-2.239-4.836-7.825-4.924-.467,2.545.885,5.953-1.065,7.938-.95.971-.073,4.147-1.232,4.913-.558.37.519,6.543-.251,6.437l-7.993-13.8a8.639,8.639,0,0,1,.9-4.183c-6.923,1.757-8.479,4.079-9.344,7.04l5.067,13.187A49.279,49.279,0,0,1,217.847,414.014Z" transform="translate(-199.999 -357.879)" fill="#fff"/>
      <g id="Grupo_11550" data-name="Grupo 11550" transform="translate(19.11 20.371)" style="mix-blend-mode: multiply;isolation: isolate">
        <g id="Grupo_11549" data-name="Grupo 11549">
          <path id="Trazado_11301" data-name="Trazado 11301" d="M225.926,382.107a7.684,7.684,0,0,0-.539,3.271l.75,1.3Z" transform="translate(-225.382 -379.895)" fill="#b3deff"/>
          <path id="Trazado_11302" data-name="Trazado 11302" d="M239.758,378.253h-.017l-.074,0,0,.007-3.307.19c.181.137.365.274.555.41,3.449-.539,8.6,1.539,8.932,4.736a68.235,68.235,0,0,1-.081,11.256c-.933,14.1,1.057,17.556-6.844,17.275-1.536-.056-2.652,1.389-4.11,1.86q-.329.108-.659.208l11.458.323c.011-1.248.03-1.228.061-2.011l1.822-29.329C247.414,381.5,245.275,378.374,239.758,378.253Z" transform="translate(-229.12 -378.25)" fill="#b3deff"/>
        </g>
      </g>
      <g id="Grupo_11551" data-name="Grupo 11551" transform="translate(0 21.432)">
        <path id="Trazado_11303" data-name="Trazado 11303" d="M211.83,380.166c.895-.11-5.476-.714-10.692,5.743l-7.661,10.972c-.407.583-1.831,3.079-1.289,3.9l5.612,1.279c.742-1.222,1.807-2.562,3.131-4.352l4.6-5.621c1.32-1.668,7.2-5.211,10.168-8.1C214.684,383.038,214.892,381.759,211.83,380.166Z" transform="translate(-192.067 -380.101)" fill="#fff"/>
      </g>
      <path id="Trazado_11304" data-name="Trazado 11304" d="M225.525,380.1l5.114,3.52.236-2.8-5.225-2Z" transform="translate(-206.333 -358.123)" fill="#b3deff" style="mix-blend-mode: multiply;isolation: isolate"/>
      <path id="Trazado_11305" data-name="Trazado 11305" d="M224.078,378.648l5.778,3.568.451-2.372-5.4-3Z" transform="translate(-205.715 -357.281)" fill="#fff"/>
      <path id="Trazado_11306" data-name="Trazado 11306" d="M238.858,377.544l-3.089,4.83-.859-2.946,3.776-3.53Z" transform="translate(-210.334 -356.877)" fill="#b3deff" style="mix-blend-mode: multiply;isolation: isolate"/>
      <path id="Trazado_11307" data-name="Trazado 11307" d="M239.463,377l-3.6,4.464-.962-2.45,3.737-3.785Z" transform="translate(-210.33 -356.59)" fill="#fff"/>
      <path id="Trazado_11308" data-name="Trazado 11308" d="M238.347,402.262a.458.458,0,1,0,.434-.412A.423.423,0,0,0,238.347,402.262Z" transform="translate(-211.799 -367.942)" fill="#b3deff" style="mix-blend-mode: multiply;isolation: isolate"/>
      <path id="Trazado_11309" data-name="Trazado 11309" d="M235.863,391.631a.457.457,0,1,0,.434-.414A.427.427,0,0,0,235.863,391.631Z" transform="translate(-210.74 -363.408)" fill="#b3deff" style="mix-blend-mode: multiply;isolation: isolate"/>
      <path id="Trazado_11310" data-name="Trazado 11310" d="M240.766,411.591a.43.43,0,0,0,.471.375.424.424,0,0,0,.435-.41.458.458,0,0,0-.906.036Z" transform="translate(-212.831 -371.92)" fill="#b3deff" style="mix-blend-mode: multiply;isolation: isolate"/>
      <path id="Trazado_11311" data-name="Trazado 11311" d="M241.226,420.506a.431.431,0,0,0,.471.376.4.4,0,1,0-.471-.376Z" transform="translate(-213.027 -375.721)" fill="#b3deff" style="mix-blend-mode: multiply;isolation: isolate"/>
      <path id="Trazado_11312" data-name="Trazado 11312" d="M241.226,430.12a.429.429,0,0,0,.471.374.4.4,0,1,0-.471-.374Z" transform="translate(-213.027 -379.82)" fill="#b3deff" style="mix-blend-mode: multiply;isolation: isolate"/>
      <g id="Grupo_11552" data-name="Grupo 11552" transform="translate(29.133 28.297)">
        <path id="Trazado_11313" data-name="Trazado 11313" d="M247.977,395.717l-1.847,2.335-2.588-1.6-.688-3.65,4.435-.734Z" transform="translate(-242.854 -392.067)" fill="#b3deff" style="mix-blend-mode: multiply;isolation: isolate"/>
        <path id="Trazado_11314" data-name="Trazado 11314" d="M247.944,395.9l-1.662,2.1-2.33-1.441-.619-3.285,3.992-.661Z" transform="translate(-243.058 -392.302)" fill="#fff"/>
      </g>
      <path id="Trazado_11315" data-name="Trazado 11315" d="M241.545,439.4c0,.684.086,1.24-.467,1.24H222.832c-.552,0-.467-.556-.467-1.24h0c0-.685-.085-1.24.467-1.24h18.245c.553,0,.467.555.467,1.24Z" transform="translate(-204.983 -383.425)" fill="#b74c4e"/>
      <g id="Grupo_11558" data-name="Grupo 11558" transform="translate(33.03 49.029)">
        <g id="Grupo_11553" data-name="Grupo 11553" transform="translate(0 4.03)">
          <path id="Trazado_11316" data-name="Trazado 11316" d="M250.426,438.824s-1-.13-.733-.86a6.241,6.241,0,0,1,1.5-2.5.675.675,0,0,1,1.1.133,1.089,1.089,0,0,1-.073,1.279C251.409,437.758,251.023,438.758,250.426,438.824Z" transform="translate(-249.648 -435.235)" fill="#fdc8a8"/>
        </g>
        <g id="Grupo_11554" data-name="Grupo 11554" transform="translate(1.196 4.388)">
          <path id="Trazado_11317" data-name="Trazado 11317" d="M252.687,439.312s-1.18-.12-.914-.849a5.823,5.823,0,0,1,1.469-2.372.674.674,0,0,1,1.1.133,1.087,1.087,0,0,1-.073,1.279C253.453,438.381,252.957,439.4,252.687,439.312Z" transform="translate(-251.734 -435.86)" fill="#fdc8a8"/>
        </g>
        <g id="Grupo_11555" data-name="Grupo 11555" transform="translate(2.395 4.823)">
          <path id="Trazado_11318" data-name="Trazado 11318" d="M255.044,439.847s-1.454.1-1.187-.625a5.81,5.81,0,0,1,1.47-2.373.674.674,0,0,1,1.1.13,1.577,1.577,0,0,1-.181,1.658C255.2,439.344,255.576,439.875,255.044,439.847Z" transform="translate(-253.824 -436.618)" fill="#fdc8a8"/>
        </g>
        <g id="Grupo_11556" data-name="Grupo 11556" transform="translate(0.824)">
          <path id="Trazado_11319" data-name="Trazado 11319" d="M251.887,431.55a1.3,1.3,0,0,0-.708,1.623c.543,1.163,1.539,1.954,2.07,1.915,1.786-.131,1.4.321,1.977-.2,2.571-2.3,5.39-5.149,3.837-4.36-.75.379-1.81-2.759-2.113-2.27C255.357,430.853,251.887,431.55,251.887,431.55Z" transform="translate(-251.085 -428.21)" fill="#fdc8a8"/>
        </g>
        <g id="Grupo_11557" data-name="Grupo 11557" transform="translate(0.825)" style="mix-blend-mode: multiply;isolation: isolate">
          <path id="Trazado_11320" data-name="Trazado 11320" d="M253.66,431.455a2.681,2.681,0,0,0-2.531,1.587,1.334,1.334,0,0,1,.758-1.491s3.47-.7,5.062-3.288c.3-.489,1.364,2.648,2.113,2.27,1.17-.594-.141.878-1.957,2.62C256.474,432.992,254.4,431.511,253.66,431.455Z" transform="translate(-251.087 -428.21)" fill="#fdc8a8"/>
        </g>
      </g>
      <g id="Grupo_11559" data-name="Grupo 11559" transform="translate(37.091 35.454)">
        <path id="Trazado_11321" data-name="Trazado 11321" d="M256.727,420.187l10.841-15.642c1.8,1.11,2.659,2.576,4.5,3.645a12.959,12.959,0,0,1-2.535,3.33L259.935,423c-.332.363-1.3-.528-2.394-1.493A2.344,2.344,0,0,1,256.727,420.187Z" transform="translate(-256.727 -404.545)" fill="#fff"/>
      </g>
      <path id="Trazado_11322" data-name="Trazado 11322" d="M265.008,406.18c-.587-.626-1.247-1.312-1.981-2.094l-4.51-4.372c1.626,1.073,8.1,5.881,7.245,7.222s-6.578,9.1-7.243,10.147a2.671,2.671,0,0,0,.457,3.572c-.237-.162-.961-.79-1.436-1.21a2.344,2.344,0,0,1-.814-1.318Z" transform="translate(-219.636 -367.031)" fill="#b3deff" style="mix-blend-mode: multiply;isolation: isolate"/>
      <g id="Grupo_11565" data-name="Grupo 11565" transform="translate(11.614 50.518)">
        <g id="Grupo_11560" data-name="Grupo 11560" transform="translate(6.687 3.454)">
          <path id="Trazado_11323" data-name="Trazado 11323" d="M226.316,440.25s.977-.245.629-.94A6.254,6.254,0,0,0,225.162,437a.675.675,0,0,0-1.081.259,1.087,1.087,0,0,0,.22,1.262C225.217,439.3,225.715,440.253,226.316,440.25Z" transform="translate(-223.972 -436.827)" fill="#fdc8a8"/>
        </g>
        <g id="Grupo_11561" data-name="Grupo 11561" transform="translate(5.581 3.943)">
          <path id="Trazado_11324" data-name="Trazado 11324" d="M224.157,440.992s1.159-.255.81-.949a5.817,5.817,0,0,0-1.733-2.187.673.673,0,0,0-1.081.259,1.088,1.088,0,0,0,.221,1.263C223.288,440.156,223.9,441.107,224.157,440.992Z" transform="translate(-222.043 -437.68)" fill="#fdc8a8"/>
        </g>
        <g id="Grupo_11562" data-name="Grupo 11562" transform="translate(4.469 4.513)">
          <path id="Trazado_11325" data-name="Trazado 11325" d="M221.9,441.795s1.456-.064,1.107-.758a5.809,5.809,0,0,0-1.733-2.187.674.674,0,0,0-1.081.257,1.576,1.576,0,0,0,.371,1.626C221.684,441.314,221.373,441.884,221.9,441.795Z" transform="translate(-220.105 -438.674)" fill="#fdc8a8"/>
        </g>
        <g id="Grupo_11563" data-name="Grupo 11563" transform="translate(0)">
          <path id="Trazado_11326" data-name="Trazado 11326" d="M220.009,433.531a1.3,1.3,0,0,1,.891,1.53c-.4,1.218-1.3,2.119-1.835,2.141-1.79.076-1.351.48-1.986.033-2.819-1.984-5.948-4.492-4.314-3.887.788.289,1.479-2.95,1.837-2.5C216.482,433.239,220.009,433.531,220.009,433.531Z" transform="translate(-212.314 -430.806)" fill="#fdc8a8"/>
        </g>
        <g id="Grupo_11564" data-name="Grupo 11564" style="mix-blend-mode: multiply;isolation: isolate">
          <path id="Trazado_11327" data-name="Trazado 11327" d="M218.237,433.64a2.682,2.682,0,0,1,2.7,1.283,1.333,1.333,0,0,0-.926-1.393s-3.527-.292-5.408-2.682c-.357-.451-1.049,2.788-1.837,2.5-1.231-.455.24.856,2.246,2.377C215.62,435.491,217.509,433.781,218.237,433.64Z" transform="translate(-212.314 -430.806)" fill="#fdc8a8"/>
        </g>
      </g>
      <g id="Grupo_11566" data-name="Grupo 11566" transform="translate(0.121 37.973)">
        <path id="Trazado_11328" data-name="Trazado 11328" d="M208.9,423.222l-12.574-14.286c-1.662,1.311-2.344,2.865-4.049,4.14a12.95,12.95,0,0,0,2.9,3.015l10.859,10.294c.372.322,1.232-.675,2.206-1.759A2.348,2.348,0,0,0,208.9,423.222Z" transform="translate(-192.278 -408.936)" fill="#fff"/>
      </g>
      <path id="Trazado_11329" data-name="Trazado 11329" d="M203.935,409.489c.511-.69,1.087-1.447,1.725-2.309l3.975-4.863c-1.491,1.253-7.366,6.776-6.363,8.01s7.584,8.284,8.366,9.243a2.671,2.671,0,0,1-.041,3.6c.217-.189.864-.9,1.287-1.367a2.348,2.348,0,0,0,.656-1.4Z" transform="translate(-196.796 -368.141)" fill="#b3deff" style="mix-blend-mode: multiply;isolation: isolate"/>
      <path id="Trazado_11330" data-name="Trazado 11330" d="M241.805,439.347c0,.727.05,1.316-.725,1.316h-2.843c-.775,0-.725-.589-.725-1.316h0c0-.728-.05-1.317.725-1.317h2.843c.776,0,.725.589.725,1.317Z" transform="translate(-211.443 -383.368)" fill="#f7c651"/>
    </g>
    <g id="Grupo_11571" data-name="Grupo 11571" transform="translate(169.199 140.536)">
      <g id="Grupo_11570" data-name="Grupo 11570" transform="translate(0 0)">
        <path id="Trazado_11331" data-name="Trazado 11331" d="M397.069,463.419c-21.148-8.16-57.135-59.306-55.032-67.775s22.529-17.459,30.992-15.358,11.422,54.359,37.1,71.4C417.4,456.514,405.207,466.563,397.069,463.419Z" transform="translate(-284.467 -251.466)" fill="#fff"/>
        <path id="Trazado_11332" data-name="Trazado 11332" d="M392.983,458.263c-7.347-5.725-12.88-12.756-18.712-19.729-7.251-8.672-14.811-19.879-9.773-31.849,2.771-6.6,9.6-9.289,16.59-9.459-2.82-9.335-5.1-16.2-8.059-16.939-8.463-2.1-28.888,6.9-30.992,15.358s33.884,59.615,55.032,67.775c4.054,1.564,9.106-.134,12.269-2.843A15.938,15.938,0,0,1,392.983,458.263Z" transform="translate(-284.467 -251.466)" fill="#c7cdff" style="mix-blend-mode: multiply;isolation: isolate"/>
        <path id="Trazado_11333" data-name="Trazado 11333" d="M244.314,332.93c6.883,21.548,24.792,35.076,47.031,27.984s34.688-30.322,27.81-51.873-30.477-33.267-52.718-26.168S237.432,311.377,244.314,332.93Z" transform="translate(-241.741 -209.179)" fill="#283042"/>
        <g id="Grupo_11569" data-name="Grupo 11569" transform="translate(18.008)">
          <path id="Trazado_11334" data-name="Trazado 11334" d="M297.956,274.321l-17.942,5.727c-8.166,2.612-9.211,22.193-2.334,43.74s19.072,36.907,27.24,34.3c0,0,16.787-6.5,17.642-6.66Z" transform="translate(-273.135 -206.417)" fill="#5e98ff"/>
          <path id="Trazado_11335" data-name="Trazado 11335" d="M310.129,270.439l-17.941,5.728c-8.164,2.6-9.21,22.185-2.338,43.738s18.515,36.661,26.68,34.059c15.8-5.144,15.838-5.97,18.2-6.422Z" transform="translate(-278.326 -204.762)" fill="#0f3871"/>
          <path id="Trazado_11336" data-name="Trazado 11336" d="M376.133,165.646c-9.862,3.146,2.829,38.644-78.928,64.741-8.17,2.605-9.216,22.188-2.336,43.736s19.073,36.911,27.241,34.3c58.22-18.581,96.278,8.827,101.839,7.051,14.392-4.589,14.272-45.263,2.153-83.233S390.522,161.052,376.133,165.646Z" transform="translate(-280.463 -159.898)" fill="#fff"/>
          <path id="Trazado_11337" data-name="Trazado 11337" d="M400.943,169.2a13.077,13.077,0,0,1,2.58,11.008c-.432,2.114-.822,4.237-1.14,6.372-.052.361-.19,1.464-.263,2.045-.081.661-.158,1.318-.222,1.98-.418,4.2-21.448-3.445-21.648.764,0,0-7.514,19.453,4.976,62.98,3.191,11.1,8.49,32.847-7.378,36.643-11.879,2.847-25.428,5.254-40.26,9.824-8.847,2.722-12.934,3.563-12.934,3.563,4.28,4.633,8.563,6.866,12.1,5.735,58.22-18.581,96.278,8.827,101.839,7.051,14.392-4.589,14.272-45.263,2.153-83.233C431.186,204.012,414.591,177.035,400.943,169.2Z" transform="translate(-295.1 -161.597)" fill="#c7cdff" style="mix-blend-mode: multiply;isolation: isolate"/>
          <path id="Trazado_11338" data-name="Trazado 11338" d="M490.078,225.685c13.865,43.452,11.763,82.938-4.711,88.2s-41.069-25.709-54.935-69.165-11.759-82.939,4.709-88.2S476.212,182.236,490.078,225.685Z" transform="translate(-336.296 -155.943)" fill="#fff"/>
          <path id="Trazado_11339" data-name="Trazado 11339" d="M443.479,164.9c-11.186,3.574-14.253,26.8-8.783,56.089,12.258,6.1,24.937,2.057,28.973.771,4.536-1.456,10.64,4.966,13.624,14.322s1.728,18.123-2.806,19.571c-3.982,1.267-17.735,5.662-23.851,14.718,12.421,26.346,28.07,42.932,39.086,39.419,14.177-4.53,15.317-40.626,2.547-80.642S457.657,160.374,443.479,164.9Z" transform="translate(-340.894 -159.561)" fill="#c7cdff"/>
          <path id="Trazado_11340" data-name="Trazado 11340" d="M443.479,164.9c-11.186,3.574-14.253,26.8-8.783,56.089,12.258,6.1,24.937,2.057,28.973.771,4.536-1.456,10.64,4.966,13.624,14.322s1.728,18.123-2.806,19.571c-3.982,1.267-17.735,5.662-23.851,14.718,12.421,26.346,28.07,42.932,39.086,39.419,14.177-4.53,15.317-40.626,2.547-80.642S457.657,160.374,443.479,164.9Z" transform="translate(-340.894 -159.561)" fill="#c7cdff" style="mix-blend-mode: multiply;isolation: isolate"/>
          <path id="Trazado_11341" data-name="Trazado 11341" d="M443.479,164.9c-11.186,3.574-14.253,26.8-8.783,56.089,12.258,6.1,24.937,2.057,28.973.771,4.536-1.456,10.64,4.966,13.624,14.322s1.728,18.123-2.806,19.571c-3.982,1.267-17.735,5.662-23.851,14.718,12.421,26.346,28.07,42.932,39.086,39.419,14.177-4.53,15.317-40.626,2.547-80.642S457.657,160.374,443.479,164.9Z" transform="translate(-340.894 -159.561)" fill="#c7cdff" style="mix-blend-mode: multiply;isolation: isolate"/>
          <path id="Trazado_11342" data-name="Trazado 11342" d="M470.907,362.118l2.252,4.221c18.469,3.878,40.124,21.3,40.124,21.3a37.068,37.068,0,0,0,3.649-12.243C511.959,373.191,489.723,364.245,470.907,362.118Z" transform="translate(-357.46 -243.851)" fill="#fff" opacity="0.3"/>
          <path id="Trazado_11343" data-name="Trazado 11343" d="M515.534,369.4q.317-3.1.393-6.524c-13.632-4.881-47.906-8.5-49.069-8.6a18.141,18.141,0,0,0,.832,1.634C489.33,358.343,510.911,367.359,515.534,369.4Z" transform="translate(-355.734 -240.507)" fill="#fff" opacity="0.3"/>
          <path id="Trazado_11344" data-name="Trazado 11344" d="M360.669,227.839c1.625-1.472-14.451,17.764-43.318,28.735-16.617,6.32-11.48,9.851-15.9,17.533-4.894,8.485-4.948-7.7-1.189-12.7,1.027-1.366,4.781-3.589,13.9-6.687S343.843,243.119,360.669,227.839Z" transform="translate(-283.562 -186.564)" fill="#fff" opacity="0.4"/>
          <g id="Grupo_11568" data-name="Grupo 11568" transform="translate(93.771 61.44)">
            <path id="Trazado_11345" data-name="Trazado 11345" d="M464.9,264.031c-4.644,1.455-16.649,4.8-28.288-.98a209.792,209.792,0,0,0,15.939,49.382c5.8-8.6,18.487-12.991,23.164-14.5Z" transform="translate(-436.607 -263.051)" fill="#283042"/>
          </g>
          <path id="Trazado_11346" data-name="Trazado 11346" d="M472.958,264.821c-10.193,4.179-2.736,23.928-3.553,28.837a15.742,15.742,0,0,1-6.394,10.184c-2.226,1.6-4.752,3.68-7.509-2.51a114.919,114.919,0,0,0,5.1,11.856c6.34-8.8,18.15-12.889,23.164-14.506Z" transform="translate(-350.892 -202.366)" fill="#151b26"/>
          <path id="Trazado_11347" data-name="Trazado 11347" d="M481.006,283.8c2.993,9.359,9.1,15.769,13.628,14.326s5.8-10.213,2.813-19.572-9.09-15.776-13.629-14.326S478.02,274.442,481.006,283.8Z" transform="translate(-361.076 -202.026)" fill="#fff"/>
          <path id="Trazado_11348" data-name="Trazado 11348" d="M498.775,284.786c.382,6.608-3.47,11.08-7.506,9.182-7.786-3.667-15.006-24.92-7.336-29.646l-.115.033c-4.539,1.453-5.8,10.214-2.812,19.572s9.1,15.769,13.628,14.326c3.57-1.146,5.112-6.816,4.15-13.749A1.413,1.413,0,0,0,498.775,284.786Z" transform="translate(-361.076 -202.153)" fill="#c7cdff" style="mix-blend-mode: multiply;isolation: isolate"/>
        </g>
        <path id="Trazado_11349" data-name="Trazado 11349" d="M395.4,433.819a3.111,3.111,0,0,0,3.914,2.019l8.765-2.792a3.125,3.125,0,0,0,2.02-3.915h0a3.1,3.1,0,0,0-3.91-2.014l-8.764,2.8a3.117,3.117,0,0,0-2.025,3.907Z" transform="translate(-307.196 -271.501)" fill="#283042"/>
        <path id="Trazado_11350" data-name="Trazado 11350" d="M405.667,455.08a2.721,2.721,0,0,0,3.5,1.587l7.521-2.846a2.711,2.711,0,0,0,1.581-3.5h0a2.708,2.708,0,0,0-3.5-1.583l-7.52,2.841a2.723,2.723,0,0,0-1.584,3.5Z" transform="translate(-311.56 -280.708)" fill="#283042"/>
        <path id="Trazado_11351" data-name="Trazado 11351" d="M417.523,473.316a2.286,2.286,0,0,0,2.942,1.33l6.3-2.379a2.286,2.286,0,0,0,1.331-2.938h0A2.286,2.286,0,0,0,425.153,468l-6.3,2.387a2.274,2.274,0,0,0-1.331,2.928Z" transform="translate(-316.628 -288.935)" fill="#283042"/>
      </g>
    </g>
  </g>
</svg>
