<svg xmlns="http://www.w3.org/2000/svg" width="360" height="326.681" viewBox="0 0 360 326.681">
  <g id="Grupo_11948" data-name="Grupo 11948" transform="translate(1213.28 -34)">
    <path id="Trazado_11838" data-name="Trazado 11838" d="M-1182.654,730.523c3.159-.957,6.785-.821,10.247-.68,41.286,1.689,85.525-1.038,126.883-1.749,39.352-.677,75.821.726,115.155-.187,26.061-.6,52.216-1.052,78.161.7,4.632.313,10.423,1.436,10.917,4.528.447,2.8-3.994,4.774-7.974,5.7-9.2,2.14-16.668,4.093-26.4,4.355-22.441.6-47.1,2.061-69.536,2.664-30.476.819-54.325,0-86.921,0-28.267,0-63.012-.384-92.715-1.776-14.88-.7-30.609-.269-45.268-2.056C-1176.525,741.239-1197.832,735.12-1182.654,730.523Z" transform="translate(-14.057 -385.535)" fill="#d67086" opacity="0.14" style="mix-blend-mode: multiply;isolation: isolate"/>
    <g id="Grupo_11870" data-name="Grupo 11870" transform="translate(-1084.299 34)">
      <rect id="Rectángulo_2978" data-name="Rectángulo 2978" width="105.769" height="70.396" transform="matrix(0.976, -0.217, 0.217, 0.976, 8.115, 70.227)" fill="#3b3387"/>
      <rect id="Rectángulo_2979" data-name="Rectángulo 2979" width="106.094" height="12.377" transform="translate(5.423 58.146) rotate(-12.561)" fill="#59595b"/>
      <g id="Grupo_11866" data-name="Grupo 11866" transform="translate(5.423 35.072)">
        <path id="Trazado_11839" data-name="Trazado 11839" d="M-698.886,127.813l12.276-2.735L-689.3,113l-.2.044Z" transform="translate(792.857 -112.998)" fill="#fff"/>
        <path id="Trazado_11840" data-name="Trazado 11840" d="M-910.547,162.116l2.278,10.224,7.946-12.5Z" transform="translate(910.547 -139.042)" fill="#e6e6e7"/>
        <path id="Trazado_11841" data-name="Trazado 11841" d="M-857.935,145.314l-9.389,14.772,19.036-4.242,9.389-14.772Z" transform="translate(886.514 -128.608)" fill="#fff"/>
        <path id="Trazado_11842" data-name="Trazado 11842" d="M-773.716,126.549l-9.389,14.772,19.036-4.242,9.389-14.772Z" transform="translate(839.685 -118.174)" fill="#fff"/>
        <path id="Trazado_11843" data-name="Trazado 11843" d="M-897.47,154.716l-7.946,12.5.414,1.857,16.5-3.676,9.389-14.772Z" transform="translate(907.694 -133.92)" fill="#3b3387"/>
        <path id="Trazado_11844" data-name="Trazado 11844" d="M-815.058,135.951l-9.389,14.772,18.355-4.09,9.389-14.772Z" transform="translate(862.673 -123.486)" fill="#3b3387"/>
        <path id="Trazado_11845" data-name="Trazado 11845" d="M-730.84,117.185l-9.389,14.772,18.355-4.09,9.389-14.772Z" transform="translate(815.844 -113.052)" fill="#3b3387"/>
      </g>
      <g id="Grupo_11867" data-name="Grupo 11867" transform="translate(0)">
        <path id="Trazado_11846" data-name="Trazado 11846" d="M-906,145.318l-11.274,5.574-5.485-11.095.179-.089Z" transform="translate(922.763 -92.777)" fill="#e6e6e7"/>
        <path id="Trazado_11847" data-name="Trazado 11847" d="M-720.3,34l4.642,9.39-14.032-4.747Z" transform="translate(815.411 -34)" fill="#fff"/>
        <path id="Trazado_11848" data-name="Trazado 11848" d="M-789.559,63.228l16.58,5.61-17.483,8.643-16.58-5.61Z" transform="translate(858.418 -50.252)" fill="#fff"/>
        <path id="Trazado_11849" data-name="Trazado 11849" d="M-866.907,101.468l16.58,5.61-17.483,8.643-16.58-5.61Z" transform="translate(901.426 -71.514)" fill="#fff"/>
        <path id="Trazado_11850" data-name="Trazado 11850" d="M-750.806,44.456l14.032,4.747.843,1.705L-751.083,58.4l-16.58-5.61Z" transform="translate(836.523 -39.814)" fill="#3b3387"/>
        <path id="Trazado_11851" data-name="Trazado 11851" d="M-828.154,82.7l16.58,5.61-16.857,8.334-16.58-5.61Z" transform="translate(879.53 -61.077)" fill="#3b3387"/>
        <path id="Trazado_11852" data-name="Trazado 11852" d="M-905.5,120.937l16.58,5.61-16.857,8.334-16.58-5.61Z" transform="translate(922.538 -82.339)" fill="#3b3387"/>
      </g>
      <path id="Trazado_11853" data-name="Trazado 11853" d="M-914.64,156.151l-8.109-23.19,11.272-5.578,21.792,23.207Z" transform="translate(922.755 -85.924)" fill="#3b3387"/>
      <path id="Trazado_11854" data-name="Trazado 11854" d="M-897.359,127.384l12.532,7.6-3.787,1.718Z" transform="translate(908.638 -85.924)" fill="#272525" opacity="0.26" style="mix-blend-mode: multiply;isolation: isolate"/>
      <path id="Trazado_11855" data-name="Trazado 11855" d="M-870.455,156.036l13.471,9.679-3.624.807Z" transform="translate(893.678 -101.856)" fill="#272525" opacity="0.26" style="mix-blend-mode: multiply;isolation: isolate"/>
      <g id="Grupo_11868" data-name="Grupo 11868" transform="translate(7.127 47.379)">
        <path id="Trazado_11856" data-name="Trazado 11856" d="M-903.409,141.983a1.676,1.676,0,0,1-1.216,2.034,1.676,1.676,0,0,1-2.034-1.216,1.676,1.676,0,0,1,1.216-2.034A1.676,1.676,0,0,1-903.409,141.983Z" transform="translate(906.71 -140.716)" fill="#fff"/>
        <path id="Trazado_11857" data-name="Trazado 11857" d="M-898.891,175.385a1.676,1.676,0,0,1-1.216,2.034,1.676,1.676,0,0,1-2.034-1.216,1.675,1.675,0,0,1,1.216-2.034A1.676,1.676,0,0,1-898.891,175.385Z" transform="translate(904.198 -159.288)" fill="#fff"/>
        <path id="Trazado_11858" data-name="Trazado 11858" d="M-871.9,168.589a1.675,1.675,0,0,1-1.216,2.034,1.675,1.675,0,0,1-2.034-1.216,1.675,1.675,0,0,1,1.216-2.034A1.676,1.676,0,0,1-871.9,168.589Z" transform="translate(889.19 -155.51)" fill="#fff"/>
      </g>
      <rect id="Rectángulo_2980" data-name="Rectángulo 2980" width="96.169" height="0.716" transform="translate(24.795 123.015) rotate(-12.561)" fill="#fff"/>
      <g id="Grupo_11869" data-name="Grupo 11869" transform="translate(54.588 109.846)">
        <rect id="Rectángulo_2981" data-name="Rectángulo 2981" width="0.79" height="11.682" transform="translate(0 7.754) rotate(-12.561)" fill="#fff"/>
        <rect id="Rectángulo_2982" data-name="Rectángulo 2982" width="0.79" height="11.682" transform="translate(34.03 0.172) rotate(-12.561)" fill="#fff"/>
      </g>
      <rect id="Rectángulo_2983" data-name="Rectángulo 2983" width="96.169" height="0.79" transform="translate(15.021 79.148) rotate(-12.561)" fill="#fff"/>
    </g>
    <g id="Grupo_11874" data-name="Grupo 11874" transform="translate(-996.352 161.324)">
      <g id="Grupo_11872" data-name="Grupo 11872" transform="translate(7.183 12.744)">
        <g id="Grupo_11871" data-name="Grupo 11871">
          <path id="Trazado_11859" data-name="Trazado 11859" d="M-690.82,354.071a5.685,5.685,0,0,0-1.9-2.239,12.976,12.976,0,0,0-10.633-1.974,5.333,5.333,0,0,0-3.618,2.223,6.346,6.346,0,0,0-.606,2.4l-.832,7.162a5.2,5.2,0,0,0-.006,1.735c.4,1.8,2.464,2.607,4.236,3.121q-.079.855-.11,1.714c.013.071.783,4.161,6,2.527a1.188,1.188,0,0,0,.811-.922,3.212,3.212,0,0,1,1.076-2.2c.7-.5,1.651-.463,2.435-.819,1.476-.671,1.971-2.484,2.3-4.073q.424-2.072.846-4.144A7.712,7.712,0,0,0-690.82,354.071Z" transform="translate(708.49 -349.491)" fill="#eac5b0"/>
        </g>
      </g>
      <g id="Grupo_11873" data-name="Grupo 11873" transform="translate(0 0)">
        <path id="Trazado_11860" data-name="Trazado 11860" d="M-686.725,330.109a20.179,20.179,0,0,0-.768-4.714c-.694-2.511-3.754-3.49-6.359-3.53-5.626-.085-11.172-2.334-16.54-.076-3.068,1.291-7.255,1.787-10,3.521a8.368,8.368,0,0,0-2.706,2.983,12.612,12.612,0,0,0,.7,13.319,18,18,0,0,0,2.1,2.361c1.565,1.52,3.441,3.4,5.506,3.88-.052-1.82-2.025-7.458-.713-9.025,2.083-2.486,7.137-1.94,9.916-1.51,3.032.468,5.821,2.442,8.817,2.731,2.156.208,4.826-.992,6.583-2.2C-687.435,335.962-686.64,333.043-686.725,330.109Z" transform="translate(724.669 -320.786)" fill="#292949"/>
      </g>
    </g>
    <g id="Grupo_11881" data-name="Grupo 11881" transform="translate(-1012.224 263.498)">
      <g id="Grupo_11877" data-name="Grupo 11877" transform="translate(25.421)">
        <g id="Grupo_11875" data-name="Grupo 11875">
          <path id="Trazado_11861" data-name="Trazado 11861" d="M-668.824,561.6l-8.588,74.23h-6.628l-7.628-67.363-11.5-1.246L-680.334,551l10.983-.073Z" transform="translate(703.163 -550.923)" fill="#353a85"/>
        </g>
        <g id="Grupo_11876" data-name="Grupo 11876" transform="translate(19.112 84.769)">
          <path id="Trazado_11862" data-name="Trazado 11862" d="M-660.115,741.857l.046.1,2.715,5.692,4.2.388,2.538-1.974-3.067-4.2Z" transform="translate(660.115 -741.857)" fill="#292949"/>
        </g>
      </g>
      <g id="Grupo_11880" data-name="Grupo 11880" transform="translate(0 1.282)">
        <g id="Grupo_11878" data-name="Grupo 11878">
          <path id="Trazado_11863" data-name="Trazado 11863" d="M-757.247,554.857c-1.99.324-2.689,1.532-3.143,4.216-.6,3.527,7.584-1.613,9.648,1.5,2.623,3.952,2.132,12.226,3.367,18.379.772,3.844-.78,8.978-1.05,12.881-.593,8.556-2.563,35.877-3.155,44.434l7.093,1.049,19.731-66.176,2.959-12.575-8.62-4.751c-5.138.707-11.211,2.532-16.376,2.255-2.957-.159-5.8-1.22-8.758-1.3A9.175,9.175,0,0,0-757.247,554.857Z" transform="translate(760.421 -553.811)" fill="#353a85"/>
        </g>
        <g id="Grupo_11879" data-name="Grupo 11879" transform="translate(8.852 82.303)">
          <path id="Trazado_11864" data-name="Trazado 11864" d="M-740.483,739.192l.034.111,2,6.521,4.428,1.079,3.029-1.711-2.618-4.983Z" transform="translate(740.483 -739.192)" fill="#292949"/>
        </g>
      </g>
    </g>
    <g id="Grupo_11882" data-name="Grupo 11882" transform="translate(-1017.199 193.508)">
      <path id="Trazado_11865" data-name="Trazado 11865" d="M-699.842,471.182c-7.227-6.194-6.6-23.558-6.6-23.561l-6.726-34.591a22.244,22.244,0,0,0-3.927-8.948l-4.711-6.393-21.4-4.39s-12.346-2.2-19.924,37.3c-1.653,8.618-4.318,18.9-4.774,29.59-.816,4.977-2.408,9.739-3.377,14.675-.282,1.435-.789,3.918.482,5.065,1.544,1.395,4.561.827,6.193.336,5.649-1.7,11.2-4.338,16.9-5.851,6.41-1.7,12.972-3.458,19.6-4.033,5.166-.448,9.231,1.153,14.157,2.172,2.892.6,3.693,1.885,6.618,2.282C-700.166,475.815-694.709,475.582-699.842,471.182Z" transform="translate(771.626 -393.278)" fill="#dddae8"/>
    </g>
    <g id="Grupo_11885" data-name="Grupo 11885" transform="translate(-997.944 186.51)">
      <g id="Grupo_11883" data-name="Grupo 11883">
        <path id="Trazado_11866" data-name="Trazado 11866" d="M-721.494,377.516l-6.762,13.575,34.385,9.922,1.388-12.088Z" transform="translate(728.256 -377.516)" fill="#474ebb"/>
      </g>
      <g id="Grupo_11884" data-name="Grupo 11884" transform="translate(2.69 2.328)">
        <path id="Trazado_11867" data-name="Trazado 11867" d="M-700.329,382.759l-7.975,2.62-12.466,9.816-1.428,56.634,22.752-3.25-5.3-48.071,12.023-7.282,3.25-3.837Z" transform="translate(722.198 -382.759)" fill="#474ebb"/>
      </g>
    </g>
    <g id="Grupo_11889" data-name="Grupo 11889" transform="translate(-1026.294 154.823)">
      <g id="Grupo_11886" data-name="Grupo 11886" transform="translate(0)">
        <path id="Trazado_11868" data-name="Trazado 11868" d="M-786.069,312.086l-3.26-5.943-2.6,1.283,2.895,6.128-3.075-1.528,3.409,4.746,2.884-.968Z" transform="translate(792.11 -306.143)" fill="#eac5b0"/>
      </g>
      <g id="Grupo_11888" data-name="Grupo 11888" transform="translate(1.716 7.78)">
        <g id="Grupo_11887" data-name="Grupo 11887">
          <path id="Trazado_11869" data-name="Trazado 11869" d="M-778.734,360.879l-9.511-35.584,5.82-1.629,20.813,37.483-7.866,18.282C-769.457,379.4-778.755,360.9-778.734,360.879Z" transform="translate(788.245 -323.666)" fill="#dddae8"/>
        </g>
      </g>
    </g>
    <g id="Grupo_11893" data-name="Grupo 11893" transform="translate(-967.948 195.529)">
      <g id="Grupo_11890" data-name="Grupo 11890" transform="translate(13.828)">
        <path id="Trazado_11870" data-name="Trazado 11870" d="M-629.547,404.121l2.55-6.292,2.831,1.062a13.432,13.432,0,0,1,.39,3.147c-.039.527-1.761,6.74-2.458,6.577l-3.079-.72Z" transform="translate(629.547 -397.829)" fill="#eac5b0"/>
      </g>
      <g id="Grupo_11892" data-name="Grupo 11892" transform="translate(0 8.28)">
        <g id="Grupo_11891" data-name="Grupo 11891">
          <path id="Trazado_11871" data-name="Trazado 11871" d="M-645.711,448.058l3.73-30.456-6.171-1.124L-660.693,451.1l15.055-2.965Z" transform="translate(660.693 -416.478)" fill="#dddae8"/>
        </g>
      </g>
    </g>
    <path id="Trazado_11872" data-name="Trazado 11872" d="M-494.117,452.8l3.3-14.4-8.934-27.035-11.985-7.53,13.122,44.333Z" transform="translate(-390.078 -205.642)" fill="#3a332d"/>
    <g id="Grupo_11897" data-name="Grupo 11897" transform="translate(-947.42 189.775)">
      <g id="Grupo_11894" data-name="Grupo 11894" transform="translate(13.223)">
        <path id="Trazado_11873" data-name="Trazado 11873" d="M-579.928,392.23l1.308-6.626-2.641-.733-1.842,4.321-1.1-.963-.47,5.819,2.65,1.156Z" transform="translate(584.672 -384.87)" fill="#eac5b0"/>
      </g>
      <g id="Grupo_11896" data-name="Grupo 11896" transform="translate(0 7.147)">
        <g id="Grupo_11895" data-name="Grupo 11895">
          <path id="Trazado_11874" data-name="Trazado 11874" d="M-601.694,400.968l-12.723,27.184-.038.008,13.6,10.875,4.314-35.488Z" transform="translate(614.455 -400.968)" fill="#353a85"/>
        </g>
      </g>
    </g>
    <g id="Grupo_11908" data-name="Grupo 11908" transform="translate(-943.246 167.93)">
      <g id="Grupo_11902" data-name="Grupo 11902" transform="translate(6.489 93.272)">
        <g id="Grupo_11898" data-name="Grupo 11898" transform="translate(3.319 86.683)">
          <path id="Trazado_11875" data-name="Trazado 11875" d="M-578.362,742.9l-4.6,6.78,3.574,1.532,6.638-4.851.511-5.361Z" transform="translate(582.962 -740.998)" fill="#292949"/>
        </g>
        <g id="Grupo_11899" data-name="Grupo 11899" transform="translate(36.427 84.113)">
          <path id="Trazado_11876" data-name="Trazado 11876" d="M-505.13,738.214l-3.259,7.517,3.8.84,5.62-6-.5-5.363Z" transform="translate(508.389 -735.208)" fill="#292949"/>
        </g>
        <g id="Grupo_11900" data-name="Grupo 11900" transform="translate(0 1.666)">
          <path id="Trazado_11877" data-name="Trazado 11877" d="M-590.438,555.982l3.817,24,3.817,57.111h6.725l4.544-55.191,3.454-32.4S-588.257,552.383-590.438,555.982Z" transform="translate(590.438 -549.503)" fill="#babcbe"/>
        </g>
        <g id="Grupo_11901" data-name="Grupo 11901" transform="translate(16.409)">
          <path id="Trazado_11878" data-name="Trazado 11878" d="M-553.479,555.653l14.737,49.608,8,28.636,6.74-1.276-3.864-29.469v-57.4S-551.962,551.7-553.479,555.653Z" transform="translate(553.479 -545.751)" fill="#babcbe"/>
        </g>
      </g>
      <g id="Grupo_11907" data-name="Grupo 11907" transform="translate(0)">
        <g id="Grupo_11904" data-name="Grupo 11904" transform="translate(23.056 7.975)">
          <g id="Grupo_11903" data-name="Grupo 11903">
            <path id="Trazado_11879" data-name="Trazado 11879" d="M-552.3,357.99a7.444,7.444,0,0,1,.809-1.267,7.964,7.964,0,0,1,3.165-2.275,11.216,11.216,0,0,1,11.458,1.85,12.088,12.088,0,0,1,2.229,14.642,7.247,7.247,0,0,1-1.942,2.036,10.3,10.3,0,0,1-3.351,1.617,18.583,18.583,0,0,0,1.287,3.105l-6.958.789q-.23-2-.459-4a9.917,9.917,0,0,1-1.813-.774c-4.892-2.715-5.665-7.675-5.072-14.205A4.406,4.406,0,0,1-552.3,357.99Z" transform="translate(553.123 -353.628)" fill="#eac5b0"/>
          </g>
        </g>
        <g id="Grupo_11905" data-name="Grupo 11905" transform="translate(17.666)">
          <path id="Trazado_11880" data-name="Trazado 11880" d="M-547.218,348.7a25.591,25.591,0,0,0-9.5.5,2.4,2.4,0,0,0-1.311.56,2.474,2.474,0,0,0-.5,1.534c-.208,2.243.016,4.528-.191,6.771.037-.4-2.625-2.782-2.933-3.352-.871-1.61-1.266-3.447-2.018-5.038-.718-1.521-1.529-2.483-1.588-4.295a17.133,17.133,0,0,1,.857-5.159,6.61,6.61,0,0,1,2.051-3.735,6.229,6.229,0,0,1,3.982-.809,36.392,36.392,0,0,1,15.3,4.137c1.759.923,4.85,2.254,5.634,4.133a23.292,23.292,0,0,1,1.045,5.672l-.194,6.8-4.612,4.234-1.309-10.455A18.615,18.615,0,0,0-547.218,348.7Z" transform="translate(565.262 -335.665)" fill="#292949"/>
        </g>
        <g id="Grupo_11906" data-name="Grupo 11906" transform="translate(0 30.267)">
          <path id="Trazado_11881" data-name="Trazado 11881" d="M-581.223,405.282l17.6-1.443s5.326,8.508,11.271,35.01c5.886,26.236,5.106,53.87,5.106,53.87s-23.694-9.028-57.806-5.176l9.938-64.573Z" transform="translate(605.054 -403.839)" fill="#353a85"/>
        </g>
      </g>
    </g>
    <g id="Grupo_11910" data-name="Grupo 11910" transform="translate(-920.395 194.822)">
      <path id="Trazado_11882" data-name="Trazado 11882" d="M-483.055,423.558a5.608,5.608,0,0,0,1.2-2.686,5.631,5.631,0,0,0-1.878-5.136,4.281,4.281,0,0,0,.218-.83,4.251,4.251,0,0,0-3.537-4.861,4.332,4.332,0,0,0-.66-.052,6.262,6.262,0,0,0-5-4.294,6.233,6.233,0,0,0-3.844.62,5.664,5.664,0,0,0,.186-.8,5.636,5.636,0,0,0-4.69-6.444,5.635,5.635,0,0,0-5.495,2.335,6.565,6.565,0,0,0-4.278-2.605,6.546,6.546,0,0,0-3.692.485,5.627,5.627,0,0,0-4.133-2.988,5.636,5.636,0,0,0-5.525,2.378,4.259,4.259,0,0,0-1.223-.388,4.25,4.25,0,0,0-4.86,3.537,4.27,4.27,0,0,0-.04.983,5.6,5.6,0,0,0-2.981-1.459,5.636,5.636,0,0,0-6.444,4.69,5.611,5.611,0,0,0,.128,2.351,5.636,5.636,0,0,0-4.569,4.669,5.66,5.66,0,0,0-.069.849Z" transform="translate(548.386 -396.236)" fill="#d67086"/>
      <path id="Trazado_11883" data-name="Trazado 11883" d="M-470.88,446.9a5.607,5.607,0,0,0,1.43-2.949,5.623,5.623,0,0,0-1.41-4.68c-16.372,3.734-50.756-1.524-50.756-1.524l-.312,1.11Z" transform="translate(535.982 -419.319)" opacity="0.06" style="mix-blend-mode: multiply;isolation: isolate"/>
      <g id="Grupo_11909" data-name="Grupo 11909" transform="translate(0 19.166)">
        <path id="Trazado_11884" data-name="Trazado 11884" d="M-527.42,443.072l-5.615,56.667c1.441.443,3.02.9,4.719,1.364l6.988-57.071Z" transform="translate(542.158 -441.445)" fill="#8cabef"/>
        <path id="Trazado_11885" data-name="Trazado 11885" d="M-480.878,451.088l-9.07,57.563c1.641.256,3.32.482,5.024.671l11.032-57.134Z" transform="translate(518.2 -445.902)" fill="#8cabef"/>
        <path id="Trazado_11886" data-name="Trazado 11886" d="M-549.17,439.407l-4.413,55.109s1.65.687,4.512,1.679l5.539-55.9Z" transform="translate(553.583 -439.407)" fill="#8cabef"/>
        <path id="Trazado_11887" data-name="Trazado 11887" d="M-504.939,446.9-511.98,504.4c1.636.384,3.346.756,5.115,1.1l9.058-57.482Z" transform="translate(530.45 -443.571)" fill="#8cabef"/>
        <path id="Trazado_11888" data-name="Trazado 11888" d="M-428,459.994l-5.638-.888-11.981,55.18c1.728-.088,3.454-.235,5.17-.449Z" transform="translate(493.551 -450.36)" fill="#8cabef"/>
        <path id="Trazado_11889" data-name="Trazado 11889" d="M-456.976,455.229l-10.97,56.813c1.669.107,3.353.172,5.044.188l12.163-56.018Z" transform="translate(505.966 -448.205)" fill="#8cabef"/>
        <path id="Trazado_11890" data-name="Trazado 11890" d="M-491.4,449.427l-9.058,57.482c1.515.3,3.074.57,4.667.819l9.07-57.563Z" transform="translate(524.044 -444.978)" fill="#fff"/>
        <path id="Trazado_11891" data-name="Trazado 11891" d="M-537.881,441.409l-5.539,55.9c1.3.451,2.851.965,4.611,1.506l5.615-56.667Z" transform="translate(547.932 -440.52)" fill="#fff"/>
        <path id="Trazado_11892" data-name="Trazado 11892" d="M-515.418,445.234l-6.988,57.071c1.461.4,3.008.79,4.629,1.172l7.041-57.505Z" transform="translate(536.248 -442.647)" fill="#fff"/>
        <path id="Trazado_11893" data-name="Trazado 11893" d="M-444.421,457.443l-12.163,56.018q2.429.022,4.869-.1l11.981-55.18Z" transform="translate(499.649 -449.436)" fill="#fff"/>
        <path id="Trazado_11894" data-name="Trazado 11894" d="M-467.6,453.567-478.631,510.7q2.342.259,4.744.417l10.97-56.813Z" transform="translate(511.907 -447.28)" fill="#fff"/>
      </g>
      <rect id="Rectángulo_2984" data-name="Rectángulo 2984" width="64.376" height="2.165" transform="translate(3.524 16.835) rotate(8.955)" fill="#fff"/>
      <path id="Trazado_11895" data-name="Trazado 11895" d="M-456.079,453.205l-.584,2.525-39.458-8.834Z" transform="translate(521.632 -424.405)" opacity="0.06" style="mix-blend-mode: multiply;isolation: isolate"/>
      <path id="Trazado_11896" data-name="Trazado 11896" d="M-502.273,540.289a36,36,0,0,1-5.509,3.047,46.95,46.95,0,0,1-5.8,2.133c-1.663.5-3.359.913-5.068,1.263-1.853.379-3.721.678-5.579.911-1.637.2-3.266.357-4.869.468-1.87.128-3.706.2-5.478.222-1.652.023-3.249.008-4.768-.035-1.75-.049-3.4-.134-4.907-.238-1.785-.123-3.377-.272-4.719-.418-2.887-.314-4.617-.615-4.617-.615s1.65.687,4.512,1.679c1.3.451,2.851.965,4.611,1.506,1.44.443,3.02.9,4.719,1.364,1.461.4,3.008.79,4.629,1.172,1.636.385,3.346.756,5.115,1.1,1.514.295,3.073.57,4.666.819,1.641.256,3.32.482,5.024.671q2.343.259,4.744.417,2.5.16,5.044.188,2.429.022,4.869-.1c1.727-.088,3.454-.235,5.17-.45l4.983-21.55A27.44,27.44,0,0,1-502.273,540.289Z" transform="translate(553.583 -472.75)" opacity="0.06" style="mix-blend-mode: multiply;isolation: isolate"/>
    </g>
    <g id="Grupo_11912" data-name="Grupo 11912" transform="translate(-870.25 242.25)">
      <g id="Grupo_11911" data-name="Grupo 11911" transform="translate(0 1.308)">
        <path id="Trazado_11897" data-name="Trazado 11897" d="M-433.318,510.7l-6.653,1.1-.665-2.664,4.364-1.7-.933-1.131,5.826-.285,1.087,2.687Z" transform="translate(440.637 -506.009)" fill="#eac5b0"/>
      </g>
      <path id="Trazado_11898" data-name="Trazado 11898" d="M-416.508,503.064l-4.016.107v6.376l1.414.317Z" transform="translate(429.454 -503.064)" fill="#353a85"/>
    </g>
    <path id="Trazado_11899" data-name="Trazado 11899" d="M-869.772,449.271S-856,464.631-852.8,466.1c2.373,1.088,14.859.3,14.859.3l2.535,5.612-16.8,6.056s-11.557-4.076-12.428-4.01-3.691.19-3.691.19Z" transform="translate(-191.001 -230.904)" fill="#353a85"/>
    <g id="Grupo_11914" data-name="Grupo 11914" transform="translate(-1027.343 229.941)">
      <g id="Grupo_11913" data-name="Grupo 11913">
        <path id="Trazado_11900" data-name="Trazado 11900" d="M-794.474,483.382l1.625-1.5.12-3.3.658-.3.4.883.822-2.675,1.807-1.148,2.627,1.3,1.456,2.836-1.347,2.648-2.871,1.785-3.385,3.433Z" transform="translate(794.474 -475.339)" fill="#eac5b0"/>
      </g>
    </g>
    <g id="Grupo_11915" data-name="Grupo 11915" transform="translate(-1098.308 262.648)">
      <path id="Trazado_11901" data-name="Trazado 11901" d="M-952.106,549.01s-5.17,16.688.306,17.725c3.133.593,2.142,8.085,2.142,8.085l2.907,35.9-6.071,24.325,7.077.354a82.4,82.4,0,0,0,10.205-24.865c3.818-16.842,5.4-35.543,5.524-36.036.239-.916,5.565-24.108,5.565-24.108Z" transform="translate(954.315 -549.01)" fill="#292949"/>
    </g>
    <g id="Grupo_11916" data-name="Grupo 11916" transform="translate(-1074.008 276.933)">
      <path id="Trazado_11902" data-name="Trazado 11902" d="M-898.416,583.66l-1.167,8.732,10.609,36.843-1.3,25.98,6.247-.357L-879,625.44l2.037-44.256Z" transform="translate(899.582 -581.184)" fill="#292949"/>
    </g>
    <g id="Grupo_11917" data-name="Grupo 11917" transform="translate(-1097.088 348.126)">
      <path id="Trazado_11903" data-name="Trazado 11903" d="M-945.179,741.541l3.286,5.239-2.113,3.417-5.625-.931-1.937-7Z" transform="translate(951.568 -741.541)" fill="#292949"/>
    </g>
    <g id="Grupo_11918" data-name="Grupo 11918" transform="translate(-1065.258 348.589)">
      <path id="Trazado_11904" data-name="Trazado 11904" d="M-871.939,743.532a6.35,6.35,0,0,0-2.937-.693c-1.613-.085-3.245-.256-4.859-.256-.8-.042,2.112,5.2,2.575,5.615a6.825,6.825,0,0,0,7.876,1.14,1.151,1.151,0,0,0,.552-.552,1.272,1.272,0,0,0-.225-.992C-870.158,745.607-870.694,744.264-871.939,743.532Z" transform="translate(879.875 -742.583)" fill="#292949"/>
    </g>
    <g id="Grupo_11919" data-name="Grupo 11919" transform="translate(-1107.102 214.007)">
      <path id="Trazado_11905" data-name="Trazado 11905" d="M-907.927,524.7c-1.907-4.575-9.109-32.776-9.109-32.776-2.306-6.276-1.308-12.551-2.833-21.894-1.29-7.9-3.613-28.677-12.94-30.37-7.416-1.346-15.552,3.817-21.687,9.954v0l.016-.016s-10.323,10.23-11.188,33.617a73.5,73.5,0,0,1-3.245,18.9c-3.378,11.113-7.608,17.265-3.551,19.347a14.138,14.138,0,0,0,4.089,1.248c6.692,1.119,16.6-.391,23.124-2.3,8.052-2.354,24.589,2.609,24.589,2.609s2.727,1.163,5.673,2.118C-911.106,526.409-906.843,527.305-907.927,524.7Z" transform="translate(974.124 -439.45)" fill="#353a85"/>
    </g>
    <g id="Grupo_11923" data-name="Grupo 11923" transform="translate(-1094.692 186.596)">
      <g id="Grupo_11920" data-name="Grupo 11920" transform="translate(24.899 2.667)">
        <path id="Trazado_11906" data-name="Trazado 11906" d="M-890.088,389.96c2.688.694,5.9,3.481,6.4,6.747.237,1.573-.284,2.985.029,4.657.606,3.3-3.127,7.926.218,10.365,1.719,1.253,3.959.987,6,.676a1.408,1.408,0,0,0,.71-.247,1.311,1.311,0,0,0,.316-1.264,5.037,5.037,0,0,0-.548-1.232c-2.174-4.153-1.309-9.911-2-14.552s-2.647-9.308-6.576-11.392c-2.079,1.367-3.9,2.76-4.527,5.374Z" transform="translate(890.088 -383.717)" fill="#3b455a"/>
      </g>
      <g id="Grupo_11921" data-name="Grupo 11921" transform="translate(15.175 5.245)">
        <path id="Trazado_11907" data-name="Trazado 11907" d="M-898.285,414.663c2.676-1.131,2.993-5.611,3.719-8.726a22.873,22.873,0,0,0-.175-9.536c-2.045-10.4-13.616-8.033-16.719.622C-914.165,404.567-906.064,417.952-898.285,414.663Z" transform="translate(911.992 -389.522)" fill="#eac5b0"/>
      </g>
      <g id="Grupo_11922" data-name="Grupo 11922" transform="translate(0)">
        <path id="Trazado_11908" data-name="Trazado 11908" d="M-932.468,412.178a8.514,8.514,0,0,0,3.459-3.359c1.337-2.657,1.042-6.9,1.332-9.845.306-3.1.726-6.473,2.726-8.646a6.175,6.175,0,0,1,4.564-1.862c1.179-.076,1.237.425,2.216-.335a6.1,6.1,0,0,0,1.514-3.211,5.921,5.921,0,0,0-1.337-4.511,6.461,6.461,0,0,0-5.439-2.7c-7.691.163-13.33,5.569-15.281,14.138-.938,4.119-.052,8.616-1.063,12.585-.624,2.451-1.958,4.125-2.449,6.727-1.275,6.751-4.331,15.449-3.906,22.348a1.035,1.035,0,0,0,.224.7c.355.33.862-.115,1.153-.524l5.1-7.164a13.327,13.327,0,0,0,1.76-3c1.033-2.754.375-6.224,2.037-8.558A10.965,10.965,0,0,1-932.468,412.178Z" transform="translate(946.172 -377.709)" fill="#292949"/>
      </g>
    </g>
    <g id="Grupo_11927" data-name="Grupo 11927" transform="translate(-1113.626 193.094)">
      <g id="Grupo_11926" data-name="Grupo 11926" transform="translate(0)">
        <g id="Grupo_11925" data-name="Grupo 11925">
          <g id="Grupo_11924" data-name="Grupo 11924">
            <path id="Trazado_11909" data-name="Trazado 11909" d="M-945.088,393.456l-43.729,1.042.585,24.553,37.982-.9,5.545-8.646,2.624-.062,5.95,8.372,38.232-.911-.585-24.553Z" transform="translate(988.818 -392.345)" fill="#eed5d5"/>
          </g>
        </g>
        <path id="Trazado_11910" data-name="Trazado 11910" d="M-975.618,406.592l32.485-.774.231,9.684-3.347,5.218-29.016.691Z" transform="translate(981.478 -399.837)" fill="#d67086"/>
        <path id="Trazado_11911" data-name="Trazado 11911" d="M-838.727,403.332l-32.485.774.231,9.684,3.591,5.053,29.016-.691Z" transform="translate(923.425 -398.454)" fill="#474ebb"/>
        <path id="Trazado_11912" data-name="Trazado 11912" d="M-942.774,405.8l-32.163,15.558,29.047-.7,3.374-5.274Z" transform="translate(981.099 -399.825)" opacity="0.06" style="mix-blend-mode: multiply;isolation: isolate"/>
        <path id="Trazado_11913" data-name="Trazado 11913" d="M-833.883,403.4l-28.726,15.543,29.047-.7Z" transform="translate(918.642 -398.493)" opacity="0.06" style="mix-blend-mode: multiply;isolation: isolate"/>
      </g>
    </g>
    <g id="Grupo_11930" data-name="Grupo 11930" transform="translate(-1106.793 214.572)">
      <g id="Grupo_11928" data-name="Grupo 11928" transform="translate(0 9.454)">
        <path id="Trazado_11914" data-name="Trazado 11914" d="M-958.46,462.016l4.611,2.148-7.868,28.463-3.277,4.341s-11.752-6.252-7.512-15.438S-958.46,462.016-958.46,462.016Z" transform="translate(973.429 -462.016)" fill="#353a85"/>
      </g>
      <g id="Grupo_11929" data-name="Grupo 11929" transform="translate(14.435)">
        <path id="Trazado_11915" data-name="Trazado 11915" d="M-940.916,451.373l1.946-3.1L-939.5,445l.558-.488.552.744.248-2.867,1.469-1.665,2.715.484,1.919,2.345-.745,3-.779,4.171-4.065,2.812Z" transform="translate(940.916 -440.722)" fill="#eac5b0"/>
      </g>
    </g>
    <g id="Grupo_11933" data-name="Grupo 11933" transform="translate(-1213.28 80.942)">
      <g id="Grupo_11932" data-name="Grupo 11932" transform="translate(11.148 12.395)">
        <g id="Grupo_11931" data-name="Grupo 11931">
          <path id="Trazado_11916" data-name="Trazado 11916" d="M-1085.932,200.575c-9.977,3.213-21.819,1.531-29.534-5.021-2.23-1.894-4.1-4.11-6.137-6.18a67.824,67.824,0,0,0-12.072-9.976,30.209,30.209,0,0,0-11.719-9.138,30.5,30.5,0,0,0-40.145,15.379,30.154,30.154,0,0,0,15.432,39.907,30.5,30.5,0,0,0,40.145-15.379,29.985,29.985,0,0,0,2.622-12.4c3.606,3.634,7.155,7.2,12.147,9.591,9.11,4.356,20.274,7.9,30.113,4.695Z" transform="translate(1188.169 -167.653)" fill="#474ebb"/>
          <ellipse id="Elipse_770" data-name="Elipse 770" cx="24.349" cy="24.211" rx="24.349" ry="24.211" transform="matrix(0.997, -0.074, 0.074, 0.997, 4.344, 7.907)" fill="#292949"/>
        </g>
      </g>
      <path id="Trazado_11917" data-name="Trazado 11917" d="M-1173.659,139.855c-23.528,1.748-41.216,21.809-39.507,44.808s22.166,40.226,45.694,38.478,41.215-21.809,39.507-44.807S-1150.132,138.108-1173.659,139.855Zm18.59,7.456a28.407,28.407,0,0,1,8.3,4.425,28.228,28.228,0,0,1,7.69,9.081,1.847,1.847,0,0,1-.9,2.572l-21.65,9.332a1.2,1.2,0,0,1-1.642-1.387l5.792-22.728A1.865,1.865,0,0,1-1155.069,147.311Zm-11.669,37.732a1.688,1.688,0,0,1,2.375-.122,1.665,1.665,0,0,1,.121,2.361,1.688,1.688,0,0,1-2.375.122A1.665,1.665,0,0,1-1166.738,185.043Zm-.6-9.643a1.688,1.688,0,0,1,2.372-.163,1.665,1.665,0,0,1,.162,2.358,1.687,1.687,0,0,1-2.372.163A1.665,1.665,0,0,1-1167.338,175.4Zm1.921,6.005a1.678,1.678,0,0,1,1.612-1.74,1.676,1.676,0,0,1,1.748,1.6,1.678,1.678,0,0,1-1.611,1.74A1.676,1.676,0,0,1-1165.416,181.4Zm-5.519-4.889a1.677,1.677,0,0,1-1.8-1.543,1.676,1.676,0,0,1,1.553-1.791,1.676,1.676,0,0,1,1.8,1.542A1.677,1.677,0,0,1-1170.936,176.515Zm2.558,11.747a1.676,1.676,0,0,1-1.553,1.791,1.676,1.676,0,0,1-1.8-1.542,1.677,1.677,0,0,1,1.553-1.792A1.677,1.677,0,0,1-1168.377,188.262Zm-7.933-2.623a1.688,1.688,0,0,1,2.372-.163,1.665,1.665,0,0,1,.162,2.359,1.688,1.688,0,0,1-2.372.163A1.665,1.665,0,0,1-1176.31,185.639Zm-1-2.07a1.676,1.676,0,0,1-1.748-1.6,1.677,1.677,0,0,1,1.611-1.739,1.675,1.675,0,0,1,1.748,1.6A1.677,1.677,0,0,1-1177.309,183.569Zm2.934-5.378a1.688,1.688,0,0,1-2.375.122,1.665,1.665,0,0,1-.121-2.361,1.688,1.688,0,0,1,2.374-.122A1.665,1.665,0,0,1-1174.375,178.191Zm-10.434-31.879a35.331,35.331,0,0,1,10.144-2.724,35.11,35.11,0,0,1,13.256,1,1.767,1.767,0,0,1,1.265,2.451l-10.289,21.861a1.425,1.425,0,0,1-2.4.177l-12.918-20.15A1.8,1.8,0,0,1-1184.809,146.312Zm-20.636,17.742a29.409,29.409,0,0,1,7.18-9.805,29.639,29.639,0,0,1,8.1-5.174,1.853,1.853,0,0,1,2.516,1.094l7.318,22.364a1.24,1.24,0,0,1-1.569,1.539l-22.469-7.508A1.829,1.829,0,0,1-1205.445,164.055Zm-.186,30.517a34.561,34.561,0,0,1-2.985-12.881,34.78,34.78,0,0,1,1.184-10.381,1.814,1.814,0,0,1,2.456-1.322l21.978,9.669a1.409,1.409,0,0,1,.185,2.389l-20.191,13.4A1.783,1.783,0,0,1-1205.631,194.572Zm17.606,20.836a29.5,29.5,0,0,1-10-6.929,29.373,29.373,0,0,1-5.361-7.941,1.838,1.838,0,0,1,1.05-2.524l22.342-7.752a1.238,1.238,0,0,1,1.578,1.528l-7.108,22.5A1.848,1.848,0,0,1-1188.025,215.408Zm31.659,1.444a35.126,35.126,0,0,1-12.948,3.013,35.334,35.334,0,0,1-10.441-1.142,1.8,1.8,0,0,1-1.334-2.438l9.684-21.888a1.426,1.426,0,0,1,2.4-.193l13.511,20.031A1.767,1.767,0,0,1-1156.366,216.852Zm21.259-20.048a30.442,30.442,0,0,1-4.9,8.434,30.539,30.539,0,0,1-9.625,7.788,1.833,1.833,0,0,1-2.585-.928l-8.534-22.1a1.272,1.272,0,0,1,1.492-1.666l22.939,6.014A1.828,1.828,0,0,1-1135.107,196.8Zm-.469-6.367-21.949-10.269a1.409,1.409,0,0,1-.17-2.391l20.308-12.81a1.813,1.813,0,0,1,2.624.944A34.779,34.779,0,0,1-1132.058,176a34.565,34.565,0,0,1-1.049,13.18A1.783,1.783,0,0,1-1135.576,190.437Z" transform="translate(1213.28 -139.733)" fill="#d67086"/>
    </g>
    <path id="Trazado_11918" data-name="Trazado 11918" d="M-1025.592,720.569l-5.564-14.558,7.556-1.386,3.77,14.847Z" transform="translate(-101.267 -372.888)" fill="#eac5b0"/>
    <path id="Trazado_11919" data-name="Trazado 11919" d="M-1113.955,723.232l-1.07-12.356h7.956l-1.646,11.8Z" transform="translate(-54.633 -376.364)" fill="#eac5b0"/>
    <path id="Trazado_11920" data-name="Trazado 11920" d="M-1120.837,555.084l-.693,9.654,1.386,61.13h11.379l6.3-45.2,4.275-13.857-.688-17.207Z" transform="translate(-51.016 -286.692)" fill="#babcbe"/>
    <path id="Trazado_11921" data-name="Trazado 11921" d="M-1059.279,547.528l-10.646-.907-.009,16.721,16.464,57.852,11.345-2.013-4.258-48.5s3.007-16.907.834-19.153c4.744-.842,7.546,1.66,2.611-10.4A65.994,65.994,0,0,0-1059.279,547.528Z" transform="translate(-79.705 -281.982)" fill="#babcbe"/>
    <g id="Grupo_11934" data-name="Grupo 11934" transform="translate(-1174.955 346.401)">
      <path id="Trazado_11922" data-name="Trazado 11922" d="M-1120.417,737.654l-6.539,4.474.894,3.1,12.733-1.721-1.926-5.85Z" transform="translate(1126.956 -737.654)" fill="#292949"/>
    </g>
    <g id="Grupo_11935" data-name="Grupo 11935" transform="translate(-1131.078 346.584)">
      <path id="Trazado_11923" data-name="Trazado 11923" d="M-1018.147,738.066l-5.706,1.014-4.276,6.129,2.6,3.1,6.058-3.216Z" transform="translate(1028.128 -738.066)" fill="#292949"/>
    </g>
    <g id="Grupo_11937" data-name="Grupo 11937" transform="translate(-1179.583 195.152)">
      <g id="Grupo_11936" data-name="Grupo 11936" transform="translate(0)">
        <path id="Trazado_11924" data-name="Trazado 11924" d="M-1134.129,474.375c4.818-1.032,19.588-10.416,23.746-10.324,15.486.344,15.142,11.7,32,14.8s27.463,4.138,25.432-.168v0c-6.863-14.439-13.39-28.963-19.369-43.934-3.047-7.63-5.985-15.4-10.421-22.36-3.135-4.92-8.579-13.28-14.4-14.649l-.367-.083c-6.121-1.343-13.965-.72-19.5,2.256a19.322,19.322,0,0,0-2.909,2.064c-2.705,2.182-4.911,3.364-6.077,6.688-1.012,2.887-1.248,6.038-1.806,9.029-1.134,6.078-3.377,5.589-2.716,18.344.846,16.349-4.034,24.365-6.477,34.495,0,0-.25,1.033-.369,1.525C-1137.5,473.386-1137.114,475.015-1134.129,474.375Z" transform="translate(1137.381 -396.979)" fill="#5d66d3"/>
      </g>
    </g>
    <path id="Trazado_11925" data-name="Trazado 11925" d="M-1098.129,397.63s-12.733-1.72-15.486,18.24c-2.447,17.74-.344,30.284-1.721,33.381s-6.194,24.089-6.194,24.089l16.518-5.506s6.539-2.065,30.972,10.324c0,0-5.8-22-8.6-34.069C-1086.084,429.291-1086.084,397.63-1098.129,397.63Z" transform="translate(-51.016 -202.169)" fill="#fff"/>
    <g id="Grupo_11941" data-name="Grupo 11941" transform="translate(-1165.763 162.836)">
      <g id="Grupo_11938" data-name="Grupo 11938" transform="translate(0 6.839)">
        <path id="Trazado_11926" data-name="Trazado 11926" d="M-1099.753,353.059c-1.065,3.2.476,6.608,1.83,9.522,1.2,2.585,1.617,4.286-1.429,4.983-1.717.393-4.763,1.126-6.268-.188-1.14-1-.5-4.07.055-5.292.424-.932,1.545-1.406,1.943-2.35a3.289,3.289,0,0,0,.194-1.243,17.146,17.146,0,0,0-.7-5.105,17.39,17.39,0,0,1-.884-3.392c-.146-1.691,1.051-3.663,1.679-5.217,1.169-2.892,5.24-6.771,8.648-4.5a4.982,4.982,0,0,1,1.606,2.243,4.132,4.132,0,0,1,.446,1.6c.027,2.22-2,2.595-3.4,3.651A11.115,11.115,0,0,0-1099.753,353.059Z" transform="translate(1106.253 -339.594)" fill="#292949"/>
      </g>
      <g id="Grupo_11939" data-name="Grupo 11939" transform="translate(6.699 11.84)">
        <path id="Trazado_11927" data-name="Trazado 11927" d="M-1083.763,373.365a9.613,9.613,0,0,1-6.379-6.006,19.25,19.25,0,0,1-.861-8.983c1.022-10.055,13.53-9.41,17.766-1.7C-1069.545,363.389-1075.167,375.39-1083.763,373.365Z" transform="translate(1091.163 -350.858)" fill="#eac5b0"/>
      </g>
      <g id="Grupo_11940" data-name="Grupo 11940" transform="translate(6.915 0)">
        <path id="Trazado_11928" data-name="Trazado 11928" d="M-1075.421,345.015c.127,1.572-.7,3.32.166,4.639a6.829,6.829,0,0,0,1.576,1.383,5.58,5.58,0,0,1,1.95,5.137l9.443-.364a2.836,2.836,0,0,0,1.379-.289c.868-.526.914-1.747.858-2.76-.111-2-.273-4.133-1.517-5.7-.576-.726-1.351-1.276-1.925-2-2.761-3.5-.06-9.647-3.421-12.576-1.5-1.307-3.675-1.4-5.513-2.165-3.205-1.327-5.311-4.648-8.6-5.764-6.2-2.107-12.212,5.456-8.535,10.983C-1086.557,340.042-1075.932,338.685-1075.421,345.015Z" transform="translate(1090.678 -324.19)" fill="#292949"/>
      </g>
    </g>
    <g id="Grupo_11942" data-name="Grupo 11942" transform="translate(-1182.698 160.831)">
      <path id="Trazado_11929" data-name="Trazado 11929" d="M-1139.428,326.27l.082-6.439-2.75-.155.531,5.961-2.831-2.241.6,5.519,2.838.547Z" transform="translate(1144.396 -319.676)" fill="#eac5b0"/>
    </g>
    <g id="Grupo_11944" data-name="Grupo 11944" transform="translate(-1184.77 169.579)">
      <g id="Grupo_11943" data-name="Grupo 11943" transform="translate(0 0)">
        <path id="Trazado_11930" data-name="Trazado 11930" d="M-1149.065,339.931l1.25,23.816,12.327,26.108,9.794-17.985-11.146-10.229-6.1-22.262Z" transform="translate(1149.065 -339.379)" fill="#5d66d3"/>
      </g>
    </g>
    <g id="Grupo_11945" data-name="Grupo 11945" transform="translate(-1152.175 197.148)">
      <path id="Trazado_11931" data-name="Trazado 11931" d="M-1075.011,409.221l-.635-6.114.939-1.631,1.327,4.2,1.1-.606-.069,5.221-2.548.437Z" transform="translate(1075.647 -401.476)" fill="#eac5b0"/>
    </g>
    <g id="Grupo_11947" data-name="Grupo 11947" transform="translate(-1152.92 203.285)">
      <g id="Grupo_11946" data-name="Grupo 11946" transform="translate(0)">
        <path id="Trazado_11932" data-name="Trazado 11932" d="M-1077.324,417.945l10.3,21.459,9.835,14.112,6.389-13.666-21.3-24.551Z" transform="translate(1077.324 -415.3)" fill="#5d66d3"/>
      </g>
    </g>
  </g>
</svg>
