<svg xmlns="http://www.w3.org/2000/svg" width="360" height="349.188" viewBox="0 0 360 349.188">
  <g id="Grupo_11624" data-name="Grupo 11624" transform="translate(-805 -4988.461)">
    <g id="Grupo_11611" data-name="Grupo 11611" transform="translate(-1620.331 4713.136)">
      <path id="Trazado_11352" data-name="Trazado 11352" d="M2775.075,409.693l-7.6-36.74-4.356,6.63a150.355,150.355,0,0,0-164.049,7.716l26.242,2.99-3.033,26.624a112.8,112.8,0,0,1,120.2-5.919l-4.14,6.3Z" transform="translate(-86.826 -41.735)" fill="#c69c6d"/>
      <path id="Trazado_11353" data-name="Trazado 11353" d="M2557.817,426.157l-37.291-4.123,4.959,6.192a150.355,150.355,0,0,0-43.355,158.4l10.953-24.034,24.383,11.112a112.8,112.8,0,0,1,31.515-116.147l4.714,5.885Z" transform="translate(-24.788 -73.319)" fill="#71c2ee"/>
      <path id="Trazado_11354" data-name="Trazado 11354" d="M2500.563,716.041l-15.445,34.192,7.422-2.8a150.355,150.355,0,0,0,137.254,90.183l-19.473-17.844,18.1-19.756A112.8,112.8,0,0,1,2527.7,734.15l7.054-2.664Z" transform="translate(-29.879 -220.252)" fill="#8e4a80"/>
      <path id="Trazado_11355" data-name="Trazado 11355" d="M2749.258,827.316,2777,852.57l-.373-7.925a150.356,150.356,0,0,0,128.184-102.668l-22.987,13.006-13.2-23.322a112.8,112.8,0,0,1-93.766,75.441l-.354-7.532Z" transform="translate(-161.885 -228.058)" fill="#1769a0"/>
      <path id="Trazado_11356" data-name="Trazado 11356" d="M2964.022,590.8l32.592-18.584-7.651-2.094a150.358,150.358,0,0,0-58.033-153.636l5.266,25.882-26.258,5.342A112.8,112.8,0,0,1,2952.712,560.2l-7.273-1.991Z" transform="translate(-242.186 -70.546)" fill="#ff9640"/>
      <circle id="Elipse_751" data-name="Elipse 751" cx="48.501" cy="48.501" r="48.501" transform="translate(2551.729 285.616)" fill="#c69c6d"/>
      <circle id="Elipse_752" data-name="Elipse 752" cx="41.573" cy="41.573" r="41.573" transform="translate(2541.438 334.117) rotate(-45)" fill="#fff"/>
      <circle id="Elipse_753" data-name="Elipse 753" cx="48.501" cy="48.501" r="48.501" transform="translate(2678.038 377.642)" fill="#ff9640"/>
      <circle id="Elipse_754" data-name="Elipse 754" cx="41.573" cy="41.573" r="41.573" transform="translate(2667.746 426.143) rotate(-45)" fill="#fff"/>
      <circle id="Elipse_755" data-name="Elipse 755" cx="48.501" cy="48.501" r="48.501" transform="translate(2629.99 526.29)" fill="#1769a0"/>
      <circle id="Elipse_756" data-name="Elipse 756" cx="41.573" cy="41.573" r="41.573" transform="translate(2636.918 533.219)" fill="#fff"/>
      <circle id="Elipse_757" data-name="Elipse 757" cx="48.501" cy="48.501" r="48.501" transform="translate(2473.505 526.292)" fill="#8e4a80"/>
      <circle id="Elipse_758" data-name="Elipse 758" cx="41.573" cy="41.573" r="41.573" transform="translate(2480.434 533.221)" fill="#fff"/>
      <circle id="Elipse_759" data-name="Elipse 759" cx="41.573" cy="41.573" r="41.573" transform="translate(2480.434 533.221)" fill="#fff"/>
      <circle id="Elipse_760" data-name="Elipse 760" cx="48.501" cy="48.501" r="48.501" transform="translate(2425.331 377.249)" fill="#71c2ee"/>
      <circle id="Elipse_761" data-name="Elipse 761" cx="41.572" cy="41.572" r="41.572" transform="translate(2426.388 460.471) rotate(-81.198)" fill="#fff"/>
      <g id="Grupo_11578" data-name="Grupo 11578" transform="translate(2581.957 307.282)">
        <g id="Grupo_11573" data-name="Grupo 11573" transform="translate(31.486 23.987)">
          <path id="Trazado_11357" data-name="Trazado 11357" d="M2804.421,388.535h-2.36a.688.688,0,1,1,0-1.376h2.36a.688.688,0,1,1,0,1.376Z" transform="translate(-2801.373 -387.159)" fill="#c69c6d"/>
        </g>
        <g id="Grupo_11574" data-name="Grupo 11574" transform="translate(30.703 20.284)">
          <path id="Trazado_11358" data-name="Trazado 11358" d="M2800.5,381.8a.688.688,0,0,1-.242-1.333l1.777-.666a.688.688,0,0,1,.483,1.289l-1.778.666a.688.688,0,0,1-.241.044Z" transform="translate(-2799.808 -379.757)" fill="#c69c6d"/>
        </g>
        <g id="Grupo_11575" data-name="Grupo 11575" transform="translate(30.703 27.023)">
          <path id="Trazado_11359" data-name="Trazado 11359" d="M2802.273,395.27a.684.684,0,0,1-.242-.044l-1.777-.666a.688.688,0,1,1,.482-1.288l1.778.666a.688.688,0,0,1-.242,1.332Z" transform="translate(-2799.808 -393.228)" fill="#c69c6d"/>
        </g>
        <path id="Trazado_11360" data-name="Trazado 11360" d="M2767.51,354.952a9.023,9.023,0,0,0-6.023-15.743h-6.394a16.546,16.546,0,0,0-9.281,2.836.688.688,0,0,0,.769,1.141,15.178,15.178,0,0,1,8.513-2.6,15.455,15.455,0,0,1,2.723.242,7.1,7.1,0,0,1,5.038,3.672,6.961,6.961,0,0,1,.244,6.1,12.757,12.757,0,0,1-7.126,6.774,7.335,7.335,0,0,0-4.726,7.319h0v.016a3.582,3.582,0,0,1-1.93,3.467,3.341,3.341,0,0,1-3.73-.336,15.267,15.267,0,0,1-3.179-20.485.688.688,0,0,0-1.141-.769,16.641,16.641,0,0,0,3.463,22.331,4.809,4.809,0,0,0,1.844.911l-1.489,3.652a.688.688,0,1,0,1.274.519l1.65-4.046a4.884,4.884,0,0,0,1.95-.56,4.941,4.941,0,0,0,2.661-4.777v-.01a5.928,5.928,0,0,1,3.84-5.945,14.128,14.128,0,0,0,7.9-7.508,8.408,8.408,0,0,0,.471-1.395,13.763,13.763,0,0,1,.294,2.819v1.052a.7.7,0,0,0,.114.38L2768,358.2l-2.276,1.563a.687.687,0,0,0-.3.567v2.029l-2.192.992a.688.688,0,0,0,.04,1.27l2.153.816v1.485a1.672,1.672,0,0,1-1.669,1.669h-6.639a.688.688,0,1,0,0,1.376h1.719l-1.367,3.529a.688.688,0,1,0,1.283.5l1.56-4.026h3.444a3.048,3.048,0,0,0,3.044-3.045v-1.96a.688.688,0,0,0-.444-.643h0l-1.048-.4,1.033-.468a.687.687,0,0,0,.458-.648v-2.114l1.979-1.358a1.385,1.385,0,0,0,.37-1.9Zm-.769-1.162-.24-.363v-.845a15.2,15.2,0,0,0-1.769-7.1,8.553,8.553,0,0,0-3.736-4.895h.49a7.648,7.648,0,0,1,5.254,13.2Z" transform="translate(-2738.432 -339.209)" fill="#c69c6d"/>
        <g id="Grupo_11577" data-name="Grupo 11577" transform="translate(4.688 4.689)">
          <g id="Grupo_11576" data-name="Grupo 11576">
            <path id="Trazado_11361" data-name="Trazado 11361" d="M2748.49,349.958a.689.689,0,1,1,.486-.2A.69.69,0,0,1,2748.49,349.958Z" transform="translate(-2747.803 -348.582)" fill="#c69c6d"/>
          </g>
        </g>
      </g>
      <g id="Grupo_11579" data-name="Grupo 11579" transform="translate(2713.003 404.53)">
        <path id="Trazado_11362" data-name="Trazado 11362" d="M3026.477,533.61h-21.923a4.161,4.161,0,0,0-4.157,4.157v13.417a4.162,4.162,0,0,0,4.143,4.157v6.088l8.749-6.088h13.188a4.162,4.162,0,0,0,4.157-4.157V537.767A4.162,4.162,0,0,0,3026.477,533.61Zm2.385,17.573a2.388,2.388,0,0,1-2.385,2.385h-13.744l-6.422,4.469v-4.469h-1.757a2.388,2.388,0,0,1-2.385-2.385V537.767a2.388,2.388,0,0,1,2.385-2.385h21.923a2.387,2.387,0,0,1,2.385,2.385Z" transform="translate(-3000.397 -533.61)" fill="#ff9640"/>
        <path id="Trazado_11363" data-name="Trazado 11363" d="M3016.575,546.124h14.051V547.9h-14.051Z" transform="translate(-3008.482 -539.864)" fill="#ff9640"/>
        <path id="Trazado_11364" data-name="Trazado 11364" d="M3016.575,553.68h14.051v1.771h-14.051Z" transform="translate(-3008.482 -543.64)" fill="#ff9640"/>
        <path id="Trazado_11365" data-name="Trazado 11365" d="M3016.575,561.235h14.051v1.772h-14.051Z" transform="translate(-3008.482 -547.416)" fill="#ff9640"/>
      </g>
      <g id="Grupo_11580" data-name="Grupo 11580" transform="translate(2663.479 557.391)">
        <path id="Trazado_11366" data-name="Trazado 11366" d="M2931.69,839.186a6.337,6.337,0,0,0-3.954,1.391.886.886,0,1,0,1.109,1.382,4.544,4.544,0,1,1,2.845,8.088h-16.657a.886.886,0,0,0,0,1.772h16.657a6.316,6.316,0,0,0,0-12.632Z" transform="translate(-2907.769 -839.186)" fill="#1769a0"/>
        <path id="Trazado_11367" data-name="Trazado 11367" d="M2911.64,855.6h9.463a.886.886,0,1,0,0-1.771h-9.463a.886.886,0,0,0,0,1.771Z" transform="translate(-2906.073 -846.502)" fill="#1769a0"/>
        <path id="Trazado_11368" data-name="Trazado 11368" d="M2916.178,867.991h-13.9a.886.886,0,1,0,0,1.772h13.9a3.644,3.644,0,1,1-2.281,6.486.886.886,0,0,0-1.109,1.382,5.416,5.416,0,1,0,3.391-9.639Z" transform="translate(-2901.397 -853.582)" fill="#1769a0"/>
        <path id="Trazado_11369" data-name="Trazado 11369" d="M2902.283,855.6h1.195a.886.886,0,1,0,0-1.771h-1.195a.886.886,0,1,0,0,1.771Z" transform="translate(-2901.397 -846.502)" fill="#1769a0"/>
        <path id="Trazado_11370" data-name="Trazado 11370" d="M2917.456,875.926a.886.886,0,0,0-.886-.886h-5.315a.886.886,0,0,0,0,1.772h5.315A.886.886,0,0,0,2917.456,875.926Z" transform="translate(-2905.881 -857.104)" fill="#1769a0"/>
      </g>
      <g id="Grupo_11603" data-name="Grupo 11603" transform="translate(2507.404 552.298)">
        <g id="Grupo_11582" data-name="Grupo 11582" transform="translate(7.361 1.963)">
          <g id="Grupo_11581" data-name="Grupo 11581">
            <path id="Trazado_11371" data-name="Trazado 11371" d="M2610,836.855h-.883l-1.208-3.926H2606.2l-1.208,3.926h-.882v.982h.581l-.56,1.818.938.289.648-2.107h2.672l.648,2.107.938-.289-.56-1.818H2610Zm-3.979,0,.906-2.944h.256l.906,2.944Z" transform="translate(-2604.112 -832.929)" fill="#8e4a80"/>
          </g>
        </g>
        <g id="Grupo_11584" data-name="Grupo 11584" transform="translate(14.722 1.963)">
          <g id="Grupo_11583" data-name="Grupo 11583">
            <path id="Trazado_11372" data-name="Trazado 11372" d="M2622.085,836.364a1.962,1.962,0,0,0-1.3-3.435h-1.963v6.87h1.963a1.962,1.962,0,0,0,1.3-3.435Zm-1.3,2.454h-.981v-1.963h.981a.982.982,0,0,1,0,1.963Zm0-2.944h-.981V833.91h.981a.981.981,0,0,1,0,1.963Z" transform="translate(-2618.826 -832.929)" fill="#8e4a80"/>
          </g>
        </g>
        <g id="Grupo_11586" data-name="Grupo 11586" transform="translate(19.628 1.963)">
          <g id="Grupo_11585" data-name="Grupo 11585">
            <path id="Trazado_11373" data-name="Trazado 11373" d="M2632.07,833.91v-.981a3.435,3.435,0,0,0,0,6.87v-.982a2.454,2.454,0,0,1,0-4.907Z" transform="translate(-2628.635 -832.929)" fill="#8e4a80"/>
          </g>
        </g>
        <g id="Grupo_11588" data-name="Grupo 11588" transform="translate(5.889 9.814)">
          <g id="Grupo_11587" data-name="Grupo 11587">
            <path id="Trazado_11374" data-name="Trazado 11374" d="M2601.169,848.624v8.833h18.647v-8.833Zm17.666,7.852H2602.15v-6.87h16.684Z" transform="translate(-2601.169 -848.624)" fill="#8e4a80"/>
          </g>
        </g>
        <g id="Grupo_11590" data-name="Grupo 11590" transform="translate(6.379 19.629)">
          <g id="Grupo_11589" data-name="Grupo 11589">
            <rect id="Rectángulo_2908" data-name="Rectángulo 2908" width="17.666" height="0.981" fill="#8e4a80"/>
          </g>
        </g>
        <g id="Grupo_11592" data-name="Grupo 11592" transform="translate(6.379 21.592)">
          <g id="Grupo_11591" data-name="Grupo 11591">
            <rect id="Rectángulo_2909" data-name="Rectángulo 2909" width="17.666" height="0.981" fill="#8e4a80"/>
          </g>
        </g>
        <g id="Grupo_11594" data-name="Grupo 11594" transform="translate(23.064 23.554)">
          <g id="Grupo_11593" data-name="Grupo 11593">
            <rect id="Rectángulo_2910" data-name="Rectángulo 2910" width="0.981" height="0.981" fill="#8e4a80"/>
          </g>
        </g>
        <g id="Grupo_11596" data-name="Grupo 11596" transform="translate(6.379 23.554)">
          <g id="Grupo_11595" data-name="Grupo 11595">
            <rect id="Rectángulo_2911" data-name="Rectángulo 2911" width="15.703" height="0.981" fill="#8e4a80"/>
          </g>
        </g>
        <g id="Grupo_11598" data-name="Grupo 11598">
          <g id="Grupo_11597" data-name="Grupo 11597">
            <path id="Trazado_11375" data-name="Trazado 11375" d="M2619.635,830.968H2615.9v-1.963H2591.85a2.456,2.456,0,0,0-2.453,2.454v25.517a2.456,2.456,0,0,0,2.453,2.454H2615.9v-.981h-1.472a1.472,1.472,0,0,1,0-2.944h1.472V835.875h3.739l-1.228-2.454Zm-7.161,27.48H2591.85a1.472,1.472,0,0,1,0-2.944h20.623a2.4,2.4,0,0,0,0,2.944Zm2.441-3.926H2594.3v-1.963h-.981v1.963h-1.473a2.444,2.444,0,0,0-1.472.492V831.459a1.475,1.475,0,0,1,1.472-1.472h1.473v21.591h.981V829.986h20.61Zm3.131-19.628h-2.15v-2.944h2.15l-.736,1.472Z" transform="translate(-2589.397 -829.005)" fill="#8e4a80"/>
          </g>
        </g>
        <g id="Grupo_11600" data-name="Grupo 11600" transform="translate(3.926 27.48)">
          <g id="Grupo_11599" data-name="Grupo 11599">
            <rect id="Rectángulo_2912" data-name="Rectángulo 2912" width="17.666" height="0.981" fill="#8e4a80"/>
          </g>
        </g>
        <g id="Grupo_11602" data-name="Grupo 11602" transform="translate(1.963 27.48)">
          <g id="Grupo_11601" data-name="Grupo 11601">
            <rect id="Rectángulo_2913" data-name="Rectángulo 2913" width="0.981" height="0.981" fill="#8e4a80"/>
          </g>
        </g>
      </g>
      <g id="Grupo_11605" data-name="Grupo 11605" transform="translate(2460.377 401.229)">
        <g id="Grupo_11604" data-name="Grupo 11604" transform="translate(0 0)">
          <path id="Trazado_11376" data-name="Trazado 11376" d="M2511.5,546.17a14.493,14.493,0,0,0,3.078-3.688,9.686,9.686,0,0,0,1.108-4.788c0-.15,0-.312-.008-.493a.6.6,0,0,0-.595-.575h-.019a.594.594,0,0,0-.576.614c.005.169.008.317.008.454,0,3.441-1.282,5.26-3.807,7.6a9.487,9.487,0,0,0-3,6.183c-.46,3.241-2.558,4.569-4.218,4.721a4.16,4.16,0,0,1-4.35-3.055c-.848-2.555-3.545-13.876-2.17-19.3a7.561,7.561,0,0,1,6.542-5.535,9.654,9.654,0,0,1,9.634,4.167.595.595,0,1,0,1.014-.622,9.972,9.972,0,0,0-4.8-4.011,11.6,11.6,0,0,0-6.029-.71,9.812,9.812,0,0,0-4.687,1.994,8.223,8.223,0,0,0-2.829,4.424c-.768,3.025-.318,7.632.194,10.963a64.418,64.418,0,0,0,2,9,5.71,5.71,0,0,0,2.264,3.04,5.215,5.215,0,0,0,2.852.847q.236,0,.472-.022a5.481,5.481,0,0,0,3.393-1.632,7.237,7.237,0,0,0,1.9-4.139.625.625,0,0,0,.005-.067,8.335,8.335,0,0,1,2.618-5.378Z" transform="translate(-2495.388 -527.012)" fill="#71c2ee"/>
          <path id="Trazado_11377" data-name="Trazado 11377" d="M2512,546.249a16.032,16.032,0,0,0-2.995,4.159c-.675,1.232-1.542,1.851-2.379,1.7-.915-.165-1.64-1.2-1.847-2.638a.595.595,0,0,0-1.177.17c.283,1.952,1.386,3.38,2.813,3.638a2.629,2.629,0,0,0,.473.043c1.2,0,2.332-.83,3.16-2.342a15.008,15.008,0,0,1,2.761-3.859c1.9-1.76,3.048-3.033,3.048-5.866a6.584,6.584,0,0,0-4.133-6.552,8.091,8.091,0,0,0-3.6-.543,6.4,6.4,0,0,0-3.459,1.259,4.559,4.559,0,0,0-1.673,2.581,3.6,3.6,0,0,0,.188,2.424c.648,1.459,1.959,1.31,2.916,1.2.142-.016.276-.031.409-.042a1.633,1.633,0,0,1,1.132,2.927.595.595,0,0,0,.721.946,2.823,2.823,0,0,0-1.954-5.058c-.15.013-.3.03-.442.046-1.037.118-1.424.1-1.694-.5a2.435,2.435,0,0,1-.119-1.66,3.36,3.36,0,0,1,1.247-1.923,6.205,6.205,0,0,1,5.881-.552,5.446,5.446,0,0,1,3.39,5.449c0,2.281-.813,3.274-2.667,4.995Z" transform="translate(-2499.126 -530.572)" fill="#71c2ee"/>
          <path id="Trazado_11378" data-name="Trazado 11378" d="M2537.007,564.6a.595.595,0,0,0,0-1.19,11.665,11.665,0,0,0-11.658,11.646.595.595,0,0,0,1.19,0,10.474,10.474,0,0,1,10.468-10.456Z" transform="translate(-2510.362 -545.205)" fill="#71c2ee"/>
          <path id="Trazado_11379" data-name="Trazado 11379" d="M2540.151,569.7a8.515,8.515,0,0,0-8.51,8.5.595.595,0,1,0,1.189,0,7.324,7.324,0,0,1,7.32-7.312.595.595,0,0,0,0-1.189Z" transform="translate(-2513.506 -548.346)" fill="#71c2ee"/>
          <path id="Trazado_11380" data-name="Trazado 11380" d="M2543.294,575.986a5.367,5.367,0,0,0-5.364,5.358.595.595,0,0,0,1.19,0,4.176,4.176,0,0,1,4.174-4.168.595.595,0,1,0,0-1.189Z" transform="translate(-2516.649 -551.487)" fill="#71c2ee"/>
          <path id="Trazado_11381" data-name="Trazado 11381" d="M2532.946,541.994v0a.595.595,0,1,0,0-.843A.591.591,0,0,0,2532.947,542Z" transform="translate(-2514.071 -533.992)" fill="#71c2ee"/>
        </g>
      </g>
      <g id="Grupo_11606" data-name="Grupo 11606" transform="translate(2582.652 349.256)">
        <path id="Trazado_11382" data-name="Trazado 11382" d="M2743.86,424.58h-2.583v1.58h2.289v1.258h-2.289v1.576h2.583v1.277h-4.039v-6.963h4.039Z" transform="translate(-2739.821 -423.211)"/>
        <path id="Trazado_11383" data-name="Trazado 11383" d="M2758.561,430.271h-1.441l-.458-5.248-1.764,5.248h-.935l-1.763-5.248-.463,5.248h-1.446l.583-6.963h2.063l1.484,4.371,1.5-4.371h2.063Z" transform="translate(-2745.054 -423.211)"/>
        <path id="Trazado_11384" data-name="Trazado 11384" d="M2769.846,430.271v-6.963h1.446v6.963Z" transform="translate(-2754.826 -423.211)"/>
        <path id="Trazado_11385" data-name="Trazado 11385" d="M2778.084,430.271a3.364,3.364,0,0,1-1.933-.533,2.134,2.134,0,0,1-.939-1.491l1.494-.342a1.268,1.268,0,0,0,.46.879,1.528,1.528,0,0,0,.977.306,1.258,1.258,0,0,0,.761-.215.722.722,0,0,0,.289-.634.679.679,0,0,0-.245-.516,1.617,1.617,0,0,0-.49-.315q-.243-.094-.783-.258l-.106-.034q-.275-.087-.443-.145t-.417-.162a2.736,2.736,0,0,1-.4-.2,2.932,2.932,0,0,1-.335-.251,1.308,1.308,0,0,1-.279-.321,1.677,1.677,0,0,1-.169-.4,1.788,1.788,0,0,1-.067-.5,1.862,1.862,0,0,1,.325-1.1,1.992,1.992,0,0,1,.877-.7,3.186,3.186,0,0,1,1.255-.234,3.991,3.991,0,0,1,.908.1,3.228,3.228,0,0,1,.812.311,1.977,1.977,0,0,1,.647.573,2.136,2.136,0,0,1,.369.846l-1.4.347a1.132,1.132,0,0,0-1.252-1,1.369,1.369,0,0,0-.776.2.684.684,0,0,0-.3.612q0,.38.506.617a7.581,7.581,0,0,0,.969.333q.283.086.462.145c.12.039.269.095.448.169a3.1,3.1,0,0,1,.439.215,3.283,3.283,0,0,1,.366.267,1.426,1.426,0,0,1,.311.347,1.839,1.839,0,0,1,.191.431,1.79,1.79,0,0,1,.077.537,2.109,2.109,0,0,1-.14.785,1.7,1.7,0,0,1-.382.593,2.234,2.234,0,0,1-.577.407,2.8,2.8,0,0,1-.708.241A4.091,4.091,0,0,1,2778.084,430.271Z" transform="translate(-2757.508 -423.115)"/>
        <path id="Trazado_11386" data-name="Trazado 11386" d="M2791.43,430.271a3.784,3.784,0,0,1-1.829-.436,3.161,3.161,0,0,1-1.27-1.255,4.094,4.094,0,0,1,0-3.78,3.15,3.15,0,0,1,1.27-1.251,4.067,4.067,0,0,1,3.655,0,3.163,3.163,0,0,1,1.268,1.251,4.094,4.094,0,0,1,0,3.78,3.167,3.167,0,0,1-1.27,1.255A3.774,3.774,0,0,1,2791.43,430.271Zm-1.522-1.935a2.205,2.205,0,0,0,3.045,0,2.552,2.552,0,0,0,0-3.284,2.212,2.212,0,0,0-3.045,0,2.554,2.554,0,0,0,0,3.284Z" transform="translate(-2763.833 -423.115)"/>
        <path id="Trazado_11387" data-name="Trazado 11387" d="M2808.432,430.271l-1.812-3.065h-.419v3.065h-1.445v-6.963h2.525a2.921,2.921,0,0,1,1.011.162,1.751,1.751,0,0,1,.7.448,1.931,1.931,0,0,1,.4.658,2.406,2.406,0,0,1,.132.814,1.7,1.7,0,0,1-.38,1.145,1.92,1.92,0,0,1-1.094.6l2.1,3.137Zm-2.231-5.763v1.662h.853q1.084,0,1.084-.829a.758.758,0,0,0-.265-.612,1.265,1.265,0,0,0-.82-.221Z" transform="translate(-2772.272 -423.211)"/>
      </g>
      <g id="Grupo_11607" data-name="Grupo 11607" transform="translate(2705.422 440.299)">
        <path id="Trazado_11388" data-name="Trazado 11388" d="M2993.512,612.271h-1.441l-.458-5.247-1.764,5.247h-.935l-1.764-5.247-.462,5.247h-1.446l.583-6.963h2.063l1.484,4.37,1.5-4.37h2.063Z" transform="translate(-2985.243 -605.211)"/>
        <path id="Trazado_11389" data-name="Trazado 11389" d="M3008.835,606.58h-2.582v1.58h2.288v1.258h-2.288v1.576h2.582v1.277H3004.8v-6.963h4.038Z" transform="translate(-2995.015 -605.211)"/>
        <path id="Trazado_11390" data-name="Trazado 11390" d="M3020.6,605.308h1.441v6.963h-1.673l-3.083-4.978v4.978h-1.441v-6.963h1.653l3.1,4.949Z" transform="translate(-3000.537 -605.211)"/>
        <path id="Trazado_11391" data-name="Trazado 11391" d="M3033.591,612.271a3.363,3.363,0,0,1-1.932-.533,2.135,2.135,0,0,1-.94-1.491l1.494-.342a1.265,1.265,0,0,0,.46.879,1.527,1.527,0,0,0,.976.306,1.261,1.261,0,0,0,.762-.215.726.726,0,0,0,.289-.634.678.678,0,0,0-.246-.516,1.609,1.609,0,0,0-.489-.315q-.243-.094-.783-.258l-.105-.034q-.275-.087-.444-.145t-.417-.162a2.8,2.8,0,0,1-.4-.2,2.99,2.99,0,0,1-.335-.251,1.31,1.31,0,0,1-.279-.321,1.717,1.717,0,0,1-.169-.4,1.771,1.771,0,0,1-.067-.5,1.866,1.866,0,0,1,.326-1.1,1.985,1.985,0,0,1,.876-.7,3.186,3.186,0,0,1,1.255-.234,4,4,0,0,1,.909.1,3.21,3.21,0,0,1,.812.311,1.994,1.994,0,0,1,.648.573,2.157,2.157,0,0,1,.368.846l-1.4.347a1.132,1.132,0,0,0-1.253-1,1.369,1.369,0,0,0-.775.2.685.685,0,0,0-.3.612q0,.38.506.617a7.5,7.5,0,0,0,.968.333c.19.058.344.106.463.145s.268.095.448.169a3.058,3.058,0,0,1,.438.215,3.292,3.292,0,0,1,.366.267,1.438,1.438,0,0,1,.311.347,1.86,1.86,0,0,1,.19.431,1.791,1.791,0,0,1,.077.537,2.119,2.119,0,0,1-.139.785,1.707,1.707,0,0,1-.384.593,2.238,2.238,0,0,1-.576.407,2.807,2.807,0,0,1-.708.241A4.1,4.1,0,0,1,3033.591,612.271Z" transform="translate(-3007.97 -605.115)"/>
        <path id="Trazado_11392" data-name="Trazado 11392" d="M3048.234,612.271l-.506-1.436H3044.8l-.506,1.436h-1.479l2.563-6.963h1.769l2.563,6.963Zm-3.006-2.645h2.076l-1.035-2.954Z" transform="translate(-3014.017 -605.211)"/>
        <path id="Trazado_11393" data-name="Trazado 11393" d="M3058.973,612.367a3.939,3.939,0,0,1-1.841-.482l.612-1.191a1.818,1.818,0,0,0,1.055.371.763.763,0,0,0,.646-.277,1.455,1.455,0,0,0,.212-.879v-4.6h1.445v4.871a2.165,2.165,0,0,1-.581,1.617A2.113,2.113,0,0,1,3058.973,612.367Z" transform="translate(-3021.17 -605.211)"/>
        <path id="Trazado_11394" data-name="Trazado 11394" d="M3072.489,606.58h-2.583v1.58h2.289v1.258h-2.289v1.576h2.583v1.277h-4.039v-6.963h4.039Z" transform="translate(-3026.827 -605.211)"/>
      </g>
      <g id="Grupo_11608" data-name="Grupo 11608" transform="translate(2661.713 589.371)">
        <path id="Trazado_11395" data-name="Trazado 11395" d="M2901.429,910.271a3.9,3.9,0,0,1-1.419-.256,3.339,3.339,0,0,1-1.13-.713,3.223,3.223,0,0,1-.742-1.132,3.944,3.944,0,0,1-.27-1.479,3.771,3.771,0,0,1,.463-1.892,3.148,3.148,0,0,1,1.27-1.25,3.8,3.8,0,0,1,1.829-.434,3.694,3.694,0,0,1,2.043.564,3.09,3.09,0,0,1,1.248,1.552l-1.35.491a1.9,1.9,0,0,0-.747-.939,2.13,2.13,0,0,0-1.194-.338,2.046,2.046,0,0,0-1.523.607,2.545,2.545,0,0,0,0,3.279,2.045,2.045,0,0,0,1.521.61,2.126,2.126,0,0,0,1.192-.34,1.913,1.913,0,0,0,.75-.942l1.35.492a3.1,3.1,0,0,1-1.248,1.554A3.687,3.687,0,0,1,2901.429,910.271Z" transform="translate(-2897.867 -903.115)"/>
        <path id="Trazado_11396" data-name="Trazado 11396" d="M2917.839,910.271l-.506-1.436h-2.924l-.506,1.436h-1.479l2.563-6.963h1.769l2.563,6.963Zm-3.007-2.646h2.077l-1.036-2.953Z" transform="translate(-2905.141 -903.211)"/>
        <path id="Trazado_11397" data-name="Trazado 11397" d="M2933.053,903.308h1.441v6.963h-1.672l-3.083-4.978v4.978H2928.3v-6.963h1.654l3.1,4.948Z" transform="translate(-2913.074 -903.211)"/>
        <path id="Trazado_11398" data-name="Trazado 11398" d="M2948.192,910.271l-.506-1.436h-2.925l-.506,1.436h-1.479l2.563-6.963h1.769l2.563,6.963Zm-3.007-2.646h2.076l-1.036-2.953Z" transform="translate(-2920.311 -903.211)"/>
        <path id="Trazado_11399" data-name="Trazado 11399" d="M2960.1,908.994h2.184v1.277h-3.628v-6.963h1.445Z" transform="translate(-2928.244 -903.211)"/>
      </g>
      <g id="Grupo_11609" data-name="Grupo 11609" transform="translate(2502.136 587.044)">
        <path id="Trazado_11400" data-name="Trazado 11400" d="M2582.429,910.271a3.893,3.893,0,0,1-1.419-.256,3.346,3.346,0,0,1-1.13-.713,3.223,3.223,0,0,1-.742-1.132,3.944,3.944,0,0,1-.27-1.479,3.771,3.771,0,0,1,.463-1.892,3.147,3.147,0,0,1,1.269-1.25,3.8,3.8,0,0,1,1.83-.434,3.7,3.7,0,0,1,2.043.564,3.086,3.086,0,0,1,1.248,1.552l-1.35.491a1.9,1.9,0,0,0-.747-.939,2.131,2.131,0,0,0-1.194-.338,2.045,2.045,0,0,0-1.523.607,2.544,2.544,0,0,0,0,3.279,2.042,2.042,0,0,0,1.521.61,2.127,2.127,0,0,0,1.192-.34,1.91,1.91,0,0,0,.749-.942l1.35.492a3.1,3.1,0,0,1-1.248,1.554A3.688,3.688,0,0,1,2582.429,910.271Z" transform="translate(-2578.867 -900.788)"/>
        <path id="Trazado_11401" data-name="Trazado 11401" d="M2597.542,907.946a3.779,3.779,0,0,1-1.828-.436,3.156,3.156,0,0,1-1.27-1.255,4.095,4.095,0,0,1,0-3.78,3.148,3.148,0,0,1,1.27-1.25,4.066,4.066,0,0,1,3.654,0,3.15,3.15,0,0,1,1.267,1.25,4.091,4.091,0,0,1,0,3.78,3.155,3.155,0,0,1-1.27,1.255A3.774,3.774,0,0,1,2597.542,907.946Zm-1.522-1.935a2.206,2.206,0,0,0,3.046,0,2.558,2.558,0,0,0,0-3.284,2.213,2.213,0,0,0-3.046,0,2.555,2.555,0,0,0,0,3.284Zm1.093-5.775,1.263-1.773.685.487-1.095,1.286Z" transform="translate(-2586.421 -898.463)"/>
        <path id="Trazado_11402" data-name="Trazado 11402" d="M2610.867,910.271v-6.963h2.521a3.929,3.929,0,0,1,1.453.251,2.677,2.677,0,0,1,1.042.71,3.091,3.091,0,0,1,.616,1.1,4.943,4.943,0,0,1,0,2.847,3.088,3.088,0,0,1-.616,1.1,2.678,2.678,0,0,1-1.042.711,3.927,3.927,0,0,1-1.453.251Zm1.446-1.277h1a1.709,1.709,0,0,0,1.407-.566,3.139,3.139,0,0,0,0-3.281,1.71,1.71,0,0,0-1.407-.566h-1Z" transform="translate(-2594.859 -900.884)"/>
        <path id="Trazado_11403" data-name="Trazado 11403" d="M2625.248,910.271v-6.963h1.446v6.963Z" transform="translate(-2602.046 -900.884)"/>
        <path id="Trazado_11404" data-name="Trazado 11404" d="M2634.267,910.271a3.765,3.765,0,0,1-1.39-.253,3.251,3.251,0,0,1-1.108-.711,3.2,3.2,0,0,1-.728-1.128,4.232,4.232,0,0,1,.008-2.957,3.23,3.23,0,0,1,.742-1.137,3.309,3.309,0,0,1,1.13-.715,3.877,3.877,0,0,1,1.419-.256,3.793,3.793,0,0,1,1.809.427,3.105,3.105,0,0,1,1.255,1.212l-1.268.674a1.859,1.859,0,0,0-.734-.79,2.11,2.11,0,0,0-1.062-.265,2.017,2.017,0,0,0-1.521.612,2.333,2.333,0,0,0-.59,1.691,2.406,2.406,0,0,0,.587,1.7,2.042,2.042,0,0,0,1.575.636,2.319,2.319,0,0,0,.848-.15,1.693,1.693,0,0,0,.675-.484,1.755,1.755,0,0,0,.385-.827h-1.9v-1.161h3.272v3.783h-1.137v-.964A2.541,2.541,0,0,1,2634.267,910.271Z" transform="translate(-2604.81 -900.788)"/>
        <path id="Trazado_11405" data-name="Trazado 11405" d="M2650.156,910.271a3.782,3.782,0,0,1-1.828-.436,3.158,3.158,0,0,1-1.27-1.255,4.091,4.091,0,0,1,0-3.78,3.151,3.151,0,0,1,1.27-1.25,4.065,4.065,0,0,1,3.654,0,3.158,3.158,0,0,1,1.269,1.25,4.095,4.095,0,0,1,0,3.78,3.17,3.17,0,0,1-1.27,1.255A3.778,3.778,0,0,1,2650.156,910.271Zm-1.522-1.935a2.206,2.206,0,0,0,3.045,0,2.558,2.558,0,0,0,0-3.284,2.213,2.213,0,0,0-3.045,0,2.555,2.555,0,0,0,0,3.284Z" transform="translate(-2612.715 -900.788)"/>
      </g>
      <g id="Grupo_11610" data-name="Grupo 11610" transform="translate(2448.087 442.3)">
        <path id="Trazado_11406" data-name="Trazado 11406" d="M2474.5,616.271l-1.812-3.064h-.419v3.064h-1.446v-6.963h2.525a2.921,2.921,0,0,1,1.012.161,1.747,1.747,0,0,1,.7.448,1.921,1.921,0,0,1,.395.658,2.393,2.393,0,0,1,.133.814,1.7,1.7,0,0,1-.38,1.145,1.917,1.917,0,0,1-1.094.6l2.1,3.137Zm-2.231-5.763v1.662h.853q1.085,0,1.084-.829a.757.757,0,0,0-.265-.612,1.261,1.261,0,0,0-.819-.221Z" transform="translate(-2470.821 -609.211)"/>
        <path id="Trazado_11407" data-name="Trazado 11407" d="M2487.748,610.58h-2.583v1.58h2.289v1.258h-2.289v1.576h2.583v1.277h-4.038v-6.963h4.038Z" transform="translate(-2477.262 -609.211)"/>
        <path id="Trazado_11408" data-name="Trazado 11408" d="M2496.837,616.271a3.882,3.882,0,0,1-1.42-.256,3.327,3.327,0,0,1-1.129-.713,3.2,3.2,0,0,1-.742-1.132,3.942,3.942,0,0,1-.27-1.479,3.779,3.779,0,0,1,.462-1.891,3.15,3.15,0,0,1,1.27-1.251,3.8,3.8,0,0,1,1.829-.434,3.7,3.7,0,0,1,2.043.564,3.088,3.088,0,0,1,1.248,1.552l-1.349.492a1.909,1.909,0,0,0-.747-.94,2.134,2.134,0,0,0-1.194-.337,2.044,2.044,0,0,0-1.523.607,2.543,2.543,0,0,0,0,3.279,2.042,2.042,0,0,0,1.521.61,2.122,2.122,0,0,0,1.192-.34,1.916,1.916,0,0,0,.75-.942l1.349.491a3.1,3.1,0,0,1-1.248,1.554A3.689,3.689,0,0,1,2496.837,616.271Z" transform="translate(-2482.043 -609.115)"/>
        <path id="Trazado_11409" data-name="Trazado 11409" d="M2513.381,610.58H2510.8v1.58h2.289v1.258H2510.8v1.576h2.583v1.277h-4.038v-6.963h4.038Z" transform="translate(-2490.073 -609.211)"/>
        <path id="Trazado_11410" data-name="Trazado 11410" d="M2523.288,609.308a2.1,2.1,0,0,1,1.6.648,2.257,2.257,0,0,1,.606,1.6,2.2,2.2,0,0,1-.6,1.593,2.133,2.133,0,0,1-1.61.624h-1.451v2.5h-1.445v-6.963Zm-.241,3.257a1.062,1.062,0,0,0,.8-.272,1.034,1.034,0,0,0,.265-.754,1.023,1.023,0,0,0-.268-.744,1.05,1.05,0,0,0-.792-.277h-1.209v2.047Z" transform="translate(-2495.595 -609.211)"/>
        <path id="Trazado_11411" data-name="Trazado 11411" d="M2536.36,609.308v1.272h-1.653v5.691h-1.431V610.58h-1.663v-1.272Z" transform="translate(-2501.203 -609.211)"/>
        <path id="Trazado_11412" data-name="Trazado 11412" d="M2545.405,616.271a3.785,3.785,0,0,1-1.829-.436,3.157,3.157,0,0,1-1.27-1.255,4.09,4.09,0,0,1,0-3.78,3.145,3.145,0,0,1,1.27-1.251,4.067,4.067,0,0,1,3.655,0,3.159,3.159,0,0,1,1.268,1.251,4.094,4.094,0,0,1,0,3.78,3.168,3.168,0,0,1-1.27,1.255A3.773,3.773,0,0,1,2545.405,616.271Zm-1.523-1.935a2.206,2.206,0,0,0,3.045,0,2.554,2.554,0,0,0,0-3.284,2.213,2.213,0,0,0-3.045,0,2.557,2.557,0,0,0,0,3.284Z" transform="translate(-2506.315 -609.115)"/>
        <path id="Trazado_11413" data-name="Trazado 11413" d="M2562.406,616.271l-1.812-3.064h-.419v3.064h-1.445v-6.963h2.525a2.923,2.923,0,0,1,1.011.161,1.747,1.747,0,0,1,.7.448,1.922,1.922,0,0,1,.4.658,2.393,2.393,0,0,1,.133.814,1.7,1.7,0,0,1-.381,1.145,1.915,1.915,0,0,1-1.093.6l2.1,3.137Zm-2.231-5.763v1.662h.853q1.085,0,1.084-.829a.755.755,0,0,0-.265-.612,1.261,1.261,0,0,0-.819-.221Z" transform="translate(-2514.754 -609.211)"/>
      </g>
    </g>
    <g id="Grupo_11623" data-name="Grupo 11623" transform="translate(1649.799 5044.34)">
      <ellipse id="Elipse_762" data-name="Elipse 762" cx="20.878" cy="7.766" rx="20.878" ry="7.766" transform="translate(-690.116 172.599)" fill="#91c4d8"/>
      <ellipse id="Elipse_763" data-name="Elipse 763" cx="13.384" cy="4.979" rx="13.384" ry="4.979" transform="translate(-618.425 178.857)" fill="#91c4d8"/>
      <ellipse id="Elipse_764" data-name="Elipse 764" cx="12.35" cy="4.594" rx="12.35" ry="4.594" transform="translate(-742.537 179.627)" fill="#91c4d8"/>
      <g id="Grupo_11616" data-name="Grupo 11616" transform="translate(-707.181 57.41)">
        <g id="Grupo_11614" data-name="Grupo 11614" transform="translate(0 11.146)">
          <g id="Grupo_11613" data-name="Grupo 11613" transform="translate(0 0)">
            <path id="Trazado_11414" data-name="Trazado 11414" d="M-659.33,206.785l-7.284,28.922,0,0c-.944,3.986,1.938,9.239,7.236,12.6,5.436,3.453,11.59,3.759,14.73.987h0l22.84-18.681-29.377-13.173Z" transform="translate(667.417 -146.969)" fill="#ffc955"/>
            <path id="Trazado_11415" data-name="Trazado 11415" d="M-574.208,280.731h0a7.7,7.7,0,0,1-10.6,2.366l-18.83-11.96a7.7,7.7,0,0,1-2.366-10.6h0a7.705,7.705,0,0,1,10.6-2.366l18.83,11.96A7.7,7.7,0,0,1-574.208,280.731Z" transform="translate(636.136 -173.317)" fill="#ffc955"/>
            <rect id="Rectángulo_2914" data-name="Rectángulo 2914" width="7.517" height="17.299" rx="3.759" transform="matrix(0.536, -0.844, 0.844, 0.536, 38.293, 91.217)" fill="#220443"/>
            <rect id="Rectángulo_2915" data-name="Rectángulo 2915" width="3.84" height="9.839" rx="1.92" transform="translate(42.97 88.919) rotate(-57.581)" fill="#ffc955"/>
            <path id="Trazado_11416" data-name="Trazado 11416" d="M-655.562,132.4l-12.258,48.671.006,0c-1.588,6.708,3.262,15.548,12.177,21.21,9.148,5.81,19.5,6.325,24.788,1.661h0l38.436-31.437-49.437-22.169Z" transform="translate(668.112 -107.921)" fill="#f5fcff"/>
            <g id="Grupo_11612" data-name="Grupo 11612" transform="translate(0.835)">
              <ellipse id="Elipse_765" data-name="Elipse 765" cx="24.95" cy="37.836" rx="24.95" ry="37.836" transform="translate(0 42.121) rotate(-57.578)" fill="#ffc955"/>
              <ellipse id="Elipse_766" data-name="Elipse 766" cx="21.123" cy="32.033" rx="21.123" ry="32.033" transform="matrix(0.536, -0.844, 0.844, 0.536, 7.869, 40.555)" fill="#f5fcff"/>
              <path id="Trazado_11417" data-name="Trazado 11417" d="M-592.148,146.342l-10.083-4.381-18.7,15.834A44.186,44.186,0,0,0-607.6,170.669h0a44.189,44.189,0,0,0,17.319,6.591l6.384-23.654-8.7-6.564Z" transform="translate(642.508 -112.94)" fill="#220443"/>
              <ellipse id="Elipse_767" data-name="Elipse 767" cx="7.299" cy="11.069" rx="7.299" ry="11.069" transform="translate(35.427 36.267) rotate(-57.578)" fill="#341072"/>
              <ellipse id="Elipse_768" data-name="Elipse 768" cx="4.855" cy="7.362" rx="4.855" ry="7.362" transform="translate(40.407 35.341) rotate(-57.579)" fill="#ffc955"/>
            </g>
          </g>
          <path id="Trazado_11418" data-name="Trazado 11418" d="M-646.806,262.1a1.628,1.628,0,0,1,.5,2.247,1.628,1.628,0,0,1-2.247.5,1.628,1.628,0,0,1-.5-2.247A1.628,1.628,0,0,1-646.806,262.1Z" transform="translate(658.24 -175.87)" fill="#341072"/>
          <path id="Trazado_11419" data-name="Trazado 11419" d="M-637.491,268.012a1.628,1.628,0,0,1,.5,2.247,1.628,1.628,0,0,1-2.247.5,1.628,1.628,0,0,1-.5-2.247A1.627,1.627,0,0,1-637.491,268.012Z" transform="translate(653.35 -178.976)" fill="#341072"/>
        </g>
        <g id="Grupo_11615" data-name="Grupo 11615" transform="translate(5.698)">
          <path id="Trazado_11420" data-name="Trazado 11420" d="M-629.793,78.233h0a1.8,1.8,0,0,1-2.24-1.206l-5.194-17.3a1.8,1.8,0,0,1,1.206-2.24h0a1.8,1.8,0,0,1,2.24,1.206l5.194,17.3A1.8,1.8,0,0,1-629.793,78.233Z" transform="translate(646.241 -57.41)" fill="#ffc955"/>
          <path id="Trazado_11421" data-name="Trazado 11421" d="M-611.173,82.876h0a1.8,1.8,0,0,1-1.493-2.06l1.88-12.338a1.8,1.8,0,0,1,2.06-1.493h0a1.8,1.8,0,0,1,1.493,2.06l-1.88,12.338A1.8,1.8,0,0,1-611.173,82.876Z" transform="translate(633.32 -62.424)" fill="#ffc955"/>
          <path id="Trazado_11422" data-name="Trazado 11422" d="M-644.741,93.58h0a1.8,1.8,0,0,0,.112-2.542l-8.364-9.263a1.8,1.8,0,0,0-2.542-.111h0a1.8,1.8,0,0,0-.111,2.542l8.364,9.263A1.8,1.8,0,0,0-644.741,93.58Z" transform="translate(656.117 -69.895)" fill="#ffc955"/>
        </g>
      </g>
      <g id="Grupo_11619" data-name="Grupo 11619" transform="translate(-622.514 115.226)">
        <g id="Grupo_11618" data-name="Grupo 11618" transform="translate(0 0)">
          <path id="Trazado_11423" data-name="Trazado 11423" d="M-466.505,252.74l-2.284,29.909h2.619a50.928,50.928,0,0,0,2.6-13.718l2.117-12.128.592-.125,1.727,12.272a30.107,30.107,0,0,0-.046,4.13c.661,3.925,1.887,9.57,1.887,9.57h2.619l-1.773-29.909Z" transform="translate(478.812 -217.763)" fill="#004cff"/>
          <path id="Trazado_11424" data-name="Trazado 11424" d="M-453.813,254.658l-.114-1.918h-10.055s2.762,1.962,10.169,1.918Z" transform="translate(476.289 -217.763)" fill="#003ac4"/>
          <path id="Trazado_11425" data-name="Trazado 11425" d="M-442.679,183.843a5.307,5.307,0,0,1-.5-1.1s-.476-1.541-.532-1.784c0,0,.305-.244.569.15a4.81,4.81,0,0,1,.455.951,3.589,3.589,0,0,0,.128-1.114,3.254,3.254,0,0,1,.037-1.538c.18-.219.351.023.351.023s.132,1.347.163,1.636c.027.253.134.177.134.177s.222-1.56.262-1.839.22-.362.462-.243c0,0-.113.833-.134,1.35-.008.181-.151.787.065.785,0,0,.338-1.317.366-1.546a.239.239,0,0,1,.431-.135l-.312,1.82s0,.131.094.1a4.255,4.255,0,0,0,.53-.88c.023-.093.121-.376.353-.267,0,0,.075.048-.013.315s-.457,1.547-.457,1.547a3.922,3.922,0,0,1-.791,1.641c-.645.78-1.057.7-.47.584l-.495-.276Z" transform="translate(465.646 -179.114)" fill="#ffcda9"/>
          <path id="Trazado_11426" data-name="Trazado 11426" d="M-449.726,201.249s5.619-3.325,3.859-12.457h1.808s3.708,9.812-3.946,17.065Z" transform="translate(468.805 -184.194)" fill="#ffcda9"/>
          <path id="Trazado_11427" data-name="Trazado 11427" d="M-443.167,207.017l.258,1.488,1.643.865.649-.313.23-.354q.118-.394.211-.783Z" transform="translate(465.362 -193.761)" fill="#ffbd9c"/>
          <path id="Trazado_11428" data-name="Trazado 11428" d="M-485.92,192.252a5.3,5.3,0,0,0,.075-1.2s-.1-1.609-.138-1.856c0,0-.372-.12-.478.343a4.811,4.811,0,0,0-.086,1.05,3.588,3.588,0,0,1-.516-.995c-.1-.435-.335-1.285-.581-1.425s-.32.147-.32.147.356,1.306.43,1.587c.065.247-.062.213-.062.213l-.9-1.625a.287.287,0,0,0-.518-.063s.4.738.606,1.214c.071.166.421.681.219.757,0,0-.784-1.111-.893-1.314a.239.239,0,0,0-.451.027l.94,1.59s.043.124-.052.128a4.241,4.241,0,0,1-.809-.634c-.055-.078-.247-.309-.425-.123,0,0-.053.071.125.29s.978,1.283.978,1.283a3.924,3.924,0,0,0,1.323,1.251c.88.5,1.237.277.647.379l.364-.434Z" transform="translate(489.887 -183.846)" fill="#ffcda9"/>
          <path id="Trazado_11429" data-name="Trazado 11429" d="M-475.4,206.8s-6.435-1.107-8.041-10.268l-1.69.644s.028,10.49,9.763,14.542Z" transform="translate(487.392 -188.255)" fill="#ffcda9"/>
          <path id="Trazado_11430" data-name="Trazado 11430" d="M-479.308,214.575c.214.33.449.657.7.982h.933l1.061-2.569Z" transform="translate(484.334 -196.896)" fill="#ffbd9c"/>
          <path id="Trazado_11431" data-name="Trazado 11431" d="M-449.726,210.65a10.857,10.857,0,0,0,2.858-3.95l3.706,2.17s-1.711,4.407-5.046,6.654Z" transform="translate(468.805 -193.595)" fill="#ff5f00"/>
          <path id="Trazado_11432" data-name="Trazado 11432" d="M-472.791,215.055a6.638,6.638,0,0,1-3.692-2.544l-3.061,2.712a12.363,12.363,0,0,0,7.107,4.881Z" transform="translate(484.458 -196.645)" fill="#ff5f00"/>
          <path id="Trazado_11433" data-name="Trazado 11433" d="M-464.728,232.915a54.285,54.285,0,0,0,.073-6.457c-.2-3.943-.82-8.522-.741-10.114a16.852,16.852,0,0,1,7.44-1.35,51.187,51.187,0,0,1,3.283,17.922S-458.457,234.436-464.728,232.915Z" transform="translate(477.034 -197.938)" fill="#ff9a00"/>
          <g id="Grupo_11617" data-name="Grupo 11617" transform="translate(12.295 26.282)">
            <path id="Trazado_11434" data-name="Trazado 11434" d="M-453.9,243.4c-.069-1.442-.2-2.825-.367-4.131h-9.556c.076,1.554.069,3,.037,4.131Z" transform="translate(463.91 -236.976)" fill="#ff5f00"/>
            <path id="Trazado_11435" data-name="Trazado 11435" d="M-464.006,235.29q.032.467.058.926l9.387-.861q-.073-.467-.152-.918Z" transform="translate(464.006 -234.438)" fill="#ff5f00"/>
          </g>
          <path id="Trazado_11436" data-name="Trazado 11436" d="M-462.321,212.092l-.336-1.013,3.874-1.012.189,1.012.117,2.072-.781,3.823-2.518-3.1Z" transform="translate(475.593 -195.362)" fill="#ffbe95"/>
          <path id="Trazado_11437" data-name="Trazado 11437" d="M-470.569,315.7v1.824l-6.6,1.125,3.981-2.949Z" transform="translate(483.211 -250.813)" fill="#000f1f"/>
          <path id="Trazado_11438" data-name="Trazado 11438" d="M-444.6,315.7v2.027l7.388,1.856-4.769-3.883Z" transform="translate(466.112 -250.813)" fill="#000f1f"/>
        </g>
        <path id="Trazado_11439" data-name="Trazado 11439" d="M-464.673,209.931a.854.854,0,0,1-.854.854.854.854,0,0,1-.854-.854.854.854,0,0,1,.854-.854A.853.853,0,0,1-464.673,209.931Z" transform="translate(477.547 -194.843)" fill="#ffbe94"/>
        <path id="Trazado_11440" data-name="Trazado 11440" d="M-452.795,207.409a.854.854,0,0,1-.854.854.854.854,0,0,1-.854-.854.854.854,0,0,1,.854-.854A.853.853,0,0,1-452.795,207.409Z" transform="translate(471.312 -193.519)" fill="#ffbe94"/>
        <path id="Trazado_11441" data-name="Trazado 11441" d="M-459.291,203.058a3.26,3.26,0,0,0-3.681-2.778,3.26,3.26,0,0,0-2.778,3.681c.006.045.023.085.031.13,0,.009-.007.014-.01.022a6.446,6.446,0,0,0,4.175,4.757,6.5,6.5,0,0,0,2.284-5.659c-.006-.007-.011-.011-.016-.019C-459.29,203.146-459.285,203.1-459.291,203.058Z" transform="translate(477.233 -190.208)" fill="#ffcda9"/>
        <path id="Trazado_11442" data-name="Trazado 11442" d="M-459.882,202.485a1.269,1.269,0,0,0,.281-.425,3.26,3.26,0,0,0-3.371-1.781,3.26,3.26,0,0,0-2.778,3.681c.006.045.023.085.031.13,0,.009-.007.014-.01.022a6.844,6.844,0,0,0,.508,1.466v-1.962a4.035,4.035,0,0,0,3.251.415l-.333-.788s1.819,1.237,3-.24a3.279,3.279,0,0,0-.107-.457Z" transform="translate(477.233 -190.208)" fill="#ffbd9c"/>
        <path id="Trazado_11443" data-name="Trazado 11443" d="M-454.228,203.678a3.476,3.476,0,0,0,1.036,1.679,4.029,4.029,0,0,0-.664-2.71" transform="translate(471.168 -191.467)" fill="#ff9e47"/>
        <path id="Trazado_11444" data-name="Trazado 11444" d="M-465.479,203.9v-1.99a3.945,3.945,0,0,0,3.284,0l-.337-.746a2.354,2.354,0,0,0,3.309-1.066h-.864s.976-.946.06-2.909l-1.271.869s-4.181-1.178-4.75,2.455A3.267,3.267,0,0,0-465.479,203.9Z" transform="translate(477.5 -188.6)" fill="#ffb249"/>
      </g>
      <g id="Grupo_11622" data-name="Grupo 11622" transform="translate(-741.564 116.992)">
        <path id="Trazado_11445" data-name="Trazado 11445" d="M-705.383,319.462v1.58h5.874l-3.729-1.58Z" transform="translate(722.06 -254.554)" fill="#000f1f"/>
        <path id="Trazado_11446" data-name="Trazado 11446" d="M-736.25,319.462l-.527,1.58.784.763h4.8l-2.568-1.553-.214-.79Z" transform="translate(738.54 -254.554)" fill="#000f1f"/>
        <g id="Grupo_11621" data-name="Grupo 11621" transform="translate(0 0.955)">
          <g id="Grupo_11620" data-name="Grupo 11620" transform="translate(2.25)">
            <path id="Trazado_11447" data-name="Trazado 11447" d="M-708.955,244.282V280H-711.1s-3.408-10.98-1.136-17.037l-4.039-14.261Z" transform="translate(725.528 -216.044)" fill="#e13441"/>
            <path id="Trazado_11448" data-name="Trazado 11448" d="M-719.18,244.282h-8.96l-3.282,18.871s-4.817,4.579-4.29,16.844h2.271l4.8-15.523Z" transform="translate(735.752 -216.044)" fill="#fb5956"/>
            <path id="Trazado_11449" data-name="Trazado 11449" d="M-677.989,186.537l1.885-1.5,4.722-.2s.276.963-3.051,1.019l.253,1-1,1.337-1.841-.061-.42.359-1.135-1.123Z" transform="translate(705.736 -184.841)" fill="#ffcda9"/>
            <path id="Trazado_11450" data-name="Trazado 11450" d="M-703.094,202.677s5.513.467,9.776-1.178a27.279,27.279,0,0,0,3.05-10.524l-1.779-.812-3.229,8.079-8.965.153v3.553Z" transform="translate(719.21 -187.635)" fill="#0027bc"/>
            <path id="Trazado_11451" data-name="Trazado 11451" d="M-721.917,224.8a14.827,14.827,0,0,0,8.992.267s1.284-9.4-1.635-17.744a29.46,29.46,0,0,0-9.339.525A86.569,86.569,0,0,1-721.917,224.8Z" transform="translate(729.53 -196.562)" fill="#004cff"/>
            <path id="Trazado_11452" data-name="Trazado 11452" d="M-715.072,205.457l1.058-1.14.028-.765-.051-2.226L-717.8,199.6v3.838" transform="translate(726.33 -192.591)" fill="#ffbe95"/>
          </g>
          <path id="Trazado_11453" data-name="Trazado 11453" d="M-729.907,250.493a5.728,5.728,0,0,1,1.222.238s1.606.517,1.85.614c0,0,.064.393-.417.378a5.2,5.2,0,0,1-1.072-.188,4.288,4.288,0,0,0,.925.76c.422.214,1.244.659,1.348.935s-.2.273-.2.273-1.262-.685-1.534-.829c-.239-.127-.225,0-.225,0s1.387.9,1.615,1.1.255.362.028.491c0,0-1.1-.667-1.265-.764s-.646-.5-.753-.324c0,0,1.158.85,1.347,1.008s.187.347-.059.394l-1.654-1.087s-.118-.075-.136.018a4.542,4.542,0,0,0,.584.83c.071.073.274.32.06.447,0,0-.079.032-.273-.2s-1.213-1.163-1.213-1.163a4.589,4.589,0,0,1-1.062-1.613c-.371-.986-.093-1.277-.284-.729l.493-.242Z" transform="translate(735.545 -219.305)" fill="#ffcda9"/>
          <path id="Trazado_11454" data-name="Trazado 11454" d="M-732.607,208.6s-5.911,4.119-7.881,9.953a27.383,27.383,0,0,0,4.622,11.289l1.212-1.288s-1.211-5.861-1.894-9.333c0,0,.421-1.916,4.946-5.194A9.543,9.543,0,0,0-732.607,208.6Z" transform="translate(740.488 -197.312)" fill="#0027bc"/>
        </g>
        <path id="Trazado_11455" data-name="Trazado 11455" d="M-720.064,194.275s1.583,2.55,5.282,1.519c0,0,.623-4.128-1.636-7.088a16.227,16.227,0,0,0-4.167.7c-2.025.662-.584,3.115-.584,3.115S-721.766,193.153-720.064,194.275Z" transform="translate(730.608 -185.915)" fill="#ffcda9"/>
        <path id="Trazado_11456" data-name="Trazado 11456" d="M-714.91,184.24h-2.1a1.3,1.3,0,0,0,.609-1.41l-2.22,1.155a1.3,1.3,0,0,0-.255-.806L-720,184.75l0,0a4.453,4.453,0,0,0-.876.156,3.218,3.218,0,0,0-2.255,4.38,3.784,3.784,0,0,0,2.1,2.261l.318.623v-.68l.085-.918c-.425.188-1.632-.322-1.275-.97a.6.6,0,0,1,.872-.315l.6.584-.358-1.185.335-.828a4.9,4.9,0,0,0,2.588.939v-.491a2.4,2.4,0,0,0,1.44.1l-.679-.485a2.55,2.55,0,0,0,2.192-2.17s-.212-.089-.561-.214A2.078,2.078,0,0,0-714.91,184.24Z" transform="translate(731.491 -182.83)" fill="#ff5f00"/>
      </g>
    </g>
  </g>
</svg>
