<svg xmlns="http://www.w3.org/2000/svg" width="494.583" height="442.036" viewBox="0 0 494.583 442.036">
  <g id="Grupo_12034" data-name="Grupo 12034" transform="translate(-726 -100.988)">
    <path id="Trazado_10195" data-name="Trazado 10195" d="M794.52,201.293c-22.661-70.68-103.848-92.573-166.992-59.812q-5.778,2.247-11.244,4.977c-14.6,7.264-27.779,16.994-40.55,27.941-26.454,22.805-51.084,46.523-80.94,61.9-3.5,1.955-10.31,5.762-18.154,10.218-15.69,8.912-35.5,20.5-41.608,24.587q-2.363,1.585-4.822,3.016c-31.813,18.423-57.358,47.856-70.083,81.382l-.064.167a82.68,82.68,0,0,0-5.222,32.778c2.065,47.9,23.894,99.827,64.843,124.869a165.316,165.316,0,0,0,16.938,8.036,206.084,206.084,0,0,0,54.727,13.558,244.3,244.3,0,0,0,35.849,1.714,229.942,229.942,0,0,0,34.767-3.511c9.805-1.24,19.509-2.917,29.021-4.97,4.045-.671,8.033-1.332,11.9-1.979,31.235-7.863,60.426,5.82,89.616,16.766C724.424,555.7,761.824,552.966,794.5,541.9a94.147,94.147,0,0,0,16.026-8.7q.941-.636,1.866-1.293c32.419-23.054,45.007-65.2,31.738-102.706-10.473-29.6-26.617-68.607-30.035-87.485C809.872,318.375,814.371,255.963,794.52,201.293Z" transform="translate(371.237 -8.386)" fill="#2681cc"/>
    <g id="Grupo_10444" data-name="Grupo 10444" transform="translate(2239.866 -38.625)">
      <g id="Grupo_10354" data-name="Grupo 10354" transform="translate(-1278.604 217.454)">
        <g id="Grupo_10334" data-name="Grupo 10334" transform="translate(22.774 10.917)">
          <path id="Trazado_10106" data-name="Trazado 10106" d="M-1053.679,307.541a5.851,5.851,0,0,1,4.641-.736q3.154.627,12.083,2.021,7.559,1.2,12.01,2.12a170.648,170.648,0,0,1-11.382,31.407q-5.968,12.724-15.931,29.456a17.56,17.56,0,0,1-6.111,4.808q-2.3,1.217-6.994,3.466-10.779,6.95-15.95,9.674a67.132,67.132,0,0,1-17.222,6.74,7.623,7.623,0,0,1-5.368,1.337q-13.884-3.234-6.971-16.251a23.653,23.653,0,0,1,6.6-4.383q1.953-.828,6.732-2.329a54.519,54.519,0,0,0,6.643-2.459,17.833,17.833,0,0,0,5.813-4.412q6.8-4.853,7.569-5.39a23.6,23.6,0,0,1,8.615-3.4,33.462,33.462,0,0,1,1.431-12.249,88.445,88.445,0,0,1,4.531-11.632q3.837-8.432,4.912-11.562a41.83,41.83,0,0,0,2.642-12.087A3.8,3.8,0,0,1-1053.679,307.541Z" transform="translate(1113.171 -306.626)" fill="#e1eaf4" fill-rule="evenodd"/>
        </g>
        <g id="Grupo_10335" data-name="Grupo 10335" transform="translate(90.659 240.124)">
          <path id="Trazado_10107" data-name="Trazado 10107" d="M-979.882,753.319a56.058,56.058,0,0,0,8.588-1.2,21.626,21.626,0,0,0,7.871-3.484,52.343,52.343,0,0,1,20.078-10.726q.461,2.971.768,4.2-1.11,1.605-2.442,3.228a6.012,6.012,0,0,1-2.475-.888,14.7,14.7,0,0,0-2.339-1.178,20.577,20.577,0,0,0-5.241,2.476q-1.451.939-4.746,3.433a48.8,48.8,0,0,1-4.78,3.33,18.475,18.475,0,0,1-5.378,2.2q-4.251.854-5.89,1.076a24.178,24.178,0,0,1-5.959.137,3.9,3.9,0,0,1-2.937-2.049,5.012,5.012,0,0,1-.546-3.621,6.981,6.981,0,0,0,2.288,2.323A4.818,4.818,0,0,0-979.882,753.319Z" transform="translate(985.434 -737.914)" fill="#654720" fill-rule="evenodd"/>
        </g>
        <g id="Grupo_10336" data-name="Grupo 10336" transform="translate(117.712 248.647)">
          <path id="Trazado_10108" data-name="Trazado 10108" d="M-895.661,753.951a40.669,40.669,0,0,1-6.2,10.914q-1.178,2.219-3.243,6.849a27.553,27.553,0,0,1-4.029,6.37,14,14,0,0,1-7.649,3.314,51.585,51.585,0,0,1-8.519.205,24.123,24.123,0,0,1-6.642-1.5q-3.653-1.691-2.151-5.209,1.724,2.869,5.941,3.689a64.574,64.574,0,0,0,7.307.512,20.151,20.151,0,0,0,8.024-1.3,10.963,10.963,0,0,0,5.976-5.26q1.912-3.468,4.234-8.505,2.595-5.772,3.91-8.659A30,30,0,0,0-895.661,753.951Z" transform="translate(934.53 -753.951)" fill="#654720" fill-rule="evenodd"/>
        </g>
        <g id="Grupo_10337" data-name="Grupo 10337" transform="translate(130.337 70.749)">
          <path id="Trazado_10109" data-name="Trazado 10109" d="M-910.775,449.286a45.927,45.927,0,0,0,11.919,2.911,29.148,29.148,0,0,0,10.533-.776,19.608,19.608,0,0,0,9.147-5.046,26.791,26.791,0,0,0,5.1-6.653,66.05,66.05,0,0,0,3.492-7.652q3.05-8.15-.166-12.863a28.289,28.289,0,0,1,6.209,12.752,55.087,55.087,0,0,1,.942,14.249,63.873,63.873,0,0,0-2.328,9.647q-.332,2.162-1.331,9.869a89.728,89.728,0,0,0-4.1,28,51.44,51.44,0,0,1-.61,6.431q-.333,2.107-1.164,6.376-1.385,7.873-.277,12.752a28.326,28.326,0,0,1,2.218,9.925q.278,3.437.277,10.258-2.828,12.142-3.826,17.3a113.845,113.845,0,0,0-2.051,17.576,15.635,15.635,0,0,1-.666,8.317,71.206,71.206,0,0,1-3.381,7.818,23.639,23.639,0,0,1-1.275,3.66,7.879,7.879,0,0,1-2.384,2.994,24.549,24.549,0,0,1-3.049,1.386,13.793,13.793,0,0,1-7.152.5,51.237,51.237,0,0,1-6.985-1.941,17.077,17.077,0,0,1-3.437-1.552,5.876,5.876,0,0,1-2.439-2.717,41.215,41.215,0,0,1-.776-4.213q-.166-1.387-.277-3.6c-.08-.013-.164-.022-.249-.028q.029-.839.027-1.8a40.893,40.893,0,0,1,.776-8.04,65.085,65.085,0,0,0,1-10.312q.111-3.716.5-11.311.388-7.1.389-7.373a86.026,86.026,0,0,0-1.331-9.482q-1.33-7.429-1.331-7.541a21.288,21.288,0,0,0-.831-6.486,14.931,14.931,0,0,1-.832-4.713q0-1.165,1.386-11.533a151.335,151.335,0,0,0,1.386-20.182A119.932,119.932,0,0,0-909,469.663a120.87,120.87,0,0,1-1.276-16.689,15.153,15.153,0,0,1,.416-3.327Q-910.315,449.477-910.775,449.286Z" transform="translate(910.775 -419.208)" fill="#686a6a" fill-rule="evenodd"/>
        </g>
        <g id="Grupo_10338" data-name="Grupo 10338" transform="translate(104.651 79.73)">
          <path id="Trazado_10110" data-name="Trazado 10110" d="M-933.421,457.2q.459.191.914.36a15.152,15.152,0,0,0-.416,3.327,120.872,120.872,0,0,0,1.276,16.689,119.93,119.93,0,0,1,1.274,16.522,151.335,151.335,0,0,1-1.386,20.182q-1.386,10.368-1.386,11.533a14.934,14.934,0,0,0,.832,4.713,21.284,21.284,0,0,1,.831,6.486q0,.111,1.331,7.541a86.061,86.061,0,0,1,1.331,9.482q0,.276-.389,7.373-.388,7.6-.5,11.311a65.069,65.069,0,0,1-1,10.312,40.9,40.9,0,0,0-.776,8.04q0,.961-.027,1.8l-1.026-.139q-1.633-.215-4.158-.443-3.77-.333-5.544-.611-6.431-1.052-9.868-4.379a3.587,3.587,0,0,1-1.22-4.047,8.026,8.026,0,0,1,2.551-3.714,6.574,6.574,0,0,0,1.052-3.438,4.711,4.711,0,0,1,1.5-3.215q2.107-2.164,1.5-6.155a28.665,28.665,0,0,1-1.054-6.708q0-4.1.554-9.592.776-6.432,1.166-9.647,1.385-11.977.333-19.3a13.244,13.244,0,0,1-1.83-6.486q-.111-2.274-.165-3.438a22.89,22.89,0,0,0-.5-3.326,64.649,64.649,0,0,0-1.94-10.313q-.942-3.547-3.1-10.035-2.275-6.93-3.161-10.091a70.839,70.839,0,0,1-2.106-10.312,81.794,81.794,0,0,1-.334-15.857,62.611,62.611,0,0,1,3.271-15.525A35.047,35.047,0,0,0-941.9,452.741a44.573,44.573,0,0,0,5.821,3.3Z" transform="translate(959.107 -436.108)" fill="#3a3a3a" fill-rule="evenodd"/>
        </g>
        <g id="Grupo_10339" data-name="Grupo 10339" transform="translate(90.43 230.902)">
          <path id="Trazado_10111" data-name="Trazado 10111" d="M-977.933,730.432q3.141-1.929,4.712-2.921a34.184,34.184,0,0,0,8.536-6.951q3.449,3.331,9.868,4.372,1.775.29,5.549.632,3.653.324,5.446.632.1,2.22.273,3.587a52.343,52.343,0,0,0-20.078,10.726,21.626,21.626,0,0,1-7.871,3.484,56.059,56.059,0,0,1-8.588,1.2,4.818,4.818,0,0,1-3.141-.734,6.981,6.981,0,0,1-2.288-2.323,6.221,6.221,0,0,1,.222-4.662,9.7,9.7,0,0,1,2.868-3.791A42.041,42.041,0,0,1-977.933,730.432Z" transform="translate(985.866 -720.56)" fill="#979899" fill-rule="evenodd"/>
        </g>
        <g id="Grupo_10340" data-name="Grupo 10340" transform="translate(118.15 244.326)">
          <path id="Trazado_10112" data-name="Trazado 10112" d="M-912.451,750.073a51.665,51.665,0,0,0,7,1.947,14.022,14.022,0,0,0,7.136-.461q-1.315,2.887-3.91,8.659-2.322,5.038-4.234,8.505a10.964,10.964,0,0,1-5.976,5.26,20.152,20.152,0,0,1-8.024,1.3,64.589,64.589,0,0,1-7.307-.512q-4.216-.82-5.941-3.689.494-5.38,5.105-11.648a100.348,100.348,0,0,0,7.819-10.385q1.332-1.622,2.441-3.227a5.964,5.964,0,0,0,2.458,2.75A16.5,16.5,0,0,0-912.451,750.073Z" transform="translate(933.706 -745.82)" fill="#979899" fill-rule="evenodd"/>
        </g>
        <g id="Grupo_10344" data-name="Grupo 10344" transform="translate(77.047 6.607)">
          <g id="Grupo_10341" data-name="Grupo 10341">
            <path id="Trazado_10113" data-name="Trazado 10113" d="M-987.491,339.235a4.939,4.939,0,0,0-1.755-.29,11.625,11.625,0,0,0-3.786.553,3.476,3.476,0,0,0-2.114,1.589,29.745,29.745,0,0,1-.926-3.275,11.878,11.878,0,0,0-1.465-4.062q-2.652-1.272-6.08,1.437-3.04,2.349-3.04,3.648,0,1.908,3.289,3.15t3.288,2.985a13.843,13.843,0,0,0,.249,3.62q.166.36,1.409.58,4.117.8,10.17,8.4a38.753,38.753,0,0,1,2.307,3.22q-.328-.2-.678-.373a58.478,58.478,0,0,1-13.485-9.451q-1.741-1.6-3.593-3.04a11.356,11.356,0,0,1-3.648-4.56,50.636,50.636,0,0,1-3.122-9.976,27.931,27.931,0,0,1,1.437-16.083,36.387,36.387,0,0,1,9.561-13.79,16.5,16.5,0,0,1,14.757-4.338l-.691-.663a60.168,60.168,0,0,1,14.979,6.024q9.284,5.306,18.183,11.33,2.9,1.99,5.555,4.228a31.347,31.347,0,0,1,3.1,2.957q1.381,1.519,2.819,2.929,4.394,4.338,8.4,9.12A95.515,95.515,0,0,1-916.732,361a14.355,14.355,0,0,1,3.482,4.062l-.249-.4a40.14,40.14,0,0,1-4.477,6.95q-4.726,5.638-4.725,5.969a8.255,8.255,0,0,0,.994,3.648,5.314,5.314,0,0,0,5.03,3.316,10.205,10.205,0,0,0,7.53-3.537q.268,1.857.455,3.731a126.376,126.376,0,0,1,.635,14.729,85.5,85.5,0,0,1-1.575,14.867q-1.631,8.18-3.289,16.388a56.75,56.75,0,0,0-.774,17.658q.968,8.429,1.354,16.94.055,1.161.222,2.321a46.18,46.18,0,0,1-.47,16.608,16.143,16.143,0,0,1-3.233,6.881,22.489,22.489,0,0,1-14.868,8.484,55.572,55.572,0,0,1-17.3,0,9.542,9.542,0,0,1-5.444-2.626,2.033,2.033,0,0,1-.608-1.021q-.1-.4-.18-.8.069-1.077.069-2.238,0-6.245-2.487-24.346-2.183-15.945-3.316-21.14-.856-4.035-2.321-11.635-1.657-8.511-2.266-11.413-.331-1.88-.58-5.582-.249-4.2-.47-5.859-.885-6.8-4.643-9.561a.592.592,0,0,1-.193.331,3.23,3.23,0,0,0-.028.664q0,1.657,2.4,15.807a263.762,263.762,0,0,1,2.4,35.925q0,.553.111,9.23.082,9.424,0,14.315a8.758,8.758,0,0,1,.373,2.639,35.765,35.765,0,0,1-7.144-4.353,3.08,3.08,0,0,1-1.022-1.464,95.073,95.073,0,0,1-3.427-13.9q-1.41-8.594-2.681-17.189-1.023-7.019-2.542-13.9-1.852-8.428-3.317-17.023a120.509,120.509,0,0,1-1.6-15.862,69.323,69.323,0,0,1,1.519-16.885q1.534-7.1,2.9-14.232.646,1.512,1.465,3.565a145.012,145.012,0,0,1,4.808,16.387q1.409,5.72,2.542,10.474a1.5,1.5,0,0,0,.718-.111c.054.111.109.221.167.332a30.414,30.414,0,0,0,2.68-6.052,30.942,30.942,0,0,0,.249-5.168q0-7.019-3.7-15.973-1.851-4.2-2.542-5.776a11.629,11.629,0,0,1-1.161-3.565,9.361,9.361,0,0,1,.415-2.044,9.379,9.379,0,0,0,.415-2.045,9.53,9.53,0,0,0-.249-2.681,2.588,2.588,0,0,0-.995-1.161,23.78,23.78,0,0,1-5.5-5.665,22.339,22.339,0,0,0,6.467-7.047,14.6,14.6,0,0,0,2.487-7.212,29.8,29.8,0,0,0-1.714-9.092,38.79,38.79,0,0,0-3.814-8.373q-2.293-3.675-3.786-3.648-1.741.056-1.741,5.2a111.8,111.8,0,0,1-1.271,13.762Q-987.174,336.219-987.491,339.235Zm15.268,24.028h-.056a3.425,3.425,0,0,0-.055.829q0,2.432,4.035,5.223a15.539,15.539,0,0,0,8.9,2.957q.691,0,.885-.3a3.532,3.532,0,0,1,.11-.58,10.245,10.245,0,0,0-4.45-5.168A19.156,19.156,0,0,0-972.222,363.263Z" transform="translate(1011.048 -298.515)" fill="#fff" fill-rule="evenodd"/>
          </g>
          <g id="Grupo_10342" data-name="Grupo 10342" transform="translate(4.392 14.121)">
            <path id="Trazado_10114" data-name="Trazado 10114" d="M-961.29,494.749a8.757,8.757,0,0,0-.373-2.639q.082-4.892,0-14.315-.112-8.677-.11-9.23a263.763,263.763,0,0,0-2.4-35.925q-2.405-14.15-2.4-15.807a3.231,3.231,0,0,1,.028-.664.592.592,0,0,0,.193-.331q3.758,2.763,4.643,9.561.222,1.659.47,5.859.249,3.7.58,5.582.608,2.9,2.266,11.413,1.465,7.6,2.321,11.634,1.133,5.2,3.316,21.14,2.487,18.1,2.487,24.346,0,1.162-.069,2.238a18.712,18.712,0,0,1-.29-5.527,1.939,1.939,0,0,0-.664-1.713,20.121,20.121,0,0,0-1.989-1.7,20.158,20.158,0,0,0-5.112-2.75c-.074-.027-.148-.054-.221-.083Q-959.985,495.346-961.29,494.749ZM-978.6,379.941q.112-.58.222-1.161a2.68,2.68,0,0,0-.249-1.824,9.137,9.137,0,0,0-3.44-3.716,38.71,38.71,0,0,0-2.307-3.22q-6.052-7.6-10.17-8.4-1.243-.222-1.409-.58a13.843,13.843,0,0,1-.249-3.62q0-1.741-3.288-2.985t-3.289-3.15q0-1.3,3.04-3.648,3.427-2.708,6.08-1.437a11.878,11.878,0,0,1,1.465,4.062,29.775,29.775,0,0,0,.926,3.275q.167.465.332.816c.036.084.073.162.11.234l.014.028c.026.052.054.1.083.152Q-989.464,357-985.1,363q4.367,6.052,6.191,9.175,2.68,4.587,6.245,16.111,1.824,5.9,2.792,10.335-1.182-10.715-6.882-23.517-3.592-7.654-4.946-10.833-2.239-5.305-2.238-8.18,0-1.406.318-4.408t.953-7.641a111.792,111.792,0,0,0,1.271-13.762q0-5.14,1.741-5.2,1.492-.027,3.786,3.648a38.8,38.8,0,0,1,3.814,8.373,29.8,29.8,0,0,1,1.713,9.092,14.6,14.6,0,0,1-2.487,7.212,22.338,22.338,0,0,1-6.467,7.047,23.779,23.779,0,0,0,5.5,5.665,2.589,2.589,0,0,1,.995,1.161,9.536,9.536,0,0,1,.249,2.681,9.379,9.379,0,0,1-.415,2.045,9.369,9.369,0,0,0-.415,2.044,11.627,11.627,0,0,0,1.161,3.565q.69,1.575,2.542,5.776,3.7,8.953,3.7,15.973a30.957,30.957,0,0,1-.249,5.168,30.417,30.417,0,0,1-2.68,6.052c-.058-.111-.113-.221-.167-.332a1.5,1.5,0,0,1-.718.111q-1.133-4.753-2.542-10.474a145.011,145.011,0,0,0-4.808-16.387Q-977.958,381.453-978.6,379.941Zm69.225-2.432,1.34,3.137c.023.077.046.155.069.235q.092.32.179.636.316,1.116.594,2.238.4,1.577.747,3.164.229,1.044.428,2.1.431,2.207.747,4.436a10.2,10.2,0,0,1-7.53,3.537,5.314,5.314,0,0,1-5.03-3.316,8.254,8.254,0,0,1-.995-3.648q0-.332,4.725-5.969a40.143,40.143,0,0,0,4.477-6.95Zm-58.972-1.8a19.156,19.156,0,0,1,9.367,2.957,10.245,10.245,0,0,1,4.45,5.168,3.543,3.543,0,0,0-.11.58q-.194.3-.885.3a15.539,15.539,0,0,1-8.9-2.957q-4.034-2.791-4.035-5.223a3.416,3.416,0,0,1,.055-.829Z" transform="translate(1002.784 -325.086)" fill="#e1eaf4" fill-rule="evenodd"/>
          </g>
          <g id="Grupo_10343" data-name="Grupo 10343" transform="translate(15.902 40.43)">
            <path id="Trazado_10115" data-name="Trazado 10115" d="M-973.471,374.88q-.318,3-.318,4.408,0,2.874,2.238,8.18,1.354,3.178,4.946,10.833,5.7,12.8,6.882,23.517-.968-4.434-2.792-10.335-3.565-11.524-6.245-16.111-1.824-3.123-6.191-9.175-4.365-6-5.636-8.235c-.03-.049-.057-.1-.083-.152l-.014-.028c-.037-.072-.074-.15-.11-.234q-.165-.351-.332-.816a3.476,3.476,0,0,1,2.114-1.589,11.624,11.624,0,0,1,3.786-.553A4.939,4.939,0,0,1-973.471,374.88Z" transform="translate(981.126 -374.59)" fill="#be2d2a" fill-rule="evenodd"/>
          </g>
        </g>
        <g id="Grupo_10345" data-name="Grupo 10345" transform="translate(0 88.095)">
          <path id="Trazado_10116" data-name="Trazado 10116" d="M-1130.886,452.178a24.536,24.536,0,0,0-12.028,3.69,102.19,102.19,0,0,0-10.159,7.584,7.324,7.324,0,0,1-.625,3.584q-.481,1.24-1.624,3.625-1.841,4.334,1.145,6.335a9.4,9.4,0,0,0,4.306-3.477,35.517,35.517,0,0,1,3.669-4.346,48.472,48.472,0,0,1-3.185,4.148q-1.708,2.728.877,3.536,2.689-1.012,5.882-4.8a31.275,31.275,0,0,1,5.49-5.483q-1.082,1.287-3.31,3.776a35.146,35.146,0,0,0-3.042,3.949,7.47,7.47,0,0,0,4.7-.844,22.623,22.623,0,0,0,4.125-2.951,45.553,45.553,0,0,1,4.172-3.252,10.413,10.413,0,0,1,4.855-1.783,14.34,14.34,0,0,0,2.209-1.153,18.8,18.8,0,0,0,3.124-3.193,57.683,57.683,0,0,0,2.3-5.706,63.788,63.788,0,0,0-6.24-2.79A10.894,10.894,0,0,0-1130.886,452.178Z" transform="translate(1156.024 -451.849)" fill="#e49781" fill-rule="evenodd"/>
        </g>
        <g id="Grupo_10346" data-name="Grupo 10346" transform="translate(64.775)">
          <path id="Trazado_10117" data-name="Trazado 10117" d="M-996.2,292.7q5.839,5.346,5.77,13.971a21.474,21.474,0,0,1-5.36,14.381,5.548,5.548,0,0,0,.854-3.382q-.137-2.118-2.168-1.725a4.826,4.826,0,0,0-2.715,2.066,12.94,12.94,0,0,0-1.281,3.16,19.522,19.522,0,0,1-1.212,3.262,5.057,5.057,0,0,1-2.441,2.34,5.675,5.675,0,0,0-.837-4.014,9.357,9.357,0,0,0-2.834-2.442q-2.339-1.332-3.432-2.1a7.73,7.73,0,0,1-2.612-2.938,21.566,21.566,0,0,1-9.544,1.23,10.385,10.385,0,0,1-7.956-4.765,34.89,34.89,0,0,1-2.1-3.723q-.6-5.756,3.62-11.272a28.863,28.863,0,0,1,9.39-7.788,19.4,19.4,0,0,1,13.146-2.665A17.736,17.736,0,0,1-996.2,292.7Z" transform="translate(1034.141 -286.084)" fill="#654720" fill-rule="evenodd"/>
        </g>
        <g id="Grupo_10347" data-name="Grupo 10347" transform="translate(125.87 34.37)">
          <path id="Trazado_10118" data-name="Trazado 10118" d="M-864.107,366.213q-.017.6-.563,6.849a15.788,15.788,0,0,1-4.7,7.327,18.819,18.819,0,0,1-7.666,4.2,66.3,66.3,0,0,1-10.107-.529,56.557,56.557,0,0,0-10.124-.393,50.751,50.751,0,0,0-9.151.8,50.67,50.67,0,0,1-9.151.8,4.6,4.6,0,0,1-2.7-.906,1.957,1.957,0,0,1-.734-2.494,36.366,36.366,0,0,1,3.876-7.361q1.81-2.733,5.02-6.661,1.366-1.691,4.1-5.192a15.953,15.953,0,0,1,5.122-4.065,7.635,7.635,0,0,1,4.712-.461q1.6.273,4.746,1.076l4.286.991a5.9,5.9,0,0,1,2.561-6.2,18.7,18.7,0,0,1,3.124-1.776q1.093-.513,3.227-1.469l.666.564a28.1,28.1,0,0,1,4.166.393,7.594,7.594,0,0,1,3.7,1.793,11.2,11.2,0,0,1,.906.974q1.587,1.981,1.912,2.408a16.113,16.113,0,0,1,1.622,2.613A16.416,16.416,0,0,1-864.107,366.213Z" transform="translate(919.181 -350.756)" fill="#e1eaf4" fill-rule="evenodd"/>
        </g>
        <g id="Grupo_10348" data-name="Grupo 10348" transform="translate(66.433 25.659)">
          <path id="Trazado_10119" data-name="Trazado 10119" d="M-1010.392,340.839q1.092.768,3.432,2.1a9.359,9.359,0,0,1,2.834,2.442,5.675,5.675,0,0,1,.837,4.014,5.057,5.057,0,0,0,2.441-2.34,19.535,19.535,0,0,0,1.212-3.262,12.955,12.955,0,0,1,1.281-3.16,4.827,4.827,0,0,1,2.715-2.066q2.032-.393,2.168,1.725a5.547,5.547,0,0,1-.853,3.382,11.035,11.035,0,0,1-2.954,3.211,10.915,10.915,0,0,0-2.936,3.193,24.013,24.013,0,0,1-6.949,8.164q-1.433.666-3.909,1.725-2.869,1.229-3.91,1.69a38.336,38.336,0,0,1-3.636,1.452,5.523,5.523,0,0,1-3.807.017,5.309,5.309,0,0,1-3.141-2.937,8.794,8.794,0,0,1-.752-4.356q-2.765.171-2.526-2.237a9.617,9.617,0,0,1,.529-2.152q.648-1.93.666-2.015-3.722-7.31-3.33-13.253l.478-1.811a10.385,10.385,0,0,0,7.956,4.765A21.565,21.565,0,0,0-1013,337.9,7.731,7.731,0,0,0-1010.392,340.839Z" transform="translate(1031.019 -334.366)" fill="#fcd8c9" fill-rule="evenodd"/>
        </g>
        <g id="Grupo_10349" data-name="Grupo 10349" transform="translate(90.287 34.968)">
          <path id="Trazado_10120" data-name="Trazado 10120" d="M-979.186,358.285a10.915,10.915,0,0,1,2.936-3.193,11.036,11.036,0,0,0,2.954-3.211q-.069,6.353-.273,7.822a11.912,11.912,0,0,1-3.09,6.951,5.806,5.806,0,0,1-4.712,1.657,8.754,8.754,0,0,1-4.763-1.862A24.013,24.013,0,0,0-979.186,358.285Z" transform="translate(986.135 -351.881)" fill="#e49781" fill-rule="evenodd"/>
        </g>
        <g id="Grupo_10350" data-name="Grupo 10350" transform="translate(160.051 28.286)">
          <path id="Trazado_10121" data-name="Trazado 10121" d="M-842.333,342.239q2.549-.831,3.1,1.553a9.679,9.679,0,0,1-.277,4.38,7.818,7.818,0,0,0-3.715-1.829,27.718,27.718,0,0,0-4.158-.388,14.051,14.051,0,0,0-3.935.943,18.342,18.342,0,0,0-3.1,1.775c-.153.11-.3.221-.444.332l2.661-5.6q3.331-5.8,6.985-3.382a2.876,2.876,0,0,1,1.83.61A2.76,2.76,0,0,1-842.333,342.239Zm6.763,7.041a24.228,24.228,0,0,1,.5,4.879,16.941,16.941,0,0,0-1.663-2.606q-.277-.444-1.885-2.44Q-836.291,346.674-835.57,349.28Z" transform="translate(854.863 -339.309)" fill="#e49781" fill-rule="evenodd"/>
        </g>
        <g id="Grupo_10353" data-name="Grupo 10353" transform="translate(85.861 33.476)">
          <g id="Grupo_10351" data-name="Grupo 10351" transform="translate(0 17.457)">
            <path id="Trazado_10122" data-name="Trazado 10122" d="M-992.722,381.949h.027a.48.48,0,0,1,.249.138v-.028a.844.844,0,0,1,.166.221q.525,1.741,1.271,5.168c0,.037.01.055.029.055a14.251,14.251,0,0,0,2.21,4.67,19.1,19.1,0,0,0,7.406-1.852,32.894,32.894,0,0,0,6-3.952.447.447,0,0,1,.248-.055.852.852,0,0,1,.3.111l1.3.884a.361.361,0,0,1,.166.166h.028a.8.8,0,0,1,.056.166h-.028a.227.227,0,0,1-.056.166q-4.117,3.454-6.052,5.306a13.615,13.615,0,0,0-4.172,6.273h-.028a56.882,56.882,0,0,0-2.874,11.717,3.758,3.758,0,0,0-.028.8,16.332,16.332,0,0,0,.525,3.344,55.9,55.9,0,0,0,6.687,15.42v3.883a60.546,60.546,0,0,1-8.954-18.888q-.275-1.189-.5-2.321a11.148,11.148,0,0,1-.359-2.294q-.138-1.354-.193-2.681a21.852,21.852,0,0,0-.47-3.178v-.055a108.192,108.192,0,0,1-2.653-11.275q-1.3-7.434-2.045-11.192l.028-.028a.137.137,0,0,1,0-.166.263.263,0,0,1,.138-.111l1.354-.415A.237.237,0,0,1-992.722,381.949Zm6,12.131a7.9,7.9,0,0,1-3.316-.635,18.6,18.6,0,0,0,.967,5.5q.829,2.652,1.244,4.283a60.667,60.667,0,0,1,3.537-9.479Q-986.118,394.053-986.726,394.08Z" transform="translate(994.464 -381.921)" fill="#00c7b4" fill-rule="evenodd"/>
          </g>
          <g id="Grupo_10352" data-name="Grupo 10352" transform="translate(18.847)">
            <path id="Trazado_10123" data-name="Trazado 10123" d="M-957.618,372.776l-1.271-1.907a.556.556,0,0,1-.111-.359.969.969,0,0,1,.138-.47,62.186,62.186,0,0,0,7.24-16.028q-1.381-1.741-2.072-2.625a.473.473,0,0,1-.111-.3.8.8,0,0,1,.083-.36,2.394,2.394,0,0,1,1.547-1.575h.028a2.461,2.461,0,0,1,1.879.332q2.1,1.1,1.741,3.9a.416.416,0,0,1-.028.111l-.027.055a57.38,57.38,0,0,1-3.371,10.086q-1.3,2.929-4.395,8.788a1.472,1.472,0,0,1-.414.415.6.6,0,0,1-.469.166h-.056a.506.506,0,0,1-.359-.221Z" transform="translate(959 -349.074)" fill="#65675b" fill-rule="evenodd"/>
          </g>
        </g>
      </g>
      <g id="Grupo_10441" data-name="Grupo 10441" transform="translate(-1412.603 139.612)">
        <g id="Grupo_10379" data-name="Grupo 10379" transform="translate(0 0)">
          <g id="Grupo_10358" data-name="Grupo 10358" transform="translate(58.453 50.778)">
            <path id="Trazado_10127" data-name="Trazado 10127" d="M-1283.332,243.121a17.113,17.113,0,0,1,.992,3.612,68.827,68.827,0,0,1,1.752,6.991q.485,2.365,1.456,7.075a62.277,62.277,0,0,0,3.04,8.849q3.1,7.54,3.5,8.659.3.7.929,2.049t.908,2.049a57.983,57.983,0,0,0,2.723,6.082q2.765,5.512,2.977,5.956.823,1.816,2.512,5.385a58.58,58.58,0,0,1,2.259,5.491q.338,1.013,1.245,3.358.845,2.133,1.225,3.358.971,2.957,2.111,7.751,1.521,6.4,1.9,7.793.148.549.781,2.788a25.859,25.859,0,0,1,.7,2.809l-1.1-.76q-2.533.845-5.805,1.69-.19,1.055-.317,2.006-.147-.338-1.246-3.3a31.124,31.124,0,0,0-1.372-3.252,89.565,89.565,0,0,0-4.792-8.174q-2.069-3.147-5.426-7.772a65.66,65.66,0,0,1-5.277-9.757q-.887-1.985-4.265-10.264-.4-.971-.992-3-.613-2.027-1.014-3.02a39.969,39.969,0,0,0-2.343-4.773q-2.027-3.612-2.533-4.667-1.309-2.64-3.779-6.991-2.892-5.09-3.863-6.927-.317-.57-.486-.845a1.442,1.442,0,0,0-.359-.391.216.216,0,0,1,.042.011l-.929-27.139q.161-.387.3-.7a19.214,19.214,0,0,1,6.692,1.288,18.465,18.465,0,0,1,5.806,3.569A8.849,8.849,0,0,1-1283.332,243.121Z" transform="translate(1298.173 -235.159)" fill="#e29783" fill-rule="evenodd"/>
          </g>
          <g id="Grupo_10361" data-name="Grupo 10361" transform="translate(97.084 148.025)">
            <g id="Grupo_10359" data-name="Grupo 10359">
              <path id="Trazado_10128" data-name="Trazado 10128" d="M-1206.165,429.7a3.889,3.889,0,0,1,.531,2.737q-.106.93-.345,2.817-.106,1.01-.133,3.242a4.367,4.367,0,0,1-.77,2.1q-.054-2.312-8.477-4.6a9.944,9.944,0,0,0-1.727-2.152,7.047,7.047,0,0,1-.93-1.408,5.7,5.7,0,0,0-.9-1.408l-2.71-2.365a11.587,11.587,0,0,1-2.365-2.71,8.378,8.378,0,0,1-1.488-4.119q.106-.957.318-1.993,3.269-.85,5.82-1.7l1.089.744q2.073,2.126,5.979,5.5Q-1207.813,428.161-1206.165,429.7Z" transform="translate(1225.483 -418.143)" fill="#e29783" fill-rule="evenodd"/>
            </g>
            <g id="Grupo_10360" data-name="Grupo 10360" transform="translate(6.91 17.603)">
              <path id="Trazado_10129" data-name="Trazado 10129" d="M-1208,456.516a4.885,4.885,0,0,1-2.981-1.764l-1.416-1.118a2.917,2.917,0,0,1-.075-1.044q.075-.969.075-1.043l.248.149a1.671,1.671,0,0,1,1.391-.422q.472.049,1.49.249,8.433,2.291,8.47,4.583a3.14,3.14,0,0,1-.621.633,1.864,1.864,0,0,1-1.416.7,5.467,5.467,0,0,1-1.64-.248Q-1206.828,456.764-1208,456.516Z" transform="translate(1212.481 -451.265)" fill="#e29783" fill-rule="evenodd"/>
            </g>
          </g>
          <g id="Grupo_10362" data-name="Grupo 10362" transform="translate(13.525 127.925)">
            <path id="Trazado_10130" data-name="Trazado 10130" d="M-1319.967,391.794a68.543,68.543,0,0,1,2.364,19.472,53.032,53.032,0,0,1-2.238,13.327q-1.329,4.561-4.539,12.778-1.858,4.752-4.518,10.306-1.92,3.992-5.045,10.053-.93,1.794-2.28,4.9-1.647,3.7-2.238,4.942a14.844,14.844,0,0,0-.95,3.253,13.1,13.1,0,0,1-1.013,3.231q-.7,1.267-1.837,3l-1.963,2.914a66.069,66.069,0,0,0-3.188,8.131q-2.258,6.821-2.808,8.258-1.076,2.831-2.237,6.738-.654,2.26-1.921,6.822-.485,1.794-1.562,5.343a51.965,51.965,0,0,0-1.267,5.428q-.78,4.963-.844,5.406a21.382,21.382,0,0,0,.022,5.47q.274,1.9.823,5.7.465,3.275.676,5.724a16.522,16.522,0,0,0,.55,2.809q.253.929.759,2.766.676.233,2.006.7a10.82,10.82,0,0,1,1.921.887,7.947,7.947,0,0,1,.993,1.141q.76,1.035.908,1.225a18.964,18.964,0,0,0,2.153,2.3,23.926,23.926,0,0,1,2.2,2.281,7.671,7.671,0,0,0,.507,2.555q.3.824.971,2.429a2.053,2.053,0,0,1-.443,1.985,2.735,2.735,0,0,1-1.815,1.035,7.687,7.687,0,0,1-3.779-.38,11.059,11.059,0,0,1-3.335-1.9,3.128,3.128,0,0,0-1.646-.57,10.689,10.689,0,0,1-1.773-.169,6.927,6.927,0,0,1-3.293-1.393,9.03,9.03,0,0,1-2.386-2.7,39.564,39.564,0,0,1-2.322-4.815,25.949,25.949,0,0,0-2.512-4.71,38.254,38.254,0,0,0-3.061-2.936,14.412,14.412,0,0,0-3.588-2.239,32.347,32.347,0,0,1-4.94-2.767,11.053,11.053,0,0,1-3.694-4.182,5,5,0,0,1-.465-3.274,5.892,5.892,0,0,1,1.456-3,9.08,9.08,0,0,1,3.293-2.218,9.194,9.194,0,0,0,3.272-2.218,8.311,8.311,0,0,0,1.224-2.7q.443-1.943.676-2.893a38.066,38.066,0,0,0,.844-7.476q.021-1.6-.127-7.54-.021-1.183.232-5.724a29.16,29.16,0,0,0-.105-5.7,23.606,23.606,0,0,1,.57-9.187,32.923,32.923,0,0,1,3.526-8.533,43.866,43.866,0,0,1,2.808-4.012,20.777,20.777,0,0,0,2.6-4.161,50.025,50.025,0,0,0,.507-6.5q.148-5.026.274-6.526.844-8.744,2.681-19.79.528-2.745,1.182-8.786.612-5.744,1.245-8.785a34.163,34.163,0,0,1-2.343-2.894q-7.347-9.567-2.512-20.634,5.34-12.249,18.619-13.327a24.276,24.276,0,0,1,22.018,9.081A9.863,9.863,0,0,1-1319.967,391.794Z" transform="translate(1382.713 -380.322)" fill="#e29783" fill-rule="evenodd"/>
          </g>
          <g id="Grupo_10363" data-name="Grupo 10363" transform="translate(13.679 45.139)">
            <path id="Trazado_10131" data-name="Trazado 10131" d="M-1378.179,243.619a47.678,47.678,0,0,1,4.475-3.1q3.926-2.513,4.581-2.978a15.567,15.567,0,0,0,3.8-3.865,5.79,5.79,0,0,0,1.119-2.365q.084-.338.485-2.619l14.228-4.139a10.4,10.4,0,0,1,3.927,1.88,5.833,5.833,0,0,1,2.259,3.612q.423.041,3.673.105a13.731,13.731,0,0,1,3.631.465,17.04,17.04,0,0,1,4.665,3.738,19.6,19.6,0,0,1,1.668,2.957q.718,2.492,1.267,5.048a164.434,164.434,0,0,0,5.974,20.929q.909,1.708,2.681,4.668a13.611,13.611,0,0,1,2.935,7.793,10.877,10.877,0,0,1-.95,4.182,12.8,12.8,0,0,1-2.385,3.59,1.859,1.859,0,0,0-.549,1.1q-.063.423-.127,1.267a32.808,32.808,0,0,1-.929,5.555q-.359,1.414-1.562,5.406a52.321,52.321,0,0,0-1.14,8.469,3.912,3.912,0,0,0,.338,1.858q.232.591.76,1.753a26.541,26.541,0,0,1-1.034,5.47,46.989,46.989,0,0,1-1.879,5.259,11.2,11.2,0,0,1-3.019,3.95,25.485,25.485,0,0,1-4.159,2.809,12.794,12.794,0,0,1-4.707,1.394q-.548.063-4.982.253a34.482,34.482,0,0,1-12.307-1.584q-4.5-1.267-6.713-2.006a16.323,16.323,0,0,1-6.08-3.358q-1.583-1.331-1.71-4.456a13.72,13.72,0,0,0,1.921-5.871,15.227,15.227,0,0,0-.633-6.146q-.591-1.985-2.132-8.342a82.506,82.506,0,0,0-2.343-8.258q-.738-1.922-2.681-6.209-1.794-3.971-2.618-6.209a4.616,4.616,0,0,1,.18-2.312,47.909,47.909,0,0,0,.75-7.667q.374-6.6-3.917-17.35-.627-.724-1-1.225Q-1379.445,244.59-1378.179,243.619Z" transform="translate(1382.422 -224.548)" fill="#e49781" fill-rule="evenodd"/>
          </g>
          <g id="Grupo_10364" data-name="Grupo 10364" transform="translate(16.132 129.512)">
            <path id="Trazado_10132" data-name="Trazado 10132" d="M-1320.371,385.569a19.507,19.507,0,0,0,.8,2.281q.972,2.281,1.224,3.02a11.273,11.273,0,0,1,.676,3.168v.021a101.122,101.122,0,0,1-3.737,9.63q-2.153,4.774-3.969,9.61-4.454,11.785-15.6,15.766-.214.022-.422.032-.105.021-.992.042a2.048,2.048,0,0,0-.929.211,7.154,7.154,0,0,0-.549,1.584,68.216,68.216,0,0,0-1.119,10.666q-.127,3.569-.211,10.728.043,2.957-.063,8.871t-.085,8.87q.084,8,0,9.906a42.472,42.472,0,0,1-1.372,9.757q-.506,1.288-1.182,3.485-.8,2.662-1.1,3.485a15.15,15.15,0,0,1-1.583,3.041,15.235,15.235,0,0,0-1.583,3.041,46.862,46.862,0,0,0-2.111,11.658,83.756,83.756,0,0,0-.338,13.073q.148,2.725.359,9.25.19,5.913.4,9.229a92.646,92.646,0,0,0,3.947,21.268q.528,1.711,1.33,5.237a18.664,18.664,0,0,0,1.984,5.005,50.7,50.7,0,0,1,3.251,6.041,55.657,55.657,0,0,0,3.145,4.984,13.654,13.654,0,0,1,2.385,5.3,1.6,1.6,0,0,1-1.457,1.8,3.813,3.813,0,0,1-2.617-.3,2.535,2.535,0,0,1-1.752,1.4,2.042,2.042,0,0,1-2.069-.655,8.775,8.775,0,0,1-1.309.275,1.746,1.746,0,0,1-1.266-.275,4.415,4.415,0,0,1-.654-.74q-.338-.569-.528-.844a1.879,1.879,0,0,1-1.816.57,2.689,2.689,0,0,1-1.646-1.077,8.887,8.887,0,0,1-1.119.232,1.486,1.486,0,0,1-1.077-.169,5.17,5.17,0,0,1-1.393-1.753,7.543,7.543,0,0,0-1.309-1.88,11.892,11.892,0,0,1-2.85-4.1q-1.225-3.148-1.9-4.668-.7-1.627-2.638-7.2a55.463,55.463,0,0,0-2.934-7.076,23.2,23.2,0,0,1-1.541-3.548,10.144,10.144,0,0,1-.464-3.8q.4-4.541,2.934-6.357.422-.338.634-.528a.936.936,0,0,0,.38-.675,24.816,24.816,0,0,0-.8-6.1q-1.076-3.992-1.541-6-1.393-5.766-2.153-8.638a59.12,59.12,0,0,0-2.828-8.427,32.708,32.708,0,0,1-1.541-10.539,40.364,40.364,0,0,1,1.583-10.581,26.133,26.133,0,0,1,2.766-5.977,47.39,47.39,0,0,0,3.061-5.87,5.321,5.321,0,0,0,.337-1.648q.063-1.119.085-1.689a40.614,40.614,0,0,0-.8-7.772q-1.077-5.111-1.52-7.687-.423-2.45-1.372-7.392-.95-4.9-1.393-7.413-.232-1.31-.718-5.2-.4-3.274-.844-5.2-.19-.992-1.52-6.779a50.7,50.7,0,0,1-1.182-6.843q-1.055-8.933-1.182-12.714a44.58,44.58,0,0,1,1.161-12.651,26.28,26.28,0,0,1,2.85-6.61q2.533-4.1,3.715-6.188,1.267-2.112,2.259-3.506.127,3.126,1.71,4.456a16.323,16.323,0,0,0,6.08,3.358q2.216.74,6.713,2.006a29.545,29.545,0,0,0,7.24,1.457,43.972,43.972,0,0,0,5.067.127,12.371,12.371,0,0,1,3.325-.539,22.615,22.615,0,0,0,6.977-2.1,14.811,14.811,0,0,0,6.555-5.744.171.171,0,0,0,.01-.021,46.983,46.983,0,0,0,1.879-5.259,26.542,26.542,0,0,0,1.034-5.47A21.9,21.9,0,0,1-1320.371,385.569Z" transform="translate(1377.808 -383.309)" fill="#e09785" fill-rule="evenodd"/>
          </g>
          <g id="Grupo_10365" data-name="Grupo 10365" transform="translate(5.993 278.692)">
            <path id="Trazado_10133" data-name="Trazado 10133" d="M-1394.16,666.325a25.707,25.707,0,0,1,2.554-1.711,3.829,3.829,0,0,1,2.935-.486,7.128,7.128,0,0,0-.612,2.851,5.434,5.434,0,0,0,.76,2.787,12.445,12.445,0,0,0,3.821,3.929,41.954,41.954,0,0,0,4.813,2.661,15.179,15.179,0,0,1,2.829,1.8q.887.7,2.617,2.175,1.161-1.373,1.2-1.437a8.933,8.933,0,0,1,1.372-1.246,41.011,41.011,0,0,1,3.779-2.091,16.164,16.164,0,0,0,3.61-2.345,2.432,2.432,0,0,0,.739-1.879q-.127-1.457-.169-2.133a4.186,4.186,0,0,1,1.668,3.506q.084,1.373.148,4.118a13.468,13.468,0,0,0,.823,2.6,3.07,3.07,0,0,0,1.921,1.732q4.961,2.09,6.143,2.64a64.688,64.688,0,0,1,5.953,3,12.248,12.248,0,0,1,2.216,1.879,5.431,5.431,0,0,1,1.394,2.492,23.74,23.74,0,0,1-.19,3.57,5.849,5.849,0,0,1-1.478,3.168,9.04,9.04,0,0,1-3.547,2.049,33.754,33.754,0,0,1-4.032.971q-5.172.78-5.7.844a19.371,19.371,0,0,1-4.37-.053q-.76-.222-1.5-.5a31.033,31.033,0,0,1-18.45-16.411,4.48,4.48,0,0,0-.8-.823,10.682,10.682,0,0,0-3.145-1.52,14.53,14.53,0,0,1-3.209-1.415,18.54,18.54,0,0,1-5.679-5.3,7.114,7.114,0,0,1-1.055-5.048A5.924,5.924,0,0,1-1394.16,666.325Z" transform="translate(1396.885 -664.013)" fill="#e7e2e6" fill-rule="evenodd"/>
          </g>
          <g id="Grupo_10366" data-name="Grupo 10366" transform="translate(10.934 124.866)">
            <path id="Trazado_10134" data-name="Trazado 10134" d="M-1325.608,378.03a73.309,73.309,0,0,1,4.222,9.863q1.456,4.1,3.146,10.243a22.672,22.672,0,0,1,.781,7.033,47.956,47.956,0,0,1-.887,7.054,114.241,114.241,0,0,1-6.692,22.746q-1.393,3.548-3.905,9.377-3.019,6.99-3.99,9.334a48.29,48.29,0,0,0-2.217,7.076q-.571,2.429-1.583,7.265-.95,3.717-2.112,9.145-.654,3.063-1.942,9.187a100.517,100.517,0,0,0-2.28,25.66q.022.909.95,12.4a49.124,49.124,0,0,1-.275,12.4,2.53,2.53,0,0,1-1.056,1.479,8.61,8.61,0,0,1-1.689.823,58.222,58.222,0,0,1-17.774,3.38q-5.256-.085-8.127-2.873-.423-.4-2.365-2.7a13.469,13.469,0,0,0-2.618-2.45q-3.757-2.514-5.552-3.886a23.925,23.925,0,0,1-4.855-4.71,6.377,6.377,0,0,1-1.035-2.111,3.568,3.568,0,0,1,.064-2.112q1.773-4.288,3.419-8.638,6.164-16.368,12.307-32.651a147.292,147.292,0,0,0,8.423-34.277,88.383,88.383,0,0,0,.507-15.333,83.727,83.727,0,0,0-3.716-20.7,38.691,38.691,0,0,1-3.779-2.365,31.285,31.285,0,0,1-4.877-4.266q-1.139-1.225-2.227-2.471a12.793,12.793,0,0,1-1.235-2.007q-1.14-2.323.676-5.871,1.879-3.527,5.447-8.934a10,10,0,0,0,.97-1.985,19.6,19.6,0,0,1,.887-2.027,6.711,6.711,0,0,0,2,4.731,26.061,26.061,0,0,0,4.159,3.294,27.568,27.568,0,0,0,10.787,4.414,43.06,43.06,0,0,0,11.716.507,13.8,13.8,0,0,0,5.383-1.774q.634-.359,4.834-3.1a10.415,10.415,0,0,0,2.829-2.83,12.975,12.975,0,0,0,1.689-3.654,12.622,12.622,0,0,0,.422-3.549q-.063-2.386-.021-3.59.063.19.548,1.753A11.782,11.782,0,0,0-1325.608,378.03Z" transform="translate(1387.589 -374.567)" fill="#00b09f" fill-rule="evenodd"/>
          </g>
          <g id="Grupo_10367" data-name="Grupo 10367" transform="translate(19.506 303.032)">
            <path id="Trazado_10135" data-name="Trazado 10135" d="M-1345.6,720.785a3.488,3.488,0,0,1,.127.56,36.235,36.235,0,0,0,1.287,4.963,77.468,77.468,0,0,0,2.913,7.456,9.7,9.7,0,0,0,1.182,1.943q1.688,2.2,3.166,4.561a28.772,28.772,0,0,1,3.261,7.371q.081.261.158.528,0,.739.147,2.407a2.113,2.113,0,0,1-1.055,1.964,15.692,15.692,0,0,1-6.186,1.9,22.1,22.1,0,0,1-5.214-.074q-11.463-.517-15.537-11.521-1.055-2.871-2.111-5.829-1.372-3.844-2.628-7.729a9.329,9.329,0,0,0-.707-1.394,22.482,22.482,0,0,0-1.688-2.154,7.849,7.849,0,0,1-1.457-2.281,21.184,21.184,0,0,1-1.393-4.667,8.851,8.851,0,0,1,.464-4.773,14.513,14.513,0,0,1,1.689-2.492,5.581,5.581,0,0,1,2.406-1.711,20.843,20.843,0,0,0-.3,5.3,11.336,11.336,0,0,0,.675,2.555q.253.655,1.077,2.408.486.992,1.372,2.978t1.351,2.957q1.14-.507,3.335-1.31,2.28-.845,3.335-1.309,1.5-.634,4.539-1.8a24.07,24.07,0,0,0,4.327-2.2l.4-.253A3.4,3.4,0,0,1-1345.6,720.785Z" transform="translate(1371.459 -709.813)" fill="#fff" fill-rule="evenodd"/>
          </g>
          <g id="Grupo_10368" data-name="Grupo 10368" transform="translate(14.941 124.908)">
            <path id="Trazado_10136" data-name="Trazado 10136" d="M-1321.928,378.342a61.435,61.435,0,0,1,4.011,9.525,10.364,10.364,0,0,1-.148,4.837q-.38,1.6-1.351,4.731-.127.105-1.943,1.52a11.832,11.832,0,0,0-1.794,1.669q-.907.823-2.723,2.238-1.9,1.5-2.745,2.238a2.211,2.211,0,0,0-.717,1.1,10.831,10.831,0,0,0-.275,1.33q-.3,2.112-.676,6.23a25.349,25.349,0,0,1-1.815,5.344,12.216,12.216,0,0,1-3.462,4.393q-.211.19-1.689,1.1a3.158,3.158,0,0,0-1.351,1.393,47.239,47.239,0,0,0-4.5,15.9q-.7,6.145-.781,17.34-.084,12.08-.528,17.339-.317,4.246-1.942,13.348a119.206,119.206,0,0,0-1.794,13.368q-.465,7.941-.127,20.444.465,16.98.465,20.422,0,1.31-.169,3.8-.147,2.576-.169,3.8.126,1.8.633,5.723.465,3.7.57,5.7a24.246,24.246,0,0,1-1.584,9.525q-1.351,3.442-3.631,4.055a9.235,9.235,0,0,1-3.82.253,7.493,7.493,0,0,1-3.526-1.436,66.276,66.276,0,0,1-11.167-9.947q-.866-.971-2.407-3.083t-2.406-3.083a30.543,30.543,0,0,1-2.449-3.02,10.125,10.125,0,0,1-1.541-3.316,492.738,492.738,0,0,1,3.968-76.538,120.466,120.466,0,0,0-3.3-47.71q-.507-3.516-.876-6.8a54.556,54.556,0,0,1-.021-12.4,42.5,42.5,0,0,1,3.146-11.975,60.676,60.676,0,0,1,3.5-6.948q1.583-2.745,4.138-6.568a8.585,8.585,0,0,0,.97-2.007,12.169,12.169,0,0,1,.929-2.027q.148,1.33.253,1.816a4.619,4.619,0,0,0,.676,1.668,13.53,13.53,0,0,0,2.638,2.7q.929.74,3.083,2.175,8.359,5.661,21.954,4.583a13.815,13.815,0,0,0,5.531-1.859q3.335-2.133,4.961-3.189a11.409,11.409,0,0,0,4.158-5.977,11.329,11.329,0,0,0,.507-3.674q-.064-2.513,0-3.759.021.042.612,1.859A11.944,11.944,0,0,0-1321.928,378.342Z" transform="translate(1380.049 -374.646)" fill="#00c7b4" fill-rule="evenodd"/>
          </g>
          <g id="Grupo_10369" data-name="Grupo 10369" transform="translate(0 48.793)">
            <path id="Trazado_10137" data-name="Trazado 10137" d="M-1396.056,249.016q2.211-1.307,4.866-2.661,5.172-4.245,6.27-5.048a27.838,27.838,0,0,1,7.03-3.865,20.175,20.175,0,0,1-2.977,3.02,5.639,5.639,0,0,0-2.111,3.506,12.609,12.609,0,0,0,.317,4.794c.02.083.041.167.063.254l.011.063c.022.066.043.133.063.2a37.945,37.945,0,0,0,7.146,9.493q2.538,2.47,5.182,4.626,1.911,1.548,3.874,2.935l7.4,5.227q2.654,1.872,3.842,2.65l.053.032c.087.065.175.132.264.2l3.431,2.618q.372.294.717.57.154-.317.306-.676l.085-.169q.227-.529,1.6-3.168a43.392,43.392,0,0,0,2.765-7.286,40,40,0,0,0,1.436-11.151,48.438,48.438,0,0,0-.264-5.365,54.428,54.428,0,0,0-1.446-7.962,15.637,15.637,0,0,0-6.639-5.871q-.886-.486-1.309-.76a2.259,2.259,0,0,1-.971-1.077q.274-.95.739-2.176a23.434,23.434,0,0,1,2.85.043,18.1,18.1,0,0,1,6.84-.444,11.8,11.8,0,0,1,6.206,2.7,32.45,32.45,0,0,1,4.349,4.118,12.929,12.929,0,0,1,2.808,5.238,32.246,32.246,0,0,0,1.266,4.1q.507,1.351,1.521,4.034a25.455,25.455,0,0,0,1.878,4.012q1.922,3.485,2.133,3.886a2.631,2.631,0,0,1,.253,1.606q-.061.538-.242,1.584-.222.549-.475,1.1a17.822,17.822,0,0,1-6.038,7.16q.3.784,1.668,4.139c.07.172.136.341.2.508a18.135,18.135,0,0,1,.623,5.892,20.587,20.587,0,0,1-1.6,7.075q-.507.93-1.056,1.859a30.576,30.576,0,0,1-2.005,2.914,68.337,68.337,0,0,0,1.045,10.285q1.257,6.082,2.354,12.249,1.035,5.914,1.858,11.869.612,4.309,1.477,8.532a7.69,7.69,0,0,1-.148,2.492,25.557,25.557,0,0,1-3.5,7.518,14.4,14.4,0,0,1-5.172,4.879q-6.671,3.633-11,6.315a42.387,42.387,0,0,1-4.1,1.838,15.308,15.308,0,0,1-4.37.95q-7.241,1.246-10.893,1.648a36.186,36.186,0,0,1-10.956-.232,46.717,46.717,0,0,1-6.1-1.816,23.729,23.729,0,0,1-5.573-3l.063-.359a54.537,54.537,0,0,1-4.686-3.527,16.849,16.849,0,0,1-3.737-4.5,9.411,9.411,0,0,1-1.1-3.02,7.925,7.925,0,0,1,.063-3.21q1.857-6.907,5.32-16.537a45.863,45.863,0,0,1,2.048-4.329,30.768,30.768,0,0,0,1.942-4.351,8.023,8.023,0,0,0-.021-3.8q-.717-3.548-.739-3.8-.359-3.19-.528-8.068-.136-3.724-.211-5.744-.084-2.046-.106-2.344-.844-.022-5.045.021a34.375,34.375,0,0,1-5.066-.232q-2.977-.422-4.1-.591-2.28-.381-4.053-.845.717-4.5,1.457-13.665.739-9.081,1.478-13.643a32.329,32.329,0,0,1,1.541-6.547q.908-2.345,1.435-3.485a7.389,7.389,0,0,1,2.3-2.914Q-1398.216,250.3-1396.056,249.016Z" transform="translate(1408.162 -231.423)" fill="#66ded8" fill-rule="evenodd"/>
          </g>
          <g id="Grupo_10370" data-name="Grupo 10370" transform="translate(25.664 11.727)">
            <path id="Trazado_10138" data-name="Trazado 10138" d="M-1352.076,161.679q-1.5,1.669-2.069,2.45a10.956,10.956,0,0,0-1.583,2.788,22.381,22.381,0,0,0-1.077,4.013q-.274,1.6-.507,4.139a21.017,21.017,0,0,0,.486,7.18,11.3,11.3,0,0,0,1.372,2.661,7.917,7.917,0,0,1,1.182,2.746q.211,1.351.823,3.717.654,2.576.865,3.7a11.526,11.526,0,0,0,.95,2.661q.317.612,1.372,2.471.106.085,2.385,2.26a28.707,28.707,0,0,0,2.491,2.133,37.338,37.338,0,0,0,3.188,2.07q.865.506,3.314,1.858a14.43,14.43,0,0,1-2.924-.412l-.222-.074a3.717,3.717,0,0,0-.38-.106l-1.668-.507q-5.256-1.71-6.628-2.851a9.974,9.974,0,0,1-1.773-1.8,4.848,4.848,0,0,1-.781-2.471q-.021-.254.042-2.64a13.961,13.961,0,0,0-.528-2.831,21.756,21.756,0,0,1-4.286-4.393,9.4,9.4,0,0,1-1.836-5.723,1.276,1.276,0,0,1,.612-1.162,5.242,5.242,0,0,1,1.309-.507,29.53,29.53,0,0,1-.232-13.136,13.215,13.215,0,0,1,2.195-4.752A11.793,11.793,0,0,1-1352.076,161.679Z" transform="translate(1359.87 -161.679)" fill="#e49781" fill-rule="evenodd"/>
          </g>
          <g id="Grupo_10371" data-name="Grupo 10371" transform="translate(19.949 129.323)">
            <path id="Trazado_10139" data-name="Trazado 10139" d="M-1312.889,382.952a6.34,6.34,0,0,1,1.077,2.492q.127.571.4,2.724.295,4.351.612,6.927a51.384,51.384,0,0,0,1.267,6.843q.253,1.288.928,3.865a8.976,8.976,0,0,1,.063,3.907,25.559,25.559,0,0,1-3.5,7.518,21.412,21.412,0,0,1-.675-3.7q-.866-12.44-2.154-21.985a2.941,2.941,0,0,1,.634-2.45,10.021,10.021,0,0,0,1.351-2.281A17.357,17.357,0,0,0-1312.889,382.952Zm-31.876,20.233q2.343-.549,7.051-1.711.338,5.259.655,13.538.253,5.09.274,8.216a77.423,77.423,0,0,1-.317,8.194q-7.241,1.246-10.892,1.647a36.189,36.189,0,0,1-10.956-.232,46.744,46.744,0,0,1-6.1-1.817,23.738,23.738,0,0,1-5.573-3l.063-.359q.338-2.3.971-5.744,1.035-5.639,1.055-5.766.4-2.281.676-5.386.274-3.59.4-5.386a101.572,101.572,0,0,0,15.558-.865Q-1348.86,404.114-1344.765,403.185Z" transform="translate(1370.625 -382.952)" fill="#66ded8" fill-rule="evenodd"/>
          </g>
          <g id="Grupo_10372" data-name="Grupo 10372" transform="translate(2.449 68.106)">
            <path id="Trazado_10140" data-name="Trazado 10140" d="M-1395.469,269.866a31.724,31.724,0,0,1,2.639-1.985q1.07-.7,3.441,2.819t3.948,28.607q-.465,3.506-1.266,14.108a138.9,138.9,0,0,1-1.646,14.087,23.477,23.477,0,0,0-.591,3.823,8.341,8.341,0,0,0,.591,3.759,15.946,15.946,0,0,0,1.393,2.175q.507.7,1.563,2.07,2.808,3.97,8.169,12.925,5.13,8.6,8.254,12.883a15.578,15.578,0,0,0,2.871,2.978,29.583,29.583,0,0,1,3.061,2.809q-1.9.8-2.85,1.246a7.881,7.881,0,0,0-2.533,1.774,15.922,15.922,0,0,0-2.407,3.633,8.176,8.176,0,0,1-1.942-1.9,28.4,28.4,0,0,0-2.576-2.893q-1.857-1.8-2.766-2.725-5.615-5.638-13.447-14.425-1.857-2.239-4.137-5.407-2.575-3.717-3.885-5.575-1.477-2.049-2.153-3.126a9.731,9.731,0,0,1-1.477-3.442,22.318,22.318,0,0,1-.148-6.906q.718-6.674.718-6.906.063-2.006.528-6.125.465-4.034.528-6.124.317-6.04.465-9.061.274-5.386.211-9.081.169-5.7.253-7.392.169-4.16.506-7.371a14.881,14.881,0,0,1,2.323-6.8A12.512,12.512,0,0,1-1395.469,269.866Z" transform="translate(1403.554 -267.763)" fill="#fed8c7" fill-rule="evenodd"/>
          </g>
          <g id="Grupo_10373" data-name="Grupo 10373" transform="translate(34.425 171.251)">
            <path id="Trazado_10141" data-name="Trazado 10141" d="M-1331.656,466.368a14.905,14.905,0,0,0,1.963,2.509,11.561,11.561,0,0,1,1.838,2.559,15.505,15.505,0,0,1,.969,2.385,9.784,9.784,0,0,0,1.068,2.335,19.423,19.423,0,0,1,1.838,3.1,8.093,8.093,0,0,1,.8,3.453q0,1.068-1.665,1.391a3.219,3.219,0,0,1-1.565-.993q-.1-.1-1.192-1.466a4.581,4.581,0,0,1-.546,3.229,21.269,21.269,0,0,1-2.037,2.708q-.348.174-1.615.894-.993.571-1.615.944-1.441-.1-2.161-.174a9.74,9.74,0,0,1-2.086-.4,24.589,24.589,0,0,1-1.987-2.683q-1.342-2.038-1.888-2.733a13.375,13.375,0,0,1-1.466-2.335,3.756,3.756,0,0,1-.224-2.683,27.65,27.65,0,0,0,.522-4.944q.049-3.329.074-4.969a15.835,15.835,0,0,1,2.41-3.627,7.77,7.77,0,0,1,2.533-1.789q.944-.447,2.832-1.242A23.539,23.539,0,0,1-1331.656,466.368Zm-1.863,12.744.2,1.143a12.871,12.871,0,0,1,2.285-1.317,2.365,2.365,0,0,1,2.459.323q-1.54-2.533-1.938-3.18-1.142.422-1.689.671a3.427,3.427,0,0,0-1.366,1.168A5.055,5.055,0,0,0-1333.519,479.112Z" transform="translate(1343.387 -461.847)" fill="#fed8c7" fill-rule="evenodd"/>
          </g>
          <g id="Grupo_10374" data-name="Grupo 10374" transform="translate(0 66.386)">
            <path id="Trazado_10142" data-name="Trazado 10142" d="M-1396.056,264.527h13.458a32.822,32.822,0,0,0,1.5,4.308,12.557,12.557,0,0,0,1.964,3.115L-1386,308.73q-4.75.191-8.951.232a34.375,34.375,0,0,1-5.066-.232q-2.977-.422-4.1-.591-2.28-.381-4.053-.845.717-4.5,1.457-13.665.739-9.081,1.478-13.643a32.33,32.33,0,0,1,1.541-6.547q.908-2.345,1.435-3.485a7.389,7.389,0,0,1,2.3-2.914Q-1398.216,265.806-1396.056,264.527Z" transform="translate(1408.162 -264.527)" fill="#66ded8" fill-rule="evenodd"/>
          </g>
          <g id="Grupo_10375" data-name="Grupo 10375" transform="translate(16.972 49.318)">
            <path id="Trazado_10143" data-name="Trazado 10143" d="M-1367.7,249.226c.039.164.081.333.127.507a38.06,38.06,0,0,0,7.156,9.5,75.251,75.251,0,0,0,9.056,7.561l7.4,5.227q2.71,1.911,3.895,2.682,2.1,1.562,3.694,2.819l.718.57.391-.845q.227-.529,1.6-3.168a43.38,43.38,0,0,0,2.765-7.286,39.992,39.992,0,0,0,1.436-11.151,51.859,51.859,0,0,0-1.71-13.327,15.637,15.637,0,0,0-6.639-5.871q-.886-.486-1.309-.76a2.257,2.257,0,0,1-.971-1.077q.274-.95.739-2.176a23.434,23.434,0,0,1,2.85.043,11.388,11.388,0,0,1,6.692,3.231,16.361,16.361,0,0,1,4.1,6.315c.034.1.065.2.1.3a35.969,35.969,0,0,1,1.847,11.246,53.891,53.891,0,0,1-1.151,11.32,57.568,57.568,0,0,1-2.5,8.944q-.367.939-.7,1.774a22.887,22.887,0,0,1-5.742,9.842,34.88,34.88,0,0,1-9.6,6.927q-.676.338-1.351.645-.761.415-1.394.792-1.288-2.26-2.132-3.907,1.1-.929,4.222-3a25.5,25.5,0,0,0,4.1-3.168q-.939-.73-3.072-2.471-4.38-3.4-8.961-6.737-4.75-3.464-9.479-6.927a50.457,50.457,0,0,1-8.592-7.941,31.349,31.349,0,0,1-5.742-9.926,15.142,15.142,0,0,1-.359-2.915q5.172-4.245,6.27-5.048a27.842,27.842,0,0,1,7.03-3.865,20.191,20.191,0,0,1-2.976,3.02,5.64,5.64,0,0,0-2.111,3.506A12.611,12.611,0,0,0-1367.7,249.226Z" transform="translate(1376.226 -232.412)" fill="#00c7b4" fill-rule="evenodd"/>
          </g>
          <g id="Grupo_10376" data-name="Grupo 10376" transform="translate(28.077 9.153)">
            <path id="Trazado_10144" data-name="Trazado 10144" d="M-1323.767,172.111q.486,2.07,1.2,7.307.042,1.88.464,5.618a18.173,18.173,0,0,1-.253,5.575,49.164,49.164,0,0,1-2.364,7.836q-.571,1.31-1.6,4.055a10.1,10.1,0,0,1-2.427,3.569q-2.829,2.154-8.064.169-2.449-1.351-3.314-1.858a37.132,37.132,0,0,1-3.188-2.07,28.752,28.752,0,0,1-2.491-2.133q-2.279-2.175-2.385-2.26-1.055-1.859-1.372-2.471a11.5,11.5,0,0,1-.949-2.661q-.211-1.12-.866-3.7-.612-2.365-.823-3.717a7.909,7.909,0,0,0-1.183-2.745,11.341,11.341,0,0,1-1.372-2.661,21.011,21.011,0,0,1-.485-7.181q.232-2.534.506-4.139a22.433,22.433,0,0,1,1.077-4.013,10.96,10.96,0,0,1,1.583-2.788q.57-.781,2.069-2.449a15.487,15.487,0,0,1,6.84-2.45,16.552,16.552,0,0,1,7.24.76q5.151,1.8,9.267,7.645A20.1,20.1,0,0,1-1323.767,172.111Z" transform="translate(1355.332 -156.836)" fill="#fdd8c8" fill-rule="evenodd"/>
          </g>
          <g id="Grupo_10377" data-name="Grupo 10377" transform="translate(23.273 7.892)">
            <path id="Trazado_10145" data-name="Trazado 10145" d="M-1333.977,170.808a10.408,10.408,0,0,0-4.453.761,23.99,23.99,0,0,0-3.842,1.985,15.71,15.71,0,0,1-3.906,1.8,2.631,2.631,0,0,1-2.174-.549,16.863,16.863,0,0,0-1.857-1.479,1,1,0,0,0-1.1-.148,1.33,1.33,0,0,0-.8.8,8.092,8.092,0,0,0-.359,1.669q-.085.57-.232,1.711a10.164,10.164,0,0,1-.739,2.6q-.359.845-1.055,2.513a12.947,12.947,0,0,1-1.689,3.274q-.487-1.648-.8-2.45a7,7,0,0,0-1.245-2.239,2.842,2.842,0,0,0-1.562-.908,18.675,18.675,0,0,1-1.837-.381l-.4-.422a24.925,24.925,0,0,1-2.3-8.617,13.858,13.858,0,0,1,1.984-8.554q.633-.423,1.942-1.267a18.871,18.871,0,0,0,1.879-1.373q.612-.465,1.858-1.437a4.914,4.914,0,0,1,2.111-.929q1.182-.191,3.272-.359,2.343-.19,3.293-.317,2.217-.254,5.088-.866.529-.106,5.046-1.162a18.148,18.148,0,0,1,5.763,5.512,29,29,0,0,1,3.251,8q-.147,1.013-.528,3.041Q-1332.436,170.83-1333.977,170.808Z" transform="translate(1364.371 -154.462)" fill="#794d23" fill-rule="evenodd"/>
          </g>
          <g id="Grupo_10378" data-name="Grupo 10378" transform="translate(22.566)">
            <path id="Trazado_10146" data-name="Trazado 10146" d="M-1338.426,147.517q-4.518,1.055-5.045,1.162-2.871.612-5.088.865-.95.128-3.293.317-2.09.169-3.272.359a4.92,4.92,0,0,0-2.111.929q-1.245.973-1.858,1.437a18.873,18.873,0,0,1-1.879,1.373q-1.309.845-1.942,1.267a13.269,13.269,0,0,1-1.478-1.183,3.144,3.144,0,0,1-.971-1.584,9.247,9.247,0,0,1-.232-3.865,7.431,7.431,0,0,1,1.457-3.569,2.7,2.7,0,0,1,1.014-.866q.316-.148,1.245-.486a17.112,17.112,0,0,1,2.787.38,19.176,19.176,0,0,1,4.939-1.731,47.5,47.5,0,0,1,5.172-.782,26.787,26.787,0,0,1,3.019-1.542,4.856,4.856,0,0,1,3.314-.169,6.566,6.566,0,0,1,3.336,3.02,8.855,8.855,0,0,1,1.182,4.393Z" transform="translate(1365.7 -139.612)" fill="#9a5f30" fill-rule="evenodd"/>
          </g>
        </g>
        <g id="Grupo_10380" data-name="Grupo 10380" transform="translate(103.721 164.684)">
          <path id="Trazado_10147" data-name="Trazado 10147" d="M-1212.906,451.983a3.211,3.211,0,0,1-.075-1.093q.074-1.018.075-1.093l.273.149a1.771,1.771,0,0,1,1.466-.447q.5.049,1.565.248,7.2,1.962,8.57,3.938v1.242a4.107,4.107,0,0,1-.348.31,1.935,1.935,0,0,1-1.465.721,6.072,6.072,0,0,1-1.739-.248q-2.484-.447-3.7-.7a5.121,5.121,0,0,1-3.13-1.863Z" transform="translate(1212.995 -449.489)" fill="#e29783" fill-rule="evenodd"/>
        </g>
        <g id="Grupo_10439" data-name="Grupo 10439" transform="translate(22.868 129.77)">
          <g id="Grupo_10387" data-name="Grupo 10387" transform="translate(160.731 180.984)">
            <g id="Grupo_10386" data-name="Grupo 10386">
              <g id="Grupo_10381" data-name="Grupo 10381" transform="translate(3.859 1.754)">
                <path id="Trazado_10148" data-name="Trazado 10148" d="M-1044.087,746a17.912,17.912,0,0,0,2.392-3.932,8.243,8.243,0,0,0,.531-4.491l-1.169-6.669,2.5-3.269a38.247,38.247,0,0,1-.372,19.611l-2.95,1.434-4.145,1.568,1.621-2.179-.478-.478a9.179,9.179,0,0,0-6.218-2.524h-1.249l.026-.771.345-.425q2.551-1.409,6.909,1.488a15.1,15.1,0,0,1,1.727,1.3l-.239.345Zm-7.334,2.551q-.292-.053-.638-.106c-.124.07.106.124.691.159a3.719,3.719,0,0,0-1.249.24,3.843,3.843,0,0,0-1.275,3.135q-.081.532-.372,2.524-.239,1.967,1.3,5.979a9.8,9.8,0,0,0,6.271,5.66,10.4,10.4,0,0,0,.983.531q2.552,1.143,3.853-1.462l-.133.877a3.11,3.11,0,0,1-3.162,1.7q-4.491,0-7.467-4.358a16.761,16.761,0,0,1-2.816-9.7l.239-3.109a6.07,6.07,0,0,1,1.647-2.259A1.37,1.37,0,0,1-1051.421,748.555Zm12.7,7.015a8.3,8.3,0,0,1,.876,3.375,20.5,20.5,0,0,1-.4,3.321q-.478,2.762-1.142,3.427a.906.906,0,0,1-.452-.478,25.191,25.191,0,0,0-1.009-8.1,2.531,2.531,0,0,1-.08-.292l1.01-.585Z" transform="translate(1055.433 -727.643)" fill="#605c60" fill-rule="evenodd"/>
              </g>
              <g id="Grupo_10382" data-name="Grupo 10382" transform="translate(0 17.432)">
                <path id="Trazado_10149" data-name="Trazado 10149" d="M-1045.257,779.039a5.368,5.368,0,0,0,.346-.717q.823-2.763-.984-6.856l2.179-1.222.4-.187-1.01.585a2.524,2.524,0,0,0,.08.292,25.191,25.191,0,0,1,1.009,8.1.905.905,0,0,0,.452.478q.664-.664,1.142-3.427a20.5,20.5,0,0,0,.4-3.322,8.3,8.3,0,0,0-.876-3.375l.531-.292a3.423,3.423,0,0,0,.292,1.116,20.893,20.893,0,0,1,1.169,3.986,10.564,10.564,0,0,1-.585,5.66,9.368,9.368,0,0,1-1.833,3.242,5.435,5.435,0,0,1-2.657,1.594,10.122,10.122,0,0,1-5.368-.133,11.9,11.9,0,0,1-5.846-3.773,29.887,29.887,0,0,1-4.3-6.085,16.656,16.656,0,0,1-1.966-7.254,12.29,12.29,0,0,1,1.833-6.963,11.255,11.255,0,0,1,1.834-2.259,2.965,2.965,0,0,1,1.488-.744,8.864,8.864,0,0,1,3.4-.293,15.043,15.043,0,0,1,6.643,2.631l-.77,1.01.239-.345a15.057,15.057,0,0,0-1.727-1.3q-4.357-2.9-6.909-1.488l-.345.425-.026.771h1.249a9.179,9.179,0,0,1,6.218,2.524l.478.478-1.621,2.179q-1.754-.877-3.534-1.568c-.2-.053-.39-.1-.585-.133a1.37,1.37,0,0,0-2.126-.186,6.069,6.069,0,0,0-1.647,2.259l-.239,3.109a16.761,16.761,0,0,0,2.816,9.7q2.977,4.358,7.467,4.358a3.11,3.11,0,0,0,3.162-1.7Zm-8.1-6.431a1.459,1.459,0,0,1-1.3-1.01,3.144,3.144,0,0,1-.345-1.355,2.312,2.312,0,0,1,.292-.851,1.647,1.647,0,0,1,1.541-.824q1.435,0,1.434.957,0,.052-.027,1.594Q-1052.059,772.609-1053.362,772.609Z" transform="translate(1062.693 -757.145)" fill="#2d2d2d" fill-rule="evenodd"/>
              </g>
              <g id="Grupo_10383" data-name="Grupo 10383" transform="translate(4.996)">
                <path id="Trazado_10150" data-name="Trazado 10150" d="M-1035.644,743.528l-3.56,2.179a38.246,38.246,0,0,0,.372-19.611l3.188-1.754Zm-17.245,6.909a2.19,2.19,0,0,0,.053.478q.345,2.232.744,4.491a6.555,6.555,0,0,0,.718,3.162,2.072,2.072,0,0,0,1.78,1.249,10.969,10.969,0,0,0,3.907,4.783,9.8,9.8,0,0,1-6.271-5.66q-1.542-4.012-1.3-5.979Q-1052.97,750.969-1052.889,750.437Z" transform="translate(1053.293 -724.343)" fill="#969696" fill-rule="evenodd"/>
              </g>
              <g id="Grupo_10384" data-name="Grupo 10384" transform="translate(16.134 17.591)">
                <path id="Trazado_10151" data-name="Trazado 10151" d="M-1027.364,769.241l-.531.292-1.2.664-.4.187-2.844-7.733,2.95-1.434,3.56-2.179,3.295-1.594q.133,2.073.107,3.587,0,1.488.186,4.677-.292.293-2.71,1.993Q-1025.425,767.966-1027.364,769.241Z" transform="translate(1032.334 -757.443)" fill="#b8d9ec" fill-rule="evenodd"/>
              </g>
              <g id="Grupo_10385" data-name="Grupo 10385" transform="translate(6.197 22.799)">
                <path id="Trazado_10152" data-name="Trazado 10152" d="M-1051.033,775.508l.611-3.747q2.6-1.354,5.182-2.95l4.145-1.568,2.844,7.733-2.18,1.222q-1.328.664-3.959,2.073a27.033,27.033,0,0,1-4.146,1.647,2.072,2.072,0,0,1-1.78-1.249A6.557,6.557,0,0,1-1051.033,775.508Zm3.135,1.833q1.3,0,1.594-1.488.027-1.542.026-1.594,0-.957-1.434-.957a1.647,1.647,0,0,0-1.541.824,2.3,2.3,0,0,0-.292.851,3.14,3.14,0,0,0,.345,1.355A1.459,1.459,0,0,0-1047.9,777.341Z" transform="translate(1051.033 -767.243)" fill="#7aa6bc" fill-rule="evenodd"/>
              </g>
            </g>
          </g>
          <g id="Grupo_10400" data-name="Grupo 10400" transform="translate(45.997 27.98)">
            <g id="Grupo_10395" data-name="Grupo 10395">
              <g id="Grupo_10388" data-name="Grupo 10388" transform="translate(27.954)">
                <path id="Trazado_10153" data-name="Trazado 10153" d="M-1111.377,657.712v-4.571l24.1-13.339.292-7.148-14.722-8.131.877-1.143,16.236,7.786,1.94,9.566Zm-23.463-101.507-.612-.505-55.35-27.21-5.713-40.868-.186-5.314-3.667-25.563a23.4,23.4,0,0,0-.452-3.322,5.857,5.857,0,0,0-1.381-3,6.639,6.639,0,0,0-2.339-1.86,24.133,24.133,0,0,0-2.683-1.222v-3.375a28.919,28.919,0,0,1,6.324,4.65,13.644,13.644,0,0,1,3.242,5.952,58.17,58.17,0,0,1,1.036,5.926q.345,2.179.717,4.7.984,8.424,1.382,10.576.426,2.764,1.01,8.317a35.776,35.776,0,0,0,1.887,8.051,20.334,20.334,0,0,0,5.021,3.268q3.667,1.674,5.421,2.6,19.344,9.752,29.5,15.013.584.292,1.143.584l6.483,3.136a53.745,53.745,0,0,1,6.3,3.507,13.029,13.029,0,0,1,2.365,2.046,18.245,18.245,0,0,1,2.6,3.773,22.407,22.407,0,0,1,2.18,7.387q.318,2.844.531,10.523a71.467,71.467,0,0,0,.9,10.549,3.618,3.618,0,0,0,1.515,2.5q1.727,1.169,2.5,1.727,6.536,3.8,8.476,9.885,1.436,4.437,3.162,11.878,2.206,9.22,2.977,11.984,1.169,5.686,3.64,17.246.744,3.056,1.727,6.616,2.1,8,5.367,18.84l-3.56-.531q-.665-2.657-1.807-7.493-.4-1.647-.85-3.48-1.7-7.229-2.631-10.895a5.324,5.324,0,0,0-2.923-3.587q-1.409-.771-4.278-2.18l-13.34-6.51a34.252,34.252,0,0,0-3.8-1.833q-4.7-2.1-13.95-6.749l-7.069-3.428a1.359,1.359,0,0,1-.266-.106l-1.939-1.169q-.9-.5-8.4-4.2-5.076-2.525-8.637-4.358v-.053l3.375-1.833q1.249.531,2.311,1.036l36.776,17.591v-1.753a47.545,47.545,0,0,0,0-6.776q-.345-4.491-.4-6.776-.238-2.844-.584-9.912-.346-6.324-.718-9.884Q-1132.447,558.384-1134.84,556.205Zm23.623,47.192q-.9-5.633-3.162-14.721-2.816-11.239-3.535-14.667-.77-3.535-1.3-5.235a13.159,13.159,0,0,0-2.418-4.729,7.961,7.961,0,0,0-2.418-1.754q-.877-.478-2.71-1.329l-2.047-1.116,2.657,38.557q9.779,4.332,14.934,6.8Zm-96.006-159.434-18.76-5.74,2.63-1.78,18.256,5.846Zm17.245,54.606-2.1-1.063,4.172,29.575q1.621.771,2.79,1.408l52.109,24.9v-1.567q-.107-4.066-.5-10.55-.479-8.237-.585-10.523a9.584,9.584,0,0,0-1.594-5.075,8.6,8.6,0,0,0-4.012-3.375q-4.437-2.179-11.984-5.979-3.216-1.594-6.989-3.534-11.293-5.66-19.132-9.247-1.993-.957-5.9-3.029A18.655,18.655,0,0,0-1189.977,498.569Zm13.047,6.245a38.043,38.043,0,0,1,10.283,6.643,101.086,101.086,0,0,1,8.53,8.849q10.283,13.207,14.056,25.908l-2.736-1.249-1.143-.584q-.345-.9-1.116-4.119a83.756,83.756,0,0,0-12.781-19.8,68.528,68.528,0,0,0-7.387-7.972Q-1175.31,506.594-1176.93,504.814Zm36.563,55.112a76.268,76.268,0,0,1-1.7,18.016,53.167,53.167,0,0,0-.478-16.554Z" transform="translate(1225.983 -436.443)" fill="#605c60" fill-rule="evenodd"/>
              </g>
              <g id="Grupo_10389" data-name="Grupo 10389" transform="translate(46.714 5.846)">
                <path id="Trazado_10154" data-name="Trazado 10154" d="M-1173.437,503.723l2.5,12.276q.107.823.213,1.754a4.791,4.791,0,0,1,.133.9q.585,4.651,1.594,12.117,3.375,1.86,11.267,5.713,7.28,3.641,11.186,5.793l2.126,1.276.957.318,12.064,5.66,1.143.584,13.791,6.856v1.567l-52.108-24.9q-1.169-.638-2.79-1.408l-4.172-29.575Zm-17.245-54.606,2.126-1.674a11.918,11.918,0,0,1,6.7,3.88,13.245,13.245,0,0,1,3.348,6.989q.372,2.764,1.01,7.334.691,4.836,1.568,11.665,1.567,12.223,2.657,19,22.719,11.134,38.131,18.814,8.609,4.251,14.88,7.413a13.468,13.468,0,0,1,5.687,4.916.047.047,0,0,1,.053.053,14.211,14.211,0,0,1,2.418,7.2q.453,5.208.877,12.648.238,4.2.69,12.622,3.694,1.728,5.5,2.657a14.063,14.063,0,0,1,4.729,3.8,19.882,19.882,0,0,1,3.321,7.095q.718,2.577,1.887,7.786.691,3.189,3.349,13.977,1.115,4.464,3.109,13.313,1.806,8.131,4.358,19.929l-.877,1.143,1.887,10.682q-3.267-10.842-5.367-18.84-.984-3.56-1.727-6.616-2.471-11.559-3.64-17.246-.771-2.763-2.977-11.984-1.727-7.441-3.162-11.878-1.939-6.085-8.476-9.885-.771-.558-2.5-1.727a3.619,3.619,0,0,1-1.515-2.5,71.483,71.483,0,0,1-.9-10.549q-.213-7.68-.531-10.523a22.411,22.411,0,0,0-2.179-7.387,18.242,18.242,0,0,0-2.6-3.773,13.029,13.029,0,0,0-2.365-2.046,53.734,53.734,0,0,0-6.3-3.507l-6.483-3.136q-.558-.292-1.143-.584-10.151-5.262-29.5-15.013-1.755-.93-5.421-2.6a20.338,20.338,0,0,1-5.022-3.268,35.789,35.789,0,0,1-1.887-8.051q-.584-5.553-1.01-8.317-.4-2.152-1.382-10.576-.371-2.524-.717-4.7a58.2,58.2,0,0,0-1.036-5.926,13.645,13.645,0,0,0-3.242-5.952A28.915,28.915,0,0,0-1190.683,449.117Zm80.461,117q.611,8.477.77,12.728.213,2.525.558,11.958.266,7.387.85,11.931l3.72,1.355,2.338,1.143q4.278,2.046,7.307,3.322v1.807q-5.155-2.471-14.934-6.8L-1112.268,565Zm-17.485,26.174,13.445,6.537v1.753l-36.776-17.591q-1.063-.5-2.311-1.036l2.418-1.409,15.837,7.972Z" transform="translate(1190.683 -447.443)" fill="#969696" fill-rule="evenodd"/>
              </g>
              <g id="Grupo_10390" data-name="Grupo 10390" transform="translate(27.954 1.78)">
                <path id="Trazado_10155" data-name="Trazado 10155" d="M-1099.818,636.774l-1.887-10.682,14.722,8.131-.292,7.148-24.1,13.339-13.6-4.012Zm-55.669-44.482,1.2-2.312a1.359,1.359,0,0,0,.266.106l7.069,3.428a34.385,34.385,0,0,1-3.428,4.092,15.875,15.875,0,0,1-4.358,3.083,18.657,18.657,0,0,1-8.423,2.736,62.485,62.485,0,0,1-9.061.159l-.558-.4-1.222-4.57q-1.675-3.879-7.52-7.759a48.409,48.409,0,0,0,8.025,3.587,27.687,27.687,0,0,0,13.073,1.329A13.286,13.286,0,0,0-1155.487,592.292Zm-70.5-152.5,18.76,5.74v3.375l-16.953-5.288Zm49.053,66.59q1.621,1.781,7.706,7.68a68.533,68.533,0,0,1,7.387,7.972,83.757,83.757,0,0,1,12.781,19.8q.771,3.215,1.116,4.119L-1160,540.29a16.238,16.238,0,0,0-2.6-6.245q-.506-.771-4.092-5.421a61,61,0,0,0-20.78-17.99v1.78l-2.5-12.276,11.665,5.633Q-1177.568,506.091-1176.93,506.383Zm34.385,56.573a53.167,53.167,0,0,1,.478,16.554l-2.178,9.194-7.388-3.773a28.787,28.787,0,0,0,1.648-8.9q.106-1.621.052-9.008l4.252-2.471Q-1142.892,563.142-1142.546,562.957Z" transform="translate(1225.983 -439.793)" fill="#2d2d2d" fill-rule="evenodd"/>
              </g>
              <g id="Grupo_10391" data-name="Grupo 10391" transform="translate(0 20.301)">
                <path id="Trazado_10156" data-name="Trazado 10156" d="M-1221.161,505.52l5.713,40.868-7.865,5.368-20.7,12.223.293.133-25.058,13.153-4.012-26.572.345.186q-1.248-7.493-2.046-14.057Zm-3.853-30.877,3.667,25.563L-1274.97,531l-3.613-26.413Z" transform="translate(1278.583 -474.643)" fill="#d83f21" fill-rule="evenodd"/>
              </g>
              <g id="Grupo_10392" data-name="Grupo 10392" transform="translate(9.805 92.047)">
                <path id="Trazado_10157" data-name="Trazado 10157" d="M-1189.265,659.838l-6.138,3.428-2.02,1.248-7.015,4.384-33.136-17.75-22.561-10.629,25.058-13.153-.293-.133,20.7-12.223,7.865-5.368,55.35,27.21.612.505q-4.332,2.869-5.528,3.72l-2.178,1.461q-.346.186-3.136,1.594l-4.252,2.471q-3.773,1.78-8.848,4.757-2.95,1.754-8.69,5.182l-2.417,1.409-3.375,1.833Z" transform="translate(1260.134 -609.643)" fill="#980747" fill-rule="evenodd"/>
              </g>
              <g id="Grupo_10393" data-name="Grupo 10393" transform="translate(72.516 145.67)">
                <path id="Trazado_10158" data-name="Trazado 10158" d="M-1115,716.841l-1.2,2.312a35.223,35.223,0,0,1-6.563.239,31.193,31.193,0,0,1-5.262-1.009,45.191,45.191,0,0,1-7.068-3q-6.643-3.4-7.042-3.587l2.02-1.248a98.028,98.028,0,0,0,11.639,4.836,18.318,18.318,0,0,0,11.532.292Z" transform="translate(1142.134 -710.544)" fill="#aca99f" fill-rule="evenodd"/>
              </g>
              <g id="Grupo_10394" data-name="Grupo 10394" transform="translate(128.956 212.686)">
                <path id="Trazado_10159" data-name="Trazado 10159" d="M-1035.933,836.643l13.6,4.012v4.571l-12.622-3.242Z" transform="translate(1035.933 -836.643)" fill-rule="evenodd"/>
              </g>
            </g>
            <g id="Grupo_10399" data-name="Grupo 10399" transform="translate(104.403 214.466)">
              <g id="Grupo_10398" data-name="Grupo 10398">
                <g id="Grupo_10396" data-name="Grupo 10396" transform="translate(6.245 4.384)">
                  <path id="Trazado_10160" data-name="Trazado 10160" d="M-1042.456,848.243v4.332l-27.927,14.641v-3.534Z" transform="translate(1070.384 -848.243)" fill="#605c60" fill-rule="evenodd"/>
                </g>
                <g id="Grupo_10397" data-name="Grupo 10397">
                  <path id="Trazado_10161" data-name="Trazado 10161" d="M-1047.962,844.377l-27.928,15.439-.372-5.873-5.872-2.232,20.116-11.719,14.056,4.345Z" transform="translate(1082.134 -839.993)" fill="#2d2d2d" fill-rule="evenodd"/>
                </g>
              </g>
            </g>
          </g>
          <g id="Grupo_10420" data-name="Grupo 10420" transform="translate(55.418)">
            <g id="Grupo_10401" data-name="Grupo 10401" transform="translate(122.669 235.75)">
              <path id="Trazado_10162" data-name="Trazado 10162" d="M-1026.288,832.814q-3.826-1.913-3.747-5.421a6.826,6.826,0,0,0,4.916,1.621q.4.133,7.972,2.126a30.223,30.223,0,0,1,7.652,2.977,46.515,46.515,0,0,0,9.7,5.1,24.218,24.218,0,0,0,10.762,1.488,4.508,4.508,0,0,0,3.163-2.843,8.307,8.307,0,0,0,.531-4.384,11.408,11.408,0,0,1,.318,5.288,4.75,4.75,0,0,1-3.056,3.906,24.031,24.031,0,0,1-9.486-.584,27.242,27.242,0,0,1-8.663-3.907,29.853,29.853,0,0,0-8.955-4.358,4.147,4.147,0,0,1-1.887,1.515,2.753,2.753,0,0,1-2.365-.292q-2.178-.611-3.348-.957A20.3,20.3,0,0,1-1026.288,832.814Z" transform="translate(1030.036 -827.393)" fill="#a6ece5" fill-rule="evenodd"/>
            </g>
            <g id="Grupo_10402" data-name="Grupo 10402" transform="translate(93.992 241.52)">
              <path id="Trazado_10163" data-name="Trazado 10163" d="M-1062.186,843.691q2.037,1.864,6.607,5.292a19.311,19.311,0,0,1,5.39,6.434q-1.268,4.248-6.434,6.385a24.873,24.873,0,0,1-9.389,1.689q-5.714-.422-10.135-6.534-1.142-1.565-3.477-5.416A52.677,52.677,0,0,1-1084,840.885a16.115,16.115,0,0,0,8.446-.1q4.452-1.177,8.246-2.534a19.243,19.243,0,0,1,2.658,2.608Q-1063.825,841.8-1062.186,843.691Z" transform="translate(1083.996 -838.251)" fill="#4e8dd1" fill-rule="evenodd"/>
            </g>
            <g id="Grupo_10403" data-name="Grupo 10403" transform="translate(90.29 242.636)">
              <path id="Trazado_10164" data-name="Trazado 10164" d="M-1090.961,843.259q.048-4.887,3.652-1.565a53.612,53.612,0,0,0,4.422,10.831q2.334,3.851,3.477,5.416,4.421,6.111,10.135,6.534a24.873,24.873,0,0,0,9.389-1.689q5.167-2.136,6.434-6.385a4.38,4.38,0,0,1,1.018,2.013,2.047,2.047,0,0,1-.646,2.061,18.431,18.431,0,0,1-8.048,4.994,20.784,20.784,0,0,1-9.489.82,9.757,9.757,0,0,1-5.775-3.142q-2.207-2.5-4.57-5.49T-1090.961,843.259Z" transform="translate(1090.961 -840.35)" fill="#a6ece5" fill-rule="evenodd"/>
            </g>
            <g id="Grupo_10404" data-name="Grupo 10404" transform="translate(53.699 113.591)">
              <path id="Trazado_10165" data-name="Trazado 10165" d="M-1078.49,628.358a24.491,24.491,0,0,1,5.217,12.445,50.952,50.952,0,0,1-.124,13.714,114.032,114.032,0,0,0,.522,17.041q.073.819.869,8.5.547,5.118.771,8.5-.125,2.235-.721,6.757a12.231,12.231,0,0,0,1.143,6.583,4.982,4.982,0,0,1,1.764,2.882,4.564,4.564,0,0,0,1.863,2.807,3.045,3.045,0,0,1,1.615,1.963,2.565,2.565,0,0,1-.621,2.46q-2.236,4.619-8.793,6.433-.7.2-5.614,1.292a29.785,29.785,0,0,0-5.34,1.59,6.874,6.874,0,0,1-4.919-1.615,22.212,22.212,0,0,0-1.689-2.261q-1.391-1.64-1.838-2.261a6.278,6.278,0,0,1-1.366-5.266,8.948,8.948,0,0,0-.944-3.9,8.641,8.641,0,0,1-.894-3.9,24.4,24.4,0,0,0,.348-10.21q-1.316-6.807-1.763-10.185-.671-8.869-.671-14.731a85.1,85.1,0,0,1,1.168-14.706q-.274-4.471,2.708-6.012-2.011-1.938-6.061-1.341-2.211.372-3.329.521a9.234,9.234,0,0,1-3.229-.1,93.108,93.108,0,0,1-10.209-3.279q-7.105-2.659-10.135-3.5l-18.457-21.116q-15.266-3.218-12.022-18.532v-.012a111.922,111.922,0,0,1,26.753-1.007q17.09,5.565,22.9,9.415a113.33,113.33,0,0,0,13.861,7.676q8.048,3.8,11.526,7.527Q-1079.955,627.042-1078.49,628.358Z" transform="translate(1159.813 -597.533)" fill="#6ec3bb" fill-rule="evenodd"/>
            </g>
            <g id="Grupo_10405" data-name="Grupo 10405" transform="translate(14.324 114.967)">
              <path id="Trazado_10166" data-name="Trazado 10166" d="M-1152.2,651.184q6.061,7.03,7.254,13.961,1.391,3.328,1.168,9.489-.15,3.974-.149,4.844a22.406,22.406,0,0,0,.5,4.795,19.452,19.452,0,0,1,1.317,6.509q.1,2.211-.149,6.682a43.77,43.77,0,0,0,1.639,11.576,99.107,99.107,0,0,1,2.435,11.427q.173.323,1.266,3.105a7.613,7.613,0,0,0,1.714,2.808,3.95,3.95,0,0,1,.894,4.1q-.1.447-.671,2.211a11.4,11.4,0,0,0-.5,2.186,28.245,28.245,0,0,1-8.346,3.553,18.836,18.836,0,0,1-8.992.149,18.212,18.212,0,0,1-2.186-1.043,14.524,14.524,0,0,1-3.03-5.664,25.617,25.617,0,0,0-2.683-5.987,19.619,19.619,0,0,1-1.218-6.434,18,18,0,0,0-1.292-6.434,43.368,43.368,0,0,1-2.558-9.291,39.74,39.74,0,0,0-2.658-9.216,22.148,22.148,0,0,1-1.317-11.75,57.136,57.136,0,0,1,1.118-5.962q.944-3.9,1.366-5.787-4-.647-8.62-4.4-2.483-2.16-3.75-3.229a32.966,32.966,0,0,0-3.9-2.906q-9.463-4.919-19.7-9.018a166.768,166.768,0,0,1-17.413-8.023q-7.154-3.9-9.39-9.44-2.261-5.564-3.85-17.861a98.185,98.185,0,0,1,39.943-16.01v.012l30.479,39.648q1.044,1.093,5.664,5.589Q-1154.24,648.849-1152.2,651.184Z" transform="translate(1233.903 -600.122)" fill="#91e6de" fill-rule="evenodd"/>
            </g>
            <g id="Grupo_10406" data-name="Grupo 10406" transform="translate(127.571 228.06)">
              <path id="Trazado_10167" data-name="Trazado 10167" d="M-984.719,833.939a23.986,23.986,0,0,1-10.78-1.49,46.684,46.684,0,0,1-9.688-5.092,29.884,29.884,0,0,0-7.676-2.981q-7.551-1.988-7.949-2.136a29.79,29.79,0,0,1,5.341-1.59q4.918-1.093,5.614-1.292,6.557-1.813,8.793-6.433,1.738.868,5.788,2.409,4,1.54,5.937,2.509,6.658,3.329,8.3,8.869a8.018,8.018,0,0,1-.522,4.4A4.445,4.445,0,0,1-984.719,833.939Z" transform="translate(1020.812 -812.923)" fill="#4e8dd1" fill-rule="evenodd"/>
            </g>
            <g id="Grupo_10407" data-name="Grupo 10407" transform="translate(68.275 33.623)">
              <path id="Trazado_10168" data-name="Trazado 10168" d="M-1114.6,474.66a9.091,9.091,0,0,0,1.466,2.658q.323.4,1.987,2.31,2.509,2.882,2.658,5.242a37.253,37.253,0,0,1,3.229,10.558,52.1,52.1,0,0,0,2.832,10.732q1.267,2.211,4.695,10.533a40.231,40.231,0,0,0,5.515,10.011,1.545,1.545,0,0,1-.4,1.093l-.794.944a7.68,7.68,0,0,0-6.359-1.963,29.337,29.337,0,0,0-6.732,1.838,11.672,11.672,0,0,1-.646,5.714l-1.515-1.168a65.314,65.314,0,0,0-5.54-13.514q-1.167-2.186-7.328-12.645a34.94,34.94,0,0,1-2.186-5.042q-1.167-3.5-1.763-5.242a35.635,35.635,0,0,0-6.906-11.874,52.069,52.069,0,0,0,1.664-7.751q.373-3.3.646-4.745a25.774,25.774,0,0,0,.372-3.279q1.192-3.577,1.788-5.415a50.086,50.086,0,0,0,1.515-5.515,16.216,16.216,0,0,0-1.242-11.08,21.953,21.953,0,0,1,5.763,7.726,31.971,31.971,0,0,1,2.633,9.316,13.971,13.971,0,0,0,1.838,5.465Q-1116.463,471.257-1114.6,474.66Z" transform="translate(1132.386 -447.061)" fill="#e9f8f8" fill-rule="evenodd"/>
            </g>
            <g id="Grupo_10408" data-name="Grupo 10408" transform="translate(6.726 25.306)">
              <path id="Trazado_10169" data-name="Trazado 10169" d="M-1153.849,563.664q-2.887,8.339-6.36,7.3-24.139-24.321-24.492,19.4l-37.161-22.457q-22.165-5.63-21.163-21.513.2-8.073,1.515-10.21,1.317-2.162,2.31-8.347l-.646-13.837q-9.589-16.47-8.173-47.324a65.319,65.319,0,0,1,15.327-22.159q17.412-16.619,40.117-12.173,11.7,2.36,13.662,12.695a32.009,32.009,0,0,1,0,12.172q-3.111,16.217,2.882,42.629,3.93,17.315,12.941,23.277,23.125,3.8,36.366,19.973-17.612-1.158-27.138,20.569Z" transform="translate(1248.201 -431.411)" fill="#c1e6e3" fill-rule="evenodd"/>
            </g>
            <g id="Grupo_10411" data-name="Grupo 10411" transform="translate(80.49 91.956)">
              <g id="Grupo_10409" data-name="Grupo 10409">
                <path id="Trazado_10170" data-name="Trazado 10170" d="M-1062.278,700.686a2.126,2.126,0,0,1-2-1.406l-44.195-122.823c-.018-.051-.035-.1-.049-.155-3.241-11.752,3.1-16.572,8.991-18.545,4.07-1.356,7.584-1.231,10.445.367,3.236,1.809,5.521,5.475,6.791,10.9a2.126,2.126,0,0,1-1.585,2.555,2.126,2.126,0,0,1-2.554-1.585c-.986-4.211-2.576-6.955-4.726-8.156-1.8-1.005-4.1-1.02-7.024-.046-6.262,2.1-8.2,6.2-6.26,13.306l44.167,122.745a2.126,2.126,0,0,1-1.28,2.72A2.119,2.119,0,0,1-1062.278,700.686Z" transform="translate(1109.401 -556.824)" fill="#964d11"/>
              </g>
              <g id="Grupo_10410" data-name="Grupo 10410" transform="translate(44.997 139.609)">
                <path id="Trazado_10171" data-name="Trazado 10171" d="M-1019.436,832.583a2.127,2.127,0,0,1-2-1.406l-3.171-8.811a2.126,2.126,0,0,1,1.28-2.72,2.126,2.126,0,0,1,2.72,1.28l3.171,8.811a2.126,2.126,0,0,1-1.28,2.72A2.118,2.118,0,0,1-1019.436,832.583Z" transform="translate(1024.733 -819.52)" fill="#3a3a3a"/>
              </g>
            </g>
            <g id="Grupo_10412" data-name="Grupo 10412" transform="translate(92.616 113.287)">
              <path id="Trazado_10172" data-name="Trazado 10172" d="M-1085.02,598.853a11.6,11.6,0,0,1-.651,5.717,10.776,10.776,0,0,0-.359,7.818,31.512,31.512,0,0,0,3.516,7.248,1.158,1.158,0,0,0,1.66.684,1.9,1.9,0,0,0,1.3-1.515,5.523,5.523,0,0,0-.619-3.746,12.574,12.574,0,0,1-1.27-3.7q2-1.4,2.638-1.889l.993-.749q.538,1.353,1.075,2.524a30.133,30.133,0,0,1,1.774,4.692q.488,1.612,1.449,4.821a2.1,2.1,0,0,0,1.351,1.466,1.351,1.351,0,0,0,1.791-.44,6.759,6.759,0,0,0,.065-3.323q-.586-2.216-.863-3.291a51.165,51.165,0,0,1-1.481-6.189,8.175,8.175,0,0,1,2.817,3.828q.6,1.5,1.5,4.609a12.358,12.358,0,0,0,.863,3.306,2.4,2.4,0,0,0,2.751,1.4q.163-1.254.211-1.841a13.729,13.729,0,0,0-.325-4.087q-.261-1.189-1.107-3.975a8.531,8.531,0,0,1,1.448,4.088,6.492,6.492,0,0,0,1.645,3.893q1.27.5,1.9-.912a10.758,10.758,0,0,1,.927-2.41,13.707,13.707,0,0,0-2.653-10.995,19.51,19.51,0,0,0-9.264-6.906,7.678,7.678,0,0,0-6.365-1.971A29.435,29.435,0,0,0-1085.02,598.853Z" transform="translate(1086.586 -596.961)" fill="#fdd8c8" fill-rule="evenodd"/>
            </g>
            <g id="Grupo_10413" data-name="Grupo 10413" transform="translate(43.708 138.372)">
              <path id="Trazado_10173" data-name="Trazado 10173" d="M-1176.926,668.727q2.491,2.334,7.214,2.276a17.74,17.74,0,0,0,8.872-2.435l18.45-10.652q4.156-2.4,5.343-5.772a4.947,4.947,0,0,0-1.312-5.683q-2.49-2.334-7.206-2.3a17.922,17.922,0,0,0-8.88,2.458l-18.45,10.652q-4.156,2.4-5.335,5.749A4.963,4.963,0,0,0-1176.926,668.727Z" transform="translate(1178.613 -644.162)" fill="#fff" fill-rule="evenodd"/>
            </g>
            <g id="Grupo_10414" data-name="Grupo 10414" transform="translate(46.732 139.063)">
              <path id="Trazado_10174" data-name="Trazado 10174" d="M-1162.405,645.977a10.18,10.18,0,0,1-3.988-.488q-2.247-.293-3.891,2.8,0,.016-1.254,2.688a10.572,10.572,0,0,1-1.384,2.312,12.033,12.033,0,0,0,3.549,5.245,12.717,12.717,0,0,0,5.649,2.834,9.223,9.223,0,0,1,4.363,2.573,14.378,14.378,0,0,0,4.135,2.964.905.905,0,0,0,1.221-.439,1.262,1.262,0,0,0-.1-1.368,14.384,14.384,0,0,0-2.589-3.03,13.64,13.64,0,0,1-2.572-3.062,14.526,14.526,0,0,1,5.226,3.551,33.118,33.118,0,0,0,4.852,4.137,1.35,1.35,0,0,0,1.954-.309,1.341,1.341,0,0,0,0-1.971,42.63,42.63,0,0,0-3.972-4.365q-.537-.537-4.3-4.022a16.117,16.117,0,0,1,5.388,3.241q1.335,1.156,4.46,4.495a2.527,2.527,0,0,0,2.116.912q1.466-.016,1.27-1.368a10.94,10.94,0,0,0-2.41-4.089q-2.279-2.312-3.353-3.469a5.742,5.742,0,0,1,2.214,1.254q.733.6,2.182,1.906a4.827,4.827,0,0,0,2.149,1.14,2.189,2.189,0,0,0,2.067-1.026,26.547,26.547,0,0,0-7.944-8.73,24.789,24.789,0,0,0-10.989-4.414Q-1158.938,645.83-1162.405,645.977Z" transform="translate(1172.922 -645.463)" fill="#fdd8c8" fill-rule="evenodd"/>
            </g>
            <g id="Grupo_10415" data-name="Grupo 10415" transform="translate(0 60.6)">
              <path id="Trazado_10175" data-name="Trazado 10175" d="M-1256.17,505.573a17.788,17.788,0,0,1,2.21-7.751,24.821,24.821,0,0,1,11.924,3.255,23.439,23.439,0,0,1,9.017,8.471,2.55,2.55,0,0,1-.1,3.055q-.3.473-.894,1.466a3.492,3.492,0,0,0-.472,1.59,73.166,73.166,0,0,1-1.143,17.365,58.287,58.287,0,0,1-5.639,16.421q5.291,3.727,12.668,9.391,8.322,6.433,12.5,9.613a11.226,11.226,0,0,0,2.757,1.54q2.732,1.218,3.13,1.416,3.527,1.888,2.608,4.919-2.26-.273-3.9,2.807,0,.025-1.267,2.683a10.54,10.54,0,0,1-1.367,2.31,7.094,7.094,0,0,1-1.416,1.664q-.52.447-1.689,1.316a64.529,64.529,0,0,0-7.253-3.7,39.042,39.042,0,0,1-7.1-3.949q-.795-.622-6.831-4.894a59.869,59.869,0,0,1-6.532-5.242,34.56,34.56,0,0,0-5.863-4.4,58.706,58.706,0,0,1-6.085-4.125,13.534,13.534,0,0,1-3.279-4.969,9.518,9.518,0,0,1-.348-5.887,42.951,42.951,0,0,0,1.143-10.607q-.125-7.13,0-10.682a47.9,47.9,0,0,1,1.565-7.478,36.835,36.835,0,0,0,1.366-7.477Q-1256.368,508.256-1256.17,505.573Z" transform="translate(1260.856 -497.822)" fill="#e9f8f8" fill-rule="evenodd"/>
            </g>
            <g id="Grupo_10416" data-name="Grupo 10416" transform="translate(32.935 29.435)">
              <path id="Trazado_10176" data-name="Trazado 10176" d="M-1189.9,439.293a17.728,17.728,0,0,1,9.167,1.435q16.289,7.148,10.15,22.507-21.869,2.71-28.3-18.175A11.434,11.434,0,0,1-1189.9,439.293Z" transform="translate(1198.884 -439.181)" fill="#e49781" fill-rule="evenodd"/>
            </g>
            <g id="Grupo_10417" data-name="Grupo 10417" transform="translate(30.863 2.174)">
              <path id="Trazado_10177" data-name="Trazado 10177" d="M-1181.286,388.076l.372-.08,1.488.664,5.208,2.046.691.425a19.658,19.658,0,0,1,5.447,5.5,16.5,16.5,0,0,1,2.843,7.042l.053.585a4.576,4.576,0,0,1,.187,3.4h.053l.08.531q1.594,2.179,3.029,3.986a3.462,3.462,0,0,1,2.259,2.684q.345,1.887-2.046,2.338l-.611.026-.877,3.959a4.287,4.287,0,0,1-.69,2.817l-3.481,6.563a8.285,8.285,0,0,0-.824.717,50.516,50.516,0,0,0-7.44-.585q-5.075-.213-7.44-2.259-2.364-2.1-4.145-3.64-1.755-1.567-2.524-1.3a1.947,1.947,0,0,1-1.515-.08,7.8,7.8,0,0,1-2.87-3.295q-.585-1.169-.957-1.833.16.611.293,1.249l-2.02-.744q-6.456-5.766-6.031-15.492a16.463,16.463,0,0,1,6.111-11.453,15.58,15.58,0,0,1,12.3-3.853Z" transform="translate(1202.782 -387.886)" fill="#fdd8c8" fill-rule="evenodd"/>
            </g>
            <g id="Grupo_10418" data-name="Grupo 10418" transform="translate(29.724)">
              <path id="Trazado_10178" data-name="Trazado 10178" d="M-1197.915,405.689a11.432,11.432,0,0,1,7.334-1.621q1.222.08,7.547,1.461a34.4,34.4,0,0,1-5.447,3.8l3.959-1.249a78,78,0,0,0-.239,7.839,53.727,53.727,0,0,1-5.5-1.833,9.383,9.383,0,0,0-5.713-.478,16.385,16.385,0,0,0,.611,4.066l-2.977-1.143a13.642,13.642,0,0,1-4.331-4.438,10.5,10.5,0,0,1-2.206-5.261,7.683,7.683,0,0,1,1.408-5.447,17.745,17.745,0,0,0,2.232,1.594l.4.239A5.54,5.54,0,0,1-1197.915,405.689Zm29.044,15.757q.611-1.408.77-1.727,1.94-4.384,5.182-4.384l.319,1.594a5.31,5.31,0,0,1-.212,1.621l-.16.319q.85-.372.957-1.913l2.046,4.066a5.249,5.249,0,0,1-.8,5.872,9.881,9.881,0,0,1-5.421,3.4,31.894,31.894,0,0,1-7.466-1.143l2.312-3.853a4.308,4.308,0,0,1,2.232-1.461q1.728-.345,2.551-.585,2.869-.611,1.913-4.039A15.21,15.21,0,0,1-1168.871,421.447Zm-13.087-35.3q2.249-.572,4.743-1.4l-1.673,2.578-.4.478-.24-.4-1.3,2.5a22.7,22.7,0,0,1-2.684,3.72q-1.248,1.409-3.268,3.268.851-1.409,2.286-3.428a15.04,15.04,0,0,1,2.391-3.322l1.807-3.162-1.727-.771a11.3,11.3,0,0,0-1.382,1.488,61.463,61.463,0,0,0-4.6,5.554,19.025,19.025,0,0,1-5.447,4.65q1.408-1.727,3.746-4.756,2.738-3.587,3.747-4.863l2.259-2.152-1.356-.08a32.266,32.266,0,0,1,6.8-2.206q4.144-.5,3.986,3.853l-.5-.983a23.53,23.53,0,0,0-1.329-2.471,24.394,24.394,0,0,0-3.136.558A6.637,6.637,0,0,0-1181.958,386.145Z" transform="translate(1204.927 -383.794)" fill="#fcffff" fill-rule="evenodd"/>
            </g>
            <g id="Grupo_10419" data-name="Grupo 10419" transform="translate(72.315 157.892)">
              <path id="Trazado_10179" data-name="Trazado 10179" d="M-1100.058,689.661q.525.573.97,1.089,6.058,7.041,7.254,13.977,1.408,3.322,1.169,9.486-.132,3.96-.133,4.836a20.958,20.958,0,0,0,.479,4.783,19.747,19.747,0,0,1,1.328,6.51q.079,2.232-.159,6.7a44.733,44.733,0,0,0,1.647,11.585,97.037,97.037,0,0,1,2.418,11.426q.187.319,1.276,3.082a7.311,7.311,0,0,0,1.727,2.817,3.908,3.908,0,0,1,.877,4.092q-.081.452-.664,2.232a11.346,11.346,0,0,0-.5,2.179,28.081,28.081,0,0,1-8.344,3.534,18.863,18.863,0,0,1-8.982.159,19.693,19.693,0,0,1-2.178-1.036,14.4,14.4,0,0,1-3.03-5.659,25.693,25.693,0,0,0-2.683-6.006,19.112,19.112,0,0,1-1.222-6.431,18.479,18.479,0,0,0-1.3-6.43,43.89,43.89,0,0,1-2.551-9.3,39.993,39.993,0,0,0-2.657-9.195,22.4,22.4,0,0,1-1.328-11.771q.318-2.445,1.115-5.952.957-3.906,1.382-5.793-4.013-.638-8.637-4.384-1.117-.985-1.993-1.741,1.547-37.865,24.394-14.867A2.8,2.8,0,0,0-1100.058,689.661Z" transform="translate(1124.784 -680.892)" fill="#91e6de" fill-rule="evenodd"/>
            </g>
          </g>
          <g id="Grupo_10426" data-name="Grupo 10426" transform="translate(13.1 53.357)">
            <g id="Grupo_10425" data-name="Grupo 10425">
              <g id="Grupo_10421" data-name="Grupo 10421" transform="translate(0 1.966)">
                <path id="Trazado_10180" data-name="Trazado 10180" d="M-1340.483,487.893l19.583,5.793.85,3.481-18.335-6.245Zm128.212,205.219-.5-10.417,1.116.054a37.375,37.375,0,0,1,10.23,7.094,3.941,3.941,0,0,1,.984,1.515,18.493,18.493,0,0,1,1.115,7.334h-.106a13.992,13.992,0,0,1-5.208.239Q-1206.452,698.745-1212.271,693.112Z" transform="translate(1340.483 -487.893)" fill="#2d2d2d" fill-rule="evenodd"/>
              </g>
              <g id="Grupo_10422" data-name="Grupo 10422">
                <path id="Trazado_10181" data-name="Trazado 10181" d="M-1318.694,615.461l75.784,37.255v-2.18q-.557-12.09-1.115-20.407-.558-10.231-.771-15.412-4.093-2.339-10.895-5.66-6.75-3.082-13.393-6.563l-.266-.133-28.485-12.808,2.6,34.438-6.324-3.082-.531-5.1-3.614,3.215-10.018-4.863,4.172-4.224,9.46,5.872-.4-9.619-1.568-22.4v-.026l-1.037-11.4q-5.42-43.1-8.9-69.035-.079-.531-.159-1.063a6.606,6.606,0,0,0-1.834-4.331,8.247,8.247,0,0,0-4.066-2.5l-.85-3.481-19.583-5.793,3.534-1.966,18.069,5.793-2.02,1.966q5.926,2.445,7.388,4.6a17.464,17.464,0,0,1,2.259,6.351c.035.124.071.266.106.425q2.02,12.6,2.844,19.159,1.063,8.291,1.487,11.028.054.186.9,7.494a30.481,30.481,0,0,0,1.648,7.254,11.561,11.561,0,0,0,2.87,2.1l3.109,1.674q7.36,3.481,21.178,10.6,14.242,7.36,21.1,10.629,3.534,1.78,5.022,2.71a15.314,15.314,0,0,1,4.145,3.72q3.774,4.916,4.04,12.755.186,5.5.876,15.571.133,2.073.266,4.384a23.416,23.416,0,0,1,11.027,8.1,73.523,73.523,0,0,1,2.9,9.008q.77,3.055,2.259,9.141,1.408,7.972,4.251,18.76,1.169,4.306,3.321,12.994,1.037,3.535,2.153,6.59a131.741,131.741,0,0,1,3.481,14.376l-3.587-.4q-2.313-10.1-3.826-16.157-1.249-5.208-1.834-7.44a14.955,14.955,0,0,0-4.384-2.843q-4.012-1.834-4.783-2.312-.159-.053-3.613-1.887-2.232-1.222-10.257-4.863-4.438-2.151-24.686-12.2-1.249-.639-2.6-1.3l-7.335-4.039-37.52-18.415Zm16.9-60.293q-2.738-1.275-.9,7.042l2.419,20.142q.08,1.993,3.48,3.826,3.375,1.834,24.579,11.479l16.529,7.706a69.736,69.736,0,0,0,10.469,4.438q-.187-1.409-.4-3.482-.24-3.507-.479-8.981a118.139,118.139,0,0,0-1.116-12.409,7.007,7.007,0,0,0-2.6-4.57,25.121,25.121,0,0,0-4.6-2.79q-4.756-2.259-14.163-7.094l-.8-.346q-.824-.4-1.648-.771a4.46,4.46,0,0,1-.424-.186Zm78.309,104.536q-1.462-7.334-3.88-17.3-2.843-11.452-4.252-17.192a5.5,5.5,0,0,0-2.737-3.96q-1.408-.9-4.411-2.417l-1.621-.426.717,25.164.718,11.054,15.465,7.388Zm24.154,37.255a18.493,18.493,0,0,0-1.115-7.335,3.941,3.941,0,0,0-.984-1.515,37.375,37.375,0,0,0-10.23-7.094l3.242.053q3.082,1.781,5.979,3.773v.053h.053a7.62,7.62,0,0,0,.745.452,12.237,12.237,0,0,0,4.7,1.887v9.407Q-1198.108,696.8-1199.331,696.959Z" transform="translate(1340.483 -484.193)" fill="#605c60" fill-rule="evenodd"/>
              </g>
              <g id="Grupo_10423" data-name="Grupo 10423" transform="translate(19.583 5.793)">
                <path id="Trazado_10182" data-name="Trazado 10182" d="M-1301.614,495.093a11.727,11.727,0,0,1,6.723,3.667,12.638,12.638,0,0,1,1.913,2.577q1.674,3.614,2.657,12.835l3.826,28.114q.054.4.133.9a27.251,27.251,0,0,0,.133,3.215,19.3,19.3,0,0,0,1.568,5.314,4.109,4.109,0,0,0,2.019,2.073q6.989,3.427,14.057,6.882,6.616,3.216,13.339,6.643,2.364,1.276,4.916,2.365,2.125,1.116,10.151,4.783a81.9,81.9,0,0,1,9.937,5.182,14.067,14.067,0,0,1,4.89,5.368,16.144,16.144,0,0,1,1.913,7.042q.106,1.487.611,10.549.319,6.351.85,10.47l.186,1.382q1.993,1.276,3.88,2.312,5.846,3.879,7.52,7.759l1.222,4.57.559.4q.929,4.412,3.322,14.269,2.2,9.168,3.215,14.19,3.189,12.515,3.534,14.03,1.542,6.3,2.551,11.48.266,1.354.479,2.6l.5,10.417a131.688,131.688,0,0,0-3.481-14.376q-1.116-3.055-2.153-6.59-2.152-8.689-3.322-12.994-2.843-10.788-4.251-18.76-1.488-6.085-2.259-9.141a73.5,73.5,0,0,0-2.9-9.008,23.413,23.413,0,0,0-11.027-8.1q-.133-2.311-.266-4.385-.69-10.071-.876-15.571-.266-7.839-4.04-12.755a15.306,15.306,0,0,0-4.145-3.72q-1.488-.93-5.023-2.71-6.856-3.269-21.1-10.629-13.818-7.122-21.178-10.6l-3.109-1.674a11.562,11.562,0,0,1-2.87-2.1,30.478,30.478,0,0,1-1.647-7.254q-.851-7.308-.9-7.493-.425-2.737-1.487-11.027-.824-6.564-2.844-19.159c-.035-.159-.071-.3-.106-.425a17.467,17.467,0,0,0-2.258-6.351q-1.462-2.152-7.388-4.6Zm75.97,160.55v2.179l-75.784-37.255,2.976-1.3,10.018,4.863,4.146,1.887,6.324,3.082,51.869,25.855a.419.419,0,0,1,.292.213A1.248,1.248,0,0,1-1225.644,655.643Zm-2.71-44.217q.212,2.073.4,3.482a69.757,69.757,0,0,1-10.47-4.438l-16.529-7.706q-21.2-9.646-24.579-11.479-3.4-1.833-3.48-3.826l-2.419-20.142q-1.833-8.317.9-7.042l4.012,26.572Zm6.856,12.516,1.753,34.146,13.526,6.722v2.312l-15.465-7.388-.718-11.054-.717-25.164Z" transform="translate(1303.634 -495.093)" fill="#969696" fill-rule="evenodd"/>
              </g>
              <g id="Grupo_10424" data-name="Grupo 10424" transform="translate(28.937 121.994)">
                <path id="Trazado_10183" data-name="Trazado 10183" d="M-1276.972,713.743l.4,9.62-9.46-5.872Z" transform="translate(1286.034 -713.743)" fill="#ccc" fill-rule="evenodd"/>
              </g>
            </g>
          </g>
          <g id="Grupo_10431" data-name="Grupo 10431" transform="translate(0 133.896)">
            <g id="Grupo_10430" data-name="Grupo 10430">
              <g id="Grupo_10427" data-name="Grupo 10427" transform="translate(6.059 1.047)">
                <path id="Trazado_10184" data-name="Trazado 10184" d="M-1281.961,683.671a43.6,43.6,0,0,1,.69,11.107q-.106,1.834-.292,3.667-1.727-5.9-3.96-11.559a89.277,89.277,0,0,0-11.452-20.328,86.407,86.407,0,0,0-10.044-11.16,66.1,66.1,0,0,0-15.652-10.815l-10.629-5.367-.053-.585a3.016,3.016,0,0,1,3.349-.717,73.648,73.648,0,0,1,20.142,9.274,76.736,76.736,0,0,1,11.372,9.087l.107.133-.027-.053a151.368,151.368,0,0,1,9.46,13.286A76.227,76.227,0,0,1-1281.961,683.671Zm-19.929,53.57q2.418-1.354,4.783-2.71.611-.425,1.2-.877h.106a.443.443,0,0,1,.133-.027l6.031-3.72c.107-.142.2-.275.293-.4q-.426.638-.9,1.3a15.9,15.9,0,0,1-11.984,6.563A.822.822,0,0,0-1301.89,737.241Zm-46.1-84.314q-.372,1.169-.718,2.365a50.073,50.073,0,0,0-.717,22.958,74.27,74.27,0,0,0,9.115,23.915,74.612,74.612,0,0,0,15.7,19.85A52.705,52.705,0,0,0-1302.236,734a14.2,14.2,0,0,0-1.594.691q-.717.239-4.836,1.2a42.59,42.59,0,0,1-13.419-6.962,74.364,74.364,0,0,1-15.519-15.731q-16.129-21.789-16.129-46a36.569,36.569,0,0,1,1.168-9.141q.479-1.063.957-2.02Z" transform="translate(1353.733 -637.709)" fill="#605c60" fill-rule="evenodd"/>
              </g>
              <g id="Grupo_10428" data-name="Grupo 10428" transform="translate(1.169)">
                <path id="Trazado_10185" data-name="Trazado 10185" d="M-1317.893,737.779h2.126q1.142-.053,2.418-.106,1.249-.107,3.72-.585,2.5-.478,3.428-.771a.821.821,0,0,1-.345.133,15.9,15.9,0,0,0,11.984-6.563q.479-.664.9-1.3a13.159,13.159,0,0,0,1.408-2.02,30.26,30.26,0,0,0,3.853-14.748q.053-2.551-.08-5.075a62.579,62.579,0,0,0-2.657-14.668,63,63,0,0,0-4.73-11.506q-1.834-3.481-3.959-6.776-3-4.623-6.3-8.981a12.126,12.126,0,0,0-1.382-1.647q-4.995-5.128-10.2-9.991a33.491,33.491,0,0,0-4.89-3.72,40.92,40.92,0,0,0-10.815-4.73,17.317,17.317,0,0,0-14.641,1.78q-.532.372-1.063.824-1.594.717-3.189,1.594a26.519,26.519,0,0,0-2.79,1.966,21.964,21.964,0,0,0-2.711,2.578,25.741,25.741,0,0,0-2.126,2.79,23.382,23.382,0,0,0-1.673,3.242q-.745,1.7-1.329,3.428a46.507,46.507,0,0,1,3.773-13.047,34.06,34.06,0,0,1,3-5.075,20.434,20.434,0,0,1,11.825-7.919q7.386-1.886,11.931-.664a61.85,61.85,0,0,1,8.211,2.737,75.627,75.627,0,0,1,9.035,4.7q5.328,3.06,12.356,11.692a76.741,76.741,0,0,0-11.372-9.087,73.652,73.652,0,0,0-20.142-9.274,3.016,3.016,0,0,0-3.349.717l.053.585,10.629,5.367a66.109,66.109,0,0,1,15.652,10.815,86.426,86.426,0,0,1,10.044,11.161,89.274,89.274,0,0,1,11.452,20.328q2.233,5.66,3.96,11.559.186-1.833.292-3.667a43.605,43.605,0,0,0-.69-11.107,66.563,66.563,0,0,1,4.119,11.984,63.89,63.89,0,0,1,1.727,13.6q.106,3.933.212,7.733a48.715,48.715,0,0,1-1.222,5.5,30.578,30.578,0,0,1-4.863,10.2,17.45,17.45,0,0,1-8.9,7.015,30.407,30.407,0,0,1-8.929,1.647A36.859,36.859,0,0,1-1317.893,737.779Zm-38.025-82.667q-.478.956-.957,2.019a36.563,36.563,0,0,0-1.169,9.141q0,24.208,16.129,46A74.36,74.36,0,0,0-1326.4,728a42.586,42.586,0,0,0,13.419,6.962l-1.94.106q-.958-.107-1.967-.159-1.009-.186-2.072-.372l-2.126-.584q-1.116-.4-2.233-.771-1.78-.823-3.427-1.647-1.2-.585-2.419-1.249-1.248-.823-2.471-1.7-1.434-.957-2.843-2.072-.77-.638-1.541-1.3-.77-.718-1.541-1.515-.878-.77-1.7-1.594-1.248-1.2-2.6-2.684-.956-.983-1.833-1.993-.956-1.115-1.833-2.312-.957-1.248-1.834-2.578-.983-1.488-1.833-3.029-.984-1.648-1.834-3.349-.478-.9-.93-1.78-.531-.957-.956-1.94-.478-.956-.93-1.913-.478-1.009-.9-2.046-.531-1.063-1.009-2.126a35.333,35.333,0,0,1-1.355-3.428q-.638-1.647-1.3-3.322a33.655,33.655,0,0,1-1.275-3.534q-.532-1.727-.9-3.481a23.339,23.339,0,0,1-.585-3.136q-.186-1.488-.292-3-.133-1.833-.133-3.667a32.887,32.887,0,0,1,.186-3.481,25.388,25.388,0,0,1,.478-3.268q.345-1.594.823-3.161.346-1.143.771-2.206.478-1.063,1.009-2.1.532-.9,1.117-1.78Q-1356.583,655.91-1355.918,655.113Z" transform="translate(1362.933 -635.739)" fill="#2d2d2d" fill-rule="evenodd"/>
              </g>
              <g id="Grupo_10429" data-name="Grupo 10429" transform="translate(0 11.588)">
                <path id="Trazado_10186" data-name="Trazado 10186" d="M-1301.253,742.947q-.585.452-1.2.877-2.365,1.355-4.783,2.71-.93.292-3.428.771-2.47.479-3.72.585-1.275.052-2.418.106h-2.126q-1.515-.452-3-1.036a30.6,30.6,0,0,1-2.95-1.01q-1.434-.664-2.843-1.408-1.462-.664-2.843-1.434-1.408-.878-2.764-1.834-1.354-.877-2.657-1.886-1.355-1.01-2.657-2.126t-2.55-2.312q-1.169-1.063-2.286-2.179t-2.178-2.285q-1.01-1.2-2.02-2.445-1.009-1.276-1.939-2.578-1.01-1.3-1.914-2.657-.929-1.355-1.806-2.737-.9-1.461-1.781-2.95-.877-1.515-1.647-3.056-.717-1.355-1.381-2.79-.691-1.408-1.276-2.817-.611-1.382-1.143-2.737-.531-1.409-1.009-2.817-.452-1.355-.824-2.657-.452-1.355-.771-2.71-.346-1.3-.638-2.6t-.584-2.6q-.346-1.781-.531-3.773-.133-1.727-.186-3.667-.053-1.249,0-2.471,0-1.142.106-2.312.079-1.2.24-2.364.132-1.169.319-2.233.238-1.2.478-2.365.584-1.727,1.329-3.428a23.367,23.367,0,0,1,1.673-3.242,25.73,25.73,0,0,1,2.126-2.79,21.946,21.946,0,0,1,2.711-2.578,26.531,26.531,0,0,1,2.79-1.966q1.594-.878,3.189-1.594,1.647.132,3.48.133,2.046.053,3.827.239,1.541.24,3.082.531,1.594.452,3.136.877,1.594.585,3.161,1.3a24.741,24.741,0,0,1,2.6,1.222q1.356.718,2.657,1.488,1.382.878,2.738,1.781a31.281,31.281,0,0,1,3.241,2.524A92.265,92.265,0,0,1-1309.7,681.3q1.7,2.286,3.242,4.756.717,1.09,1.381,2.312,1.063,1.886,2.046,3.826.9,1.86,1.781,3.8.823,1.781,1.594,3.667.664,1.807,1.3,3.64.584,1.727,1.115,3.561.478,1.755.9,3.481.212.877.345,1.754.293,1.675.478,3.428.16,1.648.24,3.322.052,1.542.106,3.136t.106,3.189q0,.769-.053,1.594-.052.929-.159,1.886-.133.929-.32,1.887-.238.984-.531,1.94-.345.956-.743,1.966-.372,1.037-.851,2.1-.77,1.594-1.594,3.189-.637,1.063-1.3,2.152Q-1300.908,742.416-1301.253,742.947Zm-52.082-80.727-3.614,3.109q-.665.8-1.3,1.674-.585.877-1.117,1.78-.531,1.036-1.009,2.1-.426,1.063-.771,2.206-.478,1.566-.823,3.162a25.428,25.428,0,0,0-.478,3.268,32.885,32.885,0,0,0-.186,3.481q0,1.834.133,3.667.106,1.514.292,3a23.313,23.313,0,0,0,.584,3.136q.372,1.754.9,3.481a33.672,33.672,0,0,0,1.275,3.534q.664,1.674,1.3,3.322a35.289,35.289,0,0,0,1.355,3.428q.478,1.063,1.009,2.126.426,1.036.9,2.046.451.957.93,1.913.425.983.956,1.94.452.877.93,1.78.851,1.7,1.834,3.349.85,1.54,1.833,3.029.877,1.329,1.834,2.578.877,1.2,1.833,2.312.876,1.01,1.833,1.993,1.356,1.488,2.6,2.684.824.824,1.7,1.594.77.8,1.541,1.515.771.664,1.541,1.3,1.408,1.115,2.843,2.072,1.223.878,2.471,1.7,1.223.664,2.418,1.249,1.647.824,3.427,1.648,1.117.372,2.233.771l2.126.584q1.063.187,2.072.372,1.01.053,1.967.16l1.94-.106q4.118-.957,4.836-1.2a14.181,14.181,0,0,1,1.594-.691,11.238,11.238,0,0,0,3-1.833,23.078,23.078,0,0,0,1.886-1.833,18,18,0,0,0,1.621-2.364,18.141,18.141,0,0,0,1.276-2.365,22.638,22.638,0,0,0,.8-2.418q.4-1.3.69-2.6a28.151,28.151,0,0,0,.426-2.87q.159-1.541.239-3.082.053-1.542.053-3.029-.052-1.567-.186-3.056-.159-1.834-.4-3.587-.292-1.834-.664-3.614-.425-1.833-.956-3.667-.506-1.755-1.063-3.481-.585-1.648-1.276-3.242-.665-1.673-1.382-3.374-.4-.93-.771-1.781-.4-.929-.823-1.806-.452-.957-.93-1.834a18.6,18.6,0,0,0-1.17-2.019q-.557-1.01-1.143-1.993-.637-.957-1.249-1.914-.637-.983-1.276-1.887-.664-.93-1.3-1.807-.665-.851-1.356-1.727-.664-.877-1.382-1.7-.69-.825-1.461-1.594-3.028-2.95-6.138-5.873-.958-.929-1.94-1.86a25.911,25.911,0,0,0-2.631-1.966,21.613,21.613,0,0,0-3.242-2.073q-1.063-.584-2.178-1.063l-2.817-1.169q-1.089-.425-2.259-.824-1.3-.345-2.6-.664a15.523,15.523,0,0,0-3.348-.638q-1.329-.106-2.551-.133-1.009.08-2.019.186-1.807.425-3.64.876Q-1352.511,661.875-1353.335,662.22Z" transform="translate(1365.133 -657.544)" fill="#aca99f" fill-rule="evenodd"/>
              </g>
            </g>
          </g>
          <g id="Grupo_10438" data-name="Grupo 10438" transform="translate(99.959 217.122)">
            <g id="Grupo_10437" data-name="Grupo 10437">
              <g id="Grupo_10432" data-name="Grupo 10432" transform="translate(16.136 17.591)">
                <path id="Trazado_10187" data-name="Trazado 10187" d="M-1141.714,837.241l-.531.292-1.2.664-.4.187-2.843-7.733,2.949-1.434,3.587-2.179,3.269-1.594a32.77,32.77,0,0,1,.106,3.587q0,1.488.187,4.677-.293.293-2.711,1.993Q-1139.775,835.966-1141.714,837.241Z" transform="translate(1146.683 -825.443)" fill="#b8d9ec" fill-rule="evenodd"/>
              </g>
              <g id="Grupo_10433" data-name="Grupo 10433" transform="translate(4.996)">
                <path id="Trazado_10188" data-name="Trazado 10188" d="M-1153.555,813.708a38.046,38.046,0,0,0,.4-19.611l3.189-1.754v19.185Zm-13.658,4.729a4.354,4.354,0,0,0,.026.478q.346,2.232.744,4.491a6.566,6.566,0,0,0,.718,3.162,2.073,2.073,0,0,0,1.781,1.249,10.967,10.967,0,0,0,3.906,4.783,9.8,9.8,0,0,1-6.272-5.66q-1.541-4.012-1.3-5.979Q-1167.32,818.969-1167.213,818.437Z" transform="translate(1167.644 -792.343)" fill="#969696" fill-rule="evenodd"/>
              </g>
              <g id="Grupo_10434" data-name="Grupo 10434" transform="translate(3.859 1.754)">
                <path id="Trazado_10189" data-name="Trazado 10189" d="M-1157.507,816.688l-4.145,1.568,1.647-2.179c-.159-.159-.327-.319-.5-.478a9.179,9.179,0,0,0-6.219-2.524h-1.249l.027-.771.345-.425q2.577-1.409,6.909,1.488a17.441,17.441,0,0,1,1.753,1.3l-.239.345.77-1.01a18.416,18.416,0,0,0,2.365-3.932,8.256,8.256,0,0,0,.531-4.491l-1.17-6.669,2.524-3.269a38.046,38.046,0,0,1-.4,19.611Zm4.438,6.882a8.29,8.29,0,0,1,.877,3.375,21.881,21.881,0,0,1-.372,3.321,7.475,7.475,0,0,1-1.169,3.427.79.79,0,0,1-.426-.478,25.759,25.759,0,0,0-1.036-8.1,1.44,1.44,0,0,0-.08-.292l1.01-.585Zm-15.146-3.587q-.107.532-.4,2.524-.24,1.967,1.3,5.979a9.8,9.8,0,0,0,6.272,5.66q.5.292.983.531,2.55,1.143,3.853-1.462-.053.346-.133.877a3.088,3.088,0,0,1-3.136,1.7q-4.49,0-7.493-4.358a16.757,16.757,0,0,1-2.817-9.7l.24-3.109a6.066,6.066,0,0,1,1.647-2.259,1.37,1.37,0,0,1,2.126.186q-.292-.053-.612-.106-.212.105.664.159a3.7,3.7,0,0,0-1.248.24A3.771,3.771,0,0,0-1168.216,819.983Z" transform="translate(1169.784 -795.643)" fill="#605c60" fill-rule="evenodd"/>
              </g>
              <g id="Grupo_10435" data-name="Grupo 10435" transform="translate(0 17.432)">
                <path id="Trazado_10190" data-name="Trazado 10190" d="M-1159.607,847.039a5.506,5.506,0,0,0,.345-.717q.823-2.763-.957-6.856l2.153-1.222.4-.187-1.01.585a1.432,1.432,0,0,1,.08.292,25.763,25.763,0,0,1,1.036,8.1.791.791,0,0,0,.426.478,7.474,7.474,0,0,0,1.169-3.427,21.886,21.886,0,0,0,.373-3.322,8.289,8.289,0,0,0-.877-3.375l.531-.292a3.438,3.438,0,0,0,.292,1.116,20.788,20.788,0,0,1,1.17,3.986,10.571,10.571,0,0,1-.585,5.66,9.368,9.368,0,0,1-1.834,3.242,5.432,5.432,0,0,1-2.657,1.594,10.12,10.12,0,0,1-5.367-.133,11.9,11.9,0,0,1-5.846-3.773,29.062,29.062,0,0,1-4.279-6.085,16.455,16.455,0,0,1-1.993-7.254,12.3,12.3,0,0,1,1.834-6.962,11.254,11.254,0,0,1,1.833-2.259,2.971,2.971,0,0,1,1.489-.743,8.866,8.866,0,0,1,3.4-.293,15.227,15.227,0,0,1,6.669,2.631l-.77,1.01.239-.345a17.434,17.434,0,0,0-1.753-1.3q-4.332-2.9-6.909-1.488l-.345.425-.027.771h1.249a9.18,9.18,0,0,1,6.219,2.524c.177.159.345.319.5.478l-1.647,2.179q-1.754-.877-3.535-1.568-.292-.08-.584-.133a1.37,1.37,0,0,0-2.126-.186,6.065,6.065,0,0,0-1.648,2.259l-.24,3.109a16.757,16.757,0,0,0,2.817,9.7q3,4.358,7.493,4.358a3.087,3.087,0,0,0,3.136-1.7Q-1159.661,847.386-1159.607,847.039Zm-7.919-10.469q1.462,0,1.462.957,0,.053-.053,1.594-.292,1.488-1.594,1.488a1.458,1.458,0,0,1-1.3-1.01,3.129,3.129,0,0,1-.345-1.355,2.314,2.314,0,0,1,.292-.851A1.648,1.648,0,0,1-1167.526,836.57Z" transform="translate(1177.044 -825.145)" fill="#2d2d2d" fill-rule="evenodd"/>
              </g>
              <g id="Grupo_10436" data-name="Grupo 10436" transform="translate(6.197 22.799)">
                <path id="Trazado_10191" data-name="Trazado 10191" d="M-1162.886,847.918a2.073,2.073,0,0,1-1.781-1.249,6.57,6.57,0,0,1-.717-3.162l.612-3.747q2.6-1.354,5.182-2.95l4.145-1.568,2.843,7.733-2.153,1.222q-1.354.664-3.959,2.073A28,28,0,0,1-1162.886,847.918Zm.823-6.617a1.648,1.648,0,0,0-1.541.824,2.314,2.314,0,0,0-.292.851,3.129,3.129,0,0,0,.345,1.355,1.458,1.458,0,0,0,1.3,1.01q1.3,0,1.594-1.488.053-1.542.053-1.594Q-1160.6,841.3-1162.062,841.3Z" transform="translate(1165.384 -835.243)" fill="#7aa6bc" fill-rule="evenodd"/>
              </g>
            </g>
          </g>
        </g>
        <g id="Grupo_10440" data-name="Grupo 10440" transform="translate(34.425 171.251)">
          <path id="Trazado_10192" data-name="Trazado 10192" d="M-1331.656,466.368a14.905,14.905,0,0,0,1.963,2.509,11.561,11.561,0,0,1,1.838,2.559,15.505,15.505,0,0,1,.969,2.385,9.784,9.784,0,0,0,1.068,2.335q.715,1.024,1.2,1.888l-5.9-1.963q-1.142.422-1.689.671a3.427,3.427,0,0,0-1.366,1.168,5.055,5.055,0,0,0,.05,1.192l.2,1.143,6.558,2.682a6.832,6.832,0,0,0-1.391,1.938,21.269,21.269,0,0,1-2.037,2.708q-.348.174-1.615.894-.993.571-1.615.944-1.441-.1-2.161-.174a9.74,9.74,0,0,1-2.086-.4,24.589,24.589,0,0,1-1.987-2.683q-1.342-2.038-1.888-2.733a13.375,13.375,0,0,1-1.466-2.335,3.756,3.756,0,0,1-.224-2.683,27.65,27.65,0,0,0,.522-4.944q.049-3.329.074-4.969a15.835,15.835,0,0,1,2.41-3.627,7.77,7.77,0,0,1,2.533-1.789q.944-.447,2.832-1.242A23.539,23.539,0,0,1-1331.656,466.368Z" transform="translate(1343.387 -461.847)" fill="#fed8c7" fill-rule="evenodd"/>
        </g>
      </g>
      <g id="Grupo_10442" data-name="Grupo 10442" transform="translate(-1358.173 447.666)">
        <path id="Trazado_10193" data-name="Trazado 10193" d="M-1291.83,732.257q0,3.324-2.051,4.5-2.03,1.208-4.906-.441a13.657,13.657,0,0,1-4.927-5.2,13.623,13.623,0,0,1-2.03-6.835q0-3.324,2.03-4.533,2.052-1.17,4.927.478a13.572,13.572,0,0,1,4.906,5.159A13.716,13.716,0,0,1-1291.83,732.257Z" transform="translate(1305.744 -719.262)" fill="#404040" fill-rule="evenodd"/>
      </g>
      <g id="Grupo_10443" data-name="Grupo 10443" transform="translate(-1383.114 230.401)">
        <path id="Trazado_10194" data-name="Trazado 10194" d="M-1351.408,314.331l8.629-3.663a1.678,1.678,0,0,1,2.506,1.038l1.93,4.777a1.743,1.743,0,0,1-1.056,2.549l-8.629,3.663a1.677,1.677,0,0,1-2.505-1.037l-1.93-4.777A1.743,1.743,0,0,1-1351.408,314.331Z" transform="translate(1352.673 -310.444)" fill="#fff" fill-rule="evenodd"/>
      </g>
    </g>
  </g>
</svg>
